<?xml version="1.0" encoding="UTF-8"?>
<svg xmlns="http://www.w3.org/2000/svg" id="Layer_1" viewBox="0 0 2560 521">
  <defs>
    <style>.cls-1{fill:#fff;}</style>
  </defs>
  <path class="cls-1" d="M521.76,388.69V196.08c70.09-3.74,101.49,45.69,101.49,101.92s-32.96,95.21-101.49,90.69m-71.99-254.89V454h69.77c109.93,0,175.23-68.12,175.23-157.38s-60.04-162.82-189.22-162.82h-55.78Z"></path>
  <polygon class="cls-1" points="1422.44 133.8 1350.26 133.8 1350.26 311.52 1153.29 128.36 1153.29 454 1225.45 454 1225.41 287.03 1422.44 466.91 1422.44 133.8"></polygon>
  <polygon class="cls-1" points="1453.2 196.08 1541.01 196.08 1541.01 454 1618.55 454 1618.55 196.08 1705.28 196.08 1705.28 133.8 1453.2 133.8 1453.2 196.08"></polygon>
  <polygon class="cls-1" points="1733.62 454 1733.62 133.8 1922.36 133.8 1922.36 194.69 1806.18 194.69 1806.18 262.79 1910.83 262.79 1910.83 324.51 1806.18 324.51 1806.18 392.65 1922.36 392.65 1922.36 454 1733.62 454"></polygon>
  <polygon class="cls-1" points="2424.1 133.8 2424.1 263.35 2300.29 263.35 2300.29 133.8 2228.09 133.8 2228.09 454 2300.29 454 2300.29 324.51 2424.1 324.51 2424.1 454 2496.25 454 2496.25 133.8 2424.1 133.8"></polygon>
  <polygon class="cls-1" points="659.83 133.8 823.78 462.77 863.25 379.33 743.71 133.8 659.83 133.8"></polygon>
  <polygon class="cls-1" points="986.31 122.74 946.57 205.85 980.32 291.28 905.54 291.28 880.33 344.25 1001 344.25 1046.5 454 1130.26 454 986.31 122.74"></polygon>
  <path class="cls-1" d="M1937.95,294.55c0,104.93,79.01,163.33,176.52,163.33,38.5,0,59.88-11.02,75.83-19.31v-75.83c-14.8,19.77-44.49,32.76-74.45,32.76-58.42,0-104.7-39.6-104.7-102.84s51.36-100.37,104.7-100.37c29.96,0,59.65,13.05,74.45,32.64v-70.25c-13.65-12.03-38.17-22.36-76.71-22.36-97.46,0-175.63,69.11-175.63,162.23"></path>
  <path class="cls-1" d="M432.3,454L248.84,54.09,63.75,454h90.54l26.25-66.89h131.32l26.25,66.89h94.19Zm-232.12-125.39l46.07-113.13,45.96,113.13h-92.04Z"></path>
</svg>
