<?xml version="1.0" encoding="UTF-8"?>
<svg xmlns="http://www.w3.org/2000/svg" width="20" height="21" viewBox="0 0 20 21" fill="none">
  <g clip-path="url(#clip0_692_2989)">
    <path d="M0.253906 7.24414H4.54117V20.1429H0.253906V7.24414Z" fill="white"></path>
    <path d="M2.42538 1.02539C0.958862 1.02539 0 1.98837 0 3.25409C0 4.49188 0.930328 5.48233 2.36908 5.48233H2.397C3.89221 5.48233 4.82269 4.49188 4.82269 3.25409C4.79477 1.98837 3.89221 1.02539 2.42538 1.02539Z" fill="white"></path>
    <path d="M15.0634 6.94141C12.7886 6.94141 11.7693 8.19156 11.1995 9.07062V7.24414H6.91211V20.1429H11.1994V12.9396C11.1994 12.554 11.2273 12.1691 11.3405 11.8933C11.6504 11.1232 12.3558 10.3255 13.5402 10.3255C15.0916 10.3255 15.7122 11.5084 15.7122 13.2424V20.1429H19.9991V12.7469C19.9991 8.78497 17.8839 6.94141 15.0634 6.94141Z" fill="white"></path>
  </g>
  <defs>
    <clipPath id="clip0_692_2989">
      <rect width="20" height="20" fill="white" transform="translate(0 0.556641)"></rect>
    </clipPath>
  </defs>
</svg>
