<?xml version="1.0" encoding="UTF-8"?>
<svg xmlns="http://www.w3.org/2000/svg" width="16" height="17" viewBox="0 0 16 17" fill="none">
  <g clip-path="url(#clip0_692_2965)">
    <path d="M8 0.556641C5.18859 0.556641 2.84375 2.82133 2.84375 5.71289C2.84375 6.81295 3.17431 7.79389 3.80872 8.71308L7.60541 14.6375C7.78959 14.9255 8.21078 14.9249 8.39459 14.6375L12.2078 8.69292C12.8285 7.81539 13.1562 6.78499 13.1562 5.71289C13.1562 2.86973 10.8432 0.556641 8 0.556641ZM8 8.05664C6.70772 8.05664 5.65625 7.00517 5.65625 5.71289C5.65625 4.42061 6.70772 3.36914 8 3.36914C9.29228 3.36914 10.3438 4.42061 10.3438 5.71289C10.3438 7.00517 9.29228 8.05664 8 8.05664Z" fill="url(#paint0_linear_692_2965)"></path>
    <path d="M11.6645 11.3281L9.30416 15.0183C8.69319 15.9709 7.30341 15.9678 6.69537 15.0192L4.33119 11.3291C2.25106 11.81 0.96875 12.6911 0.96875 13.7439C0.96875 15.5708 4.5915 16.5564 8 16.5564C11.4085 16.5564 15.0312 15.5708 15.0312 13.7439C15.0312 12.6903 13.7472 11.8088 11.6645 11.3281Z" fill="url(#paint1_linear_692_2965)"></path>
  </g>
  <defs>
    <linearGradient id="paint0_linear_692_2965" x1="0.864303" y1="7.70969" x2="17.1537" y2="7.70969" gradientUnits="userSpaceOnUse">
      <stop stop-color="#0E8CFA"></stop>
      <stop offset="0.7719" stop-color="#00AAFB"></stop>
    </linearGradient>
    <linearGradient id="paint1_linear_692_2965" x1="-1.7305" y1="13.944" x2="20.4824" y2="13.944" gradientUnits="userSpaceOnUse">
      <stop stop-color="#0E8CFA"></stop>
      <stop offset="0.7719" stop-color="#00AAFB"></stop>
    </linearGradient>
    <clipPath id="clip0_692_2965">
      <rect width="16" height="16" fill="white" transform="translate(0 0.556641)"></rect>
    </clipPath>
  </defs>
</svg>
