<?xml version="1.0" encoding="UTF-8"?>
<svg xmlns="http://www.w3.org/2000/svg" width="141" height="42" viewBox="0 0 141 42" fill="none">
  <path d="M53.3551 20.9424V30.9731C53.3551 35.0993 51.6477 37.0201 48.0196 37.0201C43.8223 37.0201 42.9331 33.7476 42.9331 30.9731V20.9424H41.6881V30.9731C41.6881 35.704 43.8223 38.1227 48.0196 38.1227C52.3591 38.1227 54.5645 35.7395 54.5645 30.9731V20.9424H53.3551Z" fill="white"></path>
  <path d="M62.5322 25.2822C60.647 25.2822 59.0108 26.2782 58.335 27.8433C58.335 27.2741 58.335 25.5668 58.335 25.5668H57.2323V37.6962H58.335V31.1513C58.335 28.199 59.9712 26.2782 62.5322 26.2782C65.8047 26.2782 65.8047 29.1238 65.8047 30.0842V37.7318H66.9074V30.262C66.8718 28.8748 66.8718 25.2822 62.5322 25.2822Z" fill="white"></path>
  <path d="M69.5752 25.5659V37.6953H70.6423V25.5659H70.5356H69.5752Z" fill="white"></path>
  <path d="M69.5752 21.8672V23.5034H70.6423V21.8672H70.5356H69.5752Z" fill="white"></path>
  <path d="M81.4556 25.5659C81.4556 25.5659 77.614 35.988 77.4717 36.3437C77.3295 35.988 73.2033 25.5659 73.2033 25.5659H71.9584L76.8315 37.6953H78.0764L82.665 25.5659H82.5227H81.4556Z" fill="white"></path>
  <path d="M88.5696 25.2822C87.1468 25.2822 85.9374 25.7802 85.0126 26.705C83.8388 27.8788 83.1985 29.7641 83.1985 31.8271C83.1629 33.7479 83.7676 35.3841 84.8703 36.5224C85.7951 37.4828 87.1112 37.9807 88.5696 37.9807C91.4863 37.9807 93.336 36.4157 93.834 33.5701L93.8695 33.4633H92.7669V33.5345C92.34 35.7043 90.8105 36.9848 88.6052 36.9848C87.4669 36.9848 86.5065 36.5935 85.7596 35.8465C84.8347 34.9217 84.3368 33.4633 84.3368 31.8627C84.3368 31.8627 84.3368 31.8627 84.3368 31.8271C84.5502 31.8271 93.9762 31.8271 93.9762 31.8271V31.7204C93.9762 31.5781 93.9762 31.4003 93.9762 31.258C93.9762 29.4084 93.4071 27.8077 92.4112 26.7406C91.4152 25.8158 90.1347 25.2822 88.5696 25.2822ZM88.5696 26.2782C91.2729 26.2782 92.7313 28.5902 92.838 30.9023C92.6246 30.9023 84.5502 30.9023 84.3368 30.9023C84.5502 28.5902 86.0441 26.2782 88.5696 26.2782Z" fill="white"></path>
  <path d="M96.9641 27.985C96.9641 27.4514 96.9641 25.5662 96.9641 25.5662H95.8615V37.6956H96.9641V31.0796C97.0708 29.2655 97.4621 28.5897 98.2802 27.7004C99.5607 26.4554 101.055 26.5266 101.482 26.5622H101.588V25.4951H101.482C99.5252 25.4239 97.6044 26.491 96.9641 27.985Z" fill="white"></path>
  <path d="M107.351 30.9734L106.995 30.9023C105.181 30.511 103.473 30.1553 103.473 28.448C103.473 26.8473 105.181 26.2426 106.817 26.2426C108.098 26.2426 110.232 26.6339 110.232 29.1949V29.3016H111.334V29.1949C111.334 26.6695 109.734 25.2822 106.817 25.2822C105.786 25.2822 102.406 25.4956 102.406 28.448C102.406 31.0801 104.825 31.5781 106.604 31.9338L106.924 32.005C108.809 32.3962 110.623 32.7519 110.623 34.566C110.623 36.7714 108.062 36.9848 106.959 36.9848C104.754 36.9848 103.26 35.6687 103.118 33.6056V33.4989H102.051V33.6056C102.122 36.2734 104.007 37.9452 106.995 37.9452C108.098 37.9452 111.761 37.6962 111.761 34.5304C111.655 32.005 109.698 31.4358 107.351 30.9734Z" fill="white"></path>
  <path d="M113.896 25.5659V37.6953H114.998V25.5659H114.891H113.896Z" fill="white"></path>
  <path d="M131.929 25.5665C131.929 25.5665 128.088 35.8107 127.91 36.2731C127.732 35.8107 123.535 25.5665 123.535 25.5665C123.535 25.5665 119.836 25.5665 119.658 25.5665C119.658 25.3886 119.658 21.8672 119.658 21.8672H119.551H118.555C118.555 21.8672 118.555 25.3886 118.555 25.5665C118.377 25.5665 116.35 25.5665 116.35 25.5665V26.5624C116.35 26.5624 118.377 26.5624 118.555 26.5624C118.555 26.7759 118.555 34.7791 118.555 34.7791C118.555 34.8503 118.555 34.9214 118.555 34.9925C118.555 35.9174 118.768 36.5932 119.266 37.0556C119.978 37.767 121.187 37.767 122.148 37.7314H122.254V36.771H122.148C121.152 36.8066 120.511 36.7355 120.12 36.3442C119.8 36.0596 119.658 35.5617 119.658 34.7791C119.658 34.7791 119.658 26.7403 119.658 26.5624C119.836 26.5624 122.574 26.5624 122.681 26.5624C122.717 26.7047 127.27 37.4825 127.305 37.5536C126.772 39.0831 126.452 39.9368 126.096 40.2925C125.527 40.8616 124.958 41.0395 123.677 41.0395H123.57V41.9999H123.677C124.993 41.9999 125.847 41.9643 126.523 41.4307C127.021 41.0395 127.412 40.1858 127.946 38.9408L133.103 25.602H131.929V25.5665Z" fill="white"></path>
  <path d="M113.896 21.8672V23.5034H114.998V21.8672H114.891H113.896Z" fill="white"></path>
  <path d="M69.255 18.3455C64.4175 18.2388 60.3625 14.5395 60.4692 9.38182C60.6115 5.32683 63.8484 0.738295 69.753 0.916145C73.8791 0.987285 78.4677 4.08188 78.361 9.77309C78.2187 15.4999 73.4167 18.4878 69.255 18.3455ZM69.4329 2.01882C65.7336 2.01882 63.1726 4.72214 63.1726 9.31068C63.1726 14.7885 66.4094 17.2428 69.4685 17.2428C73.1677 17.2428 75.6221 14.3972 75.6221 9.91537C75.6576 5.07784 73.1677 2.01882 69.4329 2.01882Z" fill="white"></path>
  <path d="M140.324 1.41403V1.16504H135.487V1.41403C136.447 1.48517 136.696 1.66302 136.696 3.01468V8.91932H128.017V3.01468C128.017 1.66302 128.266 1.4496 129.226 1.41403V1.16504H124.389V1.41403C125.349 1.48517 125.598 1.66302 125.598 3.01468V16.2468C125.598 17.5984 125.349 17.8118 124.389 17.8474V18.0964H129.226V17.8474C128.266 17.7763 128.017 17.5984 128.017 16.2468V9.95085H136.696V16.2823C136.696 17.634 136.447 17.8474 135.487 17.883V18.132H140.324V17.883C139.364 17.8118 139.115 17.634 139.115 16.2823V3.05025C139.115 1.66302 139.364 1.48517 140.324 1.41403Z" fill="white"></path>
  <path d="M79.6414 1.16504V1.41403C80.5662 1.4496 80.8507 1.55631 80.8507 2.55227V16.2823C80.8507 17.634 80.6017 17.8474 79.6414 17.883V18.132H83.3051V17.883C82.3447 17.8118 82.0957 17.634 82.0957 16.2823V3.9395C82.0957 4.15293 91.5218 15.6421 93.5848 18.132H93.9761V2.55227C93.9761 1.55631 94.2251 1.48517 95.1855 1.41403V1.16504H91.5929V1.41403C92.5177 1.4496 92.8023 1.55631 92.8023 2.55227V13.33L82.8427 1.16504H79.6414Z" fill="white"></path>
  <path d="M103.402 1.16504H103.082C102.228 3.19253 98.2445 12.583 96.8928 15.8199C96.6438 16.389 96.2526 17.2783 95.968 17.5984C95.7546 17.8474 95.5412 17.8474 95.3278 17.883V18.132H98.5646V17.883C98.3156 17.883 97.7465 17.883 97.711 17.385C97.711 17.2427 97.7465 17.0649 97.8177 16.887C97.9244 16.6025 98.5646 14.9307 99.3827 13.081H105.821C106.461 14.6461 107.03 15.9978 107.315 16.6025C107.386 16.7803 107.564 17.2071 107.564 17.385C107.564 17.8474 107.137 17.883 106.675 17.883V18.132H111.192V17.883C110.623 17.8474 110.445 17.7051 110.054 16.7803L103.402 1.16504ZM99.774 12.0139C100.877 9.31059 102.548 5.04218 102.548 5.04218C102.548 5.04218 104.078 8.88375 105.359 12.0139H99.774Z" fill="white"></path>
  <path d="M40.7278 1.16504V1.41403C41.2614 1.4496 41.5459 1.48517 41.7238 1.69859C41.7594 1.76973 41.8305 1.87644 41.8661 1.94758C41.9016 2.01872 41.9016 2.12543 41.9016 2.23214C41.9016 2.33885 41.9016 2.44556 41.9016 2.55227V16.2823C41.9016 17.634 41.6527 17.8474 40.6923 17.883V18.132H44.3204V17.883C43.36 17.8118 43.111 17.634 43.111 16.2823V4.50863C43.111 4.29521 43.0755 3.86836 43.0755 3.86836L43.2889 4.50863L49.1579 18.0608H49.5136L55.4894 4.11736L55.6673 3.54823C55.6673 3.54823 55.6317 3.83279 55.6317 4.08179V16.2823C55.6317 17.634 55.3827 17.8474 54.4223 17.883V18.132H59.2598V17.883C58.2995 17.8118 58.0505 17.634 58.0505 16.2823V2.55227C58.0505 1.55631 58.2995 1.48517 59.2598 1.41403V1.16504H55.4894L50.0828 13.9703L44.605 1.16504H40.7278Z" fill="white"></path>
  <path d="M112.01 16.9938C113.148 17.6697 114.82 18.3811 116.634 18.3811C116.67 18.3811 116.706 18.3811 116.741 18.3811C119.373 18.3455 122.183 16.3891 122.183 13.2946C122.183 9.95096 119.836 9.16842 117.488 7.95904C115.105 6.78523 114.109 6.18054 114.109 4.61545C114.109 3.54835 114.749 1.98327 116.883 1.98327C117.559 1.98327 118.164 2.16112 118.662 2.41011C120.369 3.3705 120.476 4.72216 120.689 5.57584H120.938L120.796 1.80542C119.693 1.34301 118.84 1.12958 118.235 1.05844C117.879 1.02287 117.524 0.987305 117.239 0.987305C114.856 0.987305 112.081 2.41011 112.081 5.39799C112.081 7.42549 113.291 8.70601 115.71 9.91539C118.093 11.1248 119.907 11.6228 119.907 14.006C119.907 15.2153 119.195 17.3495 116.528 17.3495C115.461 17.3495 114.607 16.9938 113.931 16.4247C112.33 14.9308 112.366 13.7214 112.259 13.259H112.01V16.9938Z" fill="white"></path>
  <path d="M24.9346 9.31059H24.6501V3.33481C24.8991 3.93951 24.9346 4.5442 24.9346 5.04218V9.31059ZM13.6233 6.92739C13.979 7.0341 14.3703 7.10524 14.7972 7.14081V6.85625C14.4415 6.82068 14.0502 6.74954 13.6945 6.64283C13.2321 6.53612 12.8052 6.42941 12.3784 6.42941C12.165 6.42941 11.9515 6.46498 11.7737 6.53612V6.85625C11.916 6.78511 12.1294 6.74954 12.3784 6.74954C12.7697 6.71397 13.1965 6.82068 13.6233 6.92739ZM10.173 6.71397C10.422 6.71397 10.6355 6.74954 10.7777 6.82068V6.50055C10.5999 6.42941 10.3865 6.39384 10.173 6.39384C9.7462 6.39384 9.31936 6.50055 8.85695 6.60726C8.50125 6.71397 8.14555 6.78511 7.75428 6.82068V7.10524C8.14555 7.06967 8.53682 6.99853 8.92809 6.89182C9.3905 6.82068 9.78177 6.71397 10.173 6.71397ZM10.173 6.00257C10.422 6.00257 10.6355 6.07371 10.7777 6.10928V5.78915C10.5999 5.71801 10.3865 5.71801 10.173 5.68244C9.7462 5.68244 9.31936 5.78915 8.85695 5.89586C8.50125 6.00257 8.14555 6.07371 7.75428 6.10928V6.39384C8.18112 6.35827 8.53682 6.28713 8.92809 6.18042C9.3905 6.07371 9.78177 5.967 10.173 6.00257ZM10.173 7.46094C10.422 7.46094 10.6355 7.49651 10.7777 7.56765V7.24752C10.5999 7.17638 10.3865 7.17638 10.173 7.14081C9.7462 7.14081 9.31936 7.24752 8.85695 7.35423C8.50125 7.46094 8.14555 7.53208 7.75428 7.56765V7.85221C8.18112 7.81664 8.53682 7.70993 8.92809 7.63879C9.3905 7.53208 9.78177 7.42537 10.173 7.46094ZM10.173 5.2556C10.422 5.2556 10.6355 5.32674 10.7777 5.36231V5.04218C10.5999 4.97104 10.3865 4.93547 10.173 4.93547C9.7462 4.93547 9.31936 5.04218 8.85695 5.14889C8.50125 5.2556 8.14555 5.32674 7.75428 5.36231V5.64687C8.14555 5.6113 8.53682 5.54016 8.92809 5.43345C9.3905 5.36231 9.78177 5.2556 10.173 5.2556ZM8.25226 27.0245C4.73082 21.2266 4.80196 15.5709 4.80196 14.8595V1.16504H31.4795V14.8595C31.4795 15.5709 31.5507 21.2266 28.0292 27.0245C24.8991 32.2889 20.1682 34.6009 18.1407 35.3123C16.1488 34.6009 11.418 32.2889 8.25226 27.0245ZM15.3663 25.9574L14.6549 25.3883L15.0461 24.5346L14.1213 24.7124L13.73 23.8943L13.3032 24.7124L12.414 24.5346L12.8052 25.3883L12.0938 25.9574L12.9831 26.1708V27.0956L13.73 26.5265L14.4415 27.0956V26.1708L15.3663 25.9574ZM19.1723 31.7553L20.0615 31.3285L19.1723 30.9372L19.4924 30.0124L18.5676 30.3681L18.1763 29.4788L17.785 30.3325L16.8602 29.9768L17.2159 30.9016L16.3267 31.2929L17.2159 31.7197L16.8602 32.6446L17.785 32.2889L18.1763 33.1781L18.5676 32.2889L19.4924 32.6446L19.1723 31.7553ZM17.2159 21.1554L16.5045 21.7601L17.3938 21.9735V22.8984L18.1052 22.3292L18.8521 22.8984L18.8877 21.9735L19.777 21.7601L19.0656 21.1554L19.4568 20.3017L18.532 20.4796L18.1407 19.6615L17.7495 20.4796L16.8246 20.3017L17.2159 21.1554ZM20.3461 26.9889L20.8796 26.4198L20.0971 26.2775L19.7414 25.5661L19.3857 26.2775L18.6031 26.4198L19.1723 26.9889L19.03 27.7715L19.7414 27.4158L20.4528 27.7715L20.3461 26.9889ZM22.9783 24.1789L23.4051 23.4675H22.587L22.1957 22.7561L21.8045 23.4675H20.9863L21.4132 24.1789L20.9863 24.8903H21.8045L22.1957 25.6017L22.587 24.8903H23.4051L22.9783 24.1789ZM29.2386 7.0341C29.0252 7.14081 28.8473 7.31866 28.7406 7.53208C28.6339 7.70993 28.5983 7.88778 28.5983 8.06563C28.5983 8.1012 28.5983 8.13677 28.5983 8.20791C28.7051 8.13677 28.8118 8.06563 28.9185 7.99449C28.9896 7.92335 29.0608 7.81664 29.1319 7.7455C29.203 7.60322 29.2386 7.3898 29.2386 7.21195C29.2386 7.14081 29.2386 7.06967 29.2386 7.0341ZM26.4641 11.1247C26.6776 11.2314 26.9265 11.2669 27.1755 11.2314C27.4245 11.1958 27.6024 11.0891 27.7802 10.9112C27.5668 10.8045 27.3534 10.769 27.1044 10.8045C26.8554 10.8401 26.642 10.9824 26.4641 11.1247ZM26.4641 10.7334C26.5708 10.5555 26.642 10.3421 26.642 10.1287C26.642 10.0931 26.642 10.0931 26.642 10.0576C26.4286 10.1643 26.2507 10.3065 26.1084 10.4844C26.0017 10.6622 25.9306 10.8757 25.9306 11.0891C25.9306 11.1247 25.9306 11.1247 25.9306 11.1602C26.1796 11.0891 26.3574 10.9468 26.4641 10.7334ZM26.7487 10.6622C26.7487 10.6622 26.7487 10.6978 26.7487 10.6622C26.8198 10.6622 26.8554 10.6622 26.891 10.6267C27.0333 10.52 27.1044 10.3777 27.1755 10.1998C27.2111 10.0931 27.2467 9.95085 27.2467 9.84414C27.2467 9.73743 27.2111 9.63072 27.1755 9.52401C27.0333 9.63072 26.9265 9.73743 26.8554 9.87971C26.8554 10.1998 26.8198 10.4488 26.7487 10.6622ZM27.4245 10.0931C27.4245 10.1287 27.4245 10.1287 27.4245 10.0931C27.4957 10.0931 27.5312 10.0576 27.5668 10.022C27.6735 9.87971 27.7091 9.73743 27.7447 9.55958C27.7447 9.52401 27.7447 9.48844 27.7447 9.45287C27.7447 9.27502 27.6735 9.0616 27.5668 8.88375C27.4601 9.02603 27.3534 9.16831 27.3178 9.31059C27.4245 9.63072 27.4601 9.84414 27.4245 10.0931ZM27.9225 9.38173C27.9225 9.4173 27.9225 9.4173 27.9225 9.38173C27.9937 9.38173 28.0292 9.34616 28.0648 9.27502C28.1004 9.16831 28.1359 9.0616 28.1359 8.91932C28.1359 8.88375 28.1359 8.81261 28.1359 8.77704C28.1004 8.56361 27.9936 8.35019 27.8158 8.17234C27.7447 8.31462 27.7091 8.49247 27.7091 8.63476C27.8158 8.91932 27.8869 9.13274 27.9225 9.38173ZM28.2782 8.56361C28.2782 8.59918 28.2782 8.59918 28.2782 8.56361C28.3493 8.52804 28.3494 8.49247 28.3849 8.42133C28.3849 8.38576 28.3849 8.38576 28.3849 8.35019C28.3849 8.20791 28.3493 8.06563 28.3138 7.92335C28.2426 7.70993 28.0648 7.56765 27.8514 7.42537C27.8158 7.49651 27.8158 7.60322 27.8158 7.67436C27.8158 7.7455 27.8158 7.81664 27.8514 7.88778C28.0648 8.13677 28.2071 8.35019 28.2782 8.56361ZM28.4205 7.70993C28.4561 7.67436 28.4916 7.60322 28.4916 7.56765C28.4561 7.3898 28.4205 7.24752 28.3138 7.10524C28.1715 6.92739 27.9937 6.78511 27.7447 6.71397C27.7447 6.89182 27.7802 7.06967 27.8514 7.21195C28.1004 7.31866 28.2782 7.49651 28.4205 7.70993ZM28.3849 6.6784C28.3138 6.50055 28.2426 6.35827 28.1004 6.25156C27.9225 6.10928 27.7447 6.03814 27.4957 6.00257C27.5312 6.18042 27.6024 6.3227 27.7091 6.42941C27.9581 6.50055 28.1715 6.64283 28.3493 6.78511H28.3849C28.3849 6.78511 28.3849 6.74954 28.3849 6.6784ZM28.1004 6.00257C28.1004 5.93143 28.0648 5.89586 28.0648 5.82472C27.9581 5.68244 27.8514 5.57573 27.7091 5.50459C27.4957 5.39788 27.2822 5.36231 27.0333 5.39788C27.14 5.54016 27.2111 5.68244 27.3534 5.78915C27.6379 5.78915 27.8869 5.86029 28.1004 6.00257ZM27.9581 10.5555C28.1715 10.4844 28.3493 10.3065 28.4916 10.0931C28.2426 10.0576 27.9936 10.0576 27.7802 10.1287C27.6024 10.1998 27.4245 10.3777 27.2822 10.5555C27.389 10.5555 27.5312 10.5911 27.6379 10.6267C27.7447 10.6267 27.8514 10.6267 27.9581 10.5555ZM28.5628 9.73743C28.7406 9.59515 28.8829 9.38173 28.9896 9.13274C28.7406 9.13274 28.4916 9.20388 28.3138 9.34616C28.1359 9.48844 27.9937 9.66629 27.9225 9.87971C28.0292 9.84414 28.1715 9.84414 28.2782 9.84414C28.3849 9.84414 28.4916 9.80857 28.5628 9.73743ZM29.203 8.1012C28.9896 8.17234 28.7762 8.27905 28.5983 8.4569C28.4561 8.63476 28.3849 8.84818 28.3493 9.09717C28.4561 9.0616 28.5628 9.02603 28.705 8.99046C28.8118 8.91932 28.8829 8.84818 28.954 8.77704C29.1319 8.59918 29.203 8.35019 29.203 8.1012ZM28.9896 5.967C28.8118 6.14485 28.6695 6.3227 28.5983 6.57169C28.5628 6.64283 28.5628 6.74954 28.5628 6.85625C28.5628 6.99853 28.5983 7.14081 28.6339 7.24752C28.7051 7.14081 28.8118 7.06967 28.8829 6.99853C28.954 6.89182 28.9896 6.78511 29.0252 6.6784C29.0608 6.60726 29.0608 6.50055 29.0608 6.42941C29.0963 6.28713 29.0608 6.14485 28.9896 5.967ZM28.2782 5.68244C28.2782 5.89586 28.3493 6.10928 28.4916 6.3227C28.5272 6.21599 28.5983 6.10928 28.6695 6.00257C28.7051 5.89586 28.7406 5.78915 28.7406 5.68244C28.7406 5.43345 28.6695 5.22003 28.5272 5.00661C28.3849 5.22003 28.2782 5.43345 28.2782 5.68244ZM27.7091 4.65091C27.7091 4.72205 27.7091 4.82876 27.7447 4.8999C27.7802 5.11332 27.9225 5.29117 28.1004 5.46902C28.1359 5.36231 28.1715 5.22003 28.2071 5.11332C28.2071 5.07775 28.2071 5.07775 28.2071 5.04218C28.2071 4.97104 28.2071 4.8999 28.1715 4.79319C28.1004 4.57977 27.9936 4.36635 27.7802 4.1885C27.7447 4.33078 27.7091 4.47306 27.7091 4.65091ZM27.6024 5.07775C27.4601 4.97104 27.3178 4.8999 27.1755 4.82876C26.9621 4.75762 26.7131 4.79319 26.4997 4.86433C26.6064 5.00661 26.7487 5.11332 26.891 5.18446C27.14 5.14889 27.4245 5.14889 27.6379 5.22003H27.6735C27.638 5.18446 27.6379 5.14889 27.6024 5.07775ZM26.9265 3.72608C26.9265 3.90393 26.9621 4.08179 27.0333 4.25964C27.14 4.47306 27.3178 4.61534 27.5312 4.72205C27.5312 4.57977 27.5312 4.47306 27.5668 4.33078C27.5312 4.22407 27.5312 4.11736 27.4601 4.04622C27.3534 3.83279 27.1755 3.65494 26.9621 3.54823C26.9265 3.61937 26.9265 3.65494 26.9265 3.72608ZM26.0017 3.79722C26.0729 4.04622 26.2151 4.25964 26.393 4.36635C26.5708 4.47306 26.7843 4.5442 26.9977 4.57977C26.9265 4.50863 26.891 4.43749 26.8198 4.33078C26.7843 4.25964 26.7487 4.15293 26.7131 4.08179C26.6776 4.04622 26.6776 4.04622 26.642 4.01065C26.4997 3.86836 26.2863 3.79722 26.0017 3.79722ZM23.2273 9.38173C23.2273 9.55958 23.3695 9.773 23.6897 9.773H24.2944C24.2232 9.98642 24.1521 10.3065 24.1521 10.6267C24.1521 11.0535 24.2232 11.4092 24.3655 11.6582C23.9031 11.5871 23.583 11.4804 23.2628 11.3025H23.2273L23.1561 11.4804H23.1917C23.4762 11.6226 23.7252 11.6938 24.0454 11.8005C24.0454 11.8005 24.2944 11.8361 24.4722 11.8716C24.4366 11.9072 24.4011 11.9783 24.4011 12.0495C24.4011 12.1918 24.5078 12.2985 24.6501 12.2985C24.7923 12.2985 24.8991 12.1918 24.8991 12.0495C24.8991 11.9783 24.8635 11.9072 24.8279 11.8716C25.0058 11.8361 25.2192 11.8005 25.2192 11.8005C25.5393 11.7294 25.8239 11.6582 26.1084 11.4804H26.144L26.0729 11.2669H26.0373C25.7172 11.4448 25.397 11.5515 24.9346 11.6226C25.0413 11.3737 25.148 11.018 25.148 10.5911C25.148 10.271 25.1125 9.95085 25.0058 9.73743H25.6105C25.9306 9.73743 26.0729 9.55958 26.0729 9.34616C26.0729 9.20388 25.9662 9.0616 25.7883 9.0616C25.646 9.0616 25.5037 9.16831 25.5037 9.34616C25.5037 9.38173 25.5037 9.4173 25.5393 9.45287C25.5749 9.48844 25.5749 9.55958 25.4682 9.55958H25.1125V5.04218C25.1125 4.43749 25.0769 3.69051 24.7212 2.97911L24.6145 2.76569L24.5078 2.97911C24.1521 3.69051 24.1165 4.43749 24.1165 5.04218V9.55958H23.7608C23.6541 9.55958 23.6897 9.48844 23.6897 9.45287C23.6897 9.4173 23.7252 9.38173 23.7252 9.34616C23.7252 9.20388 23.6185 9.0616 23.4762 9.0616C23.3695 9.09717 23.2273 9.23945 23.2273 9.38173ZM22.4803 9.91528C22.4091 9.773 22.3024 9.66629 22.1602 9.55958C22.1246 9.66629 22.089 9.773 22.089 9.87971C22.089 9.98642 22.1246 10.1287 22.1602 10.2354C22.1957 10.4133 22.3024 10.52 22.4091 10.6622C22.4447 10.6622 22.5159 10.6978 22.5514 10.6978V10.6622C22.4803 10.4488 22.4447 10.1998 22.4803 9.91528ZM22.2669 5.39788C22.0534 5.36231 21.8045 5.39788 21.591 5.50459C21.4488 5.57573 21.3065 5.68244 21.2353 5.82472C21.2353 5.89586 21.2353 5.93143 21.1998 6.00257H21.2353C21.4488 5.86029 21.6977 5.78915 21.9823 5.78915C22.089 5.68244 22.1957 5.54016 22.2669 5.39788ZM22.0179 9.34616C21.9823 9.20388 21.8756 9.0616 21.7689 8.91932C21.6622 9.09717 21.591 9.27502 21.591 9.48844C21.591 9.52401 21.591 9.55958 21.591 9.59515C21.591 9.773 21.6622 9.91528 21.7689 10.0576C21.8045 10.0931 21.8756 10.1287 21.9112 10.1643V10.1287C21.8756 9.84414 21.9112 9.63072 22.0179 9.34616ZM21.1998 8.95489C21.1998 9.0616 21.2353 9.16831 21.2709 9.31059C21.3065 9.34616 21.342 9.38173 21.3776 9.4173C21.3776 9.4173 21.3776 9.38173 21.4132 9.38173C21.4488 9.13274 21.5199 8.88375 21.6622 8.67033C21.6622 8.49248 21.591 8.35019 21.5199 8.20791C21.342 8.38576 21.2353 8.59918 21.1998 8.81261C21.1998 8.84818 21.1998 8.91932 21.1998 8.95489ZM21.4843 7.95892C21.5199 7.88778 21.5199 7.81664 21.5199 7.7455C21.5199 7.67436 21.4843 7.56765 21.4843 7.49651C21.2709 7.63879 21.1286 7.78107 21.0219 7.99449C20.9508 8.13677 20.9508 8.27905 20.9508 8.42133C20.9508 8.4569 20.9508 8.4569 20.9508 8.49248C20.9863 8.52805 21.0219 8.59918 21.0219 8.63476C21.0219 8.63476 21.0575 8.63476 21.0575 8.59918C21.1286 8.35019 21.2709 8.13677 21.4843 7.95892ZM20.9508 6.6784C20.9508 6.71397 20.9508 6.78511 20.9508 6.82068H20.9863C21.1642 6.64283 21.3776 6.53612 21.6266 6.46498C21.7333 6.3227 21.8045 6.18042 21.84 6.03814C21.591 6.07371 21.3776 6.14485 21.1998 6.28713C21.0931 6.35827 20.9863 6.53612 20.9508 6.6784ZM20.8441 7.56765C20.8796 7.60322 20.8796 7.67436 20.8796 7.7455C20.8796 7.7455 20.8796 7.7455 20.9152 7.7455C21.0575 7.53208 21.2353 7.35423 21.4843 7.24752C21.5555 7.10524 21.591 6.92739 21.591 6.74954C21.342 6.82068 21.1642 6.96296 21.0219 7.14081C20.9152 7.24752 20.8441 7.3898 20.8441 7.56765ZM20.7018 8.4569C20.5595 8.27905 20.3461 8.17234 20.0971 8.1012C20.1327 8.35019 20.2038 8.56361 20.3461 8.74147C20.4172 8.81261 20.5239 8.88375 20.5951 8.95489C20.7018 8.99046 20.8085 9.02603 20.9152 9.0616C20.9152 8.84818 20.8441 8.63476 20.7018 8.4569ZM20.3461 9.13274C20.4172 9.38173 20.5595 9.59515 20.7374 9.73743C20.8085 9.80857 20.9152 9.84414 21.0219 9.87971C21.1642 9.87971 21.2709 9.87971 21.3776 9.91528C21.2709 9.70186 21.1642 9.48844 20.9863 9.38173C20.8441 9.20388 20.5951 9.13274 20.3461 9.13274ZM20.8441 10.1287C20.9863 10.3421 21.1286 10.4844 21.3776 10.5911C21.4843 10.6267 21.591 10.6622 21.6977 10.6622C21.8045 10.6267 21.9467 10.6267 22.0534 10.5911C21.9112 10.4133 21.7333 10.2354 21.5555 10.1643C21.342 10.0576 21.0931 10.0576 20.8441 10.1287ZM21.5555 10.9468C21.7333 11.1247 21.9467 11.2314 22.1957 11.2669C22.4091 11.3025 22.6581 11.2314 22.8716 11.1602C22.6937 10.9824 22.4803 10.8757 22.2313 10.8401C22.0179 10.769 21.7689 10.8401 21.5555 10.9468ZM23.4051 11.1602C23.4051 11.1247 23.4051 11.1247 23.4051 11.0891C23.4051 10.8757 23.334 10.6622 23.2273 10.4844C23.085 10.3065 22.9071 10.1643 22.6937 10.0576C22.6937 10.0931 22.6937 10.0931 22.6937 10.1287C22.6937 10.3421 22.7649 10.5555 22.8716 10.7334C22.9783 10.9468 23.1561 11.0891 23.4051 11.1602ZM22.4803 4.33078C22.4447 4.40192 22.3736 4.50863 22.3024 4.57977C22.5159 4.57977 22.7293 4.50863 22.9071 4.36635C23.085 4.22407 23.2273 4.01065 23.334 3.79722C23.085 3.79722 22.836 3.86836 22.6581 4.01065C22.6226 4.04622 22.6226 4.04622 22.587 4.08179C22.5514 4.15293 22.5159 4.25964 22.4803 4.33078ZM21.7689 4.33078C21.8045 4.47306 21.8045 4.57977 21.8045 4.72205C22.0179 4.61534 22.1957 4.43749 22.2669 4.25964C22.3736 4.08179 22.4091 3.90393 22.4091 3.72608C22.4091 3.65494 22.4091 3.61937 22.3736 3.54823C22.1602 3.65494 21.9823 3.83279 21.8756 4.04622C21.84 4.15293 21.8045 4.22407 21.7689 4.33078ZM21.6622 5.2556C21.6622 5.2556 21.6977 5.2556 21.6622 5.2556C21.9467 5.18446 22.1957 5.18446 22.4447 5.22003C22.587 5.14889 22.7293 5.04218 22.836 4.8999C22.6226 4.82876 22.3736 4.79319 22.1602 4.86433C21.9823 4.8999 21.84 4.97104 21.7333 5.11332C21.6977 5.14889 21.6977 5.18446 21.6622 5.2556ZM21.0931 5.04218C21.0931 5.07775 21.0931 5.07775 21.0931 5.11332C21.1642 5.22003 21.1998 5.36231 21.1998 5.46902C21.3776 5.29117 21.4843 5.11332 21.5555 4.8999C21.591 4.82876 21.591 4.72205 21.591 4.65091C21.591 4.50863 21.5555 4.33078 21.4843 4.1885C21.3065 4.36635 21.1642 4.5442 21.0931 4.79319C21.1286 4.86433 21.0931 4.93547 21.0931 5.04218ZM20.5951 5.68244C20.5951 5.78915 20.6306 5.89586 20.6662 6.00257C20.7374 6.10928 20.8085 6.21599 20.8441 6.3227C20.9508 6.14485 21.0575 5.93143 21.0575 5.68244C21.0575 5.46902 20.9508 5.22003 20.8441 5.00661C20.7018 5.22003 20.5951 5.43345 20.5951 5.68244ZM20.2394 6.42941C20.2394 6.53612 20.2394 6.60726 20.2749 6.6784C20.3105 6.78511 20.3461 6.89182 20.4172 6.99853C20.5239 7.06967 20.5951 7.14081 20.6662 7.24752C20.7018 7.10524 20.7374 6.96296 20.7374 6.85625C20.7374 6.74954 20.7374 6.6784 20.7018 6.57169C20.6306 6.35827 20.4884 6.14485 20.3105 5.967C20.2749 6.10928 20.2394 6.28713 20.2394 6.42941ZM20.0615 7.17638C20.0615 7.35423 20.0971 7.56765 20.2038 7.70993C20.2394 7.81664 20.3105 7.88778 20.4172 7.95892C20.5239 7.99449 20.6306 8.06563 20.7374 8.13677C20.7374 8.1012 20.7374 8.03006 20.7374 7.99449C20.7374 7.81664 20.7018 7.63879 20.5951 7.46094C20.4884 7.24752 20.3105 7.06967 20.0615 6.96296C20.0615 7.06967 20.0615 7.14081 20.0615 7.17638ZM11.418 9.98642C11.667 9.80857 11.9871 9.73743 12.3784 9.73743C12.8052 9.73743 13.2321 9.80857 13.6945 9.95085C14.1569 10.0576 14.6904 10.1998 15.1884 10.1643C15.1884 9.91528 15.1884 4.93547 15.1884 4.01065C15.1884 3.93951 15.1884 3.90393 15.1884 3.86836C14.6549 3.90393 14.1213 3.76165 13.6233 3.65494C13.1965 3.54823 12.7697 3.44152 12.414 3.47709C11.8804 3.47709 11.5958 3.65494 11.418 3.79722V4.01065V9.98642ZM7.39858 10.1287C7.89656 10.1643 8.39454 10.0576 8.89252 9.91528C9.35493 9.80857 9.78177 9.70186 10.2086 9.70186C10.5999 9.70186 10.92 9.80857 11.169 9.95085V4.01065V3.79722C10.9912 3.61937 10.7066 3.47709 10.173 3.47709C9.78177 3.47709 9.3905 3.54823 8.96366 3.65494C8.46568 3.79722 7.9677 3.90393 7.39858 3.86836C7.39858 3.90393 7.39858 3.93951 7.39858 4.01065C7.39858 4.8999 7.39858 9.91528 7.39858 10.1287ZM6.43818 11.1247C6.43818 11.1247 10.5999 11.1247 10.7422 11.1247C10.8489 11.3025 11.0267 11.4448 11.2757 11.4448C11.5247 11.4448 11.7381 11.3025 11.8093 11.1247C11.9515 11.1247 16.1132 11.1247 16.1132 11.1247V4.01065H15.971H15.5797L15.6153 4.15293V4.1885V10.6267C15.2951 10.6267 11.8093 10.6267 11.6314 10.6267C11.5603 10.7334 11.4891 10.769 11.2757 10.769C11.0979 10.769 11.0267 10.7334 10.9556 10.6267C10.7777 10.6267 7.57643 10.6267 6.93616 10.6267V4.1885V4.15293L6.97174 4.01065H6.43818V11.1247ZM8.00327 25.3883L18.1407 16.2823L28.3138 25.4238C28.9896 24.1433 29.452 22.8984 29.8433 21.7245L18.1407 11.1958L6.47375 21.689C6.82945 22.8628 7.32744 24.1077 8.00327 25.3883ZM10.173 8.17234C10.422 8.17234 10.6355 8.20791 10.7777 8.27905V7.95892C10.5999 7.88778 10.3865 7.88778 10.173 7.85221C9.7462 7.85221 9.31936 7.95892 8.85695 8.06563C8.50125 8.17234 8.14555 8.24348 7.75428 8.27905V8.56361C8.14555 8.52804 8.53682 8.42133 8.92809 8.35019C9.3905 8.27905 9.78177 8.17234 10.173 8.17234ZM10.173 8.91932C10.422 8.91932 10.6355 8.95489 10.7777 9.02603V8.70589C10.5999 8.63475 10.3865 8.59918 10.173 8.59918C9.7462 8.59918 9.31936 8.7059 8.85695 8.81261C8.50125 8.91932 8.14555 8.99046 7.75428 9.02603V9.31059C8.14555 9.27502 8.53682 9.16831 8.92809 9.09717C9.3905 8.99046 9.78177 8.88375 10.173 8.91932ZM10.173 4.5442C10.422 4.5442 10.6355 4.61534 10.7777 4.65091V4.33078C10.5999 4.25964 10.3865 4.25964 10.173 4.22407C9.7462 4.22407 9.31936 4.33078 8.85695 4.43749C8.50125 4.5442 8.14555 4.61534 7.75428 4.65091V4.93547C8.14555 4.8999 8.53682 4.82876 8.92809 4.72205C9.3905 4.61534 9.78177 4.5442 10.173 4.5442ZM13.6233 6.21599C13.979 6.3227 14.3703 6.39384 14.7972 6.42941V6.14485C14.4415 6.10928 14.0502 6.03814 13.6945 5.93143C13.2321 5.82472 12.8052 5.71801 12.3784 5.71801C12.165 5.71801 11.9515 5.75358 11.7737 5.82472V6.14485C11.916 6.07371 12.1294 6.03814 12.3784 6.03814C12.7697 5.967 13.1965 6.07371 13.6233 6.21599ZM13.6233 4.75762C13.979 4.86433 14.3703 4.93547 14.7972 4.97104V4.68648C14.4415 4.65091 14.0502 4.57977 13.6945 4.47306C13.2321 4.36635 12.8052 4.25964 12.3784 4.25964C12.165 4.25964 11.9515 4.29521 11.7737 4.36635V4.68648C11.916 4.61534 12.1294 4.57977 12.3784 4.57977C12.7697 4.5442 13.1965 4.61534 13.6233 4.75762ZM13.6233 7.63879C13.979 7.70993 14.4059 7.81664 14.7972 7.85221V7.56765C14.4059 7.53208 14.0502 7.46094 13.6945 7.35423C13.2321 7.24752 12.8052 7.14081 12.414 7.14081C12.2005 7.14081 11.9871 7.17638 11.8093 7.21195V7.53208C11.9515 7.46094 12.165 7.42537 12.414 7.42537C12.7697 7.42537 13.1965 7.53208 13.6233 7.63879ZM13.6233 5.46902C13.979 5.57573 14.3703 5.64687 14.7972 5.68244V5.39788C14.4415 5.36231 14.0502 5.29117 13.6945 5.18446C13.2321 5.07775 12.8052 4.97104 12.3784 4.97104C12.165 4.97104 11.9515 5.00661 11.7737 5.07775V5.39788C11.916 5.32674 12.1294 5.29117 12.3784 5.29117C12.7697 5.2556 13.1965 5.36231 13.6233 5.46902ZM13.6233 8.38576C13.979 8.49247 14.3703 8.56361 14.7972 8.59918V8.31462C14.4415 8.27905 14.0502 8.17234 13.6945 8.1012C13.2321 7.99449 12.8052 7.88778 12.3784 7.88778C12.165 7.88778 11.9515 7.92335 11.7737 7.99449V8.31462C11.916 8.24348 12.1294 8.20791 12.3784 8.20791C12.7697 8.17234 13.1965 8.27905 13.6233 8.38576ZM13.6233 9.09717C13.979 9.20388 14.3703 9.27502 14.7972 9.31059V9.02603C14.4415 8.99046 14.0502 8.91932 13.6945 8.81261C13.2321 8.7059 12.8052 8.59918 12.3784 8.59918C12.165 8.59918 11.9515 8.63475 11.7737 8.70589V9.02603C11.916 8.95489 12.1294 8.91932 12.3784 8.91932C12.7697 8.88375 13.1965 8.99046 13.6233 9.09717ZM36.317 24.2144L36.2459 24.3923C35.5701 26.6332 34.4318 28.8741 33.6137 30.3325L33.4359 30.6171L32.2621 29.55C32.2265 29.6211 32.1553 29.7278 32.1198 29.799C29.1319 34.5653 24.9346 38.0156 19.9192 39.8653L18.1407 40.5055L16.3622 39.8653C11.3824 38.0512 7.14959 34.5653 4.19727 29.799C4.1617 29.7278 4.12613 29.6211 4.05499 29.55L2.84561 30.6171L2.66776 30.2969C1.84964 28.803 0.746972 26.5621 0.0355701 24.3567L0 24.2144L2.88118 21.6178L3.23688 21.2977L3.37916 21.7245C3.52144 22.2581 3.69929 22.7561 3.87714 23.2541L4.69525 22.5071L5.01538 22.2225L5.15766 22.6494C5.76235 24.4634 6.58046 26.1708 7.54086 27.7003C10.0663 31.7197 13.5878 34.6365 17.7495 36.166C17.7495 36.166 18.034 36.2727 18.1763 36.3083C18.3186 36.2727 18.6031 36.166 18.6031 36.166C22.7648 34.6365 26.3219 31.7197 28.8118 27.7003C29.7722 26.1708 30.5903 24.4634 31.195 22.6494L31.3372 22.2225L32.4755 23.2541C32.6533 22.7561 32.8312 22.2581 32.9735 21.7245L33.1157 21.2977L36.317 24.2144ZM2.38319 28.4829L1.84964 25.1037L3.41473 23.6809C3.23688 23.2541 3.0946 22.7916 2.95232 22.3292C2.48991 22.7561 0.889252 24.1789 0.675831 24.3923C1.13824 25.8151 1.74293 27.2379 2.38319 28.4829ZM3.77043 29.052C3.41473 28.4473 3.05903 27.807 2.77447 27.1668L3.16574 29.6211C3.27245 29.4788 3.52144 29.2654 3.77043 29.052ZM33.5426 27.1668C33.258 27.807 32.9023 28.4473 32.5466 29.052C32.7956 29.2654 33.009 29.4788 33.1513 29.6211L33.5426 27.1668ZM33.756 25.2104C33.507 24.997 31.9775 23.6098 31.5507 23.2185C30.946 24.9258 30.199 26.5621 29.2742 28.0204C26.7131 32.1466 23.085 35.1345 18.781 36.7351L18.1407 36.9485L17.536 36.7351C13.2321 35.17 9.63949 32.1466 7.04287 28.0204C6.11805 26.5621 5.37108 24.9258 4.76639 23.2185C4.30398 23.6098 2.81004 24.997 2.56105 25.2104C3.13017 26.7044 3.87714 28.1627 4.69525 29.4788C7.612 34.1385 11.7381 37.5177 16.6112 39.2962C16.6112 39.2962 18.034 39.7941 18.1763 39.8653C18.3542 39.7941 19.777 39.2962 19.777 39.2962C24.6501 37.5177 28.7762 34.1029 31.6929 29.4788C32.4399 28.1983 33.1869 26.7399 33.756 25.2104ZM35.6412 24.3567C35.4278 24.1433 33.8271 22.7205 33.3647 22.2937C33.2225 22.7561 33.0802 23.2185 32.9023 23.6453L34.4674 25.0681L33.9339 28.4829C34.5385 27.2379 35.1788 25.8151 35.6412 24.3567ZM4.97981 28.6963L5.01538 28.8386L4.90867 28.9097C4.83753 28.803 4.80196 28.6963 4.73082 28.554C4.65968 28.4473 4.58854 28.3406 4.5174 28.1983L4.62411 28.1627L4.73082 28.2694C4.83753 28.1627 5.01538 28.0204 5.08652 27.8782L4.83753 27.4158L4.33955 27.5225L4.37512 27.6647L4.30398 27.7003C4.26841 27.5936 4.19727 27.5225 4.1617 27.4158C4.12613 27.3446 4.09056 27.2735 4.01942 27.1668L4.12613 27.1312L4.23284 27.2379C4.58854 27.2379 5.33551 27.0956 5.79792 27.0245C5.86906 27.1312 5.97577 27.2023 6.04691 27.2735L6.08248 27.4158L5.62007 27.9849C5.37108 28.2339 5.08652 28.5896 4.97981 28.6963ZM5.26437 27.7359L5.69121 27.2735L5.05095 27.4158L5.26437 27.7359ZM7.86099 30.3681L7.93213 30.2969C7.86099 30.2258 7.82542 30.1547 7.75428 30.0479C7.68314 29.9768 7.64757 29.8701 7.57643 29.799L7.46972 29.8701L7.54086 30.0124C7.29187 30.1902 6.72274 30.6526 6.72274 30.6526C6.86502 30.2258 7.04287 29.7278 7.22073 29.301C7.14959 29.2298 7.11402 29.1587 7.04287 29.0875C7.0073 29.0164 6.93616 28.9453 6.90059 28.8741L6.82945 28.9453L6.90059 29.0875C6.79388 29.1943 6.68717 29.2654 6.54489 29.3721L6.15362 29.6567C6.01134 29.7634 5.90463 29.8345 5.76235 29.9057L5.65564 29.799L5.5845 29.8701C5.65564 29.9412 5.69121 30.0124 5.76235 30.1191C5.83349 30.1902 5.86906 30.2969 5.9402 30.3681L6.01134 30.2969L5.90463 30.1191C6.15362 29.9412 6.47375 29.6922 6.75831 29.4788C6.58046 29.9057 6.43818 30.3681 6.26033 30.8661C6.2959 30.9016 6.33147 30.9728 6.36704 31.0083C6.40261 31.0439 6.43818 31.115 6.47375 31.1506C6.61603 31.0439 6.75831 30.9016 6.97174 30.7593L7.36301 30.4748C7.50529 30.3681 7.64757 30.2969 7.75428 30.2258L7.86099 30.3681ZM8.00327 31.6842C7.612 32.0399 7.64757 32.5734 7.9677 32.8935C8.18112 33.107 8.39454 33.2492 8.78581 33.2848L8.82138 33.0714C8.60796 33.0358 8.43011 32.9647 8.3234 32.8224C8.07441 32.5734 8.07441 32.2177 8.35897 31.9332C8.64353 31.6486 8.96366 31.7553 9.14151 31.9687C9.24822 32.0754 9.31936 32.2177 9.31936 32.36L9.24822 32.5023L9.31936 32.609C9.42607 32.5378 9.56835 32.4311 9.67506 32.3956C9.60392 32.1821 9.49721 32.0399 9.35493 31.862C8.96366 31.3996 8.39454 31.3285 8.00327 31.6842ZM11.4536 34.9566C11.1334 35.3479 10.6355 35.3835 10.1375 34.9922C9.67506 34.6009 9.60392 34.1385 9.95962 33.6761C10.2798 33.2848 10.8133 33.2492 11.2757 33.6405C11.7381 34.0318 11.8093 34.5298 11.4536 34.9566ZM11.0979 33.8539C10.8489 33.6405 10.5287 33.7472 10.2798 33.9962C10.0308 34.2808 10.0308 34.6009 10.2798 34.8143C10.5287 35.0278 10.8489 34.921 11.0979 34.6721C11.3113 34.3875 11.3469 34.0318 11.0979 33.8539ZM13.9435 36.1304C13.8368 36.3438 13.5878 36.3794 13.3388 36.2727C13.3743 36.4506 13.4455 37.0552 13.4811 37.162L13.5166 37.2331L13.4455 37.3398C13.3032 37.2331 13.1254 37.162 12.9831 37.0908C12.9831 36.8063 12.9475 36.3794 12.9119 36.1304L12.8052 36.0593L12.7341 36.2016C12.6274 36.3438 12.5562 36.4861 12.5207 36.5928L12.6274 36.6995L12.5562 36.8063C12.4495 36.7351 12.3428 36.664 12.2361 36.5928C12.1294 36.5217 12.0227 36.4506 11.8804 36.3794L11.9515 36.2727L12.0938 36.3438C12.2005 36.2371 12.2717 36.0949 12.3784 35.9526L12.6274 35.5257C12.7341 35.3835 12.8052 35.2412 12.8764 35.1345L12.7697 35.0278L12.8408 34.921C12.9119 34.9922 13.0186 35.0278 13.0898 35.0989C13.1965 35.17 13.3032 35.2056 13.4099 35.2767C13.5166 35.3479 13.6233 35.3835 13.73 35.4546C14.0857 35.668 14.0858 35.917 13.9435 36.1304ZM13.4099 35.5257C13.3032 35.4546 13.2676 35.4546 13.1965 35.419C13.1609 35.4902 13.0898 35.5969 13.0186 35.7036L12.9475 35.8103C12.9831 35.8459 13.0186 35.8814 13.0542 35.917C13.2676 36.0593 13.4455 36.0593 13.5522 35.8814C13.6233 35.7392 13.5878 35.6324 13.4099 35.5257ZM16.1132 37.4465C16.0777 37.7666 16.0421 38.2291 16.0421 38.4069L16.1488 38.4781L16.1132 38.5848C16.0065 38.5136 15.8643 38.4781 15.7575 38.4069C15.6508 38.3358 15.5086 38.3002 15.4018 38.2646L15.4374 38.1579L15.5797 38.1935C15.6153 38.0512 15.6508 37.8378 15.6508 37.6955L15.1529 37.4821L14.8327 37.8734L14.9394 37.9445L14.9039 38.0512C14.7972 38.0156 14.6904 37.9445 14.6193 37.9089C14.5482 37.8734 14.4415 37.8378 14.3703 37.8022L14.4059 37.6955L14.5482 37.7311C14.8327 37.5177 15.3307 36.9841 15.6864 36.5928C15.8287 36.6284 15.9354 36.6284 16.0421 36.664L16.1844 36.7707L16.1132 37.4465ZM15.7575 36.8063L15.3307 37.3042L15.6864 37.4821L15.7575 36.8063ZM20.9863 38.0512C20.9152 37.9089 20.8441 37.8022 20.7729 37.6244L20.5951 37.1975C20.5239 37.0197 20.4528 36.913 20.4172 36.7707L20.5595 36.6995L20.5239 36.5928C20.4172 36.664 20.2749 36.6995 20.1682 36.7707C20.0615 36.8063 19.9192 36.8774 19.8125 36.913L19.8481 37.0197L19.9904 36.9841C20.0615 37.1264 20.1327 37.2331 20.2038 37.4109L20.3817 37.8378C20.4528 38.0156 20.4884 38.1223 20.5595 38.2646L20.4172 38.3358L20.4528 38.4425C20.5595 38.3713 20.7018 38.3358 20.8085 38.2646C20.9152 38.2291 21.0575 38.1579 21.1642 38.1223L21.1286 38.0156L20.9863 38.0512ZM24.0454 36.415C23.9742 36.3083 23.8675 36.166 23.7964 36.0237L23.5474 35.5969C23.4407 35.4546 23.3695 35.3123 23.334 35.2056L23.4407 35.0989L23.3695 34.9922C23.2628 35.0633 23.1561 35.1345 23.085 35.17C22.9783 35.2412 22.8716 35.2767 22.7648 35.3479C22.836 35.5613 22.9783 36.415 23.0138 36.5928C22.836 36.4506 22.1957 35.9526 22.0534 35.7747C21.9467 35.8459 21.84 35.917 21.7689 35.9526C21.6622 36.0237 21.5555 36.0593 21.4488 36.1304L21.5199 36.2371L21.6622 36.2016L21.7689 36.415C21.8756 36.6284 22.2669 37.2687 22.338 37.4465L22.2313 37.5532L22.3024 37.6599C22.3736 37.6244 22.4803 37.5532 22.5514 37.5177C22.6226 37.4821 22.7293 37.4109 22.8004 37.3754L22.7293 37.2687L22.587 37.3398C22.5159 37.2331 22.4091 37.0908 22.338 36.9485L22.1957 36.6995C22.089 36.4861 21.9823 36.3438 21.9467 36.2727C22.5514 36.8063 22.9071 37.0552 23.0494 37.1975L23.2628 37.0552L22.9783 35.6324C23.0138 35.7036 23.1206 35.8459 23.2273 36.0593L23.3695 36.3083C23.4762 36.4506 23.5118 36.5928 23.583 36.7351L23.4762 36.8418L23.5118 36.9485C23.6185 36.8774 23.7252 36.8063 23.832 36.7351C23.9387 36.664 24.0809 36.5928 24.1877 36.5217L24.1521 36.415H24.0454ZM25.6816 35.17C25.5749 35.0633 25.4682 34.9566 25.3615 34.8143L25.148 34.5298C25.0413 34.4231 24.9346 34.2808 24.8635 34.1385C24.8991 34.1029 24.9346 34.0318 25.0058 33.9962C25.1836 33.8539 25.3259 33.8895 25.4326 33.9962C25.5393 34.1385 25.5749 34.3163 25.397 34.4231C25.3615 34.4586 25.3259 34.4942 25.2903 34.4942L25.3615 34.7076C25.4326 34.6721 25.5037 34.6009 25.5749 34.5653C25.9306 34.2808 25.9306 33.9251 25.7527 33.6761C25.5749 33.4627 25.2903 33.4271 25.0058 33.6761C24.9346 33.7472 24.8635 33.8184 24.7568 33.8895C24.6501 33.9962 24.5434 34.0674 24.4722 34.1385C24.4011 34.2096 24.2944 34.2808 24.1877 34.3519L24.2588 34.4231L24.4011 34.3519C24.5078 34.4586 24.6145 34.5653 24.7212 34.7076L25.0058 35.0989C25.1125 35.2412 25.2192 35.3479 25.2903 35.4546L25.1836 35.5613L25.2548 35.6324C25.3615 35.5613 25.4682 35.4546 25.5749 35.3835C25.6816 35.3123 25.7883 35.2412 25.9306 35.0989L25.8594 35.0278L25.6816 35.17ZM28.4916 32.609L28.5628 32.6801C28.4561 32.7513 28.3849 32.858 28.2782 32.9647C28.1715 33.0714 28.1004 33.1781 27.9936 33.2492L27.9225 33.1781L27.9936 33.0714C27.8869 33.0003 27.6735 32.8935 27.5312 32.8224L27.14 33.2137L27.389 33.6405L27.4957 33.5694L27.5668 33.6405C27.4957 33.7117 27.4245 33.7828 27.3534 33.8539C27.2822 33.9251 27.2111 33.9962 27.1755 34.0674L27.1044 33.9962L27.1755 33.8895C27.0688 33.5694 26.7131 32.8935 26.4997 32.4311C26.5708 32.3244 26.642 32.2177 26.6776 32.111L26.8198 32.0399L27.4601 32.3244C27.7447 32.4667 28.1715 32.6446 28.3138 32.6801L28.4916 32.609ZM27.389 32.7157L26.7843 32.4311L27.1044 33.0003L27.389 32.7157ZM30.3057 30.2969L30.3768 30.3681C30.2701 30.5104 30.1634 30.6526 30.0923 30.7949C29.7722 30.7949 29.3453 30.7593 29.0963 30.7593L29.0252 30.8661L29.1319 30.9728C29.2742 31.0795 29.3809 31.1506 29.5232 31.2218L29.6299 31.115L29.7366 31.1862C29.6654 31.2929 29.5587 31.3996 29.4876 31.5063C29.4165 31.613 29.3453 31.7197 29.2386 31.8264L29.1319 31.7553L29.203 31.613C29.0963 31.5063 28.9896 31.4352 28.8473 31.3285L28.4561 31.0439C28.3138 30.9372 28.2071 30.8661 28.0648 30.7593L27.9581 30.8661L27.8514 30.7949C27.9225 30.7238 27.9937 30.6526 28.0292 30.5459C28.1004 30.4392 28.1715 30.3681 28.2426 30.2614C28.3138 30.1547 28.3849 30.0835 28.4561 29.9768C28.7406 29.5855 28.9896 29.6211 29.1675 29.7634C29.3453 29.9057 29.3809 30.1546 29.2742 30.3681C29.452 30.3681 30.0567 30.3325 30.1634 30.3325L30.3057 30.2969ZM28.9896 30.1547C28.8829 30.0479 28.7406 30.0835 28.6339 30.2614C28.5628 30.3325 28.5272 30.4036 28.4916 30.4392C28.5628 30.4748 28.6339 30.5815 28.7762 30.6526L28.8829 30.7238C28.9185 30.6882 28.954 30.6526 28.9896 30.6171C29.1319 30.4392 29.1319 30.2969 28.9896 30.1547ZM31.5151 28.6607C31.195 29.1943 30.7325 29.3365 30.2701 29.052C29.8433 28.803 29.701 28.305 30.0211 27.7715C30.3413 27.2379 30.7681 27.0956 31.2661 27.3802C31.6929 27.5936 31.8352 28.1272 31.5151 28.6607ZM31.0171 27.7715C30.697 27.5936 30.3768 27.6292 30.199 27.8782C30.0211 28.1627 30.1634 28.4473 30.4836 28.6607C30.8037 28.8386 31.1238 28.803 31.3017 28.554C31.4795 28.2694 31.3372 27.9493 31.0171 27.7715ZM18.1407 37.8378C17.9629 37.8378 17.785 38.0156 17.785 38.2291C17.785 38.4425 17.9629 38.6203 18.1407 38.6203C18.3542 38.6203 18.532 38.4425 18.532 38.2291C18.532 38.0156 18.3542 37.8378 18.1407 37.8378ZM4.26841 25.993C4.48183 25.993 4.65968 25.8151 4.65968 25.6373C4.65968 25.4238 4.48183 25.246 4.26841 25.246C4.05499 25.246 3.91271 25.4238 3.91271 25.6373C3.91271 25.8151 4.09056 25.993 4.26841 25.993ZM32.0842 25.993C32.2976 25.993 32.4755 25.8151 32.4755 25.6373C32.4755 25.4238 32.2976 25.246 32.0842 25.246C31.9064 25.246 31.7285 25.4238 31.7285 25.6373C31.6929 25.8151 31.8708 25.993 32.0842 25.993Z" fill="white"></path>
</svg>
