<?xml version="1.0" encoding="UTF-8"?>
<svg xmlns="http://www.w3.org/2000/svg" width="90" height="90" viewBox="0 0 90 90" fill="none">
  <path d="M22.4869 58.3836H22.5048L23.4895 56.8081H24.3488L23.2925 58.491L24.4742 60.729H23.5969L22.7733 59.1177L22.4869 59.5653V60.729H21.6991V56.8081H22.4869V58.3836Z" fill="white"></path>
  <path d="M26.1213 58.3299H26.1392L26.6763 56.8081H27.5357L26.5152 59.1893V60.729H25.7274V59.1893L24.7069 56.8081H25.6021L26.1213 58.3299Z" fill="white"></path>
  <path d="M28.1086 57.9538C28.1265 57.7031 28.1981 57.4883 28.2876 57.3092C28.3771 57.1302 28.5203 56.987 28.6994 56.8975C28.8784 56.79 29.1112 56.7363 29.4155 56.7363C29.7199 56.7363 29.9526 56.79 30.1138 56.8975C30.2928 56.987 30.4181 57.1302 30.5255 57.3092C30.6151 57.4883 30.6688 57.7031 30.7046 57.9538C30.7404 58.2044 30.7404 58.473 30.7404 58.7594C30.7404 59.0638 30.7404 59.3323 30.7046 59.583C30.6688 59.8336 30.6151 60.0485 30.5255 60.2275C30.436 60.4066 30.3107 60.5498 30.1138 60.6393C29.9526 60.7288 29.702 60.7825 29.4155 60.7825C29.1291 60.7825 28.8963 60.7288 28.6994 60.6393C28.5203 60.5498 28.3771 60.4066 28.2876 60.2275C28.1981 60.0485 28.1265 59.8336 28.1086 59.583C28.0907 59.3323 28.0728 59.0638 28.0728 58.7594C28.0728 58.473 28.0907 58.2044 28.1086 57.9538ZM28.8784 59.4398C28.8963 59.6188 28.9142 59.7799 28.95 59.8874C28.9858 60.0127 29.0395 60.0843 29.1112 60.138C29.2007 60.1917 29.2723 60.2096 29.3976 60.2096C29.505 60.2096 29.6125 60.1917 29.6841 60.138C29.7557 60.0843 29.7915 59.9948 29.8452 59.8874C29.881 59.7799 29.9168 59.6188 29.9168 59.4398C29.9347 59.2607 29.9347 59.028 29.9347 58.7594C29.9347 58.5088 29.9168 58.276 29.9168 58.097C29.8989 57.918 29.881 57.7568 29.8452 57.6494C29.7915 57.5241 29.7557 57.4525 29.6841 57.3988C29.6125 57.345 29.505 57.3092 29.3976 57.3092C29.2723 57.3092 29.2007 57.345 29.1112 57.3988C29.0395 57.4525 28.9858 57.5241 28.95 57.6494C28.9142 57.7747 28.8963 57.918 28.8784 58.097C28.8605 58.276 28.8605 58.5088 28.8605 58.7594C28.8605 59.028 28.8605 59.2607 28.8784 59.4398Z" fill="white"></path>
  <path d="M33.8199 57.4705H32.9605V60.729H32.1727V57.4705H31.3134V56.8081H33.8199V57.4705Z" fill="white"></path>
  <path d="M34.4465 57.9538C34.4644 57.7031 34.536 57.4883 34.6256 57.3092C34.7151 57.1302 34.8404 56.987 35.0374 56.8975C35.1985 56.79 35.4491 56.7363 35.7356 56.7363C36.04 56.7363 36.2727 56.79 36.4517 56.8975C36.6129 56.987 36.7561 57.1302 36.8635 57.3092C36.953 57.4883 37.0067 57.7031 37.0425 57.9538C37.0784 58.2044 37.0784 58.473 37.0784 58.7594C37.0784 59.0638 37.0605 59.3323 37.0425 59.583C37.0067 59.8336 36.953 60.0485 36.8635 60.2275C36.7561 60.4066 36.6308 60.5498 36.4517 60.6393C36.2727 60.7288 36.04 60.7825 35.7356 60.7825C35.4491 60.7825 35.1985 60.7288 35.0374 60.6393C34.8583 60.5498 34.7151 60.4066 34.6256 60.2275C34.5181 60.0485 34.4644 59.8336 34.4465 59.583C34.4107 59.3323 34.3928 59.0638 34.3928 58.7594C34.3928 58.473 34.4107 58.2044 34.4465 57.9538ZM35.2164 59.4398C35.2343 59.6188 35.2522 59.7799 35.288 59.8874C35.3238 60.0127 35.3775 60.0843 35.4491 60.138C35.5207 60.1917 35.6103 60.2096 35.7356 60.2096C35.8609 60.2096 35.9504 60.1917 36.022 60.138C36.0937 60.0843 36.1474 59.9948 36.1832 59.8874C36.219 59.7799 36.2369 59.6188 36.2548 59.4398C36.2727 59.2607 36.2727 59.028 36.2727 58.7594C36.2727 58.5088 36.2727 58.276 36.2548 58.097C36.2369 57.918 36.219 57.7568 36.1832 57.6494C36.1474 57.5241 36.0937 57.4525 36.022 57.3988C35.9504 57.345 35.8609 57.3092 35.7356 57.3092C35.6282 57.3092 35.5207 57.345 35.4491 57.3988C35.3775 57.4525 35.3238 57.5241 35.288 57.6494C35.2522 57.7747 35.2164 57.918 35.2164 58.097C35.1985 58.276 35.1985 58.5088 35.1985 58.7594C35.1806 59.028 35.1985 59.2607 35.2164 59.4398Z" fill="white"></path>
  <path d="M54.6775 59.637C54.6775 60.0488 54.588 60.3532 54.3911 60.5322C54.212 60.7112 53.9077 60.8008 53.5138 60.8008C53.2989 60.8008 53.1378 60.765 53.0125 60.7112C52.8693 60.6575 52.7618 60.5859 52.6902 60.4785C52.6186 60.3711 52.547 60.2458 52.5291 60.1204C52.5112 59.9772 52.4933 59.834 52.4933 59.6728V59.4938H53.2094V59.6191C53.2094 59.834 53.2273 59.9772 53.2631 60.0846C53.3168 60.192 53.4064 60.2279 53.5496 60.2279C53.6928 60.2279 53.7823 60.192 53.8361 60.0846C53.8719 59.9951 53.9077 59.834 53.9077 59.6191V56.8262H54.6954V59.637H54.6775Z" fill="white"></path>
  <path d="M57.2915 56.8081L58.3299 60.7111H57.5063L57.3273 59.8875H56.2889L56.1098 60.7111H55.2863L56.3247 56.8081H57.2915ZM57.184 59.2609L56.8081 57.5063H56.7902L56.4142 59.2609H57.184Z" fill="white"></path>
  <path d="M60.3351 56.8081C60.5321 56.8081 60.7111 56.8439 60.8543 56.9155C60.9796 56.9692 61.0871 57.0767 61.1766 57.1841C61.2661 57.2915 61.3198 57.4168 61.3556 57.5601C61.3914 57.7033 61.4093 57.8465 61.4093 57.9897C61.4093 58.1867 61.3914 58.3657 61.3198 58.5269C61.2661 58.6701 61.1766 58.7954 61.0692 58.9028C60.9617 58.9923 60.8364 59.064 60.6753 59.1177C60.5321 59.1535 60.353 59.1893 60.1561 59.1893H59.7264V60.7469H58.9565V56.8439H60.3351V56.8081ZM60.0845 58.5806C60.2456 58.5806 60.3709 58.5269 60.4783 58.4373C60.5858 58.3478 60.6216 58.2046 60.6216 58.0076C60.6216 57.8107 60.5858 57.6675 60.4963 57.5601C60.4067 57.4526 60.2814 57.3989 60.0845 57.3989H59.7443V58.5806H60.0845Z" fill="white"></path>
  <path d="M63.6831 56.8081L64.7215 60.7111H63.8979L63.7189 59.8875H62.6805L62.5014 60.7111H61.6779L62.7163 56.8081H63.6831ZM63.5935 59.2609L63.2176 57.5063H63.1997L62.8237 59.2609H63.5935Z" fill="white"></path>
  <path d="M67.21 59.4936H67.2279V56.8081H67.944V60.729H67.0489L66.0821 57.9897V60.729H65.348V56.8081H66.279L67.21 59.4936Z" fill="white"></path>
  <path d="M13.1412 37.687L12.9264 39.549C12.3535 39.8533 11.7447 40.1935 11.1718 40.5695C10.581 40.9455 10.0081 41.3393 9.45307 41.769L9.43517 41.8764L11.7447 42.1271C11.8342 42.145 11.9417 42.1271 12.0312 42.0913C12.1207 42.0555 12.1923 42.0018 12.246 41.9123C12.2818 41.8585 12.3176 41.769 12.3535 41.6437C12.4072 41.5005 12.4251 41.393 12.443 41.3035L12.7652 41.3393L12.4609 44.0607L12.1386 44.0249V43.7026C12.1565 43.5594 12.1386 43.4699 12.1207 43.3983C12.0849 43.3087 12.0491 43.2192 11.9596 43.1655C11.8701 43.1118 11.7984 43.076 11.6731 43.076L6.89286 42.5568C6.78544 42.5389 6.69592 42.5389 6.6064 42.5747C6.53479 42.6105 6.44527 42.6821 6.39156 42.7716C6.33785 42.8611 6.28414 42.9507 6.24833 43.076C6.21252 43.1834 6.17672 43.2729 6.15881 43.3624L5.83655 43.3266L6.123 40.6053L6.44527 40.6411C6.44527 40.7306 6.44527 40.838 6.46317 40.9634C6.46317 41.0887 6.48108 41.1961 6.49898 41.2498C6.53479 41.3572 6.5885 41.4289 6.66011 41.4647C6.73173 41.5184 6.83915 41.5363 6.92867 41.5542L9.23823 41.8048L9.25613 41.7153C9.04129 41.411 8.82645 41.1066 8.6116 40.8022C8.37886 40.4979 8.14611 40.2293 7.91336 39.9787C7.66271 39.7101 7.44787 39.4953 7.28674 39.3699C7.14351 39.2446 6.98238 39.1551 6.85705 39.1551C6.80334 39.1551 6.76753 39.173 6.73173 39.2267C6.69592 39.2983 6.66011 39.352 6.64221 39.4237C6.6064 39.5132 6.5885 39.5848 6.5885 39.6564C6.5706 39.728 6.57059 39.7817 6.55269 39.8354L6.23043 39.7996L6.49898 37.311L6.82124 37.3468V37.4185C6.82124 37.4543 6.82124 37.4901 6.82124 37.5259C6.82124 37.5617 6.82124 37.6154 6.82124 37.6512C6.83915 37.7049 6.83915 37.7586 6.83915 37.8302C6.85705 37.9377 6.87496 38.063 6.92867 38.1883C6.96447 38.3136 7.03609 38.4032 7.1077 38.4927C7.42997 38.8507 7.78804 39.2267 8.12821 39.6206C8.48628 40.0145 8.79064 40.3904 9.0771 40.7843C9.65001 40.3725 10.1692 40.0145 10.581 39.7638C10.9928 39.4953 11.4404 39.2088 11.9238 38.9045C12.1028 38.797 12.246 38.6717 12.3714 38.5464C12.4788 38.4211 12.5683 38.3136 12.6399 38.2241C12.6936 38.1525 12.7294 38.0451 12.7652 37.9377C12.801 37.8123 12.8368 37.7049 12.8368 37.6333L13.1412 37.687Z" fill="white"></path>
  <path d="M9.16658 29.6481C9.14867 29.7197 9.14867 29.7913 9.14867 29.9167C9.14867 30.042 9.14867 30.1315 9.18448 30.1852C9.22029 30.3105 9.23819 30.418 9.25609 30.4717C9.274 30.5254 9.36352 30.6328 9.48884 30.8118C9.73949 31.152 9.99014 31.4743 10.2587 31.7786C10.5452 32.083 10.8853 32.459 11.2971 32.9424C11.4403 33.1214 11.5836 33.2467 11.6731 33.3183C11.7805 33.39 11.9416 33.4616 12.1565 33.5332L13.356 33.9271C13.4634 33.9629 13.5709 33.9629 13.6604 33.9629C13.7499 33.945 13.8394 33.8913 13.9289 33.8017C13.9647 33.748 14.0363 33.6406 14.1259 33.4974C14.2333 33.3541 14.287 33.2288 14.3228 33.1393L14.6272 33.2467L13.6425 36.2008L13.3381 36.0934C13.356 36.0039 13.3918 35.8965 13.4276 35.7174C13.4634 35.5384 13.4813 35.4131 13.4813 35.3415C13.4813 35.234 13.4276 35.1266 13.3739 35.0729C13.3023 35.0013 13.2307 34.9476 13.1054 34.9118L11.5657 34.4105C11.5119 34.3926 11.4224 34.3926 11.2613 34.4105C11.1181 34.4284 10.9569 34.4642 10.7779 34.4821C10.3661 34.5537 9.93643 34.6253 9.47094 34.6969C9.00545 34.7864 8.59366 34.8581 8.25349 34.9118C8.05656 34.9655 7.89542 35.0013 7.788 35.055C7.68058 35.0908 7.57316 35.1624 7.46574 35.234C7.39412 35.2877 7.34041 35.3594 7.2867 35.4489C7.23299 35.5384 7.17928 35.6279 7.16138 35.6995L6.83911 35.5921L7.71639 32.9066L8.02075 33.014C7.93123 33.3183 7.87752 33.5332 7.87752 33.6764C7.85962 33.8196 7.89542 33.8913 7.96704 33.9092C7.98494 33.9271 8.00284 33.9271 8.07446 33.9271C8.12817 33.9092 8.18188 33.9092 8.2714 33.9092C8.36092 33.8913 8.46834 33.8734 8.57576 33.8555C8.68318 33.8375 8.80851 33.8196 8.91593 33.8017C9.22029 33.748 9.54255 33.6943 9.84691 33.6406C10.1692 33.5869 10.5631 33.5153 11.0644 33.4079C10.4735 32.6917 9.99014 32.1546 9.66788 31.7607C9.32771 31.3848 9.11287 31.1699 9.02335 31.1341C8.95173 31.1162 8.89802 31.1162 8.84431 31.152C8.7906 31.1878 8.73689 31.2594 8.68318 31.331C8.62947 31.4027 8.57576 31.4922 8.53995 31.5996C8.50414 31.6891 8.45043 31.7786 8.41463 31.8682L8.09236 31.7607L8.82641 29.5586L9.16658 29.6481Z" fill="white"></path>
  <path d="M13.1591 23.4181C13.5709 23.3285 14.0005 23.3106 14.466 23.4002C14.9315 23.4718 15.3791 23.6508 15.8267 23.9194C16.2743 24.1879 16.6503 24.4923 16.9188 24.8683C17.2053 25.2442 17.4022 25.6202 17.5096 26.032C17.6171 26.4259 17.6529 26.8376 17.5813 27.2494C17.5275 27.6612 17.3843 28.0551 17.1695 28.4311C16.9367 28.8249 16.6324 29.1472 16.2922 29.3979C15.9341 29.6485 15.5582 29.8096 15.1464 29.8992C14.7525 29.9887 14.3228 29.9887 13.8573 29.9171C13.4097 29.8275 12.9621 29.6664 12.5504 29.4158C12.0849 29.1472 11.7268 28.8249 11.4403 28.4669C11.1718 28.1088 10.9748 27.7149 10.8495 27.3031C10.7242 26.9093 10.7063 26.4796 10.76 26.0678C10.8137 25.656 10.9569 25.2621 11.1718 24.8862C11.3866 24.5102 11.6731 24.2058 12.0311 23.9373C12.3892 23.6866 12.7473 23.5076 13.1591 23.4181ZM16.8651 26.4259C16.704 26.1394 16.507 25.853 16.2206 25.6023C15.952 25.3517 15.6298 25.1189 15.2538 24.8862C14.8599 24.6713 14.4839 24.4923 14.108 24.367C13.732 24.2595 13.3918 24.2058 13.0696 24.2058C12.7473 24.2237 12.4608 24.2953 12.2102 24.4386C11.9595 24.5818 11.7268 24.8145 11.5657 25.101C11.3687 25.4233 11.2792 25.7455 11.2971 26.0499C11.315 26.3722 11.4045 26.6765 11.5657 26.963C11.7268 27.2315 11.9416 27.5001 12.2102 27.7686C12.4966 28.0193 12.801 28.252 13.1412 28.449C13.535 28.6817 13.8931 28.8608 14.2512 28.9682C14.5914 29.0756 14.9494 29.1472 15.2717 29.1293C15.594 29.1293 15.8983 29.0577 16.149 28.9145C16.3996 28.7712 16.6324 28.5564 16.8114 28.252C16.9904 27.9656 17.08 27.6612 17.08 27.3569C17.0979 27.0167 17.0083 26.7123 16.8651 26.4259Z" fill="white"></path>
  <path d="M19.6581 17.3664L19.4254 17.5991C19.3179 17.5454 19.1926 17.4917 19.0315 17.438C18.8703 17.3843 18.7092 17.3485 18.5481 17.3306C18.369 17.2948 18.2258 17.2769 18.0647 17.2948C17.9215 17.2948 17.7961 17.3485 17.7066 17.4022C17.635 17.4559 17.5455 17.5454 17.4381 17.6528C17.3306 17.7602 17.2232 17.8498 17.1516 17.9393L16.9726 18.1362L20.8576 21.7527C20.9472 21.8244 21.0188 21.8781 21.1083 21.896C21.1978 21.9318 21.3052 21.9139 21.4127 21.8602C21.4664 21.8423 21.5738 21.7707 21.717 21.6632C21.8781 21.5558 21.9856 21.4663 22.0393 21.3947L22.272 21.6274L20.1415 23.9549L19.9088 23.74C19.9625 23.6684 20.0341 23.561 20.1594 23.4178C20.2668 23.2746 20.3384 23.1671 20.3563 23.0955C20.4101 22.9881 20.4101 22.8986 20.3921 22.8091C20.3742 22.7195 20.3026 22.63 20.2131 22.5405L16.3101 18.8882L16.1311 19.0851C16.0595 19.1567 15.97 19.2462 15.8804 19.3537C15.7909 19.4611 15.7014 19.5685 15.6298 19.6759C15.5582 19.7475 15.5403 19.8729 15.5403 20.034C15.5582 20.1951 15.5761 20.3563 15.6119 20.5174C15.6477 20.6964 15.7014 20.8397 15.7551 21.0008C15.8267 21.1619 15.8804 21.2873 15.9342 21.3768L15.7193 21.6095L14.4124 20.3742L18.3511 16.1489L19.6581 17.3664Z" fill="white"></path>
  <path d="M25.0292 12.1384C25.441 12.2279 25.8348 12.407 26.2287 12.6576C26.6226 12.9262 26.9449 13.2664 27.2492 13.696C27.5536 14.1257 27.7505 14.5733 27.858 15.0209C27.9654 15.4864 27.9833 15.9161 27.8938 16.3279C27.8221 16.7396 27.6789 17.1156 27.4462 17.4737C27.2313 17.8139 26.927 18.1182 26.5868 18.3689C26.2108 18.6195 25.799 18.7986 25.3873 18.8702C24.9755 18.9597 24.5458 18.9597 24.1519 18.8523C23.7401 18.7628 23.3642 18.5837 22.9703 18.3152C22.5943 18.0466 22.272 17.7064 22.0035 17.3126C21.6991 16.865 21.4843 16.4353 21.3769 15.9877C21.2694 15.5401 21.2694 15.1104 21.341 14.6807C21.3948 14.269 21.5559 13.893 21.7886 13.517C22.0035 13.1589 22.2899 12.8725 22.648 12.6397C23.0061 12.3891 23.3821 12.2279 23.8117 12.1384C24.2235 12.0489 24.6353 12.0489 25.0292 12.1384ZM27.1418 16.3995C27.1239 16.0772 27.0523 15.737 26.927 15.3969C26.7837 15.0567 26.5868 14.6986 26.3361 14.3227C26.0855 13.9467 25.799 13.6244 25.5126 13.3738C25.2261 13.1052 24.9397 12.9262 24.6353 12.8009C24.3489 12.6755 24.0445 12.6218 23.758 12.6576C23.4537 12.6934 23.1672 12.8009 22.8987 12.9799C22.5943 13.1947 22.3795 13.4454 22.2541 13.7318C22.1467 14.0183 22.093 14.3227 22.1109 14.6628C22.1467 14.9672 22.2362 15.3074 22.3616 15.6654C22.5048 16.0056 22.7017 16.3458 22.9345 16.6859C23.1851 17.0619 23.4537 17.3663 23.7222 17.6169C24.0087 17.8676 24.2951 18.0466 24.5816 18.1898C24.886 18.3152 25.1903 18.3689 25.4768 18.351C25.7811 18.3331 26.0676 18.2256 26.3541 18.0287C26.6405 17.8497 26.8374 17.599 26.9807 17.3126C27.106 17.0261 27.1597 16.7217 27.1418 16.3995Z" fill="white"></path>
  <path d="M37.7766 6.71387C37.6871 6.73177 37.5796 6.80338 37.4185 6.875C37.2574 6.94661 37.1321 7.03613 37.0604 7.14355C36.9709 7.23307 36.9351 7.41211 36.9709 7.62695C37.0067 7.8597 37.0425 8.12825 37.1321 8.43261L37.9198 11.2077C38.0272 11.5657 38.0272 11.888 37.9377 12.1924C37.8661 12.4967 37.7408 12.7653 37.5438 12.998C37.3469 13.2308 37.1321 13.4098 36.8814 13.553C36.6308 13.7142 36.398 13.8037 36.1474 13.8753C35.7714 13.9827 35.4133 14.0185 35.0731 14.0006C34.7509 13.9827 34.4644 13.929 34.1959 13.8037C33.9452 13.6963 33.7483 13.5351 33.5692 13.3382C33.4081 13.1592 33.2828 12.9264 33.2112 12.6937L32.1549 8.8981C32.137 8.80859 32.0832 8.71907 32.0295 8.64745C31.9758 8.59374 31.8863 8.54003 31.761 8.50422C31.6715 8.48632 31.5819 8.46842 31.4566 8.48632C31.3492 8.48632 31.2239 8.50422 31.1523 8.52213L31.0627 8.21777L33.6946 7.46582L33.7841 7.77018C33.6946 7.80598 33.6051 7.84179 33.4797 7.8955C33.3544 7.96712 33.2828 8.00292 33.2291 8.05663C33.1396 8.11034 33.0858 8.19986 33.0679 8.28938C33.0679 8.3789 33.0679 8.46842 33.1038 8.57584L34.0884 12.1028C34.1422 12.2819 34.1959 12.443 34.3033 12.64C34.3928 12.819 34.5181 12.9622 34.6793 13.0875C34.8404 13.2308 35.0373 13.3203 35.2701 13.374C35.5028 13.4277 35.8072 13.4098 36.1474 13.2845C36.4875 13.195 36.7561 13.0696 36.953 12.9085C37.15 12.7295 37.2932 12.5504 37.3648 12.3356C37.4364 12.1387 37.4901 11.9417 37.4901 11.7448C37.4901 11.5657 37.4722 11.3688 37.4185 11.1898L36.6845 8.57584C36.577 8.23567 36.4875 7.96712 36.3801 7.77018C36.2727 7.57324 36.1653 7.44791 36.0578 7.41211C35.9325 7.35839 35.7714 7.34049 35.5744 7.34049C35.3775 7.35839 35.2343 7.3763 35.1269 7.3942L35.0373 7.07194L37.6692 6.33789L37.7766 6.71387Z" fill="white"></path>
  <path d="M47.0327 6.15902C46.9432 6.17692 46.8179 6.19482 46.6389 6.24853C46.4598 6.30224 46.3345 6.35596 46.245 6.40967C46.1375 6.48128 46.0659 6.64241 46.0301 6.85726C45.9943 7.0721 45.9764 7.35856 45.9943 7.69872L46.1734 12.5685L45.7616 12.5864L41.5721 7.28694L41.6975 10.7244C41.7154 11.1004 41.7333 11.4048 41.8049 11.6017C41.8586 11.7986 41.9302 11.9419 42.0376 12.0314C42.1092 12.0851 42.2525 12.1567 42.4852 12.2104C42.718 12.2641 42.8612 12.282 42.9328 12.282L42.9507 12.6043L40.2294 12.6938L40.2115 12.3716C40.301 12.3716 40.4263 12.3178 40.6412 12.2641C40.8202 12.2104 40.9634 12.1567 41.0171 12.103C41.1246 12.0135 41.1783 11.8882 41.2141 11.7091C41.2499 11.5301 41.2499 11.2078 41.2499 10.7781L41.1425 7.50178C41.1425 7.35856 41.1066 7.21533 41.0529 7.09C40.9992 6.94677 40.9276 6.82145 40.8381 6.74983C40.7307 6.66032 40.5695 6.5708 40.3726 6.49918C40.1757 6.42757 40.0324 6.39176 39.9071 6.39176V6.0695L41.8228 5.99788L45.69 10.9035L45.5825 7.75243C45.5646 7.35856 45.5288 7.0721 45.4751 6.87516C45.4214 6.67822 45.3498 6.53499 45.2603 6.48128C45.1708 6.42757 45.0275 6.37386 44.8306 6.32015C44.6336 6.26644 44.4725 6.24853 44.383 6.24853V5.90837L47.0864 5.81885L47.0327 6.15902Z" fill="white"></path>
  <path d="M51.1326 13.1771L48.1785 12.7295L48.2322 12.4072C48.3217 12.4251 48.447 12.4251 48.5902 12.443C48.7514 12.4609 48.8588 12.4609 48.9304 12.443C49.0378 12.4072 49.1274 12.3714 49.1811 12.3177C49.2348 12.2461 49.2706 12.1386 49.2885 12.0312L50.0225 7.25097C50.0404 7.14355 50.0404 7.05403 50.0046 6.98242C49.9867 6.9108 49.9151 6.83919 49.7898 6.76758C49.7003 6.73177 49.5928 6.66015 49.4675 6.60644C49.3243 6.55273 49.2169 6.51693 49.1274 6.49902L49.1632 6.17676L52.1173 6.62435L52.0814 6.94661C51.974 6.92871 51.8666 6.92871 51.7234 6.92871C51.598 6.92871 51.4727 6.92871 51.3832 6.94661C51.24 6.96452 51.1684 7.01823 51.1147 7.08984C51.0609 7.16146 51.0251 7.26888 51.0072 7.3584L50.2732 12.1207C50.2553 12.2282 50.2553 12.3177 50.2911 12.4072C50.3269 12.4967 50.3985 12.5683 50.488 12.64C50.5596 12.6758 50.6492 12.7116 50.7924 12.7653C50.9356 12.819 51.0609 12.8548 51.1505 12.8727L51.1326 13.1771Z" fill="white"></path>
  <path d="M60.2993 9.36376C60.2276 9.34586 60.1202 9.32795 60.0128 9.32795C59.8875 9.31005 59.7801 9.32795 59.7084 9.34586C59.5831 9.36376 59.4757 9.43538 59.3862 9.50699C59.2967 9.5786 59.1892 9.68603 59.0997 9.79345C58.7416 10.1873 58.1866 10.8319 57.4705 11.6912C56.7364 12.5506 55.9666 13.4637 55.1788 14.3947L54.8208 14.2693C54.785 12.9803 54.7491 11.727 54.7133 10.5454C54.6775 9.34586 54.6596 8.5402 54.6417 8.11051C54.6417 8.00309 54.6238 7.91357 54.588 7.82405C54.5522 7.73454 54.4985 7.64502 54.409 7.5555C54.3374 7.48389 54.2658 7.41227 54.1941 7.34066C54.1046 7.28695 54.0151 7.23324 53.9435 7.19743L54.0509 6.89307L56.629 7.77034L56.5216 8.09261C56.2889 8.02099 56.1098 7.98518 55.9487 7.96728C55.7876 7.96728 55.6801 7.98519 55.6801 8.0747C55.6622 8.11051 55.6622 8.14632 55.6443 8.20003V8.32535C55.6443 8.66552 55.6622 9.18472 55.6801 9.91877C55.698 10.6528 55.7338 11.7091 55.7876 13.0698C56.1993 12.6043 56.6648 12.0493 57.2198 11.4048C57.7749 10.7602 58.1329 10.3127 58.3299 10.062C58.5089 9.82925 58.6342 9.65022 58.6879 9.5607C58.7416 9.47118 58.7775 9.38166 58.8133 9.31005C58.8312 9.23844 58.8133 9.18472 58.7774 9.11311C58.7416 9.0415 58.67 8.98779 58.5805 8.91617C58.491 8.84456 58.4015 8.79085 58.312 8.73714C58.2224 8.68342 58.115 8.64762 58.0255 8.59391L58.1329 8.28955L60.4783 9.0773L60.2993 9.36376Z" fill="white"></path>
  <path d="M64.7215 16.9189L63.6114 18.5302L58.8849 15.7015L59.046 15.4329C59.1355 15.4866 59.243 15.5224 59.3862 15.5941C59.5294 15.6478 59.6368 15.6836 59.6726 15.7015C59.7801 15.7194 59.8696 15.7015 59.9412 15.6478C60.0128 15.612 60.0844 15.5224 60.1381 15.4329L62.5909 11.3151C62.6446 11.2256 62.6804 11.1361 62.6804 11.0465C62.6984 10.957 62.6625 10.8675 62.5909 10.778C62.5372 10.6885 62.4656 10.6169 62.3582 10.5094C62.2508 10.402 62.1791 10.3304 62.0896 10.2767L62.2508 9.99023L66.6729 12.64L65.8494 14.0185L65.5271 13.8395C65.5987 13.6068 65.6166 13.3203 65.5629 12.9801C65.5271 12.64 65.4197 12.4251 65.2765 12.2998C65.1869 12.2461 65.1153 12.1745 64.99 12.085C64.8647 12.0133 64.7394 11.9417 64.5961 11.8522L63.7009 11.3151L62.3403 13.5889L62.9848 13.9648C63.1996 14.0902 63.3608 14.1618 63.4682 14.1797C63.5756 14.1976 63.701 14.1797 63.8442 14.126C63.9516 14.0902 64.059 14.0185 64.1843 13.9111C64.2918 13.8037 64.3992 13.6963 64.4887 13.5889L64.7931 13.7679L63.4682 15.9879L63.1638 15.8089C63.2355 15.6836 63.2892 15.5224 63.325 15.3613C63.3608 15.1823 63.3787 15.0569 63.3608 14.9495C63.325 14.8063 63.2892 14.681 63.1997 14.5736C63.128 14.484 62.9848 14.3766 62.8058 14.2871L62.1612 13.8932L61.1407 15.612C61.0333 15.791 60.9796 15.9342 60.9259 16.0416C60.8901 16.1491 60.8901 16.2565 60.9438 16.346C60.9796 16.4534 61.0512 16.525 61.1586 16.6146C61.2661 16.7041 61.4451 16.8115 61.6599 16.9368C61.7495 16.9905 61.8569 17.0621 62.0001 17.1338C62.1433 17.2412 62.2687 17.2949 62.3761 17.3486C62.4835 17.3844 62.5909 17.4381 62.7163 17.4739C62.8416 17.5097 62.949 17.5097 63.0206 17.4918C63.2176 17.4381 63.4682 17.3128 63.7547 17.1338C64.059 16.9547 64.2381 16.8115 64.3634 16.7041L64.7215 16.9189Z" fill="white"></path>
  <path d="M69.3584 23.7221L68.0515 22.5047C68.1947 21.7885 68.2842 21.144 68.3737 20.6069C68.4453 20.0519 68.517 19.479 68.5707 18.8703L68.0694 18.3869L66.6371 19.9266C66.5655 19.9982 66.4939 20.0877 66.458 20.1772C66.4401 20.2488 66.4401 20.3563 66.4938 20.4637C66.5297 20.5174 66.5834 20.6069 66.6729 20.6964C66.7624 20.8039 66.834 20.8934 66.9235 20.965L66.6908 21.2156L64.6498 19.2999L64.8825 19.0672C64.9362 19.1209 65.0258 19.1746 65.1332 19.2641C65.2585 19.3537 65.3301 19.4074 65.3838 19.4253C65.4733 19.4432 65.5629 19.4611 65.6524 19.4253C65.724 19.3895 65.8135 19.3358 65.903 19.2462L69.1973 15.7371C69.2689 15.6655 69.3226 15.576 69.3584 15.5044C69.3942 15.4149 69.3763 15.3254 69.3226 15.2179C69.2868 15.1463 69.2331 15.0568 69.1615 14.9673C69.0899 14.8599 69.0183 14.7882 68.9645 14.7166L69.1794 14.4839L71.4173 16.5786C71.6143 16.7576 71.7933 16.9725 71.9365 17.1873C72.0798 17.4022 72.1872 17.617 72.2409 17.8498C72.2946 18.0646 72.2946 18.2973 72.2409 18.5301C72.1872 18.7628 72.0619 18.9777 71.8649 19.1746C71.6859 19.3716 71.5068 19.5148 71.3099 19.5864C71.113 19.6759 70.916 19.7296 70.7012 19.7296C70.5042 19.7296 70.3073 19.6938 70.0925 19.6401C69.8955 19.5685 69.6628 19.4969 69.4479 19.3716C69.3942 19.9087 69.3405 20.3563 69.3047 20.7322C69.2689 21.0903 69.2152 21.5379 69.1436 22.0571C69.1078 22.2898 69.1078 22.4689 69.1257 22.6121C69.1436 22.7553 69.1794 22.8807 69.2152 23.006C69.251 23.0776 69.2868 23.185 69.3584 23.2745C69.43 23.382 69.5016 23.4536 69.5554 23.5073L69.3584 23.7221ZM70.9518 18.4227C71.2383 18.1362 71.3636 17.814 71.3636 17.4917C71.3636 17.1694 71.2025 16.8472 70.8981 16.5607L70.3252 16.0236L68.3558 18.1004L68.8034 18.5301C69.1078 18.8166 69.4837 18.9777 69.8776 18.9598C70.2715 18.9419 70.6296 18.7628 70.9518 18.4227Z" fill="white"></path>
  <path d="M74.6221 25.996C74.5684 26.1929 74.4968 26.3719 74.3715 26.5331C74.2641 26.6942 74.1029 26.8553 73.8881 26.9986C73.4047 27.3387 72.8855 27.4462 72.3305 27.3029C71.7755 27.1776 71.31 26.8553 70.934 26.3182C70.755 26.0855 70.6296 25.799 70.5401 25.5126C70.4506 25.2082 70.3969 24.9397 70.379 24.689L69.9851 24.7248L69.7703 24.4205L71.5964 23.0419L71.8113 23.3462C71.6322 23.579 71.4711 23.7938 71.3458 24.0087C71.2205 24.2235 71.113 24.4742 71.0593 24.7248C71.0056 24.9576 70.9877 25.2082 71.0414 25.441C71.0593 25.6737 71.1667 25.9244 71.3458 26.1571C71.4711 26.3361 71.5964 26.4615 71.7397 26.5689C71.865 26.6763 72.0261 26.73 72.1514 26.7479C72.2947 26.7658 72.4558 26.7658 72.5811 26.7121C72.7244 26.6763 72.8676 26.6047 73.0108 26.4973C73.2257 26.354 73.3868 26.1392 73.4942 25.8885C73.6016 25.62 73.6195 25.3514 73.53 25.0471C73.4763 24.8322 73.4226 24.5816 73.351 24.3309C73.2794 24.0624 73.2257 23.8296 73.1719 23.6148C73.1003 23.203 73.1182 22.8449 73.2077 22.5227C73.3152 22.1825 73.5479 21.896 73.906 21.6454C74.1029 21.5022 74.3178 21.4127 74.5684 21.3589C74.8012 21.3231 75.0518 21.3231 75.3025 21.3768C75.5352 21.4485 75.768 21.538 75.9828 21.6812C76.1976 21.8244 76.3767 22.0035 76.5378 22.2362C76.7169 22.4869 76.8422 22.7375 76.8959 22.9882C76.9675 23.2388 77.0033 23.4716 77.0033 23.7222L77.3614 23.6864L77.5941 24.0087L75.8038 25.3156L75.5889 24.9934C75.7501 24.7964 75.8933 24.5816 76.0365 24.3846C76.1618 24.1698 76.2872 23.9729 76.3588 23.758C76.4304 23.5253 76.4662 23.3283 76.4304 23.1135C76.4125 22.8807 76.323 22.6659 76.1439 22.4332C75.9828 22.2004 75.7501 22.0393 75.4636 21.9856C75.1771 21.9319 74.9444 21.9677 74.7116 22.1288C74.4789 22.3078 74.3178 22.4869 74.2462 22.7017C74.1745 22.9166 74.1387 23.1672 74.1924 23.4537C74.2283 23.7043 74.282 23.9371 74.3357 24.1698C74.4073 24.3846 74.461 24.6174 74.4968 24.8322C74.5505 25.0292 74.5684 25.2261 74.5863 25.4231C74.6579 25.6021 74.6579 25.799 74.6221 25.996Z" fill="white"></path>
  <path d="M74.2999 31.922L72.9929 29.2365L73.2794 29.0932C73.3152 29.1649 73.3868 29.2544 73.4763 29.3976C73.5479 29.5408 73.6195 29.6304 73.6733 29.6841C73.7628 29.7557 73.8344 29.8094 73.9239 29.8094C74.0134 29.8273 74.1029 29.8094 74.2104 29.7378L78.5251 27.6073C78.6146 27.5714 78.7042 27.5177 78.74 27.4461C78.7937 27.3924 78.8116 27.285 78.8116 27.1418C78.7937 27.0343 78.7937 26.909 78.74 26.7837C78.7042 26.6405 78.6684 26.533 78.6504 26.4435L78.9369 26.3003L80.2618 28.9679L79.9753 29.1112C79.9395 29.0216 79.8679 28.9321 79.7963 28.8247C79.7247 28.7173 79.6352 28.6278 79.5635 28.5382C79.4919 28.4487 79.3845 28.4129 79.295 28.4129C79.1876 28.4129 79.1159 28.4308 79.0085 28.4845L74.6938 30.6151C74.6042 30.6509 74.5147 30.7225 74.4789 30.7941C74.4252 30.8657 74.4073 30.9731 74.4073 31.0985C74.4073 31.1522 74.4431 31.2775 74.4789 31.4207C74.5147 31.5639 74.5505 31.6893 74.6042 31.7788L74.2999 31.922Z" fill="white"></path>
  <path d="M81.0674 36.9707L80.9778 36.6484C81.0674 36.5947 81.1748 36.5052 81.318 36.3978C81.4254 36.2903 81.5508 36.165 81.6582 36.0397C81.7656 35.9144 81.8551 35.789 81.9267 35.6458C81.9983 35.5205 82.0342 35.3952 82.0162 35.2877C81.9983 35.1803 81.9804 35.0729 81.9446 34.9297C81.9088 34.7864 81.873 34.6611 81.8372 34.5358L81.7656 34.2672L76.681 35.789C76.5915 35.8249 76.5019 35.8607 76.4303 35.9323C76.3587 35.986 76.3229 36.0934 76.305 36.2187C76.305 36.2724 76.305 36.3978 76.3229 36.5768C76.3408 36.7558 76.3587 36.8991 76.3766 36.9886L76.0544 37.0781L75.1592 34.0703L75.4814 33.9808C75.5173 34.0703 75.5531 34.1956 75.6426 34.3568C75.7142 34.5179 75.7679 34.6432 75.8216 34.6969C75.8932 34.7864 75.9648 34.8402 76.0544 34.876C76.1439 34.8939 76.2334 34.8939 76.3766 34.8581L81.515 33.3363L81.4433 33.0677C81.4254 32.9782 81.3717 32.8529 81.3359 32.7275C81.3001 32.5843 81.2464 32.459 81.1927 32.3337C81.1569 32.2441 81.0674 32.1546 80.9241 32.083C80.7809 32.0114 80.6377 31.9577 80.4765 31.904C80.3154 31.8503 80.1543 31.8144 79.9752 31.7965C79.7962 31.7607 79.6709 31.7607 79.5635 31.7607L79.456 31.4564L81.1927 30.9551L82.8398 36.4873L81.0674 36.9707Z" fill="white"></path>
  <path d="M83.377 44.4905C83.3591 44.4368 83.3412 44.3652 83.2875 44.2399C83.2517 44.1325 83.198 44.0608 83.1443 44.0071C83.0547 43.8818 82.9831 43.8102 82.9473 43.7744C82.9115 43.7207 82.7862 43.667 82.6072 43.5595C82.2491 43.3447 81.8731 43.1478 81.515 42.9687C81.1391 42.7897 80.6736 42.5749 80.1007 42.3242C79.9037 42.2168 79.7247 42.1631 79.5993 42.1452C79.474 42.1094 79.295 42.1094 79.0622 42.1273L77.7911 42.2347C77.6837 42.2526 77.5762 42.2705 77.5046 42.3242C77.433 42.3779 77.3614 42.4674 77.3256 42.5749C77.3077 42.6465 77.2898 42.7718 77.2719 42.9508C77.254 43.1299 77.2361 43.2552 77.254 43.3626L76.9317 43.3805L76.6453 40.2653L76.9675 40.2295C76.9854 40.319 77.0033 40.4443 77.0212 40.6234C77.057 40.8024 77.0928 40.9277 77.1287 40.9814C77.1824 41.0889 77.254 41.1605 77.3435 41.1963C77.433 41.2321 77.5225 41.2321 77.6479 41.2321L79.2592 41.1068C79.3129 41.0889 79.4024 41.053 79.5277 40.9814C79.6531 40.9098 79.7963 40.8203 79.9574 40.7308C80.2976 40.5159 80.6736 40.2653 81.0674 40.0146C81.4613 39.7461 81.8194 39.5133 82.088 39.3164C82.2491 39.209 82.3744 39.0837 82.4639 39.012C82.5534 38.9225 82.6251 38.833 82.6788 38.7077C82.7325 38.6361 82.7504 38.5286 82.7683 38.4391C82.7862 38.3317 82.7862 38.2422 82.7862 38.1527L83.1085 38.1348L83.3591 40.9456L83.0368 40.9814C83.001 40.6592 82.9652 40.4443 82.9115 40.319C82.8757 40.1937 82.8041 40.14 82.7325 40.14C82.7146 40.14 82.6788 40.1579 82.643 40.1758C82.5892 40.1937 82.5355 40.2295 82.4639 40.2653C82.3923 40.319 82.2849 40.3727 82.1954 40.4264C82.1059 40.498 81.9984 40.5517 81.9268 40.6234C81.6583 40.7845 81.3897 40.9635 81.1212 41.1247C80.8526 41.3037 80.5303 41.5364 80.1007 41.805C80.9242 42.2347 81.5687 42.539 82.0342 42.7718C82.4997 42.9866 82.7683 43.0941 82.8578 43.0761C82.9115 43.0761 82.9831 43.0403 83.0189 42.9866C83.0547 42.9329 83.0906 42.8613 83.1085 42.7718C83.1264 42.6823 83.1264 42.5749 83.1264 42.4674V42.181L83.4486 42.1452L83.6635 44.4547L83.377 44.4905Z" fill="white"></path>
  <path d="M14.9495 61.4988L14.8063 61.1766C15.0032 60.9975 15.1823 60.7648 15.3434 60.4783C15.5045 60.174 15.5761 59.9233 15.5224 59.7443C15.4866 59.6548 15.4508 59.5474 15.3971 59.422C15.3434 59.2967 15.2897 59.1714 15.2181 59.0102L14.7526 57.9897L12.3535 59.0998L12.6758 59.798C12.7653 60.0128 12.8727 60.1561 12.9622 60.2635C13.0696 60.3709 13.1771 60.4246 13.3024 60.4604C13.4098 60.4962 13.5172 60.4962 13.6605 60.4962C13.8216 60.4783 13.9648 60.4425 14.1439 60.3888L14.2871 60.7111L11.9238 61.8032L11.7806 61.4809C11.9059 61.4272 12.0312 61.3377 12.1566 61.2124C12.2819 61.0692 12.3893 60.9617 12.4251 60.8722C12.4788 60.729 12.5146 60.6037 12.4788 60.4425C12.4609 60.2993 12.4072 60.1382 12.3356 59.9591L12.0133 59.2609L9.91861 60.2277C9.8291 60.2635 9.75748 60.3172 9.70377 60.3888C9.65006 60.4604 9.61425 60.55 9.61425 60.6574C9.61425 60.7111 9.61425 60.8185 9.66796 60.9796C9.70377 61.1229 9.73958 61.2482 9.77539 61.3198L9.48893 61.463L8.27148 58.8491L8.55794 58.7059C8.61165 58.7775 8.66536 58.8849 8.73698 59.0281C8.80859 59.1714 8.8623 59.2609 8.91601 59.2788C8.98763 59.3325 9.07715 59.3862 9.16666 59.3862C9.25618 59.3862 9.3457 59.3683 9.45312 59.3325L13.8216 57.3094C13.929 57.2736 14.0006 57.2199 14.0543 57.1662C14.126 57.0946 14.1618 57.005 14.1618 56.8976C14.1618 56.7902 14.1439 56.6828 14.1081 56.5396C14.0722 56.3963 14.0364 56.2889 14.0185 56.1994L14.3229 56.0562L16.4892 60.7827L14.9495 61.4988Z" fill="white"></path>
  <path d="M19.7656 66.7086C19.694 67.1204 19.5507 67.5322 19.3001 67.9261C19.0673 68.3199 18.7272 68.678 18.3333 69.0003C17.9036 69.3225 17.4918 69.5374 17.0263 69.6806C16.5787 69.8059 16.1491 69.8418 15.7373 69.788C15.3255 69.7343 14.9316 69.609 14.5735 69.3942C14.1976 69.1972 13.8932 68.9108 13.6247 68.5706C13.3382 68.2125 13.1592 67.8007 13.0517 67.389C12.9443 66.9772 12.9264 66.5654 13.0159 66.1536C13.0875 65.7418 13.2487 65.348 13.4814 64.9541C13.7321 64.5602 14.0364 64.22 14.4303 63.9157C14.86 63.5934 15.2897 63.3786 15.7194 63.2532C16.167 63.1279 16.5967 63.0921 17.0084 63.1279C17.4381 63.1816 17.8141 63.3069 18.1901 63.5218C18.566 63.7366 18.8704 64.0052 19.1211 64.3454C19.4075 64.7034 19.5865 65.0615 19.694 65.4912C19.8014 65.903 19.8372 66.3147 19.7656 66.7086ZM15.612 69.0182C15.9521 68.9824 16.2744 68.8929 16.6146 68.7317C16.9547 68.5885 17.2949 68.3737 17.6351 68.1051C17.9931 67.8186 18.2975 67.5322 18.5481 67.2278C18.7988 66.9235 18.9778 66.6191 19.0852 66.3327C19.1927 66.0283 19.2285 65.7418 19.1748 65.4375C19.1211 65.1331 19.0136 64.8646 18.8167 64.596C18.5839 64.3095 18.3154 64.0947 18.0289 64.0052C17.7425 63.9157 17.4202 63.8799 17.098 63.9157C16.7757 63.9515 16.4534 64.0589 16.1133 64.22C15.7731 64.3812 15.4329 64.5781 15.1107 64.8467C14.7526 65.1152 14.4482 65.4017 14.2155 65.6881C13.9827 65.9567 13.8037 66.261 13.6784 66.5654C13.5709 66.8698 13.5172 67.1741 13.553 67.4606C13.5888 67.747 13.7142 68.0514 13.929 68.3199C14.126 68.5885 14.3766 68.7854 14.6631 68.8929C14.9674 69.0182 15.2718 69.0719 15.612 69.0182Z" fill="white"></path>
  <path d="M27.124 72.5451C27.0523 72.4914 26.9449 72.4197 26.7838 72.3481C26.6406 72.2765 26.4973 72.2407 26.372 72.2049C26.2467 72.187 26.0855 72.2586 25.9244 72.4197C25.7454 72.563 25.5663 72.7778 25.3694 73.0285L23.5432 75.2843C23.3105 75.5708 23.0598 75.7856 22.7734 75.893C22.4869 76.0005 22.1826 76.0542 21.8782 76.0363C21.5738 76.0005 21.3053 75.9468 21.0367 75.8214C20.7861 75.714 20.5354 75.5708 20.3564 75.4096C20.052 75.159 19.8014 74.8904 19.6224 74.6219C19.4433 74.3354 19.318 74.0669 19.2822 73.7983C19.2285 73.5298 19.2285 73.2791 19.3001 73.0285C19.3717 72.7778 19.4612 72.563 19.6224 72.366L22.0751 69.2866C22.1468 69.1971 22.1826 69.1255 22.2005 69.036C22.2184 68.9464 22.2184 68.8569 22.1647 68.7495C22.1468 68.66 22.0751 68.5705 22.0035 68.481C21.914 68.3735 21.8603 68.3019 21.7887 68.2482L22.0035 67.9976L24.1341 69.6984L23.9371 69.949C23.8655 69.8953 23.776 69.8416 23.6507 69.7879C23.5432 69.7163 23.4537 69.6805 23.3821 69.6447C23.2747 69.6089 23.1852 69.6089 23.0956 69.6805C23.0061 69.7163 22.9345 69.7879 22.8808 69.8774L20.5891 72.742C20.4817 72.8852 20.3743 73.0285 20.2848 73.2075C20.1774 73.3865 20.1236 73.5835 20.1236 73.7804C20.1057 73.9953 20.1416 74.1922 20.249 74.407C20.3385 74.6219 20.5354 74.8546 20.8398 75.0874C21.1083 75.3022 21.359 75.4454 21.6096 75.4992C21.8603 75.5708 22.093 75.5708 22.3079 75.4992C22.5048 75.4454 22.7018 75.3738 22.8629 75.2664C23.024 75.159 23.1673 75.0158 23.2747 74.8725L24.9755 72.742C25.1904 72.4735 25.3515 72.2407 25.441 72.0259C25.5484 71.8289 25.5842 71.6857 25.5484 71.5604C25.5126 71.435 25.441 71.2918 25.2978 71.1486C25.1904 70.9875 25.0829 70.88 25.0113 70.8263L25.2083 70.5578L27.3388 72.2586L27.124 72.5451Z" fill="white"></path>
  <path d="M34.4644 76.0364C34.3748 76.0006 34.2495 75.9827 34.0526 75.929C33.8735 75.8932 33.7303 75.8753 33.6408 75.8932C33.4976 75.9111 33.3722 76.0185 33.2469 76.2155C33.1216 76.4124 32.9784 76.6452 32.8351 76.9674L30.812 81.4075L30.4361 81.2285L29.0396 74.6221L27.6252 77.7373C27.4641 78.0954 27.3566 78.3818 27.3208 78.5788C27.285 78.7936 27.285 78.9547 27.3387 79.0801C27.3745 79.1696 27.482 79.2949 27.661 79.4381C27.84 79.5814 27.9475 79.6709 28.0191 79.7067L27.8938 79.9931L25.4052 78.8652L25.5305 78.5609C25.62 78.5967 25.7453 78.6146 25.9602 78.6504C26.1571 78.6862 26.3003 78.6862 26.354 78.6862C26.4794 78.6504 26.6047 78.5429 26.73 78.3997C26.8374 78.2565 26.9807 77.9879 27.1776 77.5762L28.5383 74.5863C28.592 74.4609 28.6457 74.3177 28.6636 74.1566C28.6815 74.0133 28.6636 73.888 28.6278 73.7806C28.5562 73.6374 28.4667 73.4941 28.3234 73.3509C28.1802 73.2077 28.0549 73.1003 27.9475 73.0466L28.0907 72.7422L29.8273 73.5299L31.1164 79.653L32.4234 76.7884C32.5845 76.4303 32.6919 76.1618 32.7277 75.9469C32.7635 75.7321 32.7635 75.5889 32.6919 75.4814C32.6382 75.3919 32.5308 75.2845 32.3875 75.1413C32.2264 75.0159 32.119 74.9264 32.0116 74.8727L32.1548 74.5863L34.6076 75.6963L34.4644 76.0364Z" fill="white"></path>
  <path d="M41.4289 80.5124C41.3394 81.0674 41.1424 81.5329 40.856 81.9088C40.5695 82.2669 40.2293 82.5534 39.8534 82.7682C39.4595 82.9651 39.0477 83.0905 38.618 83.1442C38.1704 83.1979 37.7407 83.18 37.2932 83.1084L34.5897 82.6071L34.6434 82.2848C34.7329 82.3027 34.8404 82.3206 35.0015 82.3206C35.1447 82.3385 35.2522 82.3385 35.3059 82.3206C35.3954 82.2848 35.4849 82.249 35.5386 82.1774C35.5923 82.1058 35.6281 82.0163 35.646 81.9088L36.5233 77.1644C36.5233 77.057 36.5233 76.9674 36.5233 76.8779C36.5054 76.7884 36.4517 76.6989 36.3443 76.6452C36.2548 76.5915 36.1652 76.5199 36.0578 76.484C35.9504 76.4482 35.8609 76.4124 35.7893 76.3945L35.843 76.0723L38.6896 76.5915C39.0835 76.6631 39.4595 76.7884 39.8176 76.9853C40.1577 77.1823 40.48 77.3971 40.7127 77.6478C41.0529 77.9879 41.2678 78.3997 41.411 78.8831C41.5184 79.3665 41.5363 79.9036 41.4289 80.5124ZM40.3189 80.2975C40.4084 79.8678 40.4263 79.4381 40.3726 79.0801C40.301 78.7041 40.1935 78.3639 40.0324 78.0417C39.8713 77.7552 39.6385 77.5046 39.37 77.3076C39.0835 77.1107 38.7613 76.9674 38.3853 76.8958C38.26 76.8779 38.1167 76.86 37.9556 76.8242C37.7945 76.8063 37.687 76.7884 37.6154 76.7705L36.6844 81.8193C36.6307 82.1058 36.6844 82.3027 36.8277 82.4459C36.9709 82.5713 37.2036 82.6787 37.5438 82.7324C37.9377 82.804 38.2779 82.804 38.6001 82.7145C38.9045 82.625 39.173 82.4638 39.4058 82.2669C39.6385 82.0521 39.8355 81.7656 39.9787 81.4612C40.1219 81.139 40.2293 80.7451 40.3189 80.2975Z" fill="white"></path>
  <path d="M49.4318 81.6583L49.396 83.6277L43.8817 83.8963L43.8638 83.5561C43.9533 83.5561 44.0786 83.5382 44.2397 83.5024C44.4009 83.4845 44.4904 83.4487 44.5441 83.4308C44.6336 83.3771 44.7052 83.3234 44.741 83.2339C44.7768 83.1443 44.7948 83.0548 44.7768 82.9474L44.5441 78.1672C44.5441 78.0597 44.5262 77.9702 44.4725 77.8807C44.4367 77.8091 44.3651 77.7375 44.2576 77.7017C44.1681 77.6659 44.0428 77.63 43.9175 77.6121C43.7742 77.5763 43.6489 77.5763 43.5773 77.5584L43.5415 77.2362L48.6798 77.0034L48.7514 78.6147L48.3934 78.6326C48.3218 78.3999 48.1785 78.1492 47.9458 77.8986C47.7309 77.6479 47.5161 77.5047 47.3371 77.4868C47.2296 77.4689 47.1222 77.4689 46.979 77.4689C46.8358 77.4689 46.6925 77.4689 46.5314 77.4868L45.493 77.5405L45.6183 80.1724L46.3703 80.1365C46.603 80.1186 46.782 80.1007 46.8895 80.047C46.9969 79.9933 47.0864 79.9217 47.1759 79.8143C47.2296 79.7248 47.2833 79.5994 47.3371 79.4383C47.3729 79.2951 47.3908 79.1518 47.4087 79.0086H47.7667L47.8921 81.5867L47.534 81.6046C47.5161 81.4435 47.4803 81.3003 47.4087 81.1392C47.355 80.978 47.2833 80.8706 47.2296 80.799C47.1222 80.6737 47.0148 80.6199 46.8895 80.5662C46.7641 80.5483 46.603 80.5304 46.4061 80.5304L45.6541 80.5841L45.7436 82.5714C45.7436 82.7684 45.7794 82.9295 45.8153 83.0548C45.8511 83.1622 45.9048 83.2518 45.9943 83.3055C46.0838 83.3592 46.1912 83.395 46.3345 83.395C46.4598 83.4129 46.6746 83.4129 46.9074 83.395C47.0148 83.3771 47.158 83.3771 47.3192 83.3771C47.4982 83.3592 47.6235 83.3592 47.7309 83.3413C47.8384 83.3234 47.9637 83.3055 48.089 83.2518C48.2143 83.216 48.3039 83.1623 48.3576 83.1085C48.4829 82.9474 48.6261 82.7147 48.7693 82.4103C48.9126 82.1059 49.0021 81.8732 49.0379 81.73L49.4318 81.6583Z" fill="white"></path>
  <path d="M57.6495 78.2744C57.8106 78.8115 57.8465 79.3128 57.7569 79.7783C57.6674 80.2259 57.4884 80.6377 57.2556 80.9778C56.9871 81.3359 56.6827 81.6224 56.3067 81.873C55.9308 82.1058 55.5369 82.3027 55.0893 82.428L52.4396 83.18L52.368 82.8577C52.4396 82.8398 52.5649 82.7861 52.6902 82.7324C52.8334 82.6787 52.923 82.625 52.9588 82.5892C53.0304 82.5355 53.0841 82.4459 53.102 82.3564C53.102 82.2669 53.102 82.1774 53.0841 82.07L51.7592 77.4508C51.7234 77.3434 51.6876 77.2539 51.6339 77.1823C51.5802 77.1107 51.4907 77.057 51.3654 77.0391C51.2579 77.0212 51.1505 77.0212 51.0431 77.0212C50.9357 77.0391 50.8282 77.0391 50.7566 77.057L50.6671 76.7526L53.4422 75.9648C53.836 75.8574 54.2299 75.8037 54.6238 75.8037C55.0356 75.8216 55.3937 75.8932 55.7338 76.0007C56.1814 76.1618 56.5753 76.4303 56.9155 76.8063C57.2377 77.2002 57.4884 77.6836 57.6495 78.2744ZM56.5574 78.5788C56.4321 78.1491 56.2709 77.7731 56.0561 77.4508C55.8412 77.1286 55.5906 76.8958 55.3041 76.6989C55.0177 76.502 54.7133 76.3766 54.3732 76.3408C54.033 76.2871 53.6749 76.305 53.2989 76.4124C53.1736 76.4482 53.0483 76.502 52.8872 76.5378C52.726 76.5736 52.6186 76.6273 52.547 76.6452L53.9435 81.5687C54.0151 81.8372 54.1583 81.9983 54.3553 82.07C54.5343 82.1237 54.8028 82.1058 55.1251 82.0162C55.5011 81.9088 55.8233 81.7477 56.074 81.5329C56.3067 81.318 56.5037 81.0495 56.6111 80.763C56.7364 80.4586 56.7722 80.1185 56.7722 79.7604C56.7543 79.4023 56.6827 79.0085 56.5574 78.5788Z" fill="white"></path>
  <path d="M72.0977 70.1998C72.4557 70.5758 72.599 71.0592 72.5274 71.65C72.4557 72.2408 72.1514 72.7779 71.6143 73.2971C71.113 73.7805 70.5938 74.0312 70.0567 74.0491C69.5195 74.0849 69.0541 73.9058 68.6781 73.512C68.4095 73.2076 68.2663 72.8853 68.2484 72.5273C68.2484 72.1513 68.3379 71.7395 68.5707 71.2919C68.141 71.3993 67.7471 71.4173 67.4248 71.3635C67.1026 71.3098 66.834 71.1487 66.6013 70.916C66.2432 70.54 66.1179 70.0924 66.1895 69.5374C66.279 68.9824 66.5297 68.5169 66.9772 68.1051C67.4069 67.6933 67.8724 67.4606 68.3737 67.4606C68.875 67.4248 69.2868 67.6038 69.627 67.944C69.8418 68.1767 69.9671 68.4632 70.0209 68.8033C70.0746 69.1614 70.0029 69.5374 69.8418 69.9313C70.361 69.7164 70.8086 69.6448 71.1667 69.6806C71.4889 69.7343 71.8112 69.8954 72.0977 70.1998ZM68.9287 68.5348C68.6602 68.2662 68.3737 68.123 68.0515 68.1051C67.7292 68.0872 67.4248 68.2125 67.1742 68.4453C66.9235 68.6959 66.7803 68.9645 66.7803 69.2867C66.7624 69.609 66.8877 69.8954 67.1205 70.1461C67.3353 70.3788 67.6218 70.5042 67.9619 70.4863C68.3021 70.4863 68.8034 70.343 69.4479 70.0745C69.5195 69.8059 69.5016 69.5553 69.4121 69.2867C69.3226 69.0182 69.1615 68.7854 68.9287 68.5348ZM71.5606 71.0055C71.4352 70.8622 71.292 70.7548 71.113 70.719C70.9339 70.6832 70.7728 70.6653 70.558 70.6832C70.361 70.7011 70.1283 70.7727 69.8418 70.8622C69.5554 70.9518 69.251 71.0771 68.9287 71.2024C68.8213 71.5247 68.8034 71.829 68.8571 72.0976C68.9287 72.384 69.072 72.6347 69.2868 72.8674C69.6091 73.2076 69.9671 73.3687 70.361 73.3866C70.7549 73.3866 71.113 73.2613 71.4352 72.9391C71.7575 72.6347 71.9186 72.3124 71.9365 71.9723C71.9544 71.5963 71.8291 71.274 71.5606 71.0055Z" fill="white"></path>
  <path d="M74.8549 63.2893C75.3025 63.6115 75.6606 63.9696 75.9649 64.3993C76.2514 64.8111 76.4483 65.2587 76.5557 65.7242C76.6632 66.1897 76.6811 66.6731 76.6095 67.1744C76.5378 67.6936 76.3767 68.1949 76.1082 68.6962L75.7143 68.5171L75.8933 68.1232C76.1261 67.4429 76.1619 66.8342 76.0186 66.2613C75.8933 65.7063 75.571 65.1871 75.0876 64.7037C75.1056 65.0438 75.0877 65.3482 75.0339 65.5988C74.9623 65.8674 74.837 66.1359 74.658 66.3866C74.3715 66.7984 73.9418 67.049 73.4047 67.1206C72.8676 67.1923 72.3484 67.0669 71.865 66.7089C71.3458 66.3329 71.0235 65.8495 70.9161 65.2229C70.8087 64.6141 70.934 64.0591 71.31 63.522C71.7218 62.9491 72.241 62.6447 72.8855 62.6089C73.5121 62.591 74.1746 62.8059 74.8549 63.2893ZM74.2462 64.077C73.6554 63.6474 73.1183 63.4146 72.6349 63.3788C72.1694 63.3251 71.8113 63.4683 71.5965 63.7906C71.3816 64.0949 71.3279 64.4351 71.4711 64.8111C71.5786 65.1871 71.9008 65.5272 72.3484 65.8674C72.7602 66.1539 73.1541 66.2971 73.5479 66.2792C73.9418 66.2613 74.2462 66.1001 74.461 65.7779C74.6043 65.563 74.6938 65.3661 74.7475 65.1333C74.8012 64.9185 74.7833 64.6858 74.7296 64.4172C74.7117 64.4172 74.6938 64.3993 74.6759 64.3814C74.6401 64.3635 74.6043 64.3277 74.5505 64.274C74.5147 64.2561 74.4789 64.2203 74.4252 64.1845C74.3536 64.1666 74.2999 64.1128 74.2462 64.077Z" fill="white"></path>
  <path d="M76.0006 55.9666L80.4228 61.6779L80.1722 62.215L76.0902 56.8976L75.3203 58.5448C75.2129 58.7775 75.1234 58.9744 75.0518 59.1177C74.998 59.2609 74.9622 59.4041 74.9622 59.5473C74.9622 59.6548 75.0159 59.7801 75.1413 59.9054C75.2487 60.0486 75.4277 60.1919 75.6426 60.3351L75.5351 60.6037L73.8701 59.8338L75.7142 55.8413L76.0006 55.9666Z" fill="white"></path>
  <path d="M14.3049 44.7592C14.3049 61.5527 27.9654 75.2132 44.7589 75.2132C61.5525 75.2132 75.2129 61.5527 75.2129 44.7592C75.2129 27.9656 61.5525 14.3052 44.7589 14.3052C27.9475 14.3052 14.3049 27.9656 14.3049 44.7592ZM15.039 44.7592C15.039 28.3774 28.3592 15.0571 44.741 15.0571C61.1228 15.0571 74.4431 28.3774 74.4431 44.7592C74.4431 61.1409 61.1228 74.4612 44.741 74.4612C28.3592 74.4612 15.039 61.1409 15.039 44.7592Z" fill="white"></path>
  <path d="M44.741 14.9676C28.2876 14.9676 14.9495 28.3058 14.9495 44.7592C14.9495 61.2126 28.2876 74.5507 44.741 74.5507C61.1944 74.5507 74.5326 61.2126 74.5326 44.7592C74.5326 28.3058 61.1944 14.9676 44.741 14.9676ZM46.1196 34.9838L46.8178 34.5004C46.9074 34.9659 47.0864 35.4493 47.5161 35.7537L45.6899 38.1886C45.672 38.9405 46.3165 39.3881 46.6388 39.9968C46.424 40.6772 45.5109 41.1426 45.7615 41.9483C46.3523 42.4854 46.8894 43.5775 47.7667 43.3269C48.0711 43.112 48.2501 42.7719 48.0711 42.4675L47.2654 41.5723C47.4803 40.9278 48.3396 40.4444 48.0174 39.6387C46.1733 38.5824 48.268 37.5082 48.644 36.4519C48.1785 35.6283 49.1632 35.7716 49.4676 35.324C49.6466 37.4903 48.8051 40.2296 51.1505 41.3217C52.2784 41.9125 53.8181 41.823 54.9103 41.2501C55.9487 40.6951 56.7722 39.6208 57.2914 38.6361L57.3989 38.7615C57.2377 39.6387 56.6469 40.7846 57.3989 41.5723C58.1687 42.3243 59.3324 42.4854 60.3708 42.181C56.6827 42.933 51.8666 42.2706 50.1479 46.3884C49.8973 48.125 50.2016 49.9512 51.0789 51.3835L49.6287 51.6521C49.2169 50.2019 48.9484 48.68 48.5724 47.212C48.3754 46.9792 48.089 46.7465 47.8204 46.8897C47.5877 46.9076 47.4086 47.1582 47.3191 47.3373C47.4624 48.9486 48.0353 50.3809 48.268 51.9743C47.7667 52.2071 47.1222 52.1892 46.8178 52.7084C46.5851 53.1201 46.9611 53.5319 47.3191 53.6393C49.575 53.0127 51.992 52.2966 54.4627 52.583C56.2888 53.9258 58.491 53.6214 60.7289 53.5677C61.1228 53.3529 61.2123 52.8874 60.9975 52.583C59.9233 51.7953 58.6879 52.583 57.3989 52.3145C55.8412 51.8311 54.4627 50.6852 52.5828 51.1328C51.5981 49.8259 51.061 47.9997 51.5981 46.3705C52.8513 44.3832 55.2683 44.1325 57.4884 43.9356C60.0665 43.9535 62.4477 43.2195 64.059 41.1785C64.5424 41.2859 64.8646 41.0352 65.1869 40.7488C65.7777 41.0889 66.7087 40.9457 67.0668 41.626C67.5144 42.2885 68.6781 41.7872 68.7497 42.8077C69.251 43.4522 70.0567 43.4343 70.7012 43.7387L72.0798 43.0583C72.8675 43.309 73.6374 44.1683 74.5147 43.6133C74.8907 54.8926 69.2689 65.2767 59.225 70.8984C50.3448 76.3769 36.4875 75.5891 28.1265 69.5019C19.6223 63.6833 15.1464 54.8568 14.9674 44.9382C16.4355 44.8666 17.7245 46.0124 19.1747 45.2605C19.5865 44.974 19.9983 44.5622 19.9267 44.0251C20.0341 43.3627 19.5686 42.8614 19.0315 42.5749C18.942 42.5928 18.9062 42.4854 18.8524 42.4675C19.5686 42.5212 20.3205 43.0583 21.162 42.7719C22.1825 42.7182 23.2925 41.5365 24.2235 42.5928C24.9576 42.754 25.7095 42.6286 26.3003 42.199C26.8195 41.8409 26.8732 41.1964 26.73 40.6413C26.5152 40.3191 26.2824 39.9252 25.9065 39.7104L26.175 39.585C26.9986 40.1938 27.9296 40.713 29.0396 40.4086C29.5051 39.7999 30.0422 40.3728 30.6151 40.2654C32.6203 43.1478 36.022 43.2374 38.6001 45.0098C39.4774 45.8155 39.3162 47.1045 38.9761 48.0892C39.3879 48.8233 38.4748 49.2351 38.7254 49.8975L37.9019 51.7774C35.6281 51.5804 33.1216 52.4398 30.8836 51.7774C30.4719 51.9385 30.3644 52.404 30.5077 52.78C31.188 53.335 32.1548 53.2455 33.0142 53.335C35.0194 53.3887 37.4543 52.7084 39.2804 53.6572C39.6385 53.6751 39.9966 53.4245 40.104 53.1022C40.1219 52.583 39.6385 52.2787 39.2446 52.1712C39.5132 51.5625 39.8533 50.9717 39.9966 50.2914C40.2651 50.3451 40.4442 50.2019 40.6769 50.1481C40.5337 50.6315 40.6053 51.294 41.1424 51.473C41.4826 51.5625 41.7153 51.3477 41.9302 51.097C41.8585 51.2045 42.0734 51.5625 41.9839 51.8669C41.5721 52.028 41.1961 52.3503 40.9276 52.7263C40.8201 53.138 41.035 53.5677 41.4289 53.6572C42.0555 53.8005 42.2882 52.7979 42.9328 53.1559C43.2729 53.3887 43.5773 53.89 44.0607 53.5856C44.365 53.3171 44.5441 52.9411 44.3113 52.6009C44.0428 52.3145 43.7384 52.0101 43.3624 51.9027C43.3445 50.2735 43.1297 48.8591 43.2908 47.212C43.7205 44.5622 44.8126 42.1094 44.2934 39.1374C44.007 38.1348 44.186 36.8816 43.4341 36.1296C42.9686 36.0043 42.5389 36.2729 42.4852 36.7026C43.0044 38.8868 43.3624 41.6439 42.6642 43.8998C42.4494 44.9382 42.1271 45.9408 41.9839 47.0329C41.4289 47.015 41.3751 46.6032 40.9276 46.3347H40.6053C40.5874 45.8692 41.2498 46.0661 41.3393 45.5827C41.393 45.2247 41.1961 44.9024 40.9097 44.7771H40.5337C40.9097 44.5443 40.9813 44.1325 40.838 43.7566C40.6769 43.4701 40.3188 43.4164 39.9787 43.4522C40.2114 43.0583 39.8354 42.7003 39.5311 42.5212L38.9045 42.6644C38.8686 42.4138 38.7433 42.1452 38.5106 42.0378C38.2599 41.8767 37.9556 42.0199 37.7049 42.0915C37.8123 41.7693 37.5617 41.5365 37.3468 41.4112C37.0604 41.4112 36.7918 41.3754 36.577 41.5365C36.4338 41.1247 35.9504 40.9815 35.5744 41.1426L35.4491 41.2501C35.3058 40.6055 34.4465 41.0173 34.3748 40.4623C34.2316 40.1759 33.9631 40.2296 33.7482 40.1579C33.981 39.6746 34.2674 40.2475 34.5539 40.2117C35.0194 40.4623 35.6281 40.3191 36.0757 40.0863C36.5054 39.7641 36.5412 39.1912 36.5054 38.7615C37.5438 39.6746 38.7791 40.3012 40.1935 40.0863C40.4442 39.4776 42.0197 39.8536 41.5721 38.7078C41.214 38.4034 41.8944 38.3855 41.8944 38.0811C42.0018 37.6873 41.769 37.365 41.4647 37.2039C41.3035 37.2576 41.2498 37.0785 41.1066 37.1501C41.2856 37.1501 41.5363 36.8279 41.6437 36.6488C41.7511 36.255 41.5005 35.879 41.1424 35.7895H40.838V35.4672C41.6795 35.9148 42.2345 34.572 42.9507 35.3956C43.5236 35.3598 44.1144 35.0733 44.3471 34.5362L44.4009 34.2677C44.7768 34.7511 45.4214 35.3061 46.1196 34.9838ZM73.2077 36.058L72.3304 36.2371C72.0798 35.8253 72.7959 35.7358 72.9571 35.3598C73.1361 35.5567 73.1361 35.8074 73.2077 36.058ZM73.6553 37.4724C73.7806 37.8663 73.333 37.9021 73.154 38.099C72.7601 38.0453 72.3125 37.9916 72.0977 37.6694C72.2409 37.1681 72.8138 37.1143 73.2256 36.989C73.5479 36.9532 73.6016 37.2218 73.6553 37.4724ZM51.7055 37.9379C52.5112 38.296 53.2631 37.7768 54.0151 37.6694L54.212 37.4724C54.033 37.9379 54.2299 38.4034 54.5164 38.7257C54.767 38.9047 54.9819 39.1374 55.3399 39.03C54.8923 39.8715 54.0509 40.2475 53.1915 40.3549C52.4754 40.4444 51.9025 40.1938 51.3832 39.8357C50.5776 39.2449 50.8461 38.1348 50.882 37.2755C51.1863 37.3471 51.4191 37.7768 51.7055 37.9379ZM74.1566 39.8178C73.7985 40.337 73.2077 40.1221 72.7064 39.9789C72.42 39.9252 72.2767 39.4955 72.5274 39.2986C72.8138 38.9942 73.2972 39.1374 73.6553 38.9226C74.1208 38.8689 74.0492 39.4776 74.1566 39.8178ZM60.532 39.9789L61.4093 40.1759C60.89 40.7846 59.78 41.0889 58.7953 40.8741C58.2224 40.8562 58.4194 40.3012 58.4194 39.9431L58.7416 39.0479C59.1892 39.2628 60.0486 38.6003 59.9233 39.4955L60.532 39.9789ZM71.8291 40.4802L71.5069 40.3728H71.6859L71.8291 40.4802ZM71.6859 41.5007C71.6501 41.7156 71.6143 41.9304 71.6501 42.1632L70.7012 42.7361C70.2178 42.6286 69.7523 42.5033 69.3942 42.1273C69.3047 41.6618 69.7344 41.4828 70.0209 41.3038C70.558 41.2143 71.2383 41.1785 71.6859 41.5007ZM74.2819 41.2322C74.2461 41.7335 74.9623 42.8435 73.9059 42.8793C73.4763 42.5033 72.4916 42.6644 72.599 41.823C73.0287 41.3217 73.6195 41.1785 74.2819 41.2322ZM52.0815 16.3462C52.0457 16.8654 51.5623 17.2772 51.1505 17.5994C50.864 17.7069 50.3986 17.4562 50.3986 17.0981C50.2911 16.4894 51.2042 16.2388 50.7924 15.5763C51.2042 15.8449 52.2247 15.5405 52.0815 16.3462ZM53.0841 16.1672C53.2631 16.2746 53.0483 16.382 53.0125 16.4894L52.9588 16.1672H53.0841ZM54.8565 17.2951L54.1046 17.8501C53.6928 17.6531 53.836 16.9907 53.9614 16.6685C54.212 16.3283 54.5164 16.7759 54.8565 16.7222V17.2951ZM52.9051 17.4741C52.5291 17.5815 52.2605 17.868 51.9562 18.1724L52.8513 17.1698C52.9409 17.1698 52.8871 17.3667 52.9051 17.4741ZM57.1661 18.2261C57.0945 18.6557 56.6111 18.8706 56.2888 19.0854C56.0919 19.1212 55.8412 18.9959 55.8412 18.7811C55.7696 18.2082 56.0382 17.7606 56.4142 17.4025C56.808 17.4741 57.3988 17.7069 57.1661 18.2261ZM53.6033 19.3003C53.6212 19.7121 53.1378 19.9985 52.8513 20.2313C52.6723 20.1955 52.4754 20.1238 52.4575 19.909C52.35 19.2824 52.5828 18.799 53.0125 18.4051C53.5854 18.3872 53.5675 18.8706 53.6033 19.3003ZM59.6726 19.1033C59.8516 19.9269 58.9565 20.088 58.4731 20.4282C58.1508 20.5177 57.9181 20.3029 57.8643 20.0522C57.8106 19.3898 58.115 18.8885 58.5268 18.423C58.9565 18.5841 59.3682 18.799 59.6726 19.1033ZM51.5981 20.4819C51.2758 20.7505 51.0431 21.1802 50.5955 21.1085C50.2374 20.8221 50.2553 20.285 50.3448 19.8553C50.506 19.4793 50.7208 18.9959 51.1505 18.8527C52.0278 18.978 51.2758 20.0164 51.5981 20.4819ZM55.8412 20.4282C55.4653 20.6789 55.0714 21.2876 54.588 20.9832C54.4269 20.3924 54.588 19.7658 55.0535 19.354C55.2146 19.8016 56.074 19.8016 55.8412 20.4282ZM57.2377 20.7863C56.9871 21.1623 56.4858 21.6098 56.0382 21.5382L55.9845 21.4845C56.6648 21.1981 56.8796 20.4998 56.8438 19.8016C57.0766 20.0164 56.9155 20.5356 57.2377 20.7863ZM61.9822 21.0906C61.5525 21.2697 61.1765 21.8068 60.6752 21.5919C60.2276 21.2697 60.6931 20.8221 60.7289 20.464C61.0333 19.354 62.3581 20.5356 61.9822 21.0906ZM58.7953 21.3592C57.7927 21.7352 58.0076 23.0779 56.9155 23.1675C56.9513 22.8989 56.9871 22.5945 56.9692 22.3081C57.6495 21.9858 57.8822 21.0727 58.7953 21.2876C59.1176 21.2697 59.3682 20.8042 59.601 20.8937C59.6189 21.3413 59.0281 21.0906 58.7953 21.3592ZM53.6033 21.2876C53.7107 21.6277 53.6391 22.0395 53.657 22.4155C53.2989 22.6124 52.9946 23.2212 52.5291 23.0421C52.2247 22.7736 52.2963 22.1828 52.4575 21.8426C52.6007 21.4845 53.1557 20.7326 53.6033 21.2876ZM64.238 22.3081C64.2917 22.8989 63.5398 22.9347 63.1817 23.1675C62.8773 23.2033 62.573 23.1495 62.4835 22.8631C62.5551 22.326 62.7878 21.8784 63.2354 21.4845C63.5935 21.6635 63.9337 21.95 64.238 22.3081ZM59.7263 23.2391C59.3862 23.4539 59.0102 23.812 58.5984 23.6687C58.4014 23.3286 58.6521 22.8094 58.849 22.4692C59.1176 22.2723 59.4041 21.9858 59.7263 22.0932C60.0128 22.4334 59.7263 22.8452 59.7263 23.2391ZM56.0382 22.7378C55.7696 22.9705 55.4653 23.2033 55.0893 23.2391C54.7312 22.9168 54.9819 22.4155 55.1609 22.1111C55.4295 22.3618 55.9666 22.3976 56.0382 22.7378ZM51.9562 23.7941C51.7055 23.991 51.5265 24.3491 51.1326 24.2238C50.8103 23.9552 50.9536 23.3823 51.0073 23.0421L51.3116 22.5408C51.4549 22.9347 51.5444 23.4539 51.9562 23.7941ZM61.6778 23.2391L61.4272 24.2954C60.9438 24.5281 60.4246 24.8862 59.8695 24.7251C59.7442 24.6176 59.6905 24.5102 59.6905 24.3491C59.9949 24.1163 60.4604 24.0984 60.6394 23.6687C60.7647 23.2928 60.5499 22.6482 61.0691 22.5408C61.5167 22.4334 61.6778 22.8452 61.6778 23.2391ZM65.8135 23.7225C65.8314 24.2954 65.1332 24.1701 64.793 24.4207C64.4529 24.4923 64.0769 24.5102 63.9337 24.1163C63.9337 23.6867 64.5066 23.6688 64.793 23.4181L64.99 23.06C65.3301 23.1316 65.545 23.4897 65.8135 23.7225ZM54.8565 24.4923C54.5164 24.743 54.1762 25.101 53.7286 25.1189C53.4064 24.922 53.5496 24.4386 53.6033 24.188L54.1046 23.4181C54.1583 23.9731 55.0356 23.9015 54.8565 24.4923ZM58.1687 25.101C57.7927 25.3696 57.3988 25.6023 56.9334 25.5844C56.5574 25.298 56.808 24.7788 56.9871 24.4744L57.6137 23.8478C57.6674 24.367 58.6163 24.3849 58.1687 25.101ZM63.6293 25.674C63.128 25.7814 62.4656 26.2648 62.0001 25.7456C62.0001 25.0652 62.4118 24.4744 63.0027 24.1701C62.9311 24.8146 64.1127 25.0831 63.6293 25.674ZM66.9952 24.9757C66.7624 25.3338 66.5297 24.9041 66.2432 24.922L66.476 24.546C66.7266 24.6714 66.8877 24.743 66.9952 24.9757ZM56.3425 26.3543C56.1635 26.6049 55.7159 26.7124 55.4116 26.6586C54.9998 26.3006 55.1967 25.7277 55.4116 25.3338L55.7875 24.8325C55.8591 25.3517 55.8412 26.0499 56.3425 26.3543ZM52.8513 25.5486C53.0841 26.2648 52.5112 26.8198 51.9562 27.0346C51.6339 27.0704 51.5802 26.784 51.5265 26.5333C51.5981 25.9962 51.8129 25.3517 52.3858 25.101C52.7618 24.9936 52.6365 25.4233 52.8513 25.5486ZM60.2992 25.7456C60.4067 26.4259 59.5831 26.4617 59.1534 26.6766C58.8848 26.7124 58.5626 26.6407 58.4731 26.3722C58.294 25.7456 59.2071 25.9067 59.0997 25.298C59.422 25.6202 59.8695 25.6919 60.2992 25.7456ZM65.6882 25.9067C65.4376 26.3185 65.3838 26.8914 65.4376 27.3569C65.5271 27.518 65.6166 27.6792 65.7419 27.7866C65.3839 28.0014 64.793 28.1267 64.2917 27.9835C63.9516 27.6971 64.1127 27.2853 64.238 26.9272C64.5961 26.4259 65.0974 26.0141 65.6882 25.9067ZM67.8187 26.0499C67.7113 26.4975 67.5502 27.2674 66.8877 27.1599C66.6908 27.1241 66.4402 27.2674 66.3327 27.0346C66.3864 26.6049 66.655 26.1394 67.0847 25.9783C67.2637 25.9067 67.6397 25.853 67.8187 26.0499ZM54.8565 27.3569C54.391 27.7329 53.8539 28.1625 53.2094 27.9835C53.0662 27.8582 52.9946 27.6612 53.0304 27.4285C53.2989 27.1599 53.7644 27.0346 53.8002 26.6228C53.7465 26.2648 53.836 25.9425 54.2478 26.0141C54.2836 26.4975 54.3552 27.0167 54.8565 27.3569ZM62.0538 26.9093C61.821 27.0525 61.5167 27.1779 61.2302 27.0346V26.4259C61.5346 26.5154 61.7494 26.8198 62.0538 26.9093ZM57.7927 27.0346C57.7032 27.0704 57.4884 27.2674 57.363 27.1062L57.2377 26.9809C57.4526 26.784 57.7211 26.6228 57.7927 27.0346ZM61.4272 28.0372C61.3197 28.4132 61.266 29.2726 60.5499 29.2189C60.2634 29.2189 59.9412 29.4874 59.6905 29.2189C59.3145 28.9682 59.6189 28.5206 59.7442 28.2163L60.4246 27.5896C60.7468 27.7508 60.9975 28.073 61.4272 28.0372ZM57.2377 28.0372C57.2914 28.825 56.7543 29.3442 56.0382 29.4874C55.7875 29.5411 55.6264 29.3979 55.4832 29.2368C55.5011 28.5922 55.7696 28.0014 56.3425 27.6792C56.7364 27.6075 56.8797 28.0372 57.2377 28.0372ZM58.9744 27.6792C58.5089 28.1805 58.9207 29.2189 57.9718 29.3621C58.1508 28.8966 57.8643 27.6971 58.7953 27.6792H58.9744ZM63.9874 28.8608C64.0232 29.559 63.307 29.4158 62.8594 29.5948C62.573 29.5948 62.3223 29.6127 62.1612 29.3442C62.1433 28.7534 62.5909 28.2521 63.0922 27.9656C63.3965 28.1625 63.5577 28.7534 63.9874 28.8608ZM69.8955 28.9145C69.3942 29.0219 68.9646 29.3979 68.6423 29.7918C68.4095 29.2905 68.9825 29.5232 69.1436 29.2905L69.627 28.5385C69.7702 28.5922 69.8955 28.7534 69.8955 28.9145ZM54.2836 29.8634C53.8898 30.0782 53.5675 30.5079 53.0304 30.4184C52.7081 30.0782 52.9409 29.5232 53.102 29.1652C53.4243 28.825 53.9614 29.0577 54.2836 28.7892C54.5701 29.0577 54.2836 29.5053 54.2836 29.8634ZM65.6882 28.7892C65.7061 28.8787 65.5987 28.9145 65.545 28.9861H65.1153C65.3122 28.9145 65.5092 28.8608 65.6882 28.7892ZM67.6218 29.5411C67.6934 29.8276 67.407 30.0961 67.2637 30.3647C66.8698 30.4005 66.5476 30.5258 66.1358 30.4721C65.7956 30.2752 66.0105 29.9529 66.1358 29.7202C66.5476 28.9145 67.031 29.6844 67.6218 29.5411ZM52.0815 30.5974C51.9741 30.7765 51.7413 30.9197 51.4549 30.866C51.1326 30.7407 51.3295 30.4184 51.2758 30.1857L51.9025 29.6127C52.0636 29.8455 51.8308 30.3647 52.0815 30.5974ZM70.7012 30.1677C70.7907 30.49 70.4864 30.6332 70.3252 30.8481C70.003 30.9197 69.5375 30.9913 69.251 30.7765C69.1615 30.311 69.6091 30.1857 69.8776 29.9171C70.2178 29.8276 70.5938 29.7202 70.7012 30.1677ZM59.7263 30.2394C59.8516 30.6332 59.4936 30.9913 59.3503 31.3673C58.8848 31.4926 58.4015 31.7254 57.9002 31.5284C57.5779 31.1883 57.936 30.7765 58.0792 30.4721L58.8311 29.8634C59.1534 29.9708 59.3682 30.2573 59.7263 30.2394ZM65.0616 29.935C64.7214 30.5616 65.724 31.045 64.9184 31.4926C64.4708 31.4926 63.6651 31.797 63.4324 31.2241C63.4682 30.4542 64.2559 30.3468 64.7572 29.9171H65.0616V29.935ZM62.6088 30.5437C62.5372 30.8839 62.5193 31.2062 62.3044 31.4926C61.821 31.4926 61.2302 31.797 60.8184 31.421C60.7468 30.8302 61.087 30.5795 61.4988 30.1857C61.8568 30.2931 62.1612 30.6153 62.6088 30.5437ZM56.5395 30.2931C56.3067 30.687 55.7875 30.866 55.2862 30.866C55.1072 30.7407 54.9103 30.4542 55.1609 30.2931C55.5369 30.4721 56.1635 30.4721 56.5395 30.2931ZM54.5343 32.0476C54.1046 32.2625 53.657 32.6205 53.1736 32.4773C52.7797 32.2088 53.1736 31.8865 53.1736 31.5284C53.4422 31.2778 53.8897 31.3315 54.1583 31.0629C54.4269 31.2599 54.767 31.6358 54.5343 32.0476ZM69.2689 31.797L68.8929 32.6563C68.4633 32.7638 67.8903 32.7817 67.586 32.4236C67.4428 31.8507 67.9978 31.4568 68.3916 31.2241C68.6065 31.4568 68.8929 31.797 69.2689 31.797ZM55.9845 31.7254C55.9129 32.2088 55.4116 32.5847 55.0893 32.9249C55.4832 32.5668 55.3041 31.6358 55.9845 31.7254ZM58.0971 32.5489C58.0971 32.8533 57.5063 32.907 57.1482 32.9786C56.9692 32.9965 56.7722 32.9786 56.6469 32.7817C56.5753 32.4236 56.7722 32.173 56.9692 31.9044C57.2556 32.2267 57.6137 32.6026 58.0971 32.5489ZM71.7754 32.2446C71.7396 32.6563 71.3636 32.9428 71.0772 33.2472C70.6296 33.2651 70.2357 33.2114 69.8955 33.0502C69.7523 32.6563 70.0746 32.2446 70.4506 32.1013C70.7728 31.8686 71.6322 31.7075 71.7754 32.2446ZM66.8161 32.8533C66.8698 33.1397 66.5297 33.2651 66.4581 33.4799C65.9747 33.3904 65.2943 33.6948 65.0079 33.2472C64.8825 32.728 65.4017 32.3699 65.7598 32.155C66.0284 32.0476 66.3685 31.976 66.655 32.0297C66.6013 32.352 66.655 32.6384 66.8161 32.8533ZM60.8542 32.5489C60.6215 32.531 59.9412 32.8712 59.601 32.4773C59.404 32.0655 59.9412 32.2804 60.0486 32.0476L60.8542 32.5489ZM64.059 33.6768C63.5219 33.7306 62.6804 33.8917 62.4298 33.3009C62.4298 32.8891 62.7341 32.5489 63.0564 32.2983L64.1306 32.5489L64.059 33.6768ZM52.7797 33.6768C52.35 33.9096 51.9025 34.2856 51.4012 34.1065C51.2042 33.7485 51.4549 33.2651 51.6518 32.9249L52.0815 32.5489C52.0994 33.0681 52.905 33.086 52.7797 33.6768ZM59.7979 33.6052C59.7084 33.9275 59.4757 34.1602 59.2966 34.4288C58.849 34.4825 58.3656 34.6078 58.0255 34.3035C57.8822 33.5515 58.7774 33.7127 58.9744 33.1756C59.2071 33.462 59.4757 33.5873 59.7979 33.6052ZM56.4679 33.8559C56.3246 33.9633 56.1098 33.8917 55.9128 33.9096C55.7875 33.7664 55.8591 33.5336 55.9845 33.4083L56.4679 33.8559ZM67.5144 33.6768L67.8187 33.6052C67.7471 33.5157 67.4965 33.4799 67.5144 33.6768ZM62.376 34.5541C62.0359 34.8764 61.4093 34.7332 60.9975 34.6795C60.7289 34.5004 60.9438 34.1961 61.0512 33.9991L61.4809 33.6231C61.7315 33.8917 61.9822 34.3214 62.376 34.5541ZM54.9819 34.1065C54.7133 34.6974 54.588 35.4493 53.7286 35.3598L53.2989 35.2345C53.1557 34.769 53.478 34.5004 53.7286 34.1782C54.0509 33.9454 54.8386 33.4799 54.9819 34.1065ZM72.6348 34.3035C72.5632 34.6436 72.1872 34.7511 71.9545 34.9838C71.5964 34.8764 71.1488 34.9659 70.8802 34.6615C70.8623 34.4467 70.9161 34.3035 71.0593 34.1782C71.5606 34.1065 72.5632 33.283 72.6348 34.3035ZM69.9493 34.0349C69.9672 34.2856 69.9851 34.6795 69.627 34.8585L68.8213 34.7332C68.6423 34.4288 69.072 34.1244 69.3047 34.0349C69.5554 33.9991 69.7165 33.9991 69.9493 34.0349ZM65.5092 34.6078C65.4913 35.0196 65.0974 35.2703 64.8825 35.5925C64.4529 35.5925 63.9516 35.6462 63.683 35.3419C63.7367 34.8048 64.3275 34.5541 64.7751 34.4109C65.0079 34.4288 65.3122 34.3751 65.5092 34.6078ZM67.8904 35.9148C67.5323 35.7895 67.0131 35.9506 66.8161 35.5567C66.7445 34.948 67.389 34.8048 67.765 34.5541C67.6218 35.0375 68.7139 35.4851 67.8904 35.9148ZM57.7211 35.3598C57.6316 36.1117 56.7364 35.7358 56.2172 35.9148C56.0024 35.8074 55.6801 35.9148 55.5369 35.6104C55.3937 35.3598 55.5548 35.0912 55.6622 34.8585C56.4321 35.2166 57.4347 34.0707 57.7211 35.3598ZM51.9562 35.127L51.7592 35.9864C51.4191 36.1475 51.1505 36.4519 50.7029 36.3624C50.3806 36.0222 50.7387 35.6642 50.8103 35.3598C51.061 34.7511 51.5444 35.2703 51.9562 35.127ZM61.1228 35.6821C61.0154 35.8253 60.9796 35.9864 60.8184 36.1117C60.2634 36.0759 59.5294 36.2371 59.2966 35.7358C59.0281 35.0912 59.9054 35.5388 60.0665 35.0375C60.3708 35.2882 60.6394 35.6462 61.1228 35.6821ZM71.2741 36.3624C70.7549 36.6667 70.3969 37.5261 69.6449 37.1143C69.3763 36.9174 68.8571 37.0069 68.7676 36.613C68.7318 36.2729 68.9109 35.9506 69.1973 35.7895C70.0388 36.2013 70.3789 35.0017 71.0414 35.7895C71.3994 35.6462 71.5069 36.2013 71.2741 36.3624ZM53.7107 36.2908C53.6749 36.8279 53.1915 36.9174 52.7797 37.0427C52.4754 36.9353 52.2426 37.2934 52.0278 36.989C52.2963 36.7205 52.7797 36.5414 52.7081 36.058C53.0662 36.1475 53.2989 36.3982 53.7107 36.2908ZM54.4627 36.989L54.7849 36.1834C55.3757 36.5593 54.4985 36.6309 54.4627 36.989ZM66.6908 36.6847L67.3174 36.7921C66.9952 37.0964 66.6192 37.4366 66.3864 37.8663C65.7956 37.7947 65.0258 37.8305 64.7751 37.2397C64.7572 36.613 65.4734 36.3982 65.8851 36.1834C66.2253 36.2013 66.4044 36.5235 66.6908 36.6847ZM63.6293 36.6847C63.5756 37.0606 63.128 37.3113 62.8773 37.6156C62.394 37.6335 61.8927 37.5977 61.6241 37.2397C61.7315 36.6847 62.3223 36.5414 62.7341 36.3624C63.0743 36.3624 63.504 36.2908 63.6293 36.6847ZM60.1023 37.0427C59.9949 37.4545 59.6189 37.7768 59.2966 38.099C58.8132 38.0811 58.2761 38.1886 57.9181 37.92C57.6495 37.4545 58.0971 37.0069 58.491 36.8458C59.0102 36.5951 59.4936 37.1501 60.1023 37.0427ZM56.9155 37.0427C56.9334 37.4903 56.5753 37.7768 56.3425 38.099C55.877 38.1169 55.4116 38.2244 55.0893 37.92C55.1251 37.365 55.698 36.989 56.1635 36.8458C56.4321 36.8637 56.7364 36.8279 56.9155 37.0427ZM69.3226 37.9916L68.5707 38.6899C68.1589 38.6003 67.6755 38.654 67.389 38.3139C67.21 37.8663 67.7471 37.8126 67.9441 37.5619C68.4096 37.4903 68.8392 37.92 69.3226 37.9916ZM62.6088 38.5645C62.4656 38.8152 62.197 39.0121 61.9822 39.2449C61.4988 39.2628 60.9438 39.2986 60.6752 38.8868C60.6394 38.6003 60.9796 38.4034 61.1765 38.2602C61.5883 38.5287 62.1433 38.4392 62.6088 38.5645ZM71.8291 38.7257C71.7575 39.4597 71.0772 39.406 70.5759 39.1733C70.4327 39.0837 70.4685 38.9405 70.4685 38.7973C70.7907 38.475 71.5069 38.0453 71.8291 38.7257ZM67.5144 39.4239L66.6908 40.2475C66.3506 40.0684 65.9389 40.1042 65.6345 39.8357C65.4913 39.4239 65.9568 39.1733 66.1895 39.0658C66.7266 38.6003 66.9952 39.4418 67.5144 39.4239ZM64.6856 39.1733C64.6319 39.4776 64.8646 40.1221 64.2917 40.2296C63.9516 40.14 63.5577 40.1759 63.307 39.9252C63.3428 39.3344 64.059 39.03 64.6856 39.1733ZM69.8239 40.3728C69.0004 40.4086 68.6781 41.9125 67.7471 40.9815C67.6934 40.8383 67.586 40.713 67.6218 40.5518C68.1589 40.0147 69.3047 39.6925 69.8239 40.3728ZM71.0235 40.3012C70.9161 40.3012 70.737 40.337 70.7549 40.1759L71.0235 40.3012ZM47.7667 15.1108C47.7667 15.5047 47.6593 16.1134 47.6951 16.5252C47.6414 16.5073 47.6056 16.561 47.5698 16.5968L47.1222 15.1108H47.7667ZM49.8435 15.7733C49.8435 16.2388 49.4139 16.6326 49.02 16.8296C48.823 16.758 48.6619 16.5431 48.644 16.3462C48.644 15.9702 48.6619 15.5942 48.7872 15.272C49.1811 15.3257 49.8614 15.2004 49.8435 15.7733ZM48.3217 18.3514C48.2501 18.6916 47.9816 18.9601 47.6951 19.2108C47.5161 19.1929 47.3549 19.0317 47.3191 18.8527C47.2833 18.3156 47.3549 17.7606 47.7667 17.4741C48.1964 17.492 48.1606 18.0291 48.3217 18.3514ZM50.0763 18.3514C49.9152 18.5304 49.754 18.6737 49.5213 18.6737C49.1453 18.5125 49.3243 18.1186 49.2169 17.8501C49.6466 17.2235 49.7361 18.1724 50.0763 18.3514ZM49.2706 20.7863C48.8947 21.1981 48.5724 22.0216 47.892 21.7889C47.4266 21.3771 47.4266 20.6251 47.6414 20.1059C48.1785 20.2134 48.5187 19.7121 48.823 19.354C49.2706 19.6046 49.3243 20.3029 49.2706 20.7863ZM50.0763 22.6124C49.7003 22.9168 49.4855 23.6508 48.8946 23.3644C48.644 23.2033 48.8588 22.8631 48.7156 22.6662C49.1811 22.5229 49.4497 22.0395 49.7719 21.6815C50.1658 21.8068 50.0763 22.326 50.0763 22.6124ZM48.268 23.991C47.8921 24.3312 47.7667 25.1727 47.0506 24.9757C46.6746 24.743 46.7641 24.188 46.7462 23.8657C47.2296 23.615 47.3728 23.0958 47.6951 22.7378C47.892 23.0958 47.8025 23.6688 48.268 23.991ZM45.0096 25.477C44.7052 25.5665 44.562 25.3159 44.4367 25.101V24.8504C44.8126 24.9578 45.2602 24.9578 45.493 24.5997C45.4035 24.922 45.2602 25.2085 45.0096 25.477ZM50.0763 25.3517C50.0942 25.7993 50.3269 26.2648 50.1479 26.7303C49.6645 27.1241 49.2885 27.894 48.6261 27.6792C48.1427 27.3211 48.2501 26.6766 48.3038 26.1753C48.5187 25.656 48.7335 25.0473 49.3064 24.7967C49.7003 24.7072 50.0584 25.0294 50.0763 25.3517ZM46.2628 26.4259C45.9585 26.6407 45.851 27.3032 45.3676 27.0346C45.2423 26.8556 45.1349 26.6766 45.1707 26.4259C45.5467 26.229 46.0122 25.8351 46.1017 25.4233C46.2986 25.656 46.5314 26.1036 46.2628 26.4259ZM44.3113 27.3032C44.0965 27.6971 44.0249 28.1625 43.6131 28.5027C43.0402 28.628 42.879 28.0551 42.7537 27.6792C42.7179 27.0525 42.7716 26.4796 43.1834 26.0499C44.0428 25.8888 43.9891 26.8377 44.3113 27.3032ZM51.4012 27.9298C51.7592 28.8608 50.8819 29.3442 50.2732 29.6664C50.1121 29.6127 49.8973 29.559 49.8435 29.3442C49.575 28.5564 50.2016 27.9656 50.7208 27.4106C51.0073 27.4464 51.1326 27.8224 51.4012 27.9298ZM46.8178 28.6638C46.7104 29.0935 46.3344 29.5769 45.9406 29.7202C45.7257 29.8276 45.6541 29.559 45.493 29.4695C45.0991 28.8787 45.9585 28.6459 45.6899 28.0193C45.9585 27.9477 46.227 27.8224 46.424 27.6433C46.7462 27.8761 46.7462 28.3058 46.8178 28.6638ZM49.1453 29.9708C48.9126 30.1498 48.6082 30.4721 48.3217 30.1677C48.1427 29.756 48.1427 29.201 48.3217 28.7176C48.4471 28.5743 48.7514 28.5564 48.8946 28.6638C48.8767 29.1472 48.8767 29.6306 49.1453 29.9708ZM42.6463 29.5411C42.4852 30.0066 42.4673 30.6511 41.9481 30.866C41.59 30.8302 41.411 30.4542 41.3214 30.1857C41.3035 29.9708 41.3751 29.7202 41.2677 29.559C41.5721 29.4158 41.9481 29.0756 42.0913 28.7534C42.3419 28.8966 42.4315 29.2905 42.6463 29.5411ZM44.0786 29.4158H43.8996L44.4009 29.0219C44.3292 29.201 44.2397 29.38 44.0786 29.4158ZM40.3725 29.935C40.3009 30.49 40.3367 31.1524 39.8175 31.4926C39.3878 31.4926 38.9761 31.0629 38.8686 30.6691C38.1883 29.8813 39.5669 29.8097 39.4237 29.0935C39.7817 29.3084 40.1398 29.559 40.3725 29.935ZM44.0786 30.3647C43.9533 30.8302 44.0428 31.1524 44.007 31.6717C43.7921 31.4926 44.0607 31.1524 43.8996 30.9197L43.5773 30.3647H44.0786ZM46.0838 31.0629C45.9048 31.3852 45.6899 31.7433 45.3855 31.9939C45.117 31.9939 45.0096 31.7612 44.9559 31.5463C44.8305 31.1883 44.938 30.7765 45.0633 30.4363C45.3318 30.8123 46.0838 30.3826 46.0838 31.0629ZM48.7872 31.7254C48.4829 32.1013 48.1069 32.7817 47.534 32.728C47.1759 32.3699 47.1759 31.8149 47.2833 31.3494L47.5877 30.7765C47.892 31.3315 48.9126 30.9018 48.7872 31.7254ZM50.6492 32.352C50.3627 32.5847 50.0763 32.8533 49.7003 32.9249C49.4676 32.7996 49.5213 32.5668 49.5213 32.352C49.6645 31.9223 49.8614 31.2778 50.4523 31.2241C50.8103 31.4389 50.5776 31.976 50.6492 32.352ZM42.4315 32.1013L42.1808 31.797L42.9328 31.2957C42.8432 31.6 42.8611 32.0655 42.4315 32.1013ZM40.8738 33.1756C40.7664 33.283 40.5874 33.2114 40.4442 33.2472C40.2472 32.9607 39.9787 32.728 40.0145 32.352C40.5158 32.6205 40.7664 31.3315 41.1424 32.1013L40.8738 33.1756ZM46.3165 33.5515C46.1196 33.8022 45.8869 34.1603 45.493 34.1065C45.1707 33.838 45.3139 33.2651 45.3676 32.9249C45.7436 32.9249 45.9764 32.6743 46.2628 32.4773C46.3165 32.8175 46.603 33.2293 46.3165 33.5515ZM43.6847 33.7306C43.5594 33.9812 43.3983 34.2856 43.1297 34.4288C42.9507 34.3572 42.7179 34.3214 42.6821 34.1065C42.9328 33.5694 42.6463 32.728 43.452 32.5489C43.6489 32.8533 44.0249 33.3188 43.6847 33.7306ZM41.5005 34.5004C41.2319 34.5362 41.0171 34.4646 40.8738 34.2319C41.2856 34.0707 41.7869 33.6769 41.8944 33.1756C41.9302 33.6052 41.8227 34.1782 41.5005 34.5004ZM49.2706 34.2319C48.8409 34.4467 48.5187 35.127 47.9637 34.8585C47.6772 34.6078 47.7488 34.1602 47.8383 33.8559C47.9458 33.462 48.4829 33.5873 48.7156 33.2293C48.9842 33.5873 49.4497 33.7664 49.2706 34.2319ZM46.5672 16.3462C46.2807 16.7222 46.2091 17.2772 45.6899 17.5278L45.3676 17.4562L45.9943 16.203C45.9585 15.7375 45.5646 15.3615 45.6183 14.9497C46.3344 15.0034 46.3523 15.8449 46.5672 16.3462ZM43.3087 15.0392C43.1297 15.3078 43.1476 15.63 43.0581 15.8986C42.6642 15.8091 42.5389 15.3078 42.5031 15.0392H43.3087ZM41.9302 16.1672C41.769 16.5431 41.7869 16.9907 41.4468 17.2951C40.9634 17.5099 40.8738 16.9549 40.6769 16.7222C40.6053 16.2925 40.5337 15.7196 40.8201 15.3436C41.411 14.6453 41.6795 15.827 41.9302 16.1672ZM45.0633 16.0418C44.9559 16.4357 44.8305 16.8654 44.4367 17.116C44.1323 17.1339 44.2039 16.758 44.007 16.5968C44.0249 16.0955 43.9533 15.5763 44.3292 15.2183C44.8305 15.1645 44.8305 15.7554 45.0633 16.0418ZM39.5669 16.0418C39.7459 16.4715 39.5311 16.9012 39.2625 17.2235C38.9045 17.2772 38.8686 16.9012 38.6717 16.7222C38.6359 16.3641 38.439 15.7375 38.8686 15.5405C39.2983 15.3436 39.3162 15.8628 39.5669 16.0418ZM37.2394 16.1672C37.1141 16.5968 37.1678 17.1518 36.8097 17.4741C36.2726 17.5994 36.022 17.116 35.8608 16.7222L35.8071 16.3999C36.2368 16.2388 36.8097 15.9523 37.2394 16.1672ZM42.7537 18.3514C42.6463 18.5841 42.3419 18.8527 42.0734 18.6737C41.9481 18.4946 41.7869 18.3514 41.8227 18.1007C42.3061 17.9217 42.5389 17.4025 42.6821 16.9907C43.076 17.3667 43.0044 17.9217 42.7537 18.3514ZM35.5386 18.0291C35.4849 18.5304 35.7176 19.4256 35.1089 19.6404C34.6434 19.6404 34.1958 19.2645 34.0884 18.8348C33.9452 18.4051 33.8198 17.9217 33.9631 17.4562C34.4823 16.6147 35.091 17.6711 35.5386 18.0291ZM38.3673 17.9754L37.9198 17.3488L38.3673 17.7785V17.9754ZM33.0321 17.7785C32.8709 17.8501 32.8172 17.6531 32.7098 17.6173L32.9784 17.4204C33.0858 17.4562 33.0142 17.6531 33.0321 17.7785ZM40.7485 18.5483C40.6053 18.9243 40.5337 19.4435 40.1219 19.6046C39.7638 19.6046 39.6385 19.175 39.4237 18.978C39.3162 18.7274 39.3878 18.3872 39.3699 18.1007C39.6564 18.1007 39.9071 17.9038 40.1219 17.6711C40.2651 18.0828 41.0171 18.0112 40.7485 18.5483ZM45.9585 18.4051C45.8331 18.8885 45.6362 19.3182 45.1886 19.6583C44.7231 19.7121 44.4904 19.4077 44.3113 19.0317C44.2934 18.6916 44.0786 18.3335 44.2397 17.9754C44.8842 17.9933 45.2781 18.7274 45.9585 18.4051ZM37.7407 19.3003C37.5438 19.6404 37.6512 20.1776 37.1857 20.3566C36.8097 20.3745 36.4875 20.088 36.2905 19.8016L36.5591 18.4946C37.0246 18.5662 37.508 17.9217 37.7407 18.6737V19.3003ZM43.452 20.4819C43.3445 20.6789 43.1118 20.7326 42.9507 20.6072C42.7358 20.3387 42.6642 19.9985 42.6821 19.6225C42.9328 19.5151 43.2192 19.3719 43.3087 19.1033C43.5415 19.4614 43.8817 20.0343 43.452 20.4819ZM41.0529 20.1596C40.9455 20.5177 40.9634 21.1085 40.4979 21.1622C40.4442 20.8758 40.0682 20.7505 40.1219 20.464C40.48 20.4998 40.7664 20.3387 41.0529 20.1596ZM35.3416 20.6072C35.3953 20.9832 35.2879 21.2876 35.1089 21.5382C34.7329 21.771 34.4107 21.4487 34.16 21.1802V20.4282C34.5181 20.5714 34.9299 20.643 35.3416 20.6072ZM39.4953 21.2876C39.4058 21.7889 39.4953 22.4692 38.9403 22.6482C38.5643 22.6662 38.4569 22.2544 38.242 22.0216C38.0451 21.6277 38.0451 21.0011 38.242 20.5893C38.7433 20.088 39.2267 20.9474 39.4953 21.2876ZM45.6362 20.4819C45.5467 20.6251 45.5109 20.8221 45.3318 20.9116C45.117 20.9653 44.8842 20.8758 44.8305 20.6789C45.0454 20.6072 45.3676 20.5356 45.6362 20.4819ZM33.1574 21.5382C33.2827 21.1981 32.6382 20.8221 33.229 20.661C33.3364 20.8758 33.3006 21.2876 33.1574 21.5382ZM46.9432 22.1111C46.8895 22.4334 46.603 22.7199 46.3881 22.9168C46.2628 22.4513 45.5288 21.8426 46.1196 21.3592C46.2807 21.1981 46.4777 20.9653 46.6388 21.216C46.7462 21.5024 46.6746 21.8784 46.9432 22.1111ZM44.0786 21.216C43.9175 21.4666 43.7205 21.6456 43.631 21.9142C43.452 21.95 43.4699 21.7173 43.3803 21.6098C43.5952 21.4845 43.8637 21.4129 44.0786 21.216ZM36.6844 21.7352C36.5412 22.2365 36.756 22.9705 36.1831 23.1675C35.8787 23.1137 35.5923 22.8989 35.4312 22.6124C35.3774 22.3618 35.7355 22.3439 35.8608 22.1111L36.1831 21.3592C36.398 21.3413 36.5054 21.6098 36.6844 21.7352ZM42.8074 22.4692C42.7537 22.881 42.7179 23.2928 42.3777 23.5971C41.9481 23.7762 41.8406 23.2391 41.6795 23.0242C41.5184 22.5408 41.6616 21.95 41.9839 21.6456C42.5031 21.6277 42.5389 22.2186 42.8074 22.4692ZM45.2602 22.6124C45.5467 22.9884 45.1886 23.3107 45.1349 23.6687C45.0454 23.8657 44.7768 24.1163 44.562 23.9194C44.2397 23.5255 44.1681 22.8631 44.3829 22.4155C44.4367 21.6815 45.3139 22.1469 45.2602 22.6124ZM33.784 22.7915C33.7303 23.2928 33.9273 23.8836 33.5334 24.2238C33.0321 24.3849 32.853 23.8836 32.6024 23.615C33.2111 23.4539 32.9784 21.9679 33.784 22.7915ZM39.6922 23.9194C39.4595 23.9373 39.1909 23.9373 39.1193 23.6687C39.2983 23.4181 39.8354 23.4002 40.0145 22.9705C40.0682 23.2391 39.8712 23.6329 39.6922 23.9194ZM35.3058 24.1163C35.0731 23.8836 34.5181 23.6867 34.7329 23.257C34.8403 23.615 35.4312 23.6329 35.3058 24.1163ZM37.311 23.5434C37.3289 23.9552 37.3289 24.367 37.0604 24.6534C36.7023 24.7072 36.398 24.3849 36.2905 24.0984C36.7023 24.0268 37.0425 23.7583 37.311 23.5434ZM42.6821 24.4923C42.6821 24.743 42.4852 24.9936 42.2524 25.1189C41.9302 25.1727 41.6616 24.8146 41.5721 24.546V24.367C41.8227 24.6714 42.3419 24.5281 42.6821 24.4923ZM36.2368 25.9067C35.6997 25.674 35.1626 25.2085 35.4849 24.5281C35.7355 24.9936 36.2547 25.3517 36.2368 25.9067ZM34.4823 24.6534C34.5897 25.1189 34.5539 25.674 34.2853 26.0499C33.8915 25.9783 34.3211 25.298 33.9273 25.101C34.0168 24.9399 34.2853 24.8146 34.4823 24.6534ZM40.3188 24.922C40.283 25.4054 40.283 26.1215 39.7459 26.4259C39.4416 26.4617 39.2088 26.1394 39.0656 25.9067C39.1014 25.5665 39.2446 25.2443 39.1909 24.8504C39.6027 24.9936 40.0861 24.5639 40.3188 24.922ZM38.242 25.101C38.1167 25.5307 38.2778 26.1036 37.8481 26.3543C37.4364 26.408 37.2931 25.9246 37.0962 25.656C37.4185 25.5665 37.8481 25.2622 37.9735 24.9041C38.0988 24.922 38.1525 25.0473 38.242 25.101ZM33.3006 26.6049C33.3543 26.8198 33.2111 27.1062 32.9963 27.1062C32.6919 27.1062 32.5129 26.8377 32.298 26.7124C32.495 26.3543 33.05 26.1036 32.9247 25.5844C33.4797 25.5844 33.0679 26.3006 33.3006 26.6049ZM41.1782 28.4132C40.9455 28.628 40.6232 28.8608 40.3188 28.5922C39.9608 28.2521 39.7459 27.8403 39.7459 27.3569C40.283 27.3748 40.7127 26.9093 40.9634 26.4975L40.9992 26.3006C41.8585 26.7661 41.4289 27.7329 41.1782 28.4132ZM35.8071 26.8377C35.7713 27.3569 35.9146 27.9835 35.4849 28.2879C35.1268 28.3595 34.8224 28.1267 34.6792 27.8403C34.536 27.6254 34.6971 27.2853 34.4107 27.1062C34.8582 27.0167 35.3416 25.853 35.8071 26.8377ZM38.7433 27.6792C38.6538 28.2342 38.6896 28.8966 38.242 29.2368C37.7586 29.4695 37.3647 28.8966 37.1678 28.5564C37.0246 28.1088 36.7918 27.6254 36.9709 27.1241C37.4901 27.6792 38.4569 26.7303 38.7433 27.6792ZM33.784 28.9145C33.5871 29.2547 33.2648 29.0398 33.0321 28.9145C32.6919 28.628 32.4771 28.3058 32.3875 27.9298C32.7814 28.1625 33.3185 28.0372 33.6408 27.7866C33.8019 28.073 33.9452 28.5564 33.784 28.9145ZM35.9325 29.1652C35.8608 29.4337 35.9504 29.756 35.7355 29.9708C35.4849 30.2394 35.1089 30.0245 34.8582 29.9171C34.6255 29.7023 34.4823 29.3263 34.7329 29.0935C35.0552 29.3084 35.5565 29.2547 35.9325 29.1652ZM37.6154 30.2931C37.5259 30.7228 37.8123 31.3494 37.3647 31.5463C36.9351 31.5821 36.6307 31.1166 36.4696 30.7944C36.3801 30.4363 36.8276 30.0961 36.7918 29.6664C37.0783 29.8813 37.3827 30.0066 37.6154 30.2931ZM33.9273 30.7407C33.9631 30.9376 33.8377 31.0629 33.784 31.2241C33.5692 30.9197 33.4439 30.3647 33.4081 29.9708C33.9452 29.7381 33.8019 30.4542 33.9273 30.7407ZM35.4312 31.0629C35.4133 31.1704 35.2521 31.242 35.1805 31.3673L34.7866 31.1704C34.8045 30.7586 35.1805 31.1704 35.4312 31.0629ZM39.2983 33.3725L38.5464 33.4262C38.4211 32.907 38.5643 32.2267 38.439 31.8149C39.2625 31.976 38.9403 32.8533 39.2983 33.3725ZM35.5386 32.6563C35.6639 33.1397 35.8787 33.6948 35.5923 34.1782C35.3595 34.3751 35.1805 34.3035 34.912 34.2319C34.6434 33.7306 34.6792 32.8712 33.9094 32.7817C33.7124 32.5131 33.9273 32.155 34.2137 32.0297C34.7508 32.0655 35.1089 32.4594 35.5386 32.6563ZM37.4901 32.4773C37.5617 32.8712 37.6333 33.4262 37.4185 33.8022C37.5796 32.907 36.201 33.1039 36.4338 32.173C36.7381 32.3699 37.0604 32.5668 37.4901 32.4773ZM39.925 35.127C39.8712 35.6641 40.104 36.434 39.4774 36.613C39.0298 36.5772 38.6896 36.0938 38.4748 35.7537C38.2599 35.4135 38.3315 34.8764 38.4211 34.5004C38.994 33.9812 39.4774 34.8048 39.925 35.127ZM36.5949 35.2882C36.4338 35.5567 36.022 35.4851 35.7892 35.4135C35.6997 35.324 35.5923 35.324 35.5207 35.2345C35.9325 35.1628 36.3621 34.8048 36.5233 34.4288C36.756 34.6257 36.7023 35.0554 36.5949 35.2882ZM37.4185 36.8637C37.508 37.186 37.5975 37.7231 37.1678 37.8126C36.5949 37.8126 36.1294 37.2755 35.8429 36.81L35.7892 36.5056C36.1294 36.3982 36.6665 36.4877 36.9709 36.2013C37.3468 36.2192 37.3468 36.5951 37.4185 36.8637ZM39.728 37.5619C39.8712 37.9558 39.7996 38.4213 39.549 38.7436C39.0119 38.7615 38.5822 38.5287 38.1525 38.2602C38.3315 37.92 38.4748 37.5619 38.4211 37.1322C38.797 37.4187 39.3699 37.5619 39.728 37.5619ZM31.9758 24.2954C31.9579 24.7967 32.3338 25.7993 31.5819 25.9067C31.1164 25.8172 30.6867 25.3696 30.4719 24.9578C30.3465 24.6176 30.2033 24.1701 30.3465 23.7762C30.8836 23.2033 31.4745 24.0268 31.9758 24.2954ZM30.7225 28.1625C30.6509 28.3416 30.812 28.5743 30.5793 28.6638C30.0601 28.7176 29.6483 28.2342 29.4514 27.8403C29.3977 27.6971 29.326 27.4822 29.3977 27.339C29.899 26.9451 30.9195 27.4106 30.7225 28.1625ZM32.0832 30.2394C32.119 30.4363 32.0653 30.5437 31.9042 30.6691C31.4745 30.6153 31.0269 30.3647 30.8478 29.9171C30.5077 29.4874 31.1343 29.559 31.2775 29.2905C31.8504 29.2726 32.0116 29.7918 32.0832 30.2394ZM32.7993 31.2241C32.8709 31.4747 32.9426 31.8507 32.7277 32.0476C32.2622 32.1909 31.9937 31.8686 31.6535 31.6179C32.0832 31.6 32.4592 31.4926 32.7993 31.2241ZM33.7303 33.7306C33.9094 34.0707 34.0168 34.4646 33.981 34.8048C33.426 35.127 33.0142 34.5541 32.7277 34.1782C32.5666 33.9812 32.5129 33.6052 32.7277 33.4262C33.1037 33.4083 33.4081 33.6231 33.7303 33.7306ZM34.1063 35.9864C34.2853 36.4877 34.7508 36.9532 34.4823 37.5619C34.2137 37.7231 33.9452 37.7768 33.6587 37.6335C32.5845 37.2218 33.9273 36.3803 33.229 35.7537L34.1063 35.9864ZM35.6639 39.0479C35.6639 39.4955 35.091 39.2807 34.8582 39.2449C34.6792 39.03 34.2495 38.9942 34.2853 38.6182C34.7329 38.7257 34.8941 38.2065 35.3058 38.1886L35.6639 39.0479ZM32.6561 18.7811C32.6382 19.2824 32.7277 19.8732 32.3517 20.1596C31.9221 20.1955 31.5461 19.8195 31.4208 19.4793C31.2775 19.1033 31.1343 18.6557 31.2775 18.2261C31.7967 17.7069 32.2443 18.5304 32.6561 18.7811ZM32.298 22.1469C32.3338 22.4155 32.2622 22.6124 32.1011 22.7736C31.564 22.8631 31.3491 22.4334 31.0448 22.0932C30.9732 21.7531 30.8657 21.4487 30.9195 21.0906C31.3133 20.6968 31.7967 21.2518 32.1727 21.4666L32.298 22.1469ZM28.216 29.4874C28.2518 29.9171 28.9501 30.6153 28.1444 30.7944C27.6968 30.5079 27.2134 29.8813 27.3566 29.1831L28.216 29.4874ZM29.899 32.0476C29.9706 32.2983 29.8273 32.5489 29.5767 32.5489C29.1291 32.4952 28.7173 32.2088 28.4488 31.797C28.592 31.5642 29.0038 31.4926 29.2186 31.1704C29.7915 31.0808 29.6304 31.797 29.899 32.0476ZM31.9042 32.8533C31.6893 33.283 31.5461 33.9275 31.7788 34.4288C31.367 33.9812 31.4029 33.0323 30.5793 33.1039C30.6688 32.8533 30.812 32.4594 30.8299 32.1013C31.1522 32.4594 31.5282 32.7101 31.9042 32.8533ZM30.9732 34.9301C31.0448 35.1628 30.9016 35.4314 30.6509 35.4314C30.4003 35.324 30.078 35.4135 29.9169 35.127C30.1675 34.7511 29.9706 34.2319 29.8631 33.8738C30.5793 33.7485 30.7046 34.4646 30.9732 34.9301ZM32.4771 36.5414C32.298 37.0964 31.6535 36.7742 31.3491 36.613C31.2238 36.5593 31.1343 36.4519 31.0269 36.3624C31.4029 36.2371 31.6714 35.7537 31.9042 35.4135C32.2085 35.7 32.3696 36.1296 32.4771 36.5414ZM33.426 39.0479C33.3902 39.227 33.3185 39.4239 33.1216 39.4239C32.7456 39.3881 32.3876 39.3523 32.1011 39.1016C32.3338 38.6899 31.9937 38.3497 31.9221 37.9737C32.7098 37.8126 33.1932 38.4213 33.426 39.0479ZM29.5409 20.4819C29.3439 20.6968 29.2007 20.6251 28.968 20.5535L28.413 19.9806C28.7173 19.7658 29.147 19.2287 29.5409 19.4256V20.4819ZM30.5256 20.2313L30.4719 19.6046L30.7225 20.1059L30.5256 20.2313ZM28.2876 21.6098C28.1981 22.1648 28.771 23.0421 28.0191 23.2928C27.5357 23.3465 27.2313 23.0063 26.8912 22.7378C26.6405 22.326 26.3719 21.8784 26.4078 21.3592C26.7121 21.1085 27.0702 20.6968 27.4641 21.0369C27.7326 21.216 28.0549 21.4129 28.2876 21.6098ZM29.9706 21.4129C29.9706 21.8963 30.1854 22.3081 30.2928 22.7378C30.2033 22.7557 30.0959 22.7736 30.0243 22.8631C29.9527 22.2007 28.9322 22.4334 29.2186 21.6098C29.4514 21.5382 29.7199 21.4845 29.9706 21.4129ZM26.8374 24.1701C26.7121 24.1521 26.1392 24.0805 26.2645 23.6687V23.4002C26.5689 23.5613 26.7479 23.8836 26.8374 24.1701ZM29.2186 24.5281C29.0575 24.6893 28.8784 24.7609 28.6457 24.7251C28.4488 24.5818 28.1981 24.5281 28.0191 24.2954C28.413 24.2059 28.8247 23.9373 29.147 23.5434C29.2186 23.8657 29.3618 24.2059 29.2186 24.5281ZM26.7658 26.1036C26.8016 26.3364 26.6763 26.5333 26.4436 26.6049C25.8348 26.5512 25.2798 26.0499 25.065 25.477C25.62 25.5486 25.9602 24.6176 26.4436 25.101L26.7658 26.1036ZM29.6662 26.229C29.4872 26.5154 29.0396 26.4796 28.8605 26.3006L28.1623 25.6023C28.4667 25.6023 29.1828 25.853 29.5588 25.477C29.7736 25.6023 29.6125 25.9962 29.6662 26.229ZM27.661 27.5538C27.5178 27.8403 27.0881 27.7508 26.8912 27.6254C26.8553 27.5896 26.8374 27.5359 26.7658 27.5538L27.4641 26.9093C27.6073 27.0167 27.6789 27.3032 27.661 27.5538ZM29.7199 29.4158C29.899 29.6665 29.9169 30.0961 30.0959 30.4184C28.9859 30.6332 29.3977 29.3442 28.968 28.8608L28.1086 28.4132L28.4667 27.9298C28.7173 28.4311 29.0933 29.1114 29.7199 29.4158ZM25.3873 23.7225C25.3335 23.991 25.5305 24.4207 25.1545 24.4923C24.5816 24.546 24.1519 24.1163 23.8296 23.7225C23.9908 23.3465 24.4205 23.0063 24.7785 22.7378C25.3514 22.7378 25.1903 23.3823 25.3873 23.7225ZM23.758 26.3543C23.7401 26.4796 23.8117 26.6228 23.7043 26.7124C23.3462 26.2827 23.4358 25.5486 22.827 25.3338L22.3974 25.2622C22.3436 25.1727 22.4511 24.9936 22.5764 24.8862C23.5432 24.7967 23.4537 25.7635 23.758 26.3543ZM25.0829 27.9298C24.9397 28.1805 24.6532 27.9835 24.4563 27.9298C24.3847 27.7329 24.0445 27.7687 24.2593 27.5538C24.4742 27.3748 24.5995 27.1599 24.6353 26.9093C24.9218 27.0704 25.1187 27.518 25.0829 27.9298ZM26.5331 29.7381C26.551 30.1498 25.9781 30.0603 25.7095 29.9887C25.4052 29.7739 25.1545 29.5948 25.0113 29.2547C24.8143 28.7176 25.5305 29.0219 25.7095 28.6997C26.354 28.6638 26.2466 29.38 26.5331 29.7381ZM27.4641 32.0476C27.4462 32.2983 27.3029 32.5847 27.0344 32.6205L26.4078 32.4773C26.5152 31.9939 26.2287 31.4926 26.1571 30.9913C27.0881 30.4721 27.1955 31.5105 27.4641 32.0476ZM29.0396 34.3572C29.1828 34.6257 29.0575 34.9659 28.7889 35.0554C27.8579 35.0733 27.9296 33.641 26.9091 33.7306C26.9628 33.3188 27.4999 33.5336 27.7326 33.3009C28.4488 33.2472 28.7889 33.8022 29.0396 34.3572ZM29.5946 36.5414C29.6662 36.7742 29.523 37.0427 29.2902 37.0427C28.8068 37.1143 28.4309 36.9174 28.1086 36.6847C28.1444 35.9327 29.6125 35.4493 29.5946 36.5414ZM31.2238 38.7257C31.2954 38.9763 31.1164 39.0837 30.9732 39.227C30.7404 39.3523 30.4361 39.2091 30.1675 39.1733C30.4003 38.6182 29.147 37.9737 30.0422 37.6694C30.7583 37.5082 30.8836 38.3497 31.2238 38.7257ZM22.5048 26.2827C22.5764 26.7124 23.203 27.1599 22.7017 27.6075C22.0751 27.6792 21.6096 27.2674 21.2515 26.784C21.0904 26.4975 21.5201 26.2827 21.6275 26.032L22.5048 26.2827ZM20.4996 27.8403C20.6428 28.3953 21.2515 28.7534 21.1262 29.4158C20.8755 29.8813 20.2131 29.756 19.8729 29.5948C19.7118 29.4516 19.2284 29.4158 19.4433 29.0935C19.7834 28.6997 19.9625 28.0372 20.4996 27.8403ZM24.2056 29.5411C24.2414 29.7381 24.1519 29.8813 24.0087 29.9708C23.0419 30.0961 23.2388 28.6638 22.2541 28.6638C22.4332 28.4132 22.8987 28.628 23.1314 28.3953C23.8833 28.2521 23.9908 29.1114 24.2056 29.5411ZM22.8987 30.7407C22.9166 30.9913 22.9166 31.3494 22.5764 31.3673C22.0751 31.4389 21.717 31.242 21.3231 31.0629L21.0725 30.6691C21.4485 30.4542 21.8602 30.114 22.0035 29.6664C22.4511 29.7918 22.6659 30.3647 22.8987 30.7407ZM20.4459 31.3673C20.6607 31.6358 20.3205 31.8686 20.052 31.8507C19.5328 31.797 19.0315 31.5284 18.7271 31.0629C18.6018 30.7049 18.942 30.5795 19.1747 30.5437C19.8192 30.4363 20.1594 30.9018 20.4459 31.3673ZM25.4589 31.8507C25.4768 32.0655 25.3693 32.2983 25.1545 32.2983C24.5458 32.3341 24.1161 32.0297 23.7043 31.6179C23.8654 31.2241 23.8475 30.8302 24.3846 30.7944C25.2082 30.5258 25.1187 31.4926 25.4589 31.8507ZM17.7961 32.155L18.0647 31.7254L18.4944 32.155H17.7961ZM23.203 32.352V32.4773C22.5227 32.2446 21.717 32.728 21.2515 32.1013C21.8602 32.4773 22.5943 32.173 23.203 32.352ZM21.4485 33.8022C21.5917 33.9812 21.3589 34.2856 21.1262 34.3035C20.6965 34.3035 20.3205 34.1782 19.9983 33.9275C19.9088 33.659 19.3895 33.2114 19.9446 33.0502C20.607 32.8891 21.1799 33.2293 21.4485 33.8022ZM19.0494 34.0349C19.0673 34.3214 18.8345 34.4288 18.6018 34.5004C18.0468 34.4288 17.4739 34.1782 17.1158 33.7306C17.2769 33.5336 17.2053 33.2114 17.4739 33.1039C18.2616 32.8175 18.7808 33.5157 19.0494 34.0349ZM23.758 34.3572C23.8475 34.6257 23.6506 34.8406 23.4358 34.9301C22.8628 35.127 22.7912 34.3393 22.3794 34.2319C22.4332 33.8917 22.2899 33.5336 22.2541 33.3009C23.1135 33.086 23.382 33.838 23.758 34.3572ZM25.9602 34.8048C26.0139 35.0017 25.9065 35.1629 25.7095 35.1808C25.3335 35.0733 25.2619 34.5362 24.9576 34.2498L24.6532 33.8201C25.4052 33.6231 25.7095 34.2677 25.9602 34.8048ZM27.5894 35.879C27.3029 36.2371 26.7837 35.9685 26.4615 35.879C26.7479 35.5388 27.0165 35.2345 26.8912 34.7511C27.2492 34.948 27.6073 35.3777 27.5894 35.879ZM20.3026 36.058C20.2847 36.3087 20.1057 36.3624 19.8729 36.4161C19.7655 36.058 19.6044 35.5746 19.3 35.2345C19.7834 35.1808 20.1236 35.7358 20.3026 36.058ZM22.8987 36.2371C22.8987 36.4877 22.6838 36.6668 22.4511 36.6847C21.9498 36.7205 21.5559 36.5235 21.1978 36.2371C21.538 35.7537 20.4817 35.0733 21.5201 35.2345C22.2541 35.0196 22.5943 35.7895 22.8987 36.2371ZM24.6532 35.7358C24.4026 36.058 24.134 35.8969 23.758 35.9148C23.9192 35.7 24.2951 35.5388 24.5279 35.2345C24.5816 35.3956 24.8322 35.5567 24.6532 35.7358ZM18.8883 36.2371C18.942 36.5772 18.6018 36.7563 18.3332 36.7921C17.6171 36.81 16.883 36.5593 16.5608 35.8611C16.5608 35.6283 16.7756 35.3598 17.0084 35.3598C17.3127 35.2345 17.7066 35.3061 18.0647 35.2882L18.8883 36.2371ZM25.6379 36.4877H25.2798C25.3156 36.2371 25.5484 36.3266 25.6379 36.4877ZM26.8912 36.989C26.7658 37.0248 26.1929 37.2397 26.0855 36.7205L26.8912 36.989ZM19.8192 37.365C19.5149 38.0632 18.7271 37.8663 18.1184 37.9916C18.0647 37.8842 17.8677 37.8484 17.9394 37.6694C18.6197 37.92 19.1031 37.2576 19.8192 37.365ZM26.0855 38.2423C26.2466 38.4213 26.0139 38.654 25.8348 38.7257C25.5305 38.6899 25.1724 38.8331 24.9576 38.6003C24.9397 38.2423 24.7964 37.7947 24.5279 37.4724C25.1903 37.186 25.799 37.6873 26.0855 38.2423ZM24.0087 38.4213C23.955 38.5824 23.8654 38.7615 23.6864 38.8152C22.9882 39.0479 23.2567 38.1527 22.7554 37.9379L22.5585 37.7589C23.2567 37.2576 23.5969 38.0274 24.0087 38.4213ZM17.5634 38.7973C17.5455 39.0121 17.3843 39.2091 17.1695 39.2986C16.6145 39.2986 16.149 38.9047 15.6119 39.03C15.594 38.7257 15.6477 38.2781 15.8088 37.9737C16.5787 37.4008 17.1337 38.4392 17.5634 38.7973ZM28.3234 37.8663C28.6457 38.296 29.2186 38.7078 29.0754 39.227C28.8426 39.6566 28.2518 39.4597 27.8938 39.4239C27.5357 39.2986 27.2313 39.1016 26.9628 38.8689C27.1418 38.4929 26.8553 38.0453 27.2134 37.8663H28.3234ZM22.3794 38.9226C22.3436 39.1374 22.2004 39.3344 22.0035 39.4239C21.162 39.6566 20.5891 39.0658 20.1236 38.4929C20.231 37.8842 21.0367 38.1527 21.5022 37.9916L22.3794 38.9226ZM19.9983 39.7283C20.1057 39.9252 19.9983 40.2117 19.7476 40.2833L18.369 39.2986C18.6197 38.3139 19.676 39.227 19.9983 39.7283ZM17.1695 40.8741C17.2411 41.2143 16.9368 41.3754 16.6861 41.5007C16.149 41.4828 15.5045 41.5544 15.1643 41.1785C15.2359 40.8741 15.3075 40.5876 15.2896 40.2475C15.9879 39.5671 16.7219 40.3728 17.1695 40.8741ZM25.9602 41.1068C25.9602 41.3396 25.7095 41.5007 25.5305 41.6081C24.9218 41.7872 24.3667 41.5365 23.8296 41.3575C23.8296 40.9636 23.5611 40.3907 23.8296 40.1579C24.1698 40.1042 24.5458 40.0326 24.886 39.961C25.2619 40.3728 25.8348 40.5876 25.9602 41.1068ZM19.0494 41.1068C19.0315 41.447 18.6734 41.4828 18.4228 41.5365H17.9931C18.2795 41.1247 17.9931 40.5697 17.9931 40.2296C18.369 40.4802 18.9062 40.6234 19.0494 41.1068ZM22.827 40.8025C22.827 41.0173 22.8807 41.2501 22.648 41.3754C22.2899 41.2322 22.5585 40.6234 22.1467 40.4444L22.2004 40.3012C22.4511 40.337 22.6122 40.6234 22.827 40.8025ZM21.5559 41.2322C21.5917 41.5723 21.2873 41.6977 21.0725 41.8051C20.6786 41.9483 20.231 41.8051 19.8729 41.6798C19.6581 41.0352 20.6607 41.1606 20.8039 40.5518C21.0904 40.713 21.4843 40.892 21.5559 41.2322ZM16.7398 43.488C16.7756 43.8998 16.2922 43.8998 16.0595 44.0609L15.0569 44.0072C14.9853 43.5596 14.8241 42.7719 15.4329 42.6824C15.9521 42.7361 16.5608 42.9867 16.7398 43.488ZM19.0494 43.8103C19.0136 44.0609 18.9241 44.4011 18.6018 44.4369C18.2079 44.5443 17.7066 44.7771 17.2948 44.5085C17.6171 44.0609 17.7245 43.4522 17.6529 42.933C18.2079 43.0941 18.7271 43.3448 19.0494 43.8103ZM40.7485 49.1276L40.3546 48.8591C40.4084 48.698 40.6232 48.6442 40.8201 48.6801L40.7485 49.1276ZM68.9467 27.4106C69.1973 27.8403 68.6781 28.1088 68.5528 28.4848C68.141 28.5206 67.5502 28.7713 67.1742 28.4132C66.9952 27.7329 67.8187 28.0909 68.0336 27.7329C68.2663 27.4106 68.6602 26.6766 68.9467 27.4106Z" fill="white"></path>
  <path d="M15.236 15.236C7.35838 23.1314 3.00781 33.605 3.00781 44.759C3.00781 55.895 7.34048 66.3865 15.236 74.2641C23.1135 82.1416 33.605 86.4922 44.759 86.4922C55.895 86.4922 66.3865 82.1595 74.282 74.2641C82.1595 66.3865 86.4922 55.895 86.4922 44.759C86.4922 33.605 82.1595 23.1314 74.282 15.236C66.3865 7.35838 55.9129 3.00781 44.759 3.00781C33.605 3.02572 23.1135 7.35838 15.236 15.236ZM15.7731 73.7449C8.03872 65.9926 3.75976 55.716 3.75976 44.759C3.75976 33.802 8.02082 23.5074 15.7731 15.7731C23.5074 8.03872 33.802 3.75976 44.759 3.75976C55.698 3.75976 65.9926 8.02082 73.7449 15.7731C81.4792 23.5074 85.7403 33.802 85.7403 44.759C85.7403 55.6981 81.4792 65.9926 73.7449 73.7449C65.9926 81.4971 55.698 85.7582 44.759 85.7582C33.802 85.7403 23.5074 81.4792 15.7731 73.7449Z" fill="white"></path>
  <path d="M13.1054 13.1054C4.65493 21.5559 0 32.7994 0 44.759C0 56.7185 4.65493 67.9441 13.1054 76.4125C21.5559 84.863 32.7994 89.5179 44.741 89.5179C56.7006 89.5179 67.9441 84.863 76.3946 76.4125C84.8451 67.962 89.5 56.7185 89.5 44.759C89.5 32.7994 84.8451 21.5559 76.3946 13.1054C67.9441 4.65493 56.7006 0 44.741 0C32.7994 0 21.5559 4.65493 13.1054 13.1054ZM14.3587 75.1413C6.24835 67.0131 1.77245 56.2351 1.77245 44.759C1.77245 33.2828 6.24835 22.4869 14.3587 14.3587C22.469 6.24835 33.2649 1.77245 44.741 1.77245C56.2172 1.77245 67.0131 6.23044 75.1234 14.3587C83.2337 22.4869 87.7275 33.2649 87.7275 44.759C87.7275 56.253 83.2516 67.0131 75.1234 75.1413C67.0131 83.2516 56.2172 87.7275 44.741 87.7275C33.2649 87.7275 22.469 83.2696 14.3587 75.1413Z" fill="white"></path>
  <path d="M49.9152 56.8083H45.1707V55.6982C45.1707 55.4476 44.9738 55.2686 44.741 55.2686C44.5083 55.2686 44.3113 55.4476 44.3113 55.6982V56.8083H39.5669C39.3341 56.8083 39.1372 57.0052 39.1372 57.2379V60.3532C39.1372 60.6038 39.3341 60.7829 39.5669 60.7829C39.8175 60.7829 39.9966 60.5859 39.9966 60.3532V57.6497H42.4494V60.3532C42.4494 60.6038 42.6284 60.7829 42.8791 60.7829C43.1297 60.7829 43.3087 60.5859 43.3087 60.3532V57.6497H46.1733V60.3532C46.1733 60.6038 46.3703 60.7829 46.6209 60.7829C46.8536 60.7829 47.0506 60.5859 47.0506 60.3532V57.6497H49.5034V60.3532C49.5034 60.6038 49.6824 60.7829 49.9331 60.7829C50.1658 60.7829 50.3627 60.5859 50.3627 60.3532V57.2559C50.3448 57.0052 50.1479 56.8083 49.9152 56.8083Z" fill="white"></path>
  <path d="M49.9152 65.7778H39.5669C39.3341 65.7778 39.1372 65.9569 39.1372 66.2075V71.2921C39.1372 71.5249 39.3341 71.7218 39.5669 71.7218C39.8175 71.7218 39.9966 71.5249 39.9966 71.2921V66.6372H49.4855V71.2921C49.4855 71.5249 49.6645 71.7218 49.9152 71.7218C50.1479 71.7218 50.3448 71.5249 50.3448 71.2921V66.2075C50.3448 65.9748 50.1479 65.7778 49.9152 65.7778Z" fill="white"></path>
  <path d="M39.5669 65.4555H42.1987C42.4494 65.4555 42.6284 65.2586 42.6284 65.0259C42.6284 64.7752 42.4315 64.5962 42.1987 64.5962H39.9966V64.1128H42.1987C42.4494 64.1128 42.6284 63.9337 42.6284 63.6831C42.6284 63.4503 42.4315 63.2534 42.1987 63.2534H39.9966V62.7879H42.1987C42.4494 62.7879 42.6284 62.591 42.6284 62.3582C42.6284 62.1255 42.4315 61.9285 42.1987 61.9285H39.9966V61.6421C39.9966 61.4093 39.7996 61.2124 39.5669 61.2124C39.3341 61.2124 39.1372 61.4093 39.1372 61.6421V65.0438C39.1372 65.2586 39.3341 65.4555 39.5669 65.4555Z" fill="white"></path>
  <path d="M49.9151 61.1943C49.6645 61.1943 49.4855 61.3913 49.4855 61.624V61.9105H47.2833C47.0506 61.9105 46.8536 62.1074 46.8536 62.3402C46.8536 62.5729 47.0327 62.7698 47.2833 62.7698H49.4855V63.2353H47.2833C47.0506 63.2353 46.8536 63.4323 46.8536 63.665C46.8536 63.8978 47.0327 64.0947 47.2833 64.0947H49.4855V64.5781H47.2833C47.0506 64.5781 46.8536 64.7571 46.8536 65.0078C46.8536 65.2405 47.0327 65.4375 47.2833 65.4375H49.9151C50.1479 65.4375 50.3448 65.2405 50.3448 65.0078V61.6061C50.3448 61.3913 50.1479 61.1943 49.9151 61.1943Z" fill="white"></path>
  <path d="M42.8969 65.2408C43.0223 65.4377 43.2908 65.5093 43.5057 65.4019L44.741 64.6858L45.9943 65.4019C46.1912 65.5093 46.4598 65.4377 46.5851 65.2408C46.7104 65.0438 46.6388 64.7753 46.4239 64.6499L45.6004 64.1845L46.4239 63.719C46.4239 63.719 46.4239 63.7011 46.4419 63.7011C46.4598 63.6832 46.4598 63.6832 46.4777 63.6652C46.4956 63.6473 46.5135 63.6474 46.5135 63.6474C46.5314 63.6294 46.5314 63.6294 46.5493 63.6115C46.5493 63.6115 46.5672 63.5936 46.5851 63.5757V63.5578C46.5851 63.5399 46.603 63.522 46.603 63.5041C46.603 63.5041 46.603 63.4862 46.6209 63.4683C46.6209 63.4504 46.6209 63.4325 46.6209 63.4325C46.6209 63.4146 46.6388 63.3967 46.6388 63.3788V63.343V63.3072C46.6388 63.2893 46.6388 63.2893 46.6209 63.2714C46.6209 63.2535 46.6209 63.2356 46.6209 63.2356C46.603 63.2177 46.603 63.2177 46.603 63.1998C46.603 63.1819 46.5851 63.164 46.5851 63.146V63.1281C46.5851 63.1102 46.5851 63.1102 46.5851 63.1102C46.5672 63.0923 46.5493 63.0744 46.5493 63.0744C46.5493 63.0565 46.5314 63.0565 46.5135 63.0386C46.5135 63.0207 46.4956 63.0028 46.4777 63.0028C46.4777 62.9849 46.4598 62.9849 46.4419 62.967C46.4419 62.967 46.4239 62.967 46.4239 62.9491L45.6004 62.4836L46.4239 62.0002C46.6388 61.8928 46.7104 61.6242 46.5851 61.4094C46.4777 61.2125 46.2091 61.1408 45.9943 61.2483L44.741 61.9644L43.5057 61.2483C43.2908 61.1229 43.0223 61.2125 42.8969 61.4094C42.7895 61.6242 42.8611 61.8749 43.0581 62.0002L43.8816 62.4836L43.0581 62.9491C43.0581 62.967 43.0402 62.967 43.0402 62.967C43.0223 62.9849 43.0044 62.9849 43.0044 63.0028C42.9865 63.0028 42.9865 63.0207 42.9686 63.0386C42.9507 63.0386 42.9507 63.0565 42.9327 63.0744C42.9327 63.0744 42.9148 63.0923 42.9148 63.1102C42.9148 63.1102 42.9148 63.1102 42.8969 63.1281C42.8969 63.1281 42.8969 63.1281 42.8969 63.146C42.8969 63.164 42.879 63.1819 42.879 63.1998C42.879 63.2177 42.879 63.2177 42.8611 63.2356C42.8611 63.2535 42.8611 63.2535 42.8611 63.2714C42.8611 63.2893 42.8611 63.2893 42.8611 63.3072V63.343V63.3788C42.8611 63.3967 42.8611 63.4146 42.8611 63.4325C42.8611 63.4325 42.8611 63.4504 42.8611 63.4683C42.8611 63.4862 42.8611 63.5041 42.879 63.5041C42.8969 63.522 42.8969 63.5399 42.8969 63.5578C42.9148 63.5757 42.9148 63.5757 42.9148 63.5757C42.9328 63.5936 42.9327 63.6115 42.9327 63.6115C42.9507 63.6294 42.9507 63.6294 42.9686 63.6474C42.9865 63.6653 42.9865 63.6652 43.0044 63.6652C43.0223 63.6652 43.0223 63.6832 43.0402 63.7011C43.0402 63.7011 43.0581 63.7011 43.0581 63.719L43.8816 64.1845L43.0581 64.6499C42.8611 64.7753 42.7895 65.0438 42.8969 65.2408ZM44.1502 63.343L44.7589 62.9849L45.3497 63.343L44.7589 63.6832L44.1502 63.343Z" fill="white"></path>
  <path d="M48.4471 66.9954C48.2144 66.9954 48.0174 67.1924 48.0174 67.4251V69.5915H45.1708V69.2155H47.0506C47.2834 69.2155 47.4803 69.0185 47.4803 68.7858V67.4072C47.4803 67.1745 47.2834 66.9775 47.0506 66.9775H42.4315C42.1988 66.9775 41.9839 67.1745 41.9839 67.4072V68.7858C41.9839 69.0185 42.1809 69.2155 42.4315 69.2155H44.3114V69.5915H41.4647V67.4251C41.4647 67.1924 41.2678 66.9954 41.035 66.9954C40.7844 66.9954 40.6053 67.1924 40.6053 67.4251V70.0391C40.6053 70.2718 40.8023 70.4687 41.035 70.4687H44.3114V70.8626H41.0708C40.8381 70.8626 40.6412 71.0596 40.6412 71.2923C40.6412 71.525 40.8381 71.722 41.0708 71.722H44.7411C44.9738 71.722 45.1708 71.525 45.1708 71.2923V70.4687H48.4471C48.6978 70.4687 48.8768 70.2718 48.8768 70.0391V67.4251C48.8768 67.1924 48.6978 66.9954 48.4471 66.9954ZM42.8791 67.8548H46.621V68.3561H42.8791V67.8548Z" fill="white"></path>
  <path d="M67.8009 76.4123L65.187 78.2026L65.0079 77.9341C65.0795 77.8803 65.2049 77.7908 65.3481 77.6655C65.4913 77.5402 65.5987 77.4328 65.6525 77.379C65.7241 77.2895 65.742 77.2179 65.742 77.1284C65.742 77.0389 65.7062 76.9494 65.6345 76.824L63.0743 73.0643L62.1075 73.7267L61.8927 73.4224L62.1075 73.2791C62.3761 73.0822 62.6088 72.8673 62.7521 72.6167C62.9132 72.366 63.0027 72.1512 63.0027 71.9722L63.325 71.7573C63.4324 71.9364 63.5577 72.1333 63.7189 72.366C63.8621 72.5988 64.0053 72.7957 64.1306 72.9748L66.3865 76.269C66.4581 76.3585 66.5118 76.4302 66.6013 76.466C66.6909 76.5018 66.7804 76.5197 66.8878 76.5018C66.9773 76.4839 67.1026 76.4481 67.2817 76.3764C67.4428 76.2869 67.5681 76.2153 67.6397 76.1795L67.8009 76.4123Z" fill="white"></path>
</svg>
