<?xml version="1.0" encoding="UTF-8"?>
<svg xmlns="http://www.w3.org/2000/svg" width="109" height="49" viewBox="0 0 109 49" fill="none">
  <path d="M54.0356 18.2308C53.566 17.0354 53.0134 15.8718 52.6933 14.6189C52.1636 12.5435 52.0395 10.4572 52.5967 8.37543C53.2742 5.83681 54.9466 4.08331 57.1733 2.80397C59.1931 1.64317 61.3943 0.991191 63.6621 0.524319C64.7755 0.297266 65.8971 0.128572 67.0269 0C65.3645 0.38754 63.7278 0.844382 62.2533 1.73253C59.5761 3.35108 58.5785 5.79851 58.7773 8.82589C58.9086 10.8137 59.5122 12.6794 60.2363 14.5186C60.8627 16.1171 61.6223 17.6645 62.1056 19.3187C62.3499 20.1557 62.5834 20.9937 62.6782 21.8719C62.9746 24.5883 61.5721 26.1995 58.8265 26.2369C56.8277 26.2643 54.9165 25.8074 53.0818 25.0515C51.5316 24.4132 50.0079 23.6901 48.4733 23.0026C48.3979 22.9499 48.3263 22.892 48.259 22.8293H49.8183C50.3345 22.8415 50.8497 22.776 51.3465 22.6351C52.2775 22.346 52.5885 21.7123 52.2265 20.8059C51.8909 19.9697 51.2936 19.3205 50.6453 18.7214C48.8398 17.049 46.7061 15.9101 44.4447 14.9937C43.6176 14.6581 42.765 14.3855 41.9234 14.0818C41.8149 14.0435 41.6863 14.0481 41.5988 13.9122C44.7118 13.6387 47.6444 14.1703 50.3918 15.6448C51.7122 16.3533 52.8803 17.2752 53.9964 18.2655C54.0073 18.3001 54.0155 18.3439 54.0648 18.3138C54.0712 18.3183 54.0465 18.2591 54.0356 18.2308Z" fill="white"></path>
  <path d="M74.7503 38.507C74.6509 39.6231 74.5487 40.7383 74.453 41.8544C74.3162 43.4547 74.174 45.0541 74.0582 46.6563C74.0162 47.249 74.101 47.2946 74.7019 47.4113C74.9563 47.4605 75.3995 47.3547 75.3603 47.776C75.3229 48.1809 74.9044 48.0943 74.6144 48.0797C73.6602 48.0149 72.7027 48.0149 71.7484 48.0797C71.6267 48.0896 71.5042 48.0847 71.3837 48.0651C71.2113 48.0359 71.0472 47.9639 71.049 47.7578C71.0509 47.5517 71.2004 47.4933 71.3828 47.456C72.3776 47.2535 72.3858 47.2335 72.5007 46.2095C72.953 42.252 73.4089 38.2945 73.8685 34.337C73.8977 34.0918 73.8959 33.7817 74.2332 33.7334C74.5706 33.6851 74.7329 33.944 74.8715 34.2121C76.6223 37.6845 78.3743 41.1556 80.1275 44.6256C80.195 44.7578 80.2661 44.8891 80.3646 45.0769C80.7011 44.3921 81.0129 43.7611 81.3202 43.1283C82.7275 40.2304 84.1342 37.3316 85.5403 34.4319C85.5804 34.3507 85.6224 34.2696 85.6652 34.1902C85.7856 33.965 85.8768 33.6805 86.2123 33.7343C86.5479 33.7881 86.5707 34.0863 86.6008 34.3343C86.826 36.2146 87.0376 38.0957 87.2528 39.9769C87.4753 41.9182 87.6786 43.8623 87.9221 45.8009C88.0807 47.0538 88.4117 47.3365 89.6665 47.4487C89.8953 47.4687 90.2273 47.3967 90.2081 47.7578C90.1917 48.0724 89.8725 48.0879 89.6391 48.0797C88.533 48.0432 87.4224 48.0733 86.3199 47.9465C85.7436 47.8809 85.7318 47.8234 85.9433 47.2891C86.0063 47.1323 85.9844 46.9307 85.967 46.7529C85.699 43.9936 85.4272 41.2347 85.1518 38.476C85.1518 38.4504 85.1272 38.4267 85.1017 38.3784C84.8983 38.4404 84.8765 38.6419 84.8053 38.7869C83.4321 41.5833 82.0616 44.3821 80.6938 47.1833C80.5937 47.4034 80.4744 47.6143 80.3372 47.8134C80.1166 48.1143 79.853 48.1198 79.6296 47.8198C79.4477 47.5592 79.2832 47.2869 79.1372 47.0046C77.6728 44.3547 76.3561 41.6301 75.043 38.9036C74.9791 38.7705 74.9098 38.6392 74.8424 38.507H74.7503Z" fill="white"></path>
  <path d="M48.5571 40.9079C47.3881 40.9079 46.2191 40.9133 45.051 40.9033C44.8112 40.9033 44.7009 40.938 44.7063 41.2179C44.7428 42.945 44.6571 44.6738 44.7921 46.4C44.8568 47.2307 44.9224 47.3119 45.7468 47.4076C45.8826 47.424 46.0203 47.4459 46.1544 47.4541C46.3522 47.466 46.4744 47.5654 46.479 47.7605C46.4836 47.9693 46.3231 48.0441 46.1489 48.0696C46.0137 48.0867 45.8773 48.0909 45.7413 48.0824C44.4975 48.0377 43.2537 47.9912 42.01 48.0824C41.9042 48.0926 41.7976 48.0895 41.6926 48.0733C41.5249 48.0441 41.3498 47.9948 41.3443 47.7815C41.3388 47.5681 41.4902 47.4869 41.6945 47.4468C42.4349 47.3036 42.4294 47.2964 42.5516 46.5395C42.651 45.9222 42.6428 45.2994 42.6428 44.6793C42.672 41.6483 42.6975 38.6164 42.6164 35.5844C42.5954 34.7939 42.4741 34.6826 41.6808 34.6242C41.5896 34.6179 41.4984 34.616 41.4072 34.6014C41.2094 34.5704 41.0516 34.482 41.0653 34.254C41.079 34.0261 41.2477 33.996 41.4236 33.9869C41.575 33.9786 41.7273 33.9787 41.8796 33.9787H45.248C45.4149 33.9787 45.5826 33.9786 45.7477 33.9996C45.7825 33.9999 45.8169 34.0073 45.8487 34.0215C45.8805 34.0356 45.9091 34.0562 45.9326 34.0818C45.9561 34.1075 45.9741 34.1377 45.9854 34.1706C45.9968 34.2036 46.0012 34.2385 45.9984 34.2732C46.0043 34.3422 45.9846 34.411 45.9431 34.4665C45.9016 34.522 45.8411 34.5603 45.7732 34.5741C45.6557 34.605 45.5353 34.6234 45.4139 34.6288C44.9908 34.6461 44.7756 34.8622 44.7601 35.2826C44.7428 35.7513 44.7164 36.2209 44.7118 36.6896C44.7045 37.6142 44.7118 38.5389 44.7036 39.4635C44.7036 39.696 44.761 39.7772 45.0054 39.7762C47.3881 39.768 49.7717 39.7708 52.1544 39.7708C52.303 39.7708 52.4644 39.8045 52.4581 39.5592C52.4234 38.1358 52.5 36.7106 52.3897 35.2872C52.355 34.8312 52.1161 34.6489 51.6875 34.637C51.5041 34.6339 51.3212 34.6168 51.1404 34.5859C51.1023 34.5817 51.0655 34.5698 51.032 34.5511C50.9986 34.5324 50.9692 34.5071 50.9457 34.4769C50.9221 34.4466 50.9049 34.412 50.895 34.375C50.885 34.3379 50.8826 34.2993 50.8878 34.2613C50.8951 34.0963 50.9982 34.0197 51.1504 33.9996C51.241 33.9862 51.3324 33.9792 51.424 33.9787C52.7134 34.0033 54.0037 34.0224 55.2939 33.9787C55.5091 33.9723 55.8009 33.9385 55.8155 34.2668C55.8301 34.5951 55.5547 34.5832 55.3286 34.6124C54.7103 34.6926 54.6082 34.7875 54.559 35.403C54.5289 35.7805 54.5234 36.1607 54.5234 36.5391C54.5283 39.4802 54.5362 42.4212 54.5471 45.3623C54.5471 45.8182 54.6082 46.2687 54.6383 46.7219C54.6657 47.1313 54.8635 47.3602 55.2912 47.383C55.5338 47.3948 55.7745 47.434 56.0152 47.4605C56.0532 47.4611 56.0907 47.4695 56.1254 47.4852C56.16 47.5008 56.1911 47.5234 56.2167 47.5515C56.2423 47.5796 56.2619 47.6126 56.2743 47.6485C56.2867 47.6845 56.2916 47.7226 56.2888 47.7605C56.2921 47.83 56.2682 47.898 56.2223 47.9503C56.1764 48.0025 56.1119 48.0348 56.0426 48.0404C55.91 48.0698 55.7744 48.0839 55.6386 48.0824C54.3492 48.0377 53.0599 47.9912 51.7705 48.0824C51.6648 48.0879 51.5589 48.0805 51.455 48.0605C51.2954 48.0313 51.1614 47.9638 51.1641 47.7705C51.1641 47.5945 51.2608 47.5061 51.4313 47.4568C52.2967 47.2106 52.3067 47.2079 52.3796 46.2942C52.5164 44.5845 52.4207 42.8702 52.4581 41.1586C52.4644 40.8541 52.2757 40.907 52.1015 40.907L48.5571 40.9079Z" fill="white"></path>
  <path d="M35.9169 44.8216C35.9169 43.7274 35.9306 42.6805 35.9169 41.6374C35.8868 39.758 35.8385 37.8787 35.7965 36.0003C35.7976 35.8031 35.7864 35.6061 35.7628 35.4103C35.6771 34.8285 35.5266 34.6945 34.9421 34.6443C34.7451 34.6279 34.5473 34.627 34.3521 34.5997C34.157 34.5723 34.0448 34.4729 34.0512 34.2668C34.0576 34.0607 34.1871 34.0024 34.3521 33.9933C34.6093 33.9814 34.8673 33.9814 35.1245 33.986C36.05 34.0015 36.9755 34.0243 37.9011 33.9686C37.9766 33.9614 38.0526 33.9614 38.1281 33.9686C38.3306 33.996 38.6078 33.9486 38.6342 34.2358C38.6607 34.5231 38.4053 34.5823 38.1683 34.6152C37.447 34.7155 37.3476 34.8267 37.3403 35.5808C37.3202 39.3717 37.3023 43.162 37.2865 46.9517C37.2865 47.2389 37.2774 47.528 37.2491 47.8143C37.2108 48.2137 37.012 48.3149 36.6646 48.1052C36.4724 47.9835 36.2925 47.8433 36.1275 47.6867C33.9883 45.7298 31.9795 43.6407 29.9706 41.5535C28.6466 40.1775 27.3372 38.7878 26.0177 37.4C25.8563 37.5057 25.932 37.6553 25.9347 37.7747C25.9955 40.4878 26.0621 43.2006 26.1344 45.9131C26.1382 46.0658 26.1522 46.2182 26.1764 46.369C26.3168 47.2663 26.3834 47.3219 27.2898 47.4295C27.5414 47.4596 27.9399 47.3839 27.9107 47.7778C27.8816 48.1718 27.4886 48.0988 27.2141 48.087C26.0779 48.0218 24.939 48.0218 23.8028 48.087C23.697 48.0961 23.5904 48.0924 23.4855 48.076C23.315 48.0468 23.1445 47.9848 23.149 47.7751C23.149 47.5854 23.2749 47.5016 23.4673 47.455C24.5615 47.2161 24.5797 47.1961 24.5815 46.0654C24.5901 42.3656 24.594 38.6662 24.5934 34.9671C24.5934 34.6799 24.5761 34.3917 24.6591 34.1091C24.7785 33.7015 25.0238 33.6021 25.3685 33.8592C25.5812 34.0304 25.78 34.2182 25.963 34.4209C29.1509 37.7516 32.3381 41.0836 35.5248 44.4167C35.6424 44.5462 35.7692 44.6721 35.9169 44.8216Z" fill="white"></path>
  <path d="M71.6363 40.7308C71.6208 44.9573 68.4147 48.208 64.1764 48.3056C62.1184 48.353 60.1998 47.9144 58.6807 46.4573C56.5205 44.3846 55.8293 41.8196 56.6964 38.98C57.5855 36.0621 59.6281 34.3131 62.6764 33.8244C64.0603 33.599 65.4777 33.7005 66.8153 34.1207C69.8518 35.0608 71.6491 37.5411 71.6363 40.7308ZM64.3415 47.2232C66.612 47.2378 68.3774 45.9466 69.0266 43.7791C69.4561 42.3439 69.4825 40.8822 69.209 39.4168C68.6619 36.4469 66.4652 34.6441 63.529 34.7417C61.2256 34.8192 59.5332 36.1487 58.9232 38.3682C58.5503 39.7259 58.5648 41.0955 58.8475 42.4633C59.4402 45.3576 61.5804 47.2041 64.3378 47.2232H64.3415Z" fill="white"></path>
  <path d="M9.48854 44.7345C10.6202 42.0253 11.6405 39.4028 12.6326 36.7694C13.1287 35.4536 13.5965 34.125 14.0734 32.8019C14.125 32.6598 14.1649 32.5137 14.1928 32.3651C14.284 31.869 14.1846 31.7268 13.6895 31.6739C13.5244 31.6548 13.3566 31.6593 13.1898 31.6484C13.0229 31.6374 12.8943 31.5572 12.8807 31.3748C12.8734 31.2977 12.8961 31.2208 12.9442 31.1602C12.9923 31.0995 13.062 31.0598 13.1387 31.0493C13.2713 31.018 13.4074 31.0039 13.5436 31.0073C14.8019 31.031 16.0594 31.0985 17.3178 31.0073C17.4401 30.9998 17.5629 31.0096 17.6825 31.0365C17.8421 31.0721 17.9606 31.1614 17.9515 31.3493C17.952 31.3874 17.9449 31.4253 17.9306 31.4607C17.9164 31.4961 17.8952 31.5283 17.8684 31.5554C17.8416 31.5825 17.8097 31.6041 17.7745 31.6188C17.7393 31.6335 17.7015 31.6411 17.6634 31.6411C17.4974 31.6611 17.3324 31.6794 17.1664 31.6958C16.6694 31.7469 16.3348 32.0259 16.0977 32.4472C15.5077 33.494 15.1238 34.6302 14.6615 35.7299C13.0028 39.6782 11.4235 43.663 9.63809 47.5549C9.5596 47.7355 9.4707 47.9115 9.37182 48.0819C9.13565 48.4695 8.80738 48.4749 8.563 48.0874C8.44747 47.8918 8.3501 47.6861 8.27212 47.4728C6.38761 42.7664 4.5031 38.06 2.61859 33.3536C2.33956 32.6569 2.05324 31.9548 1.20612 31.7651C0.938012 31.7141 0.666959 31.68 0.394567 31.663C0.197605 31.6447 0.0124977 31.6064 0.000643521 31.3757C-0.0139462 31.0821 0.222225 31.0247 0.436512 31.0247C1.11949 31.0174 1.8043 31.001 2.48455 31.0538C3.45841 31.1295 4.42498 30.9727 5.3952 31.0155C5.68244 31.0274 6.10919 30.9371 6.12469 31.3484C6.14019 31.7596 5.7098 31.6402 5.44992 31.6748C4.77514 31.766 4.67757 31.8773 4.91921 32.5292C6.01344 35.4946 7.13138 38.4563 8.2402 41.4162C8.64507 42.4876 9.04902 43.5627 9.48854 44.7345Z" fill="white"></path>
  <path d="M95.041 48.1141C93.9673 48.0068 92.8863 47.9934 91.8103 48.0739C91.6744 48.0867 91.5377 48.0867 91.4018 48.0739C91.2048 48.0502 90.986 48.0202 90.9924 47.7484C90.9988 47.5159 91.1747 47.4749 91.369 47.4384C92.083 47.2998 92.0848 47.2943 92.1896 46.5566C92.3219 45.653 92.2963 44.7411 92.2982 43.8329C92.3055 41.0891 92.341 38.3453 92.2644 35.6024C92.2407 34.7818 92.1304 34.6806 91.3051 34.6158C91.1694 34.6095 91.0348 34.5878 90.9039 34.5511C90.8369 34.5318 90.7797 34.4877 90.7441 34.4277C90.7085 34.3677 90.6972 34.2964 90.7124 34.2283C90.7176 34.1666 90.7452 34.109 90.7901 34.0665C90.8351 34.0239 90.8941 33.9994 90.9559 33.9976C91.1523 33.9793 91.3489 33.9708 91.5459 33.972C93.5647 33.9824 95.5833 33.9939 97.6015 34.0067C97.9961 34.019 98.3901 33.9701 98.7696 33.8617C99.1088 33.7559 99.2547 33.9073 99.2009 34.2137C99.086 34.8575 99.0441 35.5067 98.9739 36.1532C98.952 36.3493 98.8727 36.5553 98.6174 36.5526C98.3438 36.5526 98.3073 36.3237 98.3073 36.1304C98.3073 35.3097 97.9344 35.2851 97.3544 35.1876C96.4508 35.0353 95.5371 35.1182 94.6289 35.0763C94.4055 35.0663 94.3498 35.1447 94.3553 35.359C94.3638 36.8289 94.3638 38.2991 94.3553 39.7696C94.3553 40.0031 94.4164 40.0861 94.6571 40.0788C95.6602 40.0459 96.6632 40.0323 97.6608 40.0049C97.798 40.0091 97.9345 39.9832 98.0606 39.9288C98.1866 39.8744 98.2992 39.793 98.3903 39.6903C98.4942 39.5681 98.6292 39.4943 98.7915 39.5845C98.9365 39.6648 98.9392 39.8107 98.9128 39.9493C98.776 40.6505 98.7432 41.3618 98.6894 42.0721C98.673 42.2818 98.6401 42.5362 98.3602 42.5381C98.0629 42.5381 98.0866 42.2818 98.0566 42.0703C97.9836 41.4529 97.8942 41.3289 97.2915 41.2496C96.3879 41.1301 95.4742 41.1739 94.565 41.1356C94.3535 41.1265 94.3608 41.2532 94.3617 41.3955C94.3617 42.911 94.3535 44.4274 94.3781 45.9429C94.3891 46.625 94.6252 46.8548 95.3046 46.9505C96.1786 47.0655 97.0644 47.0572 97.9362 46.9259C98.5107 46.8411 98.8581 46.5046 98.9867 45.9411C99.0204 45.7943 99.0496 45.6448 99.0952 45.5016C99.1109 45.4338 99.1519 45.3745 99.2099 45.3358C99.2678 45.2972 99.3383 45.2821 99.407 45.2937C99.4414 45.2951 99.4751 45.3033 99.5062 45.3179C99.5373 45.3324 99.5653 45.353 99.5884 45.3785C99.6114 45.404 99.6292 45.4338 99.6407 45.4662C99.6521 45.4986 99.657 45.5329 99.655 45.5672C99.655 46.3122 99.5794 47.0508 99.3213 47.7557C99.2064 48.0685 98.8973 48.1122 98.5918 48.1122L95.041 48.1141Z" fill="white"></path>
  <path d="M103.475 48.3831C102.577 48.3666 101.693 48.2773 100.842 47.9518C100.463 47.8059 100.272 47.5733 100.295 47.1694C100.332 46.4736 100.363 45.777 100.408 45.0821C100.422 44.8824 100.473 44.6645 100.739 44.6782C101.006 44.6919 101.049 44.8943 101.047 45.1049C101.034 46.408 101.985 47.0326 102.967 47.2268C103.606 47.3701 104.27 47.3626 104.906 47.2049C106.488 46.7818 107.094 45.0238 106.128 43.7007C105.792 43.2447 105.347 42.8982 104.907 42.5499C104.027 41.8541 103.091 41.2313 102.263 40.4681C101.563 39.8216 100.955 39.1049 100.743 38.1474C100.359 36.4085 101.242 34.8237 102.931 34.1918C104.229 33.7049 105.551 33.7878 106.879 34.035C106.954 34.0495 107.026 34.0751 107.1 34.0869C107.976 34.2356 107.968 34.2347 107.9 35.1082C107.865 35.5641 107.866 36.0201 107.85 36.4705C107.843 36.6784 107.812 36.89 107.554 36.9046C107.297 36.9192 107.231 36.7131 107.209 36.507C107.118 35.5951 106.53 35.1757 105.698 34.9997C105.075 34.8561 104.427 34.8561 103.804 34.9997C102.383 35.3471 101.869 36.7432 102.721 37.9404C103.114 38.4939 103.66 38.8833 104.201 39.2745C105.01 39.8599 105.868 40.3806 106.614 41.0544C107.427 41.7894 108.104 42.6165 108.297 43.7335C108.697 46.056 107.218 47.9973 104.841 48.2928C104.389 48.3609 103.932 48.3911 103.475 48.3831Z" fill="white"></path>
  <path d="M19.9185 48.087H18.0519C17.9301 48.0934 17.808 48.0882 17.6872 48.0715C17.5157 48.0386 17.3634 47.9657 17.3744 47.7487C17.3826 47.5663 17.4993 47.4997 17.6644 47.456C18.5151 47.2289 18.5142 47.2253 18.5826 46.37C18.7413 44.3876 18.6583 42.4015 18.6738 40.4173C18.6838 38.8407 18.6738 37.2641 18.6519 35.6884C18.6419 34.8322 18.568 34.762 17.7218 34.6188C17.5075 34.5823 17.316 34.5094 17.3288 34.265C17.3425 34.0033 17.5723 33.9796 17.771 33.9796C18.8179 33.9796 19.8683 33.986 20.9115 33.9887C21.154 33.9887 21.3966 33.9723 21.641 33.9833C21.8233 33.9905 22.024 34.0206 22.0303 34.2696C22.0358 34.5021 21.8653 34.5678 21.6747 34.6079C20.803 34.7902 20.7574 34.8377 20.7565 35.7331C20.7528 38.8705 20.7528 42.0079 20.7565 45.1453C20.7565 45.6596 20.8139 46.1739 20.8477 46.6873C20.8759 47.1368 21.0993 47.3812 21.5662 47.3903C21.7632 47.3903 21.9583 47.4341 22.1543 47.4523C22.3504 47.4706 22.4844 47.5308 22.4972 47.7405C22.5109 47.9821 22.3349 48.0697 22.148 48.0751C21.692 48.087 21.2361 48.0751 20.7802 48.0605C20.492 48.0532 20.2039 48.0323 19.9166 48.0177L19.9185 48.087Z" fill="white"></path>
  <path d="M54.0363 18.231C54.0474 18.2634 54.0724 18.3237 54.0659 18.3237C54.0159 18.3543 54.0075 18.3098 53.9964 18.2745L54.0363 18.231Z" fill="white"></path>
</svg>
