<?xml version="1.0" encoding="UTF-8"?>
<svg xmlns="http://www.w3.org/2000/svg" width="87" height="65" viewBox="0 0 87 65" fill="none">
  <path d="M86.3928 62.0329C86.3928 62.9661 85.7074 63.5927 84.8959 63.5927V63.587C84.0615 63.5927 83.3887 62.9661 83.3887 62.0329C83.3887 61.0999 84.0615 60.4752 84.8959 60.4752C85.7074 60.4752 86.3928 61.0999 86.3928 62.0329ZM87 62.0329C87 60.7519 86.0052 60.0083 84.8959 60.0083C83.7793 60.0083 82.7842 60.7519 82.7842 62.0329C82.7842 63.3132 83.7793 64.0598 84.8959 64.0598C86.0052 64.0598 87 63.3132 87 62.0329ZM84.5469 62.2042H84.7722L85.2945 63.1209H85.8678L85.2895 62.1656C85.5883 62.1443 85.8341 62.002 85.8341 61.5997C85.8341 61.0999 85.4898 60.9393 84.9058 60.9393H84.0615V63.1209H84.5469V62.2042ZM84.5469 61.8349V61.3096H84.8845C85.0682 61.3096 85.3185 61.3242 85.3185 61.5485C85.3185 61.7923 85.189 61.8349 84.9724 61.8349H84.5469Z" fill="white"></path>
  <path d="M72.8304 50.8727L75.4538 58.0496H70.1258L72.8304 50.8727ZM70.0206 48.0783L63.9752 63.3957H68.2443L69.2005 60.6893H76.3551L77.2601 63.3957H81.8945L75.8038 48.0763L70.0206 48.0783ZM57.8833 63.4016H62.2145V48.0735L57.8826 48.0726L57.8833 63.4016ZM27.8153 48.0726L24.2017 60.2213L20.7401 48.0735L16.0669 48.0726L21.0107 63.4016H27.2504L32.2341 48.0726H27.8153ZM45.3227 51.4104H47.1842C49.8848 51.4104 51.6312 52.6231 51.6312 55.7695C51.6312 58.9167 49.8848 60.1294 47.1842 60.1294H45.3227V51.4104ZM41.0277 48.0726V63.4016H48.0496C51.7906 63.4016 53.012 62.7798 54.3328 61.3844C55.2658 60.4049 55.8693 58.2556 55.8693 55.9057C55.8693 53.7504 55.3586 51.8292 54.4683 50.6321C52.864 48.4911 50.5529 48.0726 47.104 48.0726H41.0277ZM0 48.0513V63.4016H4.36769V51.746L7.75204 51.747C8.87265 51.747 9.67145 52.0262 10.2111 52.6028C10.8955 53.3318 11.175 54.5086 11.175 56.6609V63.4016H15.4074V54.9205C15.4074 48.8674 11.5493 48.0513 7.77432 48.0513H0ZM34.057 48.0726L34.0587 63.4016H38.3879V48.0726H34.057Z" fill="white"></path>
  <path d="M11.6401 17.551C11.6401 17.551 17.2107 9.33195 28.3334 8.48191V5.49981C16.0136 6.48922 5.3453 16.9235 5.3453 16.9235C5.3453 16.9235 11.3876 34.3913 28.3334 35.9906V32.8211C15.8975 31.2564 11.6401 17.551 11.6401 17.551ZM28.3334 26.5176V29.4202C18.9348 27.7446 16.326 17.9745 16.326 17.9745C16.326 17.9745 20.8387 12.9755 28.3334 12.165V15.3501C28.3277 15.3501 28.3237 15.3484 28.319 15.3484C24.3854 14.8763 21.3125 18.5508 21.3125 18.5508C21.3125 18.5508 23.0346 24.7373 28.3334 26.5176ZM28.3334 0V5.49981C28.695 5.47184 29.0567 5.44857 29.4203 5.43619C43.4266 4.96414 52.5526 16.9235 52.5526 16.9235C52.5526 16.9235 42.071 29.6687 31.1511 29.6687C30.1503 29.6687 29.2134 29.5759 28.3334 29.4202V32.8211C29.0859 32.9167 29.8661 32.9729 30.6803 32.9729C40.842 32.9729 48.1907 27.7832 55.3064 21.6411C56.4862 22.5859 61.3162 24.8843 62.309 25.8908C55.5433 31.5552 39.7754 36.1213 30.836 36.1213C29.9743 36.1213 29.1468 36.0691 28.3334 35.9906V40.7693H66.9573V0H28.3334ZM28.3334 12.165V8.48191C28.6913 8.45691 29.052 8.4376 29.4203 8.42596C39.4922 8.10961 46.1002 17.0811 46.1002 17.0811C46.1002 17.0811 38.9632 26.9933 31.3108 26.9933C30.2095 26.9933 29.2221 26.8163 28.3334 26.5176V15.3501C32.2544 15.8239 33.0436 17.5559 35.4009 21.4856L40.6437 17.0646C40.6437 17.0646 36.8165 12.0452 30.3649 12.0452C29.6632 12.0452 28.9921 12.0945 28.3334 12.165Z" fill="white"></path>
</svg>
