<?xml version="1.0" encoding="UTF-8"?>
<svg xmlns="http://www.w3.org/2000/svg" width="100" height="33" viewBox="0 0 100 33" fill="none">
  <path fill-rule="evenodd" clip-rule="evenodd" d="M34.1508 9.0586C29.3641 9.0586 25.932 12.8008 25.932 17.168C25.932 21.5961 29.2602 25.4086 34.207 25.4086C38.6867 25.4086 42.3555 21.9867 42.3555 17.2523C42.3555 11.832 38.0867 9.05079 34.1523 9.05079L34.1508 9.0586ZM52.0242 9.0586C47.243 9.0586 43.8133 12.8008 43.8133 17.168C43.8133 21.5961 47.1414 25.4086 52.0891 25.4086C56.5578 25.4086 60.2297 21.9867 60.2297 17.2523C60.2297 11.832 55.9641 9.05079 52.0266 9.05079L52.0312 9.0586H52.0242ZM79.782 24.932H83.3836V0.830473H79.782V24.932ZM69.875 12.2734C72.0312 12.2734 74.2422 14.1156 74.2422 17.2563C74.2422 20.4594 72.0344 22.2094 69.8266 22.2094C67.4828 22.2094 65.3055 20.3188 65.3055 17.2875C65.3055 14.1469 67.5711 12.2719 69.8758 12.2719L69.875 12.2734ZM34.1992 12.2734C36.5539 12.2734 38.7852 14.1781 38.7852 17.2406C38.7852 20.2563 36.5633 22.2094 34.1883 22.2094C31.5867 22.2094 29.5242 20.1258 29.5242 17.225C29.5242 14.3969 31.5555 12.2852 34.2039 12.2852V12.2727L34.1992 12.2734ZM52.0727 12.2734C54.4266 12.2734 56.6586 14.1781 56.6586 17.2406C56.6586 20.2563 54.4359 22.2094 52.0617 22.2094C49.4523 22.2094 47.3898 20.1258 47.3898 17.225C47.3898 14.3969 49.4211 12.2852 52.0617 12.2852L52.0695 12.2727L52.0727 12.2734ZM92.6305 9.05469C88.4875 9.05469 85.0055 12.3516 85.0055 17.225C85.0055 22.3773 88.8852 25.4281 93.0305 25.4281C96.4758 25.4281 98.6008 23.5375 99.8664 21.8422L97.0383 19.9617C96.3039 21.1023 95.0695 22.2117 93.0227 22.2117C90.7258 22.2117 89.6688 20.9539 89.0148 19.7352L100 15.1719L99.4313 13.8391C98.3719 11.2297 95.9 9.04766 92.632 9.04766L92.6242 9.05547L92.6305 9.05469ZM24.5961 11.5703H12.9242V15.0375H21.2008C20.7945 19.8969 16.7531 21.9672 12.9406 21.9672C8.06328 21.9672 3.80547 18.1281 3.80547 12.7484C3.80547 7.5086 7.85234 3.47344 12.9461 3.47344C16.868 3.47344 19.1805 5.97891 19.1805 5.97891L21.6023 3.46875C21.6023 3.46875 18.4922 4.79861e-06 12.8125 4.79861e-06C5.59219 -0.0062452 0 6.09375 0 12.6797C0 19.1328 5.25781 25.4297 12.9984 25.4297C19.8109 25.4297 24.7953 20.7656 24.7953 13.8672C24.7953 12.4141 24.582 11.5703 24.582 11.5703H24.5961ZM92.7758 12.1953C94.2711 12.1953 95.3461 12.9906 95.8023 13.9438L88.482 17.0063C88.1656 14.6422 90.4102 12.2055 92.7773 12.2055L92.7758 12.1945V12.1953ZM69.5594 9.07032C65.1648 9.07032 61.7102 12.9281 61.7102 17.2406C61.7102 22.1625 65.7102 25.4281 69.4836 25.4281C71.8117 25.4281 73.0461 24.5063 73.968 23.4438V25.0531C73.968 27.8797 72.2492 29.5672 69.6711 29.5672C67.1711 29.5672 65.9211 27.7078 65.4836 26.657L62.3438 27.9688C63.4586 30.3281 65.7031 32.7875 69.6969 32.7875C74.0656 32.7875 77.3961 30.0344 77.3961 24.2641V9.56875H73.9688V10.9539C72.9141 9.82891 71.4734 9.07891 69.5594 9.07891V9.0711V9.07032Z" fill="white"></path>
</svg>
