<?xml version="1.0" encoding="UTF-8"?>
<svg xmlns="http://www.w3.org/2000/svg" width="122" height="39" viewBox="0 0 122 39" fill="none">
  <path fill-rule="evenodd" clip-rule="evenodd" d="M7.74981 2.32898H10.1998C13.7333 2.32898 15.5803 3.93467 15.5803 6.90623C15.5803 10.1983 13.814 11.7637 10.1587 11.7637H7.74905V2.32898H7.74981ZM0 0V1.76634H0.682172C2.73021 1.76634 3.29209 2.60915 3.29209 4.81708V19.7929C3.29209 22.0008 2.73021 22.8444 0.682172 22.8444H0V24.6107C1.8478 24.53 3.65373 24.53 5.50154 24.53C7.34934 24.53 9.19562 24.53 11.0427 24.6107V22.8444H10.4001C8.31245 22.8444 7.74981 22.0412 7.74981 19.7929V13.9312H11.0427C17.0254 13.9312 19.917 11.8436 19.917 6.98541C19.917 2.16833 16.784 0 10.3194 0H0ZM25.6507 4.98686C27.0646 4.98686 28.4457 4.95412 29.8268 4.92215V6.33598H29.2809C27.5138 6.33598 27.1925 6.94583 27.1925 8.77612V17.4807C27.1925 21.1413 28.317 22.8117 31.7545 22.8117C35.1273 22.8117 36.2846 21.1413 36.2846 17.5446V8.87281C36.2846 6.9778 35.9305 6.33598 34.0675 6.33598H33.5536V4.92215C34.9354 4.95412 36.2518 4.98686 37.5697 4.98686C38.8549 4.98686 40.1393 4.95412 41.3925 4.92215V6.33598H40.8146C39.4335 6.33598 39.0475 7.07449 39.0475 8.77612V17.3528C39.0475 22.6845 36.8632 25.0607 31.434 25.0607C26.3261 25.0607 23.6598 22.5878 23.6598 17.802V8.77612C23.6598 7.10647 23.3065 6.33598 21.8927 6.33598H21.3788V4.92215C22.8231 4.95412 24.2369 4.98686 25.6507 4.98686ZM49.3905 6.81792H51.4462C54.4657 6.81792 55.8148 7.9097 55.8148 10.5112C55.8148 13.0169 54.2411 13.98 50.9962 13.98H49.3905V6.81792ZM43.19 4.92215V6.33598H43.704C45.3424 6.33598 45.8243 7.01054 45.8243 8.77612V20.7568C45.8243 22.5551 45.3744 23.1977 43.704 23.1977H43.19V24.6107C44.6678 24.546 46.1129 24.546 47.5907 24.546C49.0677 24.546 50.5462 24.546 52.024 24.6107V23.1977H51.4781C49.8397 23.1977 49.3905 22.5551 49.3905 20.7568V15.6816H51.1888C53.8558 15.6816 54.4664 16.4521 55.205 18.5724C55.5575 19.6323 55.7508 21.7838 56.8106 24.6115H62.1112V23.1984H61.7899C60.1515 23.1984 59.6048 22.2346 59.0597 20.0183C58.2884 16.9348 58.0958 15.1684 55.6222 14.7505C57.9352 14.1406 59.2203 12.4382 59.2203 10.158C59.2203 6.43191 56.714 4.92291 51.4462 4.92291H43.19V4.92215ZM69.4354 6.78594H71.6852C77.1144 6.78594 79.684 9.16212 79.684 14.4939C79.684 20.1142 77.1784 22.7165 71.8458 22.7165H69.4354V6.78594ZM63.2357 4.92215V6.33598H63.7504C65.3873 6.33598 65.8692 7.01054 65.8692 8.77612V20.7568C65.8692 22.5224 65.3873 23.1977 63.7504 23.1977H63.2357V24.6107H72.6483C79.9406 24.6107 83.5052 21.3339 83.5052 14.5251C83.5052 8.00486 79.7799 4.92138 72.1336 4.92138H63.2357V4.92215ZM88.5568 4.98686C89.9706 4.98686 91.3525 4.95412 92.7336 4.92215V6.33598H92.1877C90.4198 6.33598 90.1001 6.94583 90.1001 8.77612V17.4807C90.1001 21.1413 91.2246 22.8117 94.6606 22.8117C98.0349 22.8117 99.1898 21.1413 99.1898 17.5446V8.87281C99.1898 6.9778 98.8373 6.33598 96.9728 6.33598H96.4596V4.92215C97.8407 4.95412 99.1571 4.98686 100.476 4.98686C101.759 4.98686 103.045 4.95412 104.298 4.92215V6.33598H103.721C102.338 6.33598 101.953 7.07449 101.953 8.77612V17.3528C101.953 22.6845 99.7685 25.0607 94.3393 25.0607C89.2314 25.0607 86.5651 22.5878 86.5651 17.802V8.77612C86.5651 7.10647 86.2126 6.33598 84.7988 6.33598H84.2841V4.92215C85.7314 4.95412 87.1445 4.98686 88.5568 4.98686ZM121.838 5.01808V10.1572H120.199V9.64406C120.199 7.13845 119.494 6.94583 116.923 6.94583H112.266V13.594H113.775C116.217 13.594 116.763 13.4341 116.763 10.9612H118.24V17.9634H116.794C116.763 15.5537 116.184 15.3283 113.839 15.3283H112.266V22.6518H116.794C119.816 22.6518 120.329 22.2665 120.362 18.7339H121.967V24.6123H105.937V23.1992H106.611C108.313 23.1992 108.7 22.5239 108.7 20.7583V8.77612C108.7 7.01054 108.282 6.33598 106.611 6.33598H106.065V5.01884H121.838V5.01808Z" fill="white"></path>
  <path fill-rule="evenodd" clip-rule="evenodd" d="M2.29164 31.7317C2.76444 31.7317 3.23572 31.7211 3.68721 31.7119V32.267H3.56158C2.98524 32.267 2.87941 32.4763 2.87941 33.0854V35.907C2.87941 36.9143 3.20375 37.3863 4.19046 37.3863C5.1452 37.3863 5.54415 36.9028 5.54415 35.8857V33.0847C5.54415 32.5068 5.40786 32.2662 4.87263 32.2662H4.74625V31.7112C5.19773 31.7211 5.62789 31.731 6.05806 31.731C6.49888 31.731 6.91839 31.7203 7.33865 31.7112V32.2662H7.18105C6.80342 32.2662 6.65648 32.5289 6.65648 33.0847V35.7913C6.65648 37.5119 5.9332 38.2877 4.08692 38.2877C2.35484 38.2877 1.50517 37.5424 1.50517 36.0524V33.0847C1.50517 32.5388 1.41076 32.2662 0.991253 32.2662H0.864868V31.7112C1.34757 31.7211 1.8295 31.7317 2.29164 31.7317ZM17.2758 31.7119L19.7419 36.9782L19.7099 33.0862C19.7099 32.5083 19.5843 32.2677 19.0384 32.2677H18.912V31.7127C19.3635 31.7226 19.8043 31.7325 20.255 31.7325C20.7172 31.7325 21.1679 31.7218 21.63 31.7127V32.2677H21.5036C20.9684 32.2677 20.8329 32.5083 20.8329 33.0862V38.1431H19.0483L16.5822 32.8974L16.6036 36.7567C16.6036 37.3345 16.7299 37.5865 17.2751 37.5865H17.4015V38.1423C16.9507 38.1218 16.4985 38.1218 16.0478 38.1218C15.5963 38.1218 15.1456 38.1218 14.6842 38.1423V37.5865H14.8098C15.345 37.5865 15.492 37.3345 15.492 36.7567V33.0862C15.492 32.5083 15.345 32.2677 14.8098 32.2677H14.6842V31.7127H17.2758V31.7119ZM30.6018 31.7317C31.0952 31.7317 31.5999 31.7211 32.1032 31.7119V32.267H31.9661C31.4309 32.267 31.2946 32.5076 31.2946 33.0854V36.7559C31.2946 37.3338 31.4309 37.5858 31.9661 37.5858H32.1032V38.1416C31.5992 38.121 31.0952 38.121 30.6018 38.121C30.0985 38.121 29.5953 38.121 29.092 38.1416V37.5858H29.2177C29.7529 37.5858 29.8892 37.3338 29.8892 36.7559V33.0854C29.8892 32.5076 29.7529 32.267 29.2177 32.267H29.092V31.7119C29.5945 31.7211 30.0985 31.7317 30.6018 31.7317ZM40.4865 31.7317C40.9379 31.7317 41.4625 31.7211 42.0404 31.7119V32.267C41.5044 32.2883 41.2851 32.3187 41.2851 32.6134C41.2851 32.6865 41.3057 32.7809 41.3475 32.8966L42.7637 36.9988L44.1174 32.9172C44.1493 32.8121 44.1592 32.7177 44.1592 32.6454C44.1592 32.3728 43.9186 32.2677 43.404 32.2677V31.7127C43.908 31.7226 44.3694 31.7325 44.8102 31.7325C45.2396 31.7325 45.65 31.7218 46.0276 31.7127V32.2677C45.65 32.3408 45.4931 32.5403 45.3553 32.9392L43.4672 38.2482H41.946L39.9939 32.9811C39.8264 32.5205 39.6787 32.2989 39.3223 32.2677V31.7127C39.6474 31.7211 40.035 31.7317 40.4865 31.7317ZM58.4612 31.7317V33.5049H57.8636V33.2217C57.8636 32.6134 57.5172 32.4878 56.7398 32.4878H55.4501V34.4909H55.8163C56.5091 34.4909 56.688 34.3653 56.6979 33.6519H57.2644V35.9808H56.6979C56.6667 35.2888 56.5091 35.1632 55.8582 35.1632H55.4493V37.3871H56.6241C57.6732 37.3871 57.9039 37.25 57.9252 36.1285H58.5123V38.1431H53.2445V37.5873H53.3708C53.938 37.5873 54.0423 37.3147 54.0423 36.7574V33.0869C54.0423 32.5091 53.9061 32.2685 53.3708 32.2685H53.2445V31.7333H58.4612V31.7317ZM68.3055 32.4878H68.8408C69.7224 32.4878 70.1214 32.7809 70.1214 33.5788C70.1214 34.3447 69.7019 34.6165 68.789 34.6165H68.3055V32.4878ZM66.1014 31.7119V32.267H66.2278C66.763 32.267 66.8986 32.5076 66.8986 33.0854V36.7559C66.8986 37.3338 66.763 37.5858 66.2278 37.5858H66.1014V38.1416C66.6054 38.121 67.1095 38.121 67.6135 38.121C68.1053 38.121 68.6101 38.121 69.1141 38.1416V37.5858H68.9771C68.4418 37.5858 68.3048 37.3338 68.3048 36.7559V35.2987H68.8088C69.3859 35.2987 69.7118 35.4662 69.8587 35.8857C70.0582 36.4407 70.0894 37.2493 70.4769 38.1416H72.407V37.5858H72.3552C72.0605 37.5858 71.8405 37.502 71.6844 37.3132C71.4956 37.0932 71.421 36.6211 71.2535 35.9694C71.0753 35.3093 70.9292 35.004 70.33 34.9203C71.0647 34.7429 71.4644 34.229 71.4644 33.4425C71.4644 32.1726 70.6033 31.7119 68.7669 31.7119H66.1014ZM84.4234 33.6305H83.6156C83.6263 33.5567 83.6263 33.4844 83.6263 33.4204C83.6263 32.624 83.2281 32.267 82.3578 32.267C81.6011 32.267 81.1283 32.6553 81.1283 33.211C81.1283 33.6625 81.3795 33.9138 81.9368 34.1338L83.2692 34.669C84.182 35.0368 84.6328 35.5918 84.6328 36.3691C84.6328 37.5858 83.7214 38.2885 82.0198 38.2885C81.2744 38.2885 80.4986 38.1941 79.7121 38.0159V36.2009H80.4781C80.4781 36.2534 80.4674 36.3067 80.4674 36.3478C80.4674 37.1762 80.9714 37.5972 81.9467 37.5972C82.7332 37.5972 83.1633 37.25 83.1633 36.6211C83.1633 36.1689 82.9433 35.9382 82.4286 35.7182L81.2021 35.1944C80.1834 34.7528 79.6809 34.2807 79.6809 33.4425C79.6809 32.2883 80.5824 31.5635 82.2315 31.5635C82.9022 31.5635 83.6369 31.6685 84.4234 31.8581V33.6305ZM93.7203 31.7317C94.2136 31.7317 94.7184 31.7211 95.2209 31.7119V32.267H95.0839C94.5502 32.267 94.4131 32.5076 94.4131 33.0854V36.7559C94.4131 37.3338 94.5502 37.5858 95.0839 37.5858H95.2209V38.1416C94.7184 38.121 94.2144 38.121 93.7203 38.121C93.2178 38.121 92.7138 38.121 92.2097 38.1416V37.5858H92.3361C92.8714 37.5858 93.0069 37.3338 93.0069 36.7559V33.0854C93.0069 32.5076 92.8714 32.267 92.3361 32.267H92.2097V31.7119C92.713 31.7211 93.217 31.7317 93.7203 31.7317ZM104.581 31.7317H106.353C106.575 31.7317 107.246 31.7119 108.368 31.7119V33.6526H107.675V33.4844C107.675 32.6553 107.444 32.4878 106.669 32.4878H106.206V36.7559C106.206 37.3338 106.343 37.5858 106.879 37.5858H107.1V38.1416C106.565 38.121 106.03 38.121 105.503 38.121C104.969 38.121 104.433 38.121 103.899 38.1416V37.5858H104.119C104.656 37.5858 104.791 37.3338 104.791 36.7559V32.4878H104.225C103.523 32.4878 103.281 32.6758 103.281 33.3785C103.281 33.4623 103.281 33.546 103.291 33.6519H102.63V31.7112C103.72 31.7119 104.37 31.7317 104.581 31.7317ZM116.825 31.7317C117.277 31.7317 117.75 31.7211 118.221 31.7119V32.267H118.17C117.834 32.267 117.686 32.3614 117.686 32.5707C117.686 32.6758 117.738 32.8014 117.813 32.9484L118.632 34.6058L119.449 33.0017C119.523 32.8547 119.564 32.707 119.564 32.6035C119.564 32.3621 119.406 32.2677 119.049 32.2677V31.7127C119.501 31.7226 119.931 31.7325 120.361 31.7325C120.782 31.7325 121.201 31.7218 121.61 31.7127V32.2677H121.568C121.233 32.2677 121.033 32.5083 120.751 32.9705L119.186 35.5301V36.8313C119.186 37.3871 119.292 37.5865 119.9 37.5865H120.047V38.1423C119.555 38.1218 119.049 38.1218 118.537 38.1218C118.033 38.1218 117.519 38.1218 117.005 38.1423V37.5865H117.15C117.749 37.5865 117.864 37.3871 117.864 36.8313V35.5096L116.395 32.9598C116.144 32.5304 115.934 32.289 115.504 32.2677V31.7127C115.934 31.7211 116.374 31.7317 116.825 31.7317Z" fill="white"></path>
  <path fill-rule="evenodd" clip-rule="evenodd" d="M0.628845 27.8237H122H0.628845Z" fill="white" stroke="white" stroke-width="1.0796" stroke-miterlimit="2.613"></path>
</svg>
