<?xml version="1.0" encoding="UTF-8"?>
<svg xmlns="http://www.w3.org/2000/svg" width="213" height="41" viewBox="0 0 213 41" fill="none">
  <g clip-path="url(#clip0_505_3825)">
    <path d="M12.5166 35.6995C12.1901 34.1757 12.4078 32.5431 12.952 31.0194L4.57128 22.6387C3.37404 21.4414 3.37404 19.4823 4.68012 18.2851C5.87736 17.1967 7.83648 17.1967 9.03372 18.2851L11.2105 20.4619L7.94532 23.7271L10.5575 26.3392L19.4824 17.0878L16.8702 14.4757L13.605 17.7409L11.537 15.6729C8.92488 13.0608 4.68012 13.0608 1.95912 15.6729C-0.65304 18.2851 -0.65304 22.5298 1.95912 25.2508C2.06796 25.2508 12.5166 35.6995 12.5166 35.6995ZM35.6995 28.2984C34.1758 28.6249 32.5432 28.4072 30.9106 27.863L22.5299 36.2437C21.4415 37.3321 19.3735 37.3321 18.1763 36.1349C17.0879 35.0465 17.0879 32.9785 18.1763 31.7813L20.3531 29.6045L23.6183 32.8697L26.2305 30.2575L16.979 21.2238L14.5846 23.9448L17.8498 27.21L15.7818 29.2779C13.1696 31.8901 13.1696 36.1349 15.7818 38.8559C18.394 41.468 22.6387 41.468 25.3597 38.8559C25.2509 38.8559 35.8084 28.1895 35.6995 28.2984ZM28.2984 5.11544C28.6249 6.6392 28.5161 8.2718 27.8631 9.79556L36.3526 18.2851C37.441 19.3735 37.441 21.3326 36.2437 22.6387C35.1553 23.8359 33.0874 23.8359 31.8901 22.6387L29.7133 20.4619L32.9785 17.1967L30.4752 14.5845L21.4415 23.7271L24.0537 26.3392L27.3189 23.074L29.3868 25.142C31.999 27.7542 36.2437 27.7542 38.9647 25.142C41.5769 22.5298 41.5769 18.2851 38.9647 15.5641C38.8559 15.6729 28.2984 5.11544 28.2984 5.11544ZM5.11548 12.5166C6.63924 12.19 8.27184 12.4077 9.7956 12.9519L18.1763 4.4624C19.3735 3.26515 21.3327 3.26515 22.5299 4.57124C23.7271 5.76848 23.7271 7.7276 22.5299 8.92484L20.3531 11.1016L17.0879 7.83644L14.5846 10.3398L23.7271 19.4823L26.3393 16.8702L23.0741 13.605L25.2509 11.4282C27.8631 8.816 27.8631 4.57124 25.2509 1.85023C22.6387 -0.761927 18.394 -0.761927 15.673 1.85023C15.673 2.06791 5.00664 12.5166 5.11548 12.5166Z" fill="white"></path>
    <path d="M52.1344 33.4137L52.8963 33.9579C53.0051 34.0668 53.0051 34.1756 53.0051 34.1756C53.0051 34.2845 52.8963 34.3933 52.8963 34.3933L52.5698 34.611V37.0055L52.6786 37.985C52.6786 38.0939 52.5698 38.2027 52.5698 38.2027C52.4609 38.3115 52.3521 38.3115 52.1344 38.3115C51.8079 38.3115 51.5902 38.2027 51.5902 38.0939V37.6585H47.2366V37.985C47.2366 38.2027 47.1278 38.2027 47.1278 38.2027C47.0189 38.3115 46.9101 38.3115 46.6924 38.3115C46.4747 38.3115 46.4747 38.2027 46.3659 37.985L46.4747 36.7878V34.0668C46.4747 33.6314 46.4747 33.4137 46.3659 33.1961L47.3454 33.6314H51.699L52.1344 33.4137ZM47.2366 37.332H51.699V35.9171H47.2366V37.332ZM47.2366 35.6994H51.699V34.1756H47.2366V35.6994ZM52.1344 28.0806L53.0051 28.6248C53.114 28.6248 53.114 28.7336 53.114 28.8424C53.114 28.9513 53.0051 28.9513 53.0051 29.0601L52.6786 28.9513C51.9167 29.0601 51.046 29.169 50.0664 29.2778V30.475H53.2228L53.8758 29.7132L54.7466 30.3662C54.8554 30.475 54.9642 30.475 54.9642 30.5839C54.9642 30.6927 54.8554 30.8016 54.7466 30.8016H50.5018C50.9372 31.1281 51.2637 31.3458 51.5902 31.6723C52.1344 31.89 52.5698 32.1077 53.114 32.3253C53.6582 32.543 54.3112 32.7607 55.0731 32.7607L55.1819 33.0872H54.7466C54.6377 33.0872 54.5289 33.3049 54.2024 33.7403C53.6582 33.5226 53.114 33.3049 52.5698 32.8695C52.0256 32.543 51.4814 32.1076 51.046 31.6723C50.8283 31.4546 50.5018 31.1281 50.1753 30.6927V33.0872C50.1753 33.3049 50.0664 33.3049 49.9576 33.4137C49.8488 33.5226 49.7399 33.5226 49.5222 33.5226C49.3046 33.5226 49.1957 33.4137 49.1957 33.1961L49.3046 32.1076V31.2369C49.0869 31.6723 48.7604 31.9988 48.4338 32.1076C47.8896 32.543 47.3454 32.9784 46.4747 33.3049C45.9305 33.6314 45.2775 33.8491 44.5156 34.1756L44.2979 33.7403C44.951 33.4137 45.4952 33.0872 46.0394 32.7607C46.5836 32.4342 47.0189 31.9988 47.4543 31.5634C47.8896 31.2369 48.1073 30.8016 48.325 30.3662H45.7128C45.2775 30.3662 44.8421 30.3662 44.5156 30.475L44.2979 29.9308C44.8421 30.0397 45.2775 30.0397 45.7128 30.0397H48.978V28.9513C48.1073 29.0601 46.9101 29.169 45.3863 29.169L45.1686 28.9513C46.6924 28.7336 47.8896 28.6248 48.6515 28.5159C50.0664 28.7336 51.1548 28.5159 52.1344 28.0806Z" fill="white"></path>
    <path d="M61.1681 28.2983L62.2565 28.4072C62.4742 28.4072 62.5831 28.516 62.5831 28.6249C62.5831 28.8425 62.4742 28.8425 62.1477 28.9514V29.9309H63.7803V29.0602C63.7803 28.9514 63.7803 28.7337 63.6715 28.4072L64.7599 28.516C64.9775 28.516 65.0864 28.6249 65.0864 28.7337C65.0864 28.8425 64.9775 28.9514 64.651 29.0602V29.9309H65.1952L65.8483 29.1691L66.719 29.8221C66.8278 29.9309 66.9367 29.9309 66.9367 30.0398C66.9367 30.1486 66.8278 30.2575 66.719 30.2575H64.651V31.9989H65.7394L66.3925 31.237L67.2632 31.8901C67.372 31.9989 67.372 31.9989 67.372 32.1077C67.372 32.2166 67.2632 32.3254 67.1543 32.3254H64.2157C64.4333 32.5431 64.7599 32.7608 65.0864 32.8696C65.4129 33.0873 65.7394 33.305 66.1748 33.305C66.6101 33.5227 67.0455 33.5227 67.5897 33.7403L67.4809 34.0669H67.0455C66.9367 34.0669 66.8278 34.2845 66.5013 34.7199C66.1748 34.5022 65.8483 34.3934 65.4129 34.0669C65.0864 33.8492 64.7599 33.5227 64.4333 33.0873C64.3245 32.8696 63.998 32.5431 63.8891 32.2166H62.3654C62.1477 32.6519 61.8212 33.0873 61.4947 33.4138L61.3858 33.5227L61.6035 33.6315H63.7803L64.3245 33.1961L64.9775 33.7403C65.0864 33.8492 65.1952 33.958 65.1952 33.958C65.1952 34.0669 65.0864 34.0669 64.9775 34.1757L64.651 34.2845V35.0464L64.7599 36.026C64.7599 36.1348 64.651 36.1348 64.5422 36.2437C64.4333 36.3525 64.3245 36.3525 64.2157 36.3525C63.8891 36.3525 63.7803 36.2437 63.7803 36.1348V35.8083H61.6035V36.679C61.6035 36.8967 61.8212 37.1144 62.1477 37.2232C62.4742 37.3321 63.0184 37.3321 63.8891 37.3321C64.7599 37.3321 65.1952 37.3321 65.4129 37.2232C65.5217 37.2232 65.7394 37.1144 65.8483 37.0055L66.2836 35.6995H66.5013L66.3925 36.7879C66.3925 37.0055 66.5013 37.0055 66.6101 37.1144C66.719 37.3321 66.8278 37.3321 66.8278 37.5497C66.8278 37.7674 66.719 37.7674 66.6101 37.8763C66.3925 37.9851 66.1748 38.0939 65.8483 38.0939C65.4129 38.2028 64.7599 38.2028 63.8891 38.2028C62.9096 38.2028 62.1477 38.2028 61.8212 37.9851C61.4947 37.9851 61.277 37.7674 60.9505 37.6586C60.7328 37.4409 60.7328 37.2232 60.7328 36.8967V34.1757C60.6239 34.2845 60.5151 34.3934 60.2974 34.5022C59.7532 34.9376 59.209 35.2641 58.556 35.4818L58.4471 35.2641C58.8825 35.0464 59.1002 34.8287 59.4267 34.5022C59.7532 34.2845 59.9709 33.958 60.2974 33.6315C60.5151 33.1961 60.8416 32.7608 61.1681 32.2166H59.209L58.3383 35.1553C58.2295 35.2641 58.2295 35.4818 58.2295 35.5906C58.2295 35.8083 58.3383 36.026 58.3383 36.4613C58.556 36.8967 58.556 37.1144 58.556 37.3321C58.556 37.5497 58.4471 37.7674 58.3383 37.9851C58.2295 38.2028 58.1206 38.2028 57.9029 38.2028C57.7941 38.2028 57.5764 38.0939 57.4676 38.0939C57.3587 37.8763 57.3587 37.7674 57.3587 37.4409V37.0055C57.3587 36.8967 57.4676 36.679 57.4676 36.5702C57.4676 36.3525 57.3587 36.1348 57.3587 35.9171C57.2499 35.8083 57.0322 35.6995 56.7057 35.5906V35.2641C56.9234 35.3729 57.0322 35.3729 57.1411 35.3729C57.3587 35.3729 57.3587 35.2641 57.5764 34.9376L59.6444 30.2575L59.8621 30.4751L59.4267 31.8901H61.1681V30.0398C60.7328 30.0398 60.2974 30.0398 60.0797 30.1486L59.8621 29.6044C60.4063 29.7133 60.7328 29.7133 61.277 29.7133V28.9514C61.1681 28.8425 61.1681 28.6249 61.1681 28.2983ZM61.8212 35.4818H63.998V34.0669H61.8212V35.4818ZM62.0389 32.1077H63.6715V30.3663H62.0389V32.1077ZM56.9234 31.1282C57.4676 31.3459 57.9029 31.5635 58.1206 31.7812C58.3383 31.9989 58.556 32.1077 58.556 32.2166C58.556 32.5431 58.4471 32.7608 58.0118 32.7608C57.9029 32.7608 57.6853 32.6519 57.5764 32.4343C57.4676 31.9989 57.1411 31.6724 56.5969 31.237L56.9234 31.1282ZM57.5764 28.4072C58.1206 28.6249 58.556 28.9514 58.8825 29.0602C59.1002 29.1691 59.3179 29.3867 59.3179 29.6044C59.3179 29.9309 59.209 30.1486 58.8825 30.1486C58.6648 30.1486 58.556 30.0398 58.4471 29.8221C58.2295 29.3867 57.9029 29.0602 57.4676 28.7337L57.5764 28.4072Z" fill="white"></path>
    <path d="M73.4671 28.5166L74.3378 28.952H78.3649L78.9091 28.5166L79.5621 29.0608C79.671 29.1696 79.7798 29.1696 79.7798 29.1696C79.7798 29.2785 79.671 29.2785 79.5621 29.3873L79.2356 29.4962V32.8702L79.3445 33.7409C79.3445 33.8498 79.2356 33.8498 79.1268 33.9586C79.0179 34.0674 78.9091 34.0674 78.8003 34.0674C78.4737 34.0674 78.3649 33.9586 78.3649 33.8498V33.5232H76.7323V35.2647H77.9295L78.5826 34.5028L79.4533 35.1558C79.5621 35.2647 79.5621 35.2647 79.5621 35.3735C79.5621 35.4824 79.4533 35.4824 79.3445 35.4824H76.7323V37.5503H78.3649L79.1268 36.7884L79.9975 37.4415C80.1063 37.5503 80.2152 37.6592 80.2152 37.6592C80.2152 37.768 80.1063 37.8768 79.9975 37.8768H73.6848C73.2494 37.8768 72.8141 37.8768 72.4875 37.9857L72.2699 37.4415C72.7052 37.5503 73.2494 37.5503 73.6848 37.5503H75.8616V35.4824H74.6643C74.229 35.4824 73.7936 35.4824 73.4671 35.5912V35.047C73.9025 35.1558 74.4467 35.1558 74.882 35.1558H76.0793V33.4144H74.5555V33.6321C74.5555 33.7409 74.4467 33.8498 74.3378 33.9586C74.229 34.0674 74.1201 34.0674 73.9025 34.0674C73.7936 34.0674 73.6848 33.9586 73.5759 33.7409L73.6848 32.6525V29.0608C73.5759 28.8431 73.5759 28.6254 73.4671 28.5166ZM74.3378 33.3056H75.8616V31.4553H74.3378V33.3056ZM76.8411 33.3056H78.4737V31.4553H76.8411V33.3056ZM74.3378 31.1288H75.8616V29.1696H74.3378V31.1288ZM76.8411 31.1288H78.4737V29.1696H76.8411V31.1288ZM72.4875 28.6254L73.3583 29.1696C73.4671 29.2785 73.4671 29.3873 73.4671 29.3873C73.4671 29.4962 73.3583 29.4962 73.2494 29.4962H71.8345V32.1083L72.3787 31.4553L73.1406 31.9995C73.2494 32.1083 73.2494 32.1083 73.2494 32.1083C73.2494 32.2172 73.1406 32.2172 73.0317 32.2172H71.6168V34.6116C72.161 34.5028 72.7052 34.394 73.1406 34.1763L73.2494 34.394C72.3787 34.9382 71.3991 35.4824 70.2019 36.0266L70.0931 36.4619C70.0931 36.5708 69.9842 36.5708 69.9842 36.5708C69.8754 36.5708 69.7665 36.4619 69.7665 36.4619L69.3312 35.3735C69.7665 35.2647 70.3107 35.1558 70.7461 34.9382V32.2172C70.3107 32.2172 69.9842 32.2172 69.5489 32.326L69.3312 31.7818C69.8754 31.8906 70.2019 31.8906 70.7461 31.9995V29.3873C70.3107 29.3873 69.8754 29.3873 69.5489 29.4962L69.3312 28.952C69.7665 29.0608 70.3107 29.1696 70.7461 29.1696H71.8345L72.4875 28.6254Z" fill="white"></path>
    <path d="M90.8814 28.9517L91.861 29.7135C91.9698 29.8224 92.0787 29.9312 92.0787 29.9312C92.0787 30.0401 91.9698 30.1489 91.861 30.1489H88.0516V37.1147H91.0991L91.7522 36.2439L92.7317 37.0058C92.8406 37.1147 92.9494 37.2235 92.9494 37.2235C92.9494 37.3323 92.8406 37.4412 92.7317 37.4412H84.1334C83.5892 37.4412 83.2626 37.55 82.7184 37.6589L82.2831 37.0058C82.8273 37.1147 83.3715 37.1147 83.9157 37.1147H86.9632V30.1489H84.7864C84.2422 30.1489 83.9157 30.2577 83.3715 30.3666L83.1538 29.7135C83.698 29.8224 84.2422 29.8224 84.7864 29.8224H90.1196L90.8814 28.9517Z" fill="white"></path>
    <path d="M99.0445 28.1895L100.242 28.4071C100.351 28.4071 100.459 28.516 100.459 28.6248C100.459 28.8425 100.242 28.8425 99.9152 28.9513C99.9152 29.8221 99.9152 30.6928 99.8063 31.3458H102.854L103.616 30.4751L104.595 31.237C104.704 31.3458 104.813 31.4547 104.813 31.4547C104.813 31.5635 104.704 31.6723 104.595 31.6723H100.133C100.568 32.6519 100.895 33.4138 101.33 34.0668C101.874 34.8287 102.419 35.4817 103.072 36.0259C103.725 36.5701 104.378 36.8967 105.14 37.2232L104.922 37.5497C104.704 37.5497 104.595 37.5497 104.486 37.6585C104.269 37.6585 104.16 37.8762 103.942 38.2027C103.289 37.7674 102.745 37.332 102.201 36.7878C101.657 36.1348 101.112 35.3729 100.786 34.5022C100.459 33.8491 100.133 32.9784 99.9152 31.89C99.9152 31.9989 99.9152 32.1077 99.8063 32.2165C99.6975 32.9784 99.4798 33.6315 99.1533 34.2845C98.9356 34.8287 98.6091 35.3729 98.1737 35.8083C97.7384 36.3525 97.1942 36.7878 96.65 37.2232C96.1058 37.5497 95.4527 37.9851 94.7997 38.4204L94.582 38.2027C95.4528 37.6585 96.1058 37.2232 96.4323 36.7878C96.9765 36.2436 97.5207 35.5906 97.9561 34.9375C98.3914 34.1757 98.718 33.5226 98.9356 32.5431C99.0445 32.2165 99.1533 31.89 99.1533 31.5635H96.3235C95.8881 31.5635 95.4528 31.5635 95.1262 31.6723L94.9085 31.1281C95.3439 31.237 95.8881 31.3458 96.3235 31.3458H99.2621C99.371 30.8016 99.371 30.2574 99.371 29.4955C99.0445 29.169 99.0445 28.7337 99.0445 28.1895Z" fill="white"></path>
    <path d="M114.5 33.5226L115.262 34.2845C115.37 34.3933 115.37 34.3933 115.37 34.5021C115.37 34.611 115.262 34.7198 115.262 34.7198H114.826C114.173 35.0463 113.629 35.1552 112.976 35.4817V35.5905C112.976 35.6994 112.867 35.6994 112.758 35.8082V36.0259H115.588L116.241 35.264L117.112 35.9171C117.221 36.0259 117.33 36.1347 117.33 36.1347C117.33 36.2436 117.221 36.2436 117.112 36.2436H112.867V37.4408C112.867 37.8762 112.649 38.0939 112.323 38.3115C111.996 38.5292 111.779 38.5292 111.452 38.5292C111.452 38.3115 111.452 38.0939 111.343 37.8762C111.235 37.7673 110.908 37.5497 110.255 37.4408V37.0055L111.779 37.332C111.888 37.332 111.996 37.2231 111.996 37.1143V36.1347H108.949C108.514 36.1347 108.078 36.1347 107.752 36.2436L107.534 35.6994C108.078 35.8082 108.514 35.8082 109.058 35.8082H112.105C112.105 35.5905 112.105 35.264 111.996 34.9375L112.758 35.1552C113.194 34.9375 113.629 34.611 113.956 34.2845H110.581C110.146 34.2845 109.711 34.2845 109.384 34.3933L108.84 33.7403C109.384 33.8491 109.82 33.9579 110.364 33.9579H113.956L114.5 33.5226ZM110.037 28.0806L110.799 28.7336C110.908 28.8424 110.908 28.9513 110.908 28.9513C110.908 29.0601 110.799 29.0601 110.799 29.0601L110.364 28.9513C109.82 29.0601 109.384 29.0601 108.84 29.169L108.949 30.0397H109.602L110.037 29.4955L110.69 30.0397C110.799 30.1485 110.799 30.1485 110.799 30.2574C110.799 30.3662 110.69 30.3662 110.581 30.3662H108.949L109.058 31.3458H109.711L110.146 30.8016L110.799 31.3458C110.908 31.4546 110.908 31.4546 110.908 31.5634C110.908 31.6723 110.799 31.6723 110.69 31.6723H108.949L109.058 32.6518H115.153L115.37 31.5634H115.262C114.826 31.5634 114.391 31.5634 114.064 31.6723L113.847 31.1281C114.282 31.2369 114.826 31.3458 115.262 31.3458H115.479L115.588 30.3662H115.37C114.935 30.3662 114.5 30.3662 114.173 30.475L113.956 29.9308C114.5 30.0397 114.935 30.0397 115.37 30.0397H115.588L115.697 29.0601H115.37C114.935 29.0601 114.5 29.0601 114.173 29.169L113.956 28.6248C114.5 28.7336 114.935 28.8424 115.37 28.8424H115.588V28.7336L116.132 28.1894L116.677 28.7336C116.785 28.8424 116.894 28.9513 116.894 28.9513C116.894 29.0601 116.894 29.169 116.785 29.169L116.568 29.3866L116.241 32.6518H116.459L116.894 32.4342L117.656 32.9784C117.765 33.0872 117.874 33.0872 117.874 33.1961C117.874 33.3049 117.765 33.3049 117.656 33.4137L117.438 33.5226C117.221 33.8491 116.785 34.0668 116.35 34.5021L116.132 34.2845C116.35 33.8491 116.568 33.4137 116.677 33.1961H108.514C108.514 33.4137 108.405 33.6314 108.405 33.8491C108.296 34.0668 108.296 34.2845 108.078 34.3933C107.969 34.5021 107.86 34.5021 107.752 34.5021C107.425 34.5021 107.316 34.3933 107.316 34.0668C107.316 33.9579 107.425 33.8491 107.534 33.7403C107.643 33.6314 107.752 33.4137 107.969 33.3049C108.078 33.0872 108.187 32.7607 108.296 32.3253L108.514 32.4342C108.514 32.543 108.514 32.7607 108.622 32.8695H108.949L108.84 29.6043C108.84 29.3866 108.731 29.0601 108.622 28.6248L109.493 29.169C109.167 28.6248 109.602 28.4071 110.037 28.0806ZM112.758 30.475L113.629 30.8016C113.738 30.8016 113.738 30.9104 113.738 31.0192C113.738 31.1281 113.629 31.1281 113.302 31.2369L113.085 31.4546C113.194 31.4546 113.194 31.5634 113.302 31.5634C113.629 31.6723 113.738 31.9988 113.847 32.1076C113.847 32.3253 113.847 32.3253 113.738 32.3253C113.629 32.4342 113.629 32.4342 113.411 32.4342C113.194 32.4342 113.194 32.3253 112.976 32.1076C112.758 31.89 112.758 31.89 112.541 31.7811C112.323 31.89 112.214 31.9988 111.996 32.1076C111.779 32.2165 111.343 32.3253 110.799 32.4342L110.69 32.2165C110.908 32.1076 111.126 31.9988 111.126 31.9988C111.343 31.89 111.561 31.7811 111.67 31.5634C111.779 31.4546 111.888 31.3458 111.888 31.3458C111.67 31.1281 111.343 30.9104 111.017 30.8016L111.235 30.6927C111.67 30.8016 111.996 30.9104 112.214 31.0192C112.432 30.9104 112.541 30.8016 112.758 30.475ZM112.758 28.2982L113.629 28.6248C113.738 28.6248 113.738 28.7336 113.738 28.8424C113.738 28.9513 113.629 29.0601 113.302 29.0601C113.194 29.169 113.194 29.2778 112.976 29.3866C113.302 29.4955 113.411 29.822 113.411 29.9308C113.411 30.0397 113.411 30.0397 113.302 30.1485C113.194 30.2574 113.085 30.2574 113.085 30.2574C112.976 30.2574 112.867 30.1485 112.649 30.0397L112.432 29.822C112.323 29.9308 112.214 29.9308 111.996 30.0397C111.779 30.2574 111.452 30.2574 110.908 30.475L110.799 30.2574C111.017 30.1485 111.126 30.0397 111.235 30.0397C111.452 29.9308 111.561 29.822 111.67 29.6043L111.888 29.4955C111.67 29.2778 111.343 28.9513 110.908 28.7336L111.126 28.5159C111.561 28.7336 111.996 28.8424 112.214 29.0601C112.432 28.8424 112.541 28.6248 112.758 28.2982Z" fill="white"></path>
    <path d="M53.1139 4.57138H52.6786C52.5697 3.8095 52.6786 3.37414 51.4813 3.37414H49.3045V10.7753C49.3045 11.646 49.8487 11.7548 50.6106 11.7548V12.0813H48.6515H46.5835V11.7548C47.3454 11.7548 47.8896 11.7548 47.8896 10.7753V3.37414H46.0393C44.7333 3.37414 44.6244 3.70066 44.4067 4.57138H43.9714L44.1891 2.50342H44.5156C44.6244 2.82994 45.0598 2.93878 45.3863 2.93878H51.9167C52.3521 2.93878 52.7874 2.82994 52.7874 2.50342H53.1139V4.57138Z" fill="white"></path>
    <path d="M61.4946 7.8364V5.44192C61.4946 4.5712 60.9504 4.5712 60.4062 4.5712V4.35352H62.2565H63.7803V4.68004C63.1272 4.68004 62.6919 4.68004 62.6919 5.55076V11.1016C62.6919 11.9723 63.1272 11.9723 63.7803 11.9723V12.2988H62.1477H60.4062V11.9723C61.0593 11.9723 61.4946 11.9723 61.4946 11.1016V8.3806H56.5968V11.1016C56.5968 11.9723 57.141 11.9723 57.6852 11.9723V12.2988H56.0526H54.42V11.9723C55.0731 11.9723 55.5084 11.9723 55.5084 11.1016V5.44192C55.5084 4.5712 55.0731 4.5712 54.42 4.5712V4.35352H56.0526H57.6852V4.68004C57.0322 4.68004 56.5968 4.68004 56.5968 5.55076V7.94524L61.4946 7.8364Z" fill="white"></path>
    <path d="M66.9366 7.8364H68.4604C69.4399 7.8364 69.4399 7.07452 69.4399 6.85684H69.6576C69.6576 7.07452 69.6576 7.72756 69.6576 8.05408C69.6576 8.3806 69.6576 9.03364 69.6576 9.36016H69.4399C69.4399 8.27176 69.0046 8.27176 68.1338 8.27176H66.8278V10.2309C66.8278 11.4281 66.9366 11.7546 68.025 11.7546H68.7869C69.8753 11.6458 70.5283 11.537 70.9637 10.3397L71.2902 10.4486C71.0725 10.9928 70.8548 11.6458 70.8548 12.19H67.2631H64.5421V11.8635C65.6305 11.8635 65.7394 11.6458 65.7394 10.6662V5.76844C65.7394 4.89772 65.5217 4.78888 64.5421 4.78888V4.35352H66.9366H70.4195V5.98612L70.2018 6.09496C69.9841 5.00656 69.4399 4.68004 68.3515 4.68004H66.9366V7.8364Z" fill="white"></path>
    <path d="M83.3715 7.07484V4.13616C83.3715 3.26544 82.8273 3.1566 82.0654 3.1566V2.83008H84.2422H86.0925V3.1566C85.3306 3.1566 84.7864 3.1566 84.7864 4.13616V10.8842C84.7864 11.755 85.3306 11.8638 86.0925 11.8638V12.1903H84.1334H82.0654V11.8638C82.8273 11.8638 83.3715 11.8638 83.3715 10.8842V7.61904H77.603V10.8842C77.603 11.755 78.1472 11.8638 78.9091 11.8638V12.1903H76.9499H74.7731V11.8638C75.535 11.8638 76.0792 11.8638 76.0792 10.8842V4.13616C76.0792 3.26544 75.535 3.1566 74.7731 3.1566V2.83008H76.7323H78.8002V3.1566C78.0383 3.1566 77.4941 3.1566 77.4941 4.13616V7.07484H83.3715Z" fill="white"></path>
    <path d="M91.208 4.13574C93.6025 4.13574 95.4527 5.98602 95.4527 8.16282C95.4527 10.2308 93.7113 12.2987 91.0991 12.2987C88.7046 12.2987 86.8544 10.4485 86.8544 8.27166C86.8544 6.2037 88.487 4.13574 91.208 4.13574ZM91.208 11.9722C92.9494 11.9722 94.0378 10.5573 94.0378 8.59819C94.0378 6.85674 92.9494 4.5711 90.8814 4.5711C89.2488 4.46226 88.1604 5.87718 88.1604 7.94514C88.1604 9.68659 89.2489 11.9722 91.208 11.9722Z" fill="white"></path>
    <path d="M104.051 12.2988H103.833L97.5206 5.98612V10.122C97.5206 11.6458 97.6295 11.9723 98.9356 11.9723V12.2988H97.303H95.6704V11.8635C96.4322 11.8635 96.9764 11.8635 96.9764 10.4486V5.98612C96.9764 5.00656 96.5411 4.68004 95.5615 4.68004V4.35352H96.6499H97.6295C98.0648 5.00656 99.2621 6.09496 100.568 7.40104C101.548 8.48944 102.745 9.469 103.507 10.3397V5.98612C103.507 4.89772 103.289 4.68004 102.092 4.68004V4.35352H103.725H105.139V4.68004C104.378 4.68004 104.051 4.78888 104.051 5.87728V12.2988Z" fill="white"></path>
    <path d="M113.302 6.42138H113.085C112.758 5.1153 111.67 4.67994 110.255 4.67994C108.187 4.67994 106.881 6.42138 106.881 8.16282C106.881 10.1219 108.187 11.9722 110.364 11.9722C111.343 11.9722 111.779 11.6457 111.996 11.5369V9.90427C111.996 9.03355 111.452 9.03355 110.908 9.03355V8.70702H112.541H114.064V9.03355C113.629 9.03355 113.194 9.03355 113.194 9.90427V11.3192L113.302 11.5369V11.6457C112.323 11.9722 111.235 12.2987 110.146 12.2987C106.772 12.2987 105.575 9.90427 105.575 8.27166C105.575 5.87718 107.534 4.13574 110.037 4.13574C111.126 4.13574 112.105 4.35342 113.194 4.67994L113.302 6.42138Z" fill="white"></path>
    <path d="M117.221 11.755C117.983 11.755 118.527 11.755 118.527 10.7754V4.13616C118.527 3.26544 117.983 3.1566 117.221 3.1566V2.83008H119.18H121.03V3.1566C120.486 3.1566 119.942 3.1566 119.942 4.13616V10.8842C119.942 11.755 120.486 11.8638 121.03 11.8638V12.1903H119.289H117.112L117.221 11.755ZM123.316 4.13616C123.425 4.02732 123.86 3.7008 123.86 3.37428C123.86 3.04776 123.425 3.04776 122.989 3.04776V2.83008H124.839H126.254V3.1566C125.384 3.1566 124.948 3.26544 123.642 4.57152L121.248 6.966C122.663 8.38092 124.078 10.0135 125.601 11.3196C126.037 11.755 126.472 11.755 126.799 11.755V11.9726H125.384H124.295C122.88 10.34 121.357 8.92512 119.833 7.29252L123.316 4.13616Z" fill="white"></path>
    <path d="M131.043 4.13574C133.438 4.13574 135.288 5.98602 135.288 8.16282C135.288 10.2308 133.547 12.2987 130.935 12.2987C128.54 12.2987 126.69 10.4485 126.69 8.27166C126.69 6.2037 128.431 4.13574 131.043 4.13574ZM131.152 11.9722C132.894 11.9722 133.982 10.5573 133.982 8.59819C133.982 6.85674 132.894 4.5711 130.826 4.5711C129.084 4.5711 127.996 5.98602 127.996 8.05398C127.996 9.68659 129.084 11.9722 131.152 11.9722Z" fill="white"></path>
    <path d="M143.995 12.2988H143.778L137.465 5.98612V10.122C137.465 11.6458 137.574 11.9723 138.88 11.9723V12.2988H137.247H135.615V11.8635C136.377 11.8635 136.921 11.8635 136.921 10.4486V5.98612C136.921 5.00656 136.485 4.68004 135.397 4.68004V4.35352H136.485H137.465C137.9 5.00656 139.098 6.09496 140.404 7.40104C141.383 8.48944 142.58 9.469 143.342 10.3397V5.98612C143.342 4.89772 143.125 4.68004 141.819 4.68004V4.35352H143.451H144.866V4.68004C144.104 4.68004 143.778 4.78888 143.778 5.87728V12.2988H143.995Z" fill="white"></path>
    <path d="M153.247 6.42138H153.029C152.703 5.1153 151.614 4.67994 150.199 4.67994C148.131 4.67994 146.825 6.42138 146.825 8.16282C146.825 10.1219 148.131 11.9722 150.308 11.9722C151.288 11.9722 151.723 11.6457 151.941 11.5369V9.90427C151.941 9.03355 151.397 9.03355 150.852 9.03355V8.70702H152.485H153.9V9.03355C153.464 9.03355 153.029 9.03355 153.029 9.90427V11.3192L153.247 11.5369V11.6457C152.267 11.9722 151.179 12.2987 150.09 12.2987C146.716 12.2987 145.519 9.90427 145.519 8.27166C145.519 5.87718 147.478 4.13574 149.982 4.13574C151.07 4.13574 152.05 4.35342 153.138 4.67994L153.247 6.42138Z" fill="white"></path>
    <path d="M44.2979 15.4556H46.257H47.8896C49.3045 15.4556 51.4813 15.9998 51.4813 18.0677C51.4813 19.5915 49.9576 20.7887 48.4338 20.7887H47.6719V20.3534H48.2161C49.4134 20.3534 50.0664 19.265 50.0664 18.2854C50.0664 16.4351 48.6515 15.8909 47.6719 15.8909C47.4542 15.8909 47.2366 15.8909 47.0189 15.9998V23.5097C47.0189 24.3805 47.5631 24.4893 48.325 24.4893V24.8158H46.3658H44.189V24.4893C44.9509 24.4893 45.4951 24.4893 45.4951 23.5097V17.0882C45.4951 15.9998 45.2774 15.7821 44.189 15.7821L44.2979 15.4556Z" fill="white"></path>
    <path d="M56.5968 16.8701C58.9913 16.8701 60.8416 18.7204 60.8416 20.8972C60.8416 22.9652 59.1002 25.0331 56.488 25.0331C54.0935 25.0331 52.2432 23.1828 52.2432 21.006C52.2432 18.8292 53.9847 16.8701 56.5968 16.8701ZM56.7057 24.5978C58.4471 24.5978 59.5355 23.1828 59.5355 21.2237C59.5355 19.4823 58.4471 17.1966 56.3791 17.1966C54.6377 17.1966 53.5493 18.6116 53.5493 20.6795C53.6581 22.3121 54.6377 24.5978 56.7057 24.5978Z" fill="white"></path>
    <path d="M67.8073 24.7066H64.7598H61.6035V24.38C62.1477 24.38 62.6919 24.2712 62.6919 23.6182V17.9585C62.6919 17.0878 62.1477 17.0878 61.6035 17.0878V16.7612H63.2361H64.9775V17.0878C64.3245 17.0878 63.8891 17.0878 63.8891 17.9585V23.074C63.8891 23.9447 64.1068 24.1624 65.7394 24.1624C67.1543 24.1624 67.5897 23.8358 67.9162 22.7474L68.1339 22.8563L67.8073 24.7066Z" fill="white"></path>
    <path d="M72.4875 23.727C72.4875 24.5978 72.9229 24.5978 73.5759 24.5978V24.9243H71.8345H70.2019V24.5978C70.8549 24.5978 71.2903 24.5978 71.2903 23.727V21.006L68.7869 17.8497C68.4604 17.3055 68.3516 17.4143 67.6985 17.3055V16.979H69.3311H70.7461V17.3055C70.5284 17.3055 70.093 17.3055 70.093 17.5232C70.093 17.7408 70.2019 17.9585 70.5284 18.1762L72.2698 20.353L73.7936 18.3939C73.9024 18.1762 74.2289 17.8497 74.2289 17.5232C74.2289 17.1966 74.0113 17.1966 73.3582 17.1966V16.8701H74.7731H75.7527V17.1966C75.2085 17.1966 74.9908 17.5232 74.7731 17.8497L72.4875 20.6795V23.727Z" fill="white"></path>
    <path d="M84.1334 18.5027H83.8068C83.8068 17.9585 83.8068 17.5231 82.8273 17.5231H80.977V23.727C80.977 24.5977 81.5212 24.5977 82.0654 24.5977V24.9242H80.5416H78.8002V24.5977C79.4532 24.5977 79.8886 24.5977 79.8886 23.727V17.5231H78.3648C77.2764 17.5231 77.1676 17.7408 77.0588 18.5027H76.7322L76.9499 16.7612H77.1676C77.3853 17.0878 77.603 17.0878 77.9295 17.0878H83.3715C83.8068 17.0878 84.1334 16.9789 84.2422 16.7612H84.4599L84.1334 18.5027Z" fill="white"></path>
    <path d="M87.5074 20.4618H89.0312C90.0107 20.4618 90.0107 19.7 90.0107 19.4823H90.2284C90.2284 19.7 90.1196 20.353 90.1196 20.6795C90.1196 21.006 90.2284 21.5502 90.2284 21.8768H90.0107C90.0107 20.7884 89.5754 20.7884 88.7046 20.7884H87.3986V22.6386C87.3986 23.8359 87.5074 24.1624 88.5958 24.1624H89.3577C90.4461 24.0536 91.0991 24.0536 91.5345 22.7475L91.861 22.8563C91.6433 23.4005 91.4256 23.9447 91.4256 24.5978H87.8339H85.1129V24.2712C86.2013 24.2712 86.3102 24.0536 86.3102 23.074V18.1762C86.3102 17.3055 86.0925 17.1966 85.1129 17.1966V16.8701H87.5074H90.9903V18.5027L90.7726 18.6116C90.5549 17.5232 90.0107 17.1966 88.9223 17.1966H87.5074V20.4618Z" fill="white"></path>
    <path d="M100.242 19.0469H99.9151C99.6974 17.7408 98.7179 17.3055 97.4118 17.3055C95.9969 17.3055 94.0378 18.1762 94.0378 20.7884C94.0378 22.9652 95.7792 24.5978 97.6295 24.5978C98.8267 24.5978 99.8063 23.8359 100.024 22.6386L100.242 22.7475L100.024 24.3801C99.4798 24.7066 98.1737 24.9243 97.4118 24.9243C94.582 24.9243 92.8405 23.1828 92.8405 20.7884C92.8405 18.5027 95.0173 16.8701 97.4118 16.8701C98.3914 16.8701 99.2621 17.1966 100.242 17.4143V19.0469Z" fill="white"></path>
    <path d="M108.296 20.4618V18.0674C108.296 17.1966 107.752 17.1966 107.208 17.1966V16.8701H109.058H110.582V17.1966C109.929 17.1966 109.493 17.1966 109.493 18.0674V23.6182C109.493 24.4889 109.929 24.4889 110.582 24.4889V24.8154H108.949H107.208V24.4889C107.861 24.4889 108.296 24.4889 108.296 23.6182V20.8972H103.507V23.6182C103.507 24.4889 103.942 24.4889 104.595 24.4889V24.8154H102.963H101.221V24.4889C101.874 24.4889 102.31 24.4889 102.31 23.6182V18.0674C102.31 17.1966 101.874 17.1966 101.221 17.1966V16.8701H102.854H104.595V17.1966C103.942 17.1966 103.507 17.1966 103.507 18.0674V20.4618H108.296Z" fill="white"></path>
    <path d="M119.942 24.8154H119.724L113.411 18.5027V22.6386C113.411 24.1624 113.52 24.4889 114.826 24.4889V24.8154H113.194H111.561V24.4889C112.323 24.4889 112.867 24.4889 112.867 23.074V18.6116C112.867 17.632 112.432 17.3055 111.452 17.3055V16.979H112.541H113.52C113.956 17.632 115.153 18.7204 116.459 20.0265C117.438 21.1149 118.636 22.2033 119.398 22.9652V18.5027C119.398 17.4143 119.18 17.1966 117.983 17.1966V16.8701H119.615H121.03V17.1966C120.268 17.1966 119.942 17.3055 119.942 18.285V24.5978V24.8154Z" fill="white"></path>
    <path d="M123.098 18.0674C123.098 17.1966 122.663 17.1966 122.01 17.1966V16.8701H123.642H125.384V17.1966C124.731 17.1966 124.295 17.1966 124.295 18.0674V23.6182C124.295 24.4889 124.731 24.4889 125.384 24.4889V24.8154H123.751H122.01V24.4889C122.663 24.4889 123.098 24.4889 123.098 23.6182V18.0674Z" fill="white"></path>
    <path d="M133.547 19.0469H133.22C133.003 17.7408 132.023 17.3055 130.717 17.3055C129.302 17.3055 127.343 18.1762 127.343 20.7884C127.343 22.9652 129.084 24.5978 130.935 24.5978C132.132 24.5978 133.111 23.8359 133.329 22.6386L133.547 22.7475L133.329 24.3801C132.785 24.7066 131.479 24.9243 130.717 24.9243C127.887 24.9243 126.146 23.1828 126.146 20.7884C126.146 18.5027 128.322 16.8701 130.717 16.8701C131.696 16.8701 132.567 17.1966 133.547 17.4143V19.0469Z" fill="white"></path>
    <path d="M146.825 15.7815C145.628 15.7815 145.628 16.3257 145.628 17.9583V21.7677C145.628 23.5091 144.431 24.9241 141.927 24.9241C139.533 24.9241 138.118 23.8357 138.118 21.55V16.6522C138.118 15.7815 137.574 15.6727 136.812 15.6727V15.3461H138.771H140.839V15.6727C140.077 15.6727 139.533 15.6727 139.533 16.6522V21.1147C139.533 22.6384 140.077 24.1622 142.254 24.1622C144.648 24.1622 144.866 22.4207 144.866 21.55V17.7406C144.866 15.5638 144.757 15.6727 143.451 15.5638V15.2373H145.302H146.716L146.825 15.7815Z" fill="white"></path>
    <path d="M156.077 24.8154H155.859L149.546 18.5027V22.6386C149.546 24.1624 149.655 24.4889 150.961 24.4889V24.8154H149.329H147.696V24.4889C148.458 24.4889 149.002 24.4889 149.002 23.074V18.6116C149.002 17.632 148.567 17.3055 147.587 17.3055V16.979H148.675H149.655C150.09 17.632 151.288 18.7204 152.594 20.0265C153.573 21.1149 154.771 22.2033 155.532 22.9652V18.5027C155.532 17.4143 155.315 17.1966 154.118 17.1966V16.8701H155.75H157.165V17.1966C156.403 17.1966 156.077 17.3055 156.077 18.285V24.5978V24.8154Z" fill="white"></path>
    <path d="M159.233 18.0674C159.233 17.1966 158.689 17.1966 158.145 17.1966V16.8701H159.777H161.519V17.1966C160.866 17.1966 160.43 17.1966 160.43 18.0674V23.6182C160.43 24.4889 160.866 24.4889 161.519 24.4889V24.8154H159.886H158.145V24.4889C158.798 24.4889 159.233 24.4889 159.233 23.6182V18.0674Z" fill="white"></path>
    <path d="M164.457 20.3531C164.131 19.5912 163.804 18.9382 163.587 18.2851C163.369 17.6321 163.151 17.4144 162.389 17.4144V17.0879H164.131H165.655V17.4144H165.219C165.11 17.4144 164.893 17.5233 164.893 17.6321C164.893 17.9586 165.546 19.3735 165.655 19.7001L167.287 23.5095L168.158 21.3327C168.484 20.5708 168.811 19.9177 169.029 19.1559C169.137 18.8293 169.464 18.2851 169.464 17.8498C169.464 17.4144 168.92 17.4144 168.593 17.4144V17.0879H170.008H171.205V17.4144C170.77 17.4144 170.552 17.5233 170.335 17.8498C170.226 17.9586 169.464 19.9177 169.464 19.9177L167.287 25.0332H166.852L164.457 20.3531Z" fill="white"></path>
    <path d="M173.818 20.4618H175.341C176.321 20.4618 176.321 19.7 176.321 19.4823H176.539C176.539 19.7 176.43 20.353 176.43 20.6795C176.43 21.006 176.539 21.5502 176.539 21.8768H176.321C176.321 20.7884 175.885 20.7884 175.015 20.7884H173.709V22.6386C173.709 23.8359 173.818 24.1624 174.906 24.1624H175.668C176.865 24.0536 177.409 24.0536 177.845 22.7475L178.171 22.8563C178.062 23.4005 177.736 23.9447 177.736 24.5978H174.144H171.423V24.2712C172.511 24.2712 172.62 24.0536 172.62 23.074V18.1762C172.62 17.3055 172.403 17.1966 171.423 17.1966V16.8701H173.818H177.192V18.5027L176.974 18.6116C176.756 17.5232 176.212 17.1966 175.015 17.1966H173.6L173.818 20.4618Z" fill="white"></path>
    <path d="M186.987 22.9652H187.205C187.423 23.8359 188.076 24.5978 189.055 24.5978C189.926 24.5978 190.688 24.0536 190.688 23.074C190.688 21.006 187.205 21.6591 187.205 19.0469C187.205 17.632 188.293 16.8701 189.708 16.8701C190.252 16.8701 190.688 16.979 191.123 17.0878L191.341 18.5027H191.123C190.905 17.632 190.47 17.3055 189.599 17.3055C188.729 17.3055 188.184 17.8497 188.184 18.7204C188.184 20.7884 191.885 20.1353 191.885 22.8563C191.885 24.2712 190.47 25.142 189.055 25.142C188.402 25.142 187.749 24.9243 187.205 24.7066L186.987 22.9652Z" fill="white"></path>
    <path d="M193.844 18.0674C193.844 17.1966 193.3 17.1966 192.756 17.1966V16.8701H194.388H196.13V17.1966C195.477 17.1966 195.041 17.1966 195.041 18.0674V23.6182C195.041 24.4889 195.477 24.4889 196.13 24.4889V24.8154H194.497H192.756V24.4889C193.409 24.4889 193.844 24.4889 193.844 23.6182V18.0674Z" fill="white"></path>
    <path d="M204.51 18.5027H204.184C204.184 17.9585 204.184 17.5231 203.204 17.5231H201.354V23.727C201.354 24.5977 201.789 24.5977 202.442 24.5977V24.9242H200.81H199.068V24.5977C199.721 24.5977 200.157 24.5977 200.157 23.727V17.5231H198.633C197.545 17.5231 197.436 17.7408 197.327 18.5027H197L197.218 16.7612H197.436C197.654 17.0878 197.871 17.0878 198.198 17.0878H203.64C204.075 17.0878 204.402 16.9789 204.51 16.7612H204.728L204.51 18.5027Z" fill="white"></path>
    <path d="M209.735 23.727C209.735 24.5978 210.17 24.5978 210.823 24.5978V24.9243H209.082H207.449V24.5978C208.102 24.5978 208.538 24.5978 208.538 23.727V21.006L206.034 17.8497C205.708 17.3055 205.599 17.4143 204.946 17.3055V16.979H206.578H207.993V17.3055C207.884 17.3055 207.34 17.3055 207.34 17.5232C207.34 17.7408 207.449 17.9585 207.776 18.1762L209.517 20.353L211.041 18.3939C211.15 18.1762 211.476 17.8497 211.476 17.5232C211.476 17.1966 211.259 17.1966 210.605 17.1966V16.8701H212.02H213V17.1966C212.456 17.1966 212.238 17.5232 212.02 17.8497L209.735 20.6795V23.727Z" fill="white"></path>
    <path d="M181.436 21.1149V23.7271C181.436 24.5978 181.872 24.5978 182.525 24.5978V24.9243H180.892H179.151V24.5978C179.695 24.5978 180.239 24.489 180.239 23.8359V18.1762C180.239 17.3055 179.804 17.3055 179.151 17.3055V16.979H181.001H182.634C184.919 16.979 185.355 18.0674 185.355 18.9381C185.355 19.9177 184.593 20.5707 183.613 20.7884C184.919 22.7475 185.028 23.1829 185.463 23.6182C185.79 24.0536 186.116 24.3801 186.661 24.3801V24.7066H185.79H184.81C183.94 23.5094 182.416 21.0061 182.416 21.0061H181.436V21.1149ZM182.089 17.3055C181.763 17.3055 181.545 17.3055 181.327 17.4144V20.6796C181.436 20.6796 181.763 20.7884 181.98 20.7884C183.395 20.7884 184.048 19.9177 184.048 19.047C184.048 18.0674 183.504 17.3055 182.089 17.3055Z" fill="white"></path>
  </g>
  <defs>
    <clipPath id="clip0_505_3825">
      <rect width="213" height="40.815" fill="white"></rect>
    </clipPath>
  </defs>
</svg>
