<?xml version="1.0" encoding="UTF-8"?>
<svg xmlns="http://www.w3.org/2000/svg" width="110" height="43" viewBox="0 0 110 43" fill="none">
  <path d="M35.9383 21.0366V34.0971C35.8506 36.8144 34.4482 38.4798 31.7309 38.4798C29.0136 38.4798 27.6111 36.8144 27.5235 34.0971V21.0366H21.7383V34.3601C21.8259 40.2329 26.4716 42.5119 31.8185 42.5119C37.0778 42.5119 41.8111 40.2329 41.8988 34.3601V21.0366H35.9383Z" fill="white"></path>
  <path fill-rule="evenodd" clip-rule="evenodd" d="M50.4889 23.5786H54.784C57.7642 23.5786 59.342 24.8058 60.1309 25.9453C61.358 27.786 61.7087 29.6267 61.7087 31.5551C61.7087 33.4835 61.358 35.4119 60.1309 37.165C59.342 38.3922 57.7642 39.5317 54.784 39.5317H50.4889V23.5786ZM47.5963 42.0737H54.6087C56.5371 41.986 58.6408 41.8983 60.3062 40.7588C63.3741 38.8304 64.7766 35.4996 64.7766 31.5551C64.7766 27.523 63.3741 24.2798 60.3062 22.3514C58.6408 21.2996 56.5371 21.1243 54.6087 21.0366H47.5963V42.0737Z" fill="white"></path>
  <path fill-rule="evenodd" clip-rule="evenodd" d="M80.642 35.3242V33.9218C80.642 29.8897 78.5383 27.0847 74.2432 26.9971C69.5975 26.9971 67.4938 30.5909 67.4938 34.886C67.4938 39.181 69.3346 42.5119 74.0679 42.5119C77.5741 42.5119 80.1161 40.8465 80.5543 37.5156H77.6617C77.3111 39.6193 76.2593 40.4958 74.0679 40.4958C71.263 40.4958 70.2111 37.8662 70.3864 35.2366H80.642V35.3242ZM70.2988 33.3958C70.2988 31.0292 71.7012 29.0131 73.9803 29.0131C76.6975 29.0131 77.7494 30.9415 77.7494 33.3958H70.2988Z" fill="white"></path>
  <path d="M86.7778 42.0737V21.0366H83.9728V42.0737H86.7778Z" fill="white"></path>
  <path d="M95.4556 42.0739V29.3641H98.8741V27.4357H95.4556V25.069C95.3679 23.4912 96.2445 23.053 97.8223 23.053C98.2605 23.053 98.7864 23.1406 99.2247 23.1406V20.8616C98.5235 20.7739 97.9099 20.5986 97.2087 20.5986C95.105 20.5986 92.7383 21.4752 92.6506 24.6307V27.4357H89.7581V29.3641H92.6506V42.0739H95.4556Z" fill="white"></path>
  <path d="M100.452 27.4359V29.3643H102.994V38.6557C102.994 40.5841 103.169 40.6717 103.607 41.3729C104.046 41.9865 104.835 42.2495 105.273 42.3371C105.974 42.4248 106.5 42.5124 107.114 42.5124C107.727 42.5124 108.341 42.3371 109.042 42.3371V40.2334C108.604 40.3211 107.99 40.4087 107.552 40.4087C106.588 40.4087 105.711 39.8828 105.711 38.831V29.3643H109.13V27.4359H105.711V23.4038L102.906 24.2804V27.4359H100.452Z" fill="white"></path>
  <path d="M6.39876 42.0741H12.2716V25.1569H18.8457V21.0371H0V25.1569H6.39876V42.0741Z" fill="white"></path>
  <path d="M20.5111 10.7815C19.1086 11.2198 17.6185 10.8691 17.6185 8.94074C17.6185 6.04815 24.4556 3.59383 25.3321 1.05185C25.5951 0.525926 25.5951 0 25.3321 0C25.1568 0 25.2444 0.350617 24.8062 0.788889C22.0012 3.68148 17.2679 3.59383 13.6741 5.25926C11.3074 6.31111 4.29505 9.64197 5.96049 16.9173C6.04814 17.2679 6.22345 18.4074 6.48641 18.4074C6.74938 18.4074 6.74938 17.7062 6.74938 16.9173C6.66172 12.5346 11.8333 11.3074 13.4988 8.50247C13.6741 8.15185 14.0247 7.71358 14.1123 7.88889C14.1123 7.97654 14.1123 8.15185 14.0247 8.41481C13.4988 10.7815 11.0444 12.2716 11.7457 13.937C12.6222 16.1284 15.2518 14.463 16.0407 13.0605C16.216 12.7099 16.3913 12.4469 16.479 12.4469C16.5667 12.4469 16.5667 12.8852 16.479 13.3235C16.0407 15.8654 15.5148 17.2679 13.6741 18.6704C13.0605 19.1086 12.1839 19.1963 12.2716 19.5469C12.2716 19.6346 12.7099 19.6346 13.0605 19.6346C17.9691 19.284 22.0889 13.4988 23.1407 9.72963C23.2284 9.46667 23.316 9.2037 23.1407 9.11605C22.9654 9.02839 22.7901 9.29136 22.5272 9.46667C22.0012 10.0802 21.2123 10.6062 20.5111 10.7815Z" fill="white"></path>
</svg>
