<?xml version="1.0" encoding="UTF-8"?>
<svg xmlns="http://www.w3.org/2000/svg" width="121" height="34" viewBox="0 0 121 34" fill="none">
  <g clip-path="url(#clip0_505_3866)">
    <path d="M13.0255 6.69452C12.4609 6.61386 11.9367 6.53321 11.4528 6.53321C11.1906 6.53321 10.9688 6.55337 10.7672 6.61386L10.6462 3.46839V2.94414C10.868 2.84332 11.1302 2.803 11.4729 2.803C11.9165 2.803 12.4206 2.88365 12.9448 2.94414C13.4086 3.00463 13.8925 3.08528 14.3764 3.10545L14.5176 6.85582C14.0337 6.83566 13.5296 6.75501 13.0255 6.69452ZM7.66206 6.69452C7.17814 6.77517 6.6539 6.85582 6.14981 6.87599L6.29096 3.12561C6.77488 3.08528 7.2588 3.02479 7.72255 2.9643C8.2468 2.88365 8.75088 2.82316 9.19447 2.82316C9.53725 2.82316 9.79937 2.86349 10.0212 2.9643V3.48855L9.90019 6.63403C9.69856 6.5937 9.47676 6.55337 9.21464 6.55337C8.75088 6.51305 8.22663 6.5937 7.66206 6.69452ZM15.6467 4.47655V3.77084H15.2031V2.56104H14.9007C14.2756 2.56104 13.6506 2.46022 13.0457 2.37957C12.5013 2.29891 11.977 2.21826 11.4931 2.21826C11.0293 2.21826 10.6664 2.29892 10.3438 2.44006C10.0413 2.29892 9.65823 2.21826 9.19447 2.21826C8.71055 2.21826 8.18631 2.29891 7.6419 2.37957C7.037 2.46022 6.41194 2.56104 5.78688 2.56104H5.48443V3.77084H5.04083V4.47655H5.48443V5.44439H5.04083V6.15011H5.48443V7.48088H5.78688C6.45226 7.48088 7.11765 7.38007 7.76288 7.27925C8.30729 7.1986 8.81137 7.11795 9.25496 7.11795C9.59774 7.11795 9.85986 7.17843 10.0817 7.27925H10.6462C10.8479 7.17843 11.11 7.11795 11.4729 7.11795C11.9165 7.11795 12.4206 7.1986 12.965 7.27925C13.6102 7.38007 14.2555 7.48088 14.941 7.48088H15.2435V6.15011H15.6871V5.44439H15.2435V4.47655H15.6467Z" fill="white"></path>
    <path d="M7.74272 3.48779C7.72256 3.48779 7.68223 3.48779 7.66207 3.50796C7.37978 3.54828 7.09749 3.58861 6.81521 3.62894L6.79504 4.11286C7.11766 4.07253 7.42011 4.0322 7.72256 3.99188H7.74272V3.48779Z" fill="white"></path>
    <path d="M8.10565 3.4278V3.91172C8.60973 3.85123 9.07349 3.79074 9.47676 3.83106L9.49692 3.36731C9.07349 3.32698 8.58957 3.36731 8.10565 3.4278Z" fill="white"></path>
    <path d="M7.74273 5.66602C7.72257 5.66602 7.68224 5.66602 7.66208 5.68618C7.35963 5.72651 7.03701 5.76683 6.73457 5.80716L6.7144 6.29108C7.05718 6.25075 7.39995 6.21042 7.72257 6.14993H7.74273V5.66602Z" fill="white"></path>
    <path d="M8.10565 5.60592V6.08984C8.56941 6.02935 9.013 5.96886 9.3961 5.98902L9.41627 5.52526C9.013 5.5051 8.56941 5.54543 8.10565 5.60592Z" fill="white"></path>
    <path d="M7.68222 4.57702V5.06094C7.70238 5.06094 7.72255 5.06094 7.74271 5.06094C8.38794 4.96012 8.95251 4.87947 9.45659 4.91979L9.47676 4.45604C8.91218 4.41571 8.30728 4.49637 7.68222 4.57702Z" fill="white"></path>
    <path d="M7.31929 4.63721C7.13782 4.65737 6.95635 4.67753 6.77488 4.71786L6.75471 5.20178C6.93618 5.18162 7.13782 5.16145 7.31929 5.12113V4.63721Z" fill="white"></path>
    <path d="M12.3803 3.40765C11.977 3.36732 11.5738 3.327 11.2108 3.34716L11.231 3.81092C11.5738 3.79075 11.9569 3.81092 12.3803 3.87141V3.40765Z" fill="white"></path>
    <path d="M13.8925 3.60906C13.6102 3.56873 13.328 3.52841 13.0457 3.48808C12.9449 3.46792 12.844 3.46792 12.7432 3.44775V3.93167C12.8239 3.95184 12.9045 3.95184 12.9852 3.972C13.2876 4.01233 13.6102 4.07282 13.9127 4.09298L13.8925 3.60906Z" fill="white"></path>
    <path d="M12.2795 4.47597C11.9165 4.43564 11.5738 4.41548 11.2512 4.43564L11.2713 4.8994C11.5738 4.87924 11.9165 4.8994 12.2997 4.93973L12.2795 4.47597Z" fill="white"></path>
    <path d="M13.9127 4.71858C13.6102 4.67825 13.3078 4.63793 13.0255 4.5976C12.8843 4.57744 12.7634 4.55727 12.6222 4.53711V5.02103C12.723 5.04119 12.844 5.06136 12.965 5.06136C13.2876 5.10168 13.6102 5.16217 13.9328 5.18234L13.9127 4.71858Z" fill="white"></path>
    <path d="M12.9852 6.14979C13.3078 6.19012 13.6304 6.25061 13.9732 6.29093L13.953 5.80701C13.6304 5.76669 13.328 5.72636 13.0255 5.68604C13.0054 5.68604 13.0054 5.68604 12.9852 5.68604V6.14979Z" fill="white"></path>
    <path d="M12.6222 5.62626C12.1383 5.56577 11.6947 5.50528 11.2713 5.52544L11.2914 5.9892C11.6947 5.96903 12.1383 6.00936 12.6222 6.09001V5.62626Z" fill="white"></path>
    <path d="M9.71874 13.3076L10.3438 11.7551L10.9689 13.3076L12.6424 13.4286L11.352 14.4973L11.7552 16.1103L10.3438 15.2232L8.93237 16.1103L9.33564 14.4973L8.04519 13.4286L9.71874 13.3076ZM5.9482 12.7431L8.62992 14.6989L7.60159 17.8847V17.9049H7.62176L10.3236 15.9289L13.0255 17.9049H13.0457C13.0457 17.9049 13.0658 17.8847 13.0457 17.8847L12.0174 14.7191L14.6991 12.7632C14.7192 12.7632 14.7192 12.7431 14.7192 12.7431C14.7192 12.7229 14.6991 12.7229 14.6991 12.7229H11.3923L10.364 9.55727C10.364 9.53711 10.364 9.53711 10.3438 9.53711C10.3236 9.53711 10.3236 9.55727 10.3236 9.55727L9.29531 12.7229H5.96836C5.9482 12.7229 5.9482 12.7229 5.9482 12.7431C5.92804 12.7229 5.9482 12.7431 5.9482 12.7431Z" fill="white"></path>
    <path d="M17.0178 16.7559C16.7759 17.018 16.4533 17.2196 16.1105 17.3003C16.1508 16.9373 16.3121 16.6147 16.5541 16.3526C16.796 16.0905 17.1187 15.8888 17.4614 15.8082C17.4211 16.151 17.2598 16.4736 17.0178 16.7559ZM15.7274 14.6589C15.6871 14.2959 15.7475 13.933 15.9089 13.6104C16.1508 13.8725 16.292 14.2153 16.3524 14.5782C16.3928 14.9412 16.3323 15.3041 16.171 15.6065C15.929 15.3444 15.7677 15.0016 15.7274 14.6589ZM16.4331 11.9368C16.3726 11.5739 16.4129 11.2109 16.5541 10.8883C16.8162 11.1505 16.9775 11.4731 17.038 11.8158C17.0985 12.1788 17.0582 12.5417 16.917 12.8643C16.6751 12.6022 16.5138 12.2796 16.4331 11.9368ZM18.1671 12.7232C18.1873 13.0861 18.1067 13.4491 17.9252 13.7515C17.7437 14.054 17.4816 14.3161 17.159 14.4572C17.1388 14.0943 17.2195 13.7515 17.4009 13.4289C17.5622 13.1265 17.8445 12.8845 18.1671 12.7232ZM15.5258 19.4779C15.2435 19.6997 14.8805 19.8005 14.5378 19.8207C14.6587 19.4779 14.8805 19.1956 15.1628 18.9738C15.4653 18.752 15.808 18.6512 16.1508 18.631C16.0298 18.9738 15.808 19.2763 15.5258 19.4779ZM14.6789 17.1793C14.6991 16.8163 14.8402 16.4736 15.062 16.1913C15.2435 16.4937 15.3241 16.8567 15.2838 17.2196C15.2636 17.5826 15.1225 17.9253 14.9007 18.2076C14.7394 17.885 14.6587 17.5422 14.6789 17.1793ZM13.7514 19.5989C13.6506 19.9417 13.4489 20.2441 13.1666 20.4861C13.0658 20.1433 13.0457 19.7804 13.1465 19.4376C13.2473 19.0948 13.4489 18.7923 13.7312 18.5504C13.832 18.873 13.8522 19.2561 13.7514 19.5989ZM14.2958 21.1716C14.1143 21.4741 13.832 21.716 13.5094 21.8572C13.2876 21.958 13.0457 22.0185 12.7835 22.0185C12.6827 22.0185 12.5617 22.0185 12.4609 21.9983C12.6424 21.6959 12.9247 21.4539 13.2473 21.3128C13.5699 21.1515 13.9329 21.1111 14.2958 21.1716ZM11.1906 21.3128C11.3721 20.9901 11.6342 20.728 11.9367 20.5667C11.977 20.9297 11.8964 21.2724 11.7351 21.595C11.5737 21.9177 11.3116 22.1798 10.989 22.3411C10.9487 21.9782 11.0092 21.6152 11.1906 21.3128ZM7.15798 21.8572C6.83537 21.716 6.55308 21.4741 6.37161 21.1716C6.71439 21.1111 7.07733 21.1515 7.4201 21.2926C7.74271 21.4337 8.025 21.6757 8.20647 21.9782C7.8637 22.0588 7.50076 21.9983 7.15798 21.8572ZM6.91602 19.5989C6.8152 19.2561 6.8152 18.8932 6.93618 18.5504C7.21847 18.7722 7.4201 19.0746 7.52092 19.4376C7.62174 19.7804 7.62174 20.1433 7.50076 20.4861C7.21847 20.2441 7.01684 19.9417 6.91602 19.5989ZM8.73072 20.5667C9.05333 20.728 9.31545 20.9901 9.47676 21.3128C9.63807 21.6354 9.71872 21.9983 9.67839 22.3411C9.35578 22.1798 9.09366 21.9177 8.93235 21.595C8.75088 21.2724 8.69039 20.9297 8.73072 20.5667ZM5.14165 19.4779C4.8392 19.2561 4.63757 18.9738 4.51659 18.631C4.87953 18.631 5.2223 18.752 5.50459 18.9738C5.80704 19.1755 6.00867 19.4779 6.12965 19.8207C5.76671 19.8207 5.42393 19.6997 5.14165 19.4779ZM5.58524 16.1913C5.80704 16.4736 5.94818 16.8163 5.96834 17.1793C5.98851 17.5422 5.90785 17.9052 5.74655 18.2076C5.52475 17.9253 5.38361 17.5826 5.36344 17.2196C5.32312 16.8567 5.40377 16.4937 5.58524 16.1913ZM3.6294 16.7559C3.38744 16.4937 3.22613 16.151 3.18581 15.8082C3.52858 15.8888 3.8512 16.0703 4.09316 16.3526C4.33512 16.6147 4.49642 16.9575 4.53675 17.3003C4.19397 17.1994 3.87136 17.018 3.6294 16.7559ZM3.50842 14.4774C3.18581 14.3161 2.92368 14.0741 2.74221 13.7717C2.56075 13.4491 2.48009 13.1063 2.50025 12.7434C2.82287 12.9047 3.08499 13.1466 3.26646 13.4491C3.44793 13.7515 3.52858 14.1145 3.50842 14.4774ZM3.60924 11.8158C3.66973 11.4529 3.8512 11.1303 4.11332 10.8883C4.25446 11.2109 4.29479 11.5739 4.2343 11.9368C4.17381 12.2998 3.99234 12.6224 3.73022 12.8643C3.58907 12.5417 3.52858 12.1788 3.60924 11.8158ZM4.31495 14.5782C4.35528 14.2153 4.51659 13.8927 4.75855 13.6104C4.91985 13.933 4.98034 14.2959 4.94002 14.6589C4.89969 15.0218 4.73838 15.3444 4.49642 15.6267C4.33512 15.2839 4.27463 14.9412 4.31495 14.5782ZM17.0178 15.0218C17.5622 14.8605 18.0462 14.4976 18.3285 13.9935C18.6107 13.4894 18.7116 12.9047 18.5704 12.3401L18.5099 12.0981L18.268 12.1788C17.9857 12.2594 17.7236 12.4006 17.5018 12.5821C17.5622 12.2998 17.5622 12.0175 17.5018 11.7352C17.4009 11.1706 17.0783 10.6665 16.6146 10.3238L16.4129 10.1826L16.2718 10.4044C15.9693 10.8883 15.8484 11.4731 15.9693 12.0376C16.0702 12.6022 16.3928 13.1063 16.8565 13.4491C16.7759 13.6507 16.7154 13.8523 16.6751 14.054C16.5339 13.6709 16.3121 13.3483 15.9895 13.0861L15.7879 12.9248L15.6467 13.1265C15.304 13.5902 15.1628 14.175 15.2435 14.7395C15.3241 15.3041 15.6064 15.8283 16.05 16.1913H16.0702C15.929 16.3728 15.8282 16.5542 15.7677 16.776C15.7072 16.3728 15.5459 16.0098 15.304 15.6872L15.1426 15.4856L14.9612 15.667C14.5377 16.0501 14.2756 16.5945 14.2353 17.1591C14.195 17.7237 14.3563 18.3084 14.7192 18.752V18.7722C14.5579 18.9133 14.4168 19.0948 14.2958 19.2763C14.316 18.873 14.2353 18.4697 14.0538 18.1068L13.9329 17.885L13.7111 18.006C13.207 18.3084 12.844 18.7722 12.6827 19.3166C12.5214 19.861 12.5819 20.4659 12.8239 20.97V20.9902C12.6222 21.091 12.4609 21.2321 12.2996 21.3934C12.4004 21.0103 12.4206 20.5869 12.3198 20.2038L12.2593 19.9618L12.0173 20.0425C11.4729 20.2239 11.0092 20.607 10.747 21.1111C10.4849 21.595 10.4043 22.1596 10.5454 22.704C10.4648 22.7645 10.4043 22.8048 10.3236 22.8653C10.243 22.8048 10.1623 22.7645 10.1018 22.704C10.2228 22.1596 10.1623 21.595 9.90019 21.1111C9.6179 20.607 9.17431 20.2239 8.6299 20.0425L8.38794 19.9618L8.32745 20.2038C8.22663 20.607 8.22663 21.0103 8.34761 21.3934C8.20647 21.2321 8.025 21.091 7.82337 20.9902V20.97C8.08549 20.4457 8.12582 19.861 7.96451 19.3166C7.80321 18.7722 7.44027 18.2883 6.93618 18.006L6.71439 17.885L6.59341 18.1068C6.41194 18.4697 6.33128 18.873 6.35145 19.2763C6.23047 19.0948 6.08932 18.9133 5.92802 18.7722V18.752C6.29096 18.3084 6.47243 17.7237 6.41194 17.1591C6.37161 16.5744 6.10949 16.0501 5.68606 15.667L5.50459 15.4856L5.34328 15.6872C5.08116 16.0098 4.91985 16.3929 4.87953 16.776C4.79887 16.5744 4.69806 16.3728 4.57708 16.1913H4.59724C5.04083 15.8283 5.32312 15.3041 5.40377 14.7395C5.48442 14.175 5.34328 13.5902 5.00051 13.1265L4.85936 12.9248L4.65773 13.0861C4.33512 13.3483 4.11332 13.691 3.97218 14.054C3.95201 13.8523 3.89152 13.6507 3.79071 13.4491C4.25446 13.1063 4.57708 12.6022 4.67789 12.0376C4.77871 11.4731 4.67789 10.8883 4.37544 10.4044L4.2343 10.1826L4.03267 10.3238C3.56891 10.6665 3.2463 11.1706 3.14548 11.7352C3.08499 12.0175 3.08499 12.2998 3.14548 12.5821C2.92368 12.4006 2.66156 12.2594 2.37928 12.1788L2.13732 12.0981L2.07683 12.3401C1.95585 12.9047 2.0365 13.4894 2.31879 13.9935C2.60107 14.4976 3.06483 14.8605 3.6294 15.0218L3.8512 15.0823C3.87136 15.2638 3.91169 15.4452 3.99234 15.6065C3.68989 15.4049 3.32695 15.2839 2.96401 15.2638L2.70189 15.2436V15.5057C2.70189 16.0905 2.90352 16.6349 3.28662 17.0583C3.66973 17.4817 4.19397 17.7439 4.77871 17.8043L5.00051 17.8245C5.061 18.006 5.14165 18.1673 5.24247 18.3084C5.00051 18.2076 4.71822 18.1673 4.4561 18.1673C4.35528 18.1673 4.25446 18.1673 4.17381 18.1874L3.91169 18.2278L3.95201 18.4697C4.07299 19.0343 4.37544 19.5384 4.8392 19.8812C5.2223 20.1635 5.68606 20.3046 6.16998 20.3046C6.27079 20.3046 6.35145 20.3046 6.45226 20.2844L6.67406 20.2643C6.77488 20.4256 6.87569 20.5667 7.01684 20.6877C6.6539 20.6272 6.29096 20.6675 5.92802 20.7885L5.68606 20.8692L5.78687 21.1111C6.00867 21.6354 6.4321 22.0588 6.95635 22.3008C7.23863 22.4217 7.56124 22.5024 7.88386 22.5024C8.14598 22.5024 8.38794 22.4621 8.6299 22.3814L8.81137 22.3209C9.11382 22.5629 9.43643 22.825 9.90019 23.1476C9.69856 23.2888 9.4566 23.4299 9.19447 23.6114L9.63807 23.8937C9.90019 23.7324 10.122 23.5912 10.3236 23.4501C10.5253 23.5912 10.747 23.7324 11.0092 23.8937L11.4528 23.6114C11.1906 23.4501 10.9688 23.2888 10.747 23.1476C11.2108 22.825 11.5334 22.5831 11.8359 22.3209L12.0173 22.3814C12.2593 22.4621 12.5013 22.5024 12.7634 22.5024C13.086 22.5024 13.3884 22.4419 13.6909 22.3008C14.2151 22.0588 14.6386 21.6354 14.8604 21.1111L14.9612 20.8692L14.7192 20.7885C14.3764 20.6675 13.9933 20.6272 13.6304 20.6877C13.7514 20.5667 13.8724 20.4054 13.9732 20.2643L14.195 20.2844C14.2958 20.3046 14.3764 20.3046 14.4773 20.3046C14.9612 20.3046 15.4249 20.1635 15.808 19.8812C16.2718 19.5384 16.5944 19.0343 16.6952 18.4697L16.7356 18.2278L16.4734 18.1874C16.3726 18.1673 16.2718 18.1673 16.1911 18.1673C15.9089 18.1673 15.6467 18.2076 15.4048 18.3084C15.5056 18.1471 15.5862 17.9858 15.6467 17.8245L15.8685 17.8043C16.4533 17.764 16.9775 17.5019 17.3606 17.0583C17.7437 16.6349 17.9453 16.0703 17.9453 15.5057V15.2436L17.6832 15.2638C17.3203 15.2839 16.9573 15.4049 16.6549 15.6065C16.7154 15.4251 16.7557 15.2638 16.796 15.0823L17.0178 15.0218Z" fill="white"></path>
    <path d="M17.0783 20.0423C16.5944 20.748 16.0298 21.4134 15.3644 22.0587C13.3078 23.954 10.989 25.0025 10.3236 25.2646C9.67839 25.0025 7.35961 23.954 5.28279 22.0587C4.6174 21.4134 4.05282 20.7682 3.56891 20.0423C1.22996 16.6146 0.927512 12.6424 0.907349 9.53724L10.3034 9.013L19.6996 9.53724C19.7399 12.6424 19.4173 16.6146 17.0783 20.0423ZM1.45176 1.57274C3.20597 1.3711 7.11765 0.988002 10.3438 0.988002C13.5699 0.988002 17.4816 1.3711 19.2358 1.57274L19.7197 8.44843H10.3438H0.967839L1.45176 1.57274ZM20.6876 0.766206L20.2641 0.705716C20.2036 0.705716 14.6587 0 10.3438 0C6.02883 0 0.483919 0.685552 0.423429 0.705716L0 0.766206V8.44843V9.51708C0 12.7432 0.322613 16.9372 2.82286 20.5867C3.34711 21.3328 3.93184 22.0385 4.6174 22.7039C4.6174 22.7039 4.6174 22.7039 4.63756 22.724C5.9885 24.0347 7.78304 25.2646 10.3438 26.6761C12.9045 25.2445 14.699 24.0145 16.05 22.724C16.05 22.724 16.05 22.724 16.0702 22.7039C16.7759 22.0183 17.3606 21.3328 17.8647 20.5867C20.3649 16.9372 20.6876 12.7432 20.6876 9.51708V9.35577V0.766206Z" fill="white"></path>
    <path d="M26.3131 1.61328V7.03721H27.5028L28.9142 3.14569L33.5114 3.0852V21.6354L29.8216 22.0387L29.9829 23.1074L35.1245 23.0065L40.0847 23.1074L40.246 22.0387L36.7174 21.6354V3.0852L41.3146 3.14569L42.7261 7.03721H43.9157V1.61328L35.1043 1.69393L26.3131 1.61328Z" fill="white"></path>
    <path d="M59.9858 21.575L51.5777 21.6556V12.4813L55.8524 12.6023L57.0823 15.8082H58.151L57.8485 11.6748L58.151 7.86391H57.0823L55.8524 11.0699L51.5777 11.1909V3.04488L59.6834 3.14569L61.3973 7.11786H62.4458L62.1231 1.61328L49.9848 1.69393L45.7505 1.61328L45.5892 2.68194L48.3516 3.0852V21.6354L45.5892 22.0387L45.7505 23.1074L49.9848 23.0065L62.1231 23.1074L63.212 17.4415H62.0425L59.9858 21.575Z" fill="white"></path>
    <path d="M95.5338 1.33105L93.6989 1.8553L86.0973 21.696L84.6254 21.8976L83.1535 21.6758L76.3585 11.6547L82.6292 3.02477L85.0085 2.682L84.8472 1.61334L81.2581 1.71416L77.6691 1.61334L77.5078 2.682L80.1693 3.08526L75.31 10.2231L70.995 3.04494L73.5961 2.64167L73.4348 1.57301L69.0795 1.69399L64.7041 1.57301L64.5428 2.64167L66.922 2.98445L73.2533 12.562L66.6397 21.6557L64.2605 21.9984L64.4218 23.1074L67.8495 23.0066L71.4386 23.1074L71.5999 21.9984L69.0795 21.6355L74.3018 13.9936L79.0603 21.5952L76.4593 21.9984L76.6206 23.1074L80.996 23.0066L84.5649 23.0873L87.0853 23.0066L90.7551 23.1074L90.9164 22.0388L88.2548 21.6355L90.251 15.9091H97.8122L99.889 21.6355L97.288 22.0388L97.4493 23.1074L101.482 23.0066L105.716 23.1074L105.878 22.0388L103.498 21.696L95.5338 1.33105ZM90.7954 14.4775L93.961 5.30323L97.3081 14.4775H90.7954Z" fill="white"></path>
    <path d="M116.302 11.0702L112.773 9.53778C111.1 8.8119 109.89 7.76341 109.89 6.06969C109.89 4.01304 111.322 2.70242 113.741 2.70242C115.576 2.70242 116.564 3.36781 117.35 4.1945L118.238 6.97704H119.77V2.86373C118.238 1.73458 116.1 1.08936 114.165 1.08936C109.91 1.97654 106.845 3.93238 106.845 7.27949C106.845 10.0015 108.66 11.413 110.858 12.3606L114.568 13.9737C116.403 14.7802 117.754 15.9699 117.754 18.0467C117.754 20.2848 116.221 21.9382 113.6 21.9382C111.886 21.9382 110.192 21.1317 109.285 20.0025L108.216 17.4015H106.079L106.745 21.5349C108.378 22.8254 110.273 23.6118 113.076 23.6118C118.822 22.4221 120.798 19.6396 120.798 16.7562C120.839 13.6511 118.722 12.1187 116.302 11.0702Z" fill="white"></path>
    <path d="M35.8302 32.3423L35.2253 32.3625L35.185 32.1407L35.5076 32.0802V30.2251C35.5076 29.8824 35.3463 29.7412 35.0842 29.7412C34.8825 29.7412 34.6406 29.8824 34.3986 30.0437L34.197 30.1647V32.1003L34.5599 32.1608L34.5196 32.3826L33.8945 32.3625L33.209 32.3826L33.1686 32.1608L33.5517 32.1003V28.0677L33.3098 28.108L31.979 28.0878V32.0398L32.7251 32.1205L32.6847 32.3423L31.6362 32.3221L30.5474 32.3423L30.5071 32.1205L31.2935 32.0398V28.0878L30.3256 28.108L30.0232 28.9145H29.761V27.7652L31.6362 27.7854L33.2493 27.7652L33.955 27.6846H34.1768V29.8017L35.1245 29.1767C35.9512 29.1767 36.0923 29.4993 36.0923 30.326V32.06L36.5762 32.1205L36.5359 32.3423H35.8302Z" fill="white"></path>
    <path d="M37.5441 30.689C37.5441 31.435 37.9474 31.9593 38.6329 31.9593C38.895 31.9593 39.1975 31.8383 39.4394 31.677L39.5403 31.919C39.2176 32.1408 38.8144 32.3222 38.3909 32.4432C37.6046 32.4432 36.8989 31.8786 36.8989 30.8503C36.8989 29.8825 37.4836 29.3784 38.3708 29.1768C39.2378 29.1768 39.5201 29.7212 39.5201 30.4067V30.689H37.5441ZM38.8345 30.3664C38.8345 29.8623 38.7337 29.5195 38.2296 29.5195C37.8264 29.5195 37.5844 29.8825 37.5239 30.4269L38.8345 30.3664Z" fill="white"></path>
    <path d="M43.956 28.007L43.9963 27.7852L44.823 27.8053L45.5892 27.7852L45.6296 28.007L45.0852 28.0876V30.7492C45.0852 31.596 44.7424 32.1606 43.4519 32.463C42.1615 32.463 41.7179 31.7775 41.7179 30.729V28.0876L41.1331 28.007L41.1735 27.7852L42.0808 27.8053L42.968 27.7852L43.0083 28.007L42.4639 28.0876V30.8298C42.4639 31.6363 42.8067 32.1001 43.5527 32.1001C44.2383 32.1001 44.6012 31.6363 44.6012 30.8097V28.0876L43.956 28.007Z" fill="white"></path>
    <path d="M46.4966 32.3418L45.7505 32.3619L45.7102 32.1401L46.174 32.0796V29.6802L45.7102 29.7205L45.6699 29.4987L46.4563 29.2971L46.7385 29.2769L46.7789 29.8213L47.7467 29.1963C48.5734 29.1963 48.7146 29.4786 48.7146 30.2649V32.0796L49.2186 32.1401L49.1783 32.3619L48.4323 32.3418L47.8072 32.3619L47.7669 32.1401L48.0895 32.0796V30.2246C48.0895 29.8818 47.9483 29.7407 47.6661 29.7407C47.4443 29.7407 47.2023 29.8818 46.9805 30.0431L46.7789 30.1641V32.0998L47.1418 32.1603L47.1015 32.3821L46.4966 32.3418Z" fill="white"></path>
    <path d="M50.247 32.3419L49.5009 32.3621L49.4606 32.1403L49.9243 32.0798V29.6804L49.4606 29.7207L49.4203 29.4989L50.2066 29.2973L50.5292 29.2771V32.0798L51.0132 32.1403L50.9728 32.3621L50.247 32.3419ZM49.9042 27.8455L50.3679 27.8052L50.5494 27.8455L50.5897 28.2084L50.5091 28.5311L50.0453 28.5714L49.8638 28.5311L49.8235 28.1681L49.9042 27.8455Z" fill="white"></path>
    <path d="M52.848 31.9388L53.6344 29.5796L53.3319 29.5192L53.3723 29.2974L53.9368 29.3175L54.4812 29.2974L54.5216 29.5192L54.0981 29.5796L53.0295 32.2614L52.5456 32.463L51.4164 29.5796L51.0132 29.5192L51.0535 29.2974L51.7995 29.3175L52.4851 29.2974L52.5254 29.5192L52.102 29.5796L52.8077 31.4952L52.848 31.9388Z" fill="white"></path>
    <path d="M55.1668 30.689C55.1668 31.435 55.5701 31.9593 56.2557 31.9593C56.5178 31.9593 56.8202 31.8383 57.0622 31.677L57.163 31.919C56.8404 32.1408 56.4371 32.3222 56.0137 32.4432C55.2273 32.4432 54.5216 31.8786 54.5216 30.8503C54.5216 29.8825 55.1063 29.3784 55.9935 29.1768C56.8606 29.1768 57.1428 29.7212 57.1428 30.4067V30.689H55.1668ZM56.4774 30.3664C56.4774 29.8623 56.3766 29.5195 55.8726 29.5195C55.4693 29.5195 55.2273 29.8825 55.1668 30.4269L56.4774 30.3664Z" fill="white"></path>
    <path d="M58.6147 30.1241L59.3608 29.2168H59.885V29.862H59.4011C59.2398 29.9024 58.9575 30.104 58.776 30.3258L58.6551 30.4871V32.0397L59.3406 32.1002L59.3003 32.3421L58.3526 32.3219L57.6267 32.3421L57.5864 32.1203L58.0502 32.0598V29.6806L57.5864 29.7209L57.5461 29.4991L58.3324 29.2975L58.5946 29.2773L58.6147 30.1241Z" fill="white"></path>
    <path d="M61.9215 29.6405C61.861 29.6002 61.6594 29.4994 61.4174 29.4994C61.1553 29.4994 60.9133 29.6405 60.9133 29.8825C60.9133 30.0841 61.0746 30.2253 61.3771 30.3664L61.8812 30.6285C62.3248 30.8503 62.4861 31.0923 62.4861 31.4754C62.4861 32.0601 62.0021 32.2819 61.2561 32.4432C60.8528 32.4432 60.4294 32.2416 60.2681 32.1408L60.1471 31.3947H60.5706L60.7924 31.9391C60.9335 32.0399 61.115 32.1004 61.3368 32.1004C61.6795 32.1004 61.861 31.8786 61.861 31.5964C61.861 31.3342 61.7199 31.2334 61.3771 31.0519L60.8528 30.7898C60.5706 30.6487 60.3084 30.4067 60.3084 30.0438C60.3084 29.58 60.7319 29.3381 61.4981 29.1768C61.8408 29.1768 62.2239 29.3381 62.4256 29.4792V30.1244H62.0828L61.9215 29.6405Z" fill="white"></path>
    <path d="M63.7362 32.3419L62.9902 32.3621L62.9499 32.1403L63.4136 32.0798V29.6804L62.9499 29.7207L62.9095 29.4989L63.6959 29.2973L64.0185 29.2771V32.0798L64.5024 32.1403L64.4621 32.3621L63.7362 32.3419ZM63.3935 27.8455L63.8572 27.8052L64.0387 27.8455L64.079 28.2084L63.9984 28.5311L63.5346 28.5714L63.3531 28.5311L63.3128 28.1681L63.3935 27.8455Z" fill="white"></path>
    <path d="M66.9623 33.8748V33.2296H67.5269L68.1721 32.2416L67.91 32.3222L66.8212 29.58H65.8332V31.5762C65.8332 31.7577 65.9138 31.9593 66.176 31.9593C66.3574 31.9593 66.5591 31.8585 66.7405 31.7778L66.8413 31.9996L66.0147 32.4432C65.2888 32.4432 65.188 32.1811 65.188 31.5964V29.6607H64.5629V29.5599L64.7847 29.3381H65.2081V28.9146L65.6315 28.4912H65.7929V29.2977H67.8495L67.8898 29.5195L67.4664 29.58L68.1923 31.4955L68.2528 31.9391L69.0593 29.58L68.7569 29.5195L68.7972 29.2977L69.3618 29.3179L69.9062 29.2977L69.9465 29.5195L69.5231 29.58L68.4746 32.2416L67.7487 33.8748H66.9623Z" fill="white"></path>
    <path d="M74.2413 30.7493C74.2413 31.7171 73.6566 32.2817 72.6282 32.443C71.7612 32.443 71.1765 31.7776 71.1765 30.8904C71.1765 29.9024 71.7612 29.358 72.7895 29.1967C73.6566 29.1766 74.2413 29.8621 74.2413 30.7493ZM72.7895 32.1204C73.3138 32.1204 73.5759 31.5962 73.5759 30.8904C73.5759 30.0637 73.1727 29.4992 72.6081 29.4992C72.0838 29.4992 71.8217 30.0436 71.8217 30.7493C71.8419 31.4953 72.225 32.1204 72.7895 32.1204Z" fill="white"></path>
    <path d="M75.7132 29.3582H76.5197V29.6606H75.7132V32.0601L76.4593 32.1004L76.4189 32.3423L75.4108 32.3222L74.6647 32.3423L74.6244 32.1206L75.0882 32.0601V29.6606H74.5034V29.5598L74.7051 29.338H75.0882V29.2775C75.0882 28.8944 75.2091 28.6323 75.4511 28.3702L75.9955 27.7451H76.8222V28.2694H75.9753L75.8544 28.4508C75.7737 28.5718 75.7132 28.7734 75.7132 29.1767V29.3582Z" fill="white"></path>
    <path d="M81.5001 32.3621L80.4516 32.3419L79.3628 32.3621L79.3225 32.1403L80.1088 32.0596V28.1076L79.141 28.1278L78.8385 28.9545H78.5764V27.8052L80.4516 27.8253L82.3268 27.8052V28.9545H82.0647L81.7622 28.1278L80.7742 28.1076V32.0596L81.5203 32.1403L81.5001 32.3621Z" fill="white"></path>
    <path d="M82.6695 30.689C82.6695 31.435 83.0728 31.9593 83.7583 31.9593C84.0205 31.9593 84.3229 31.8383 84.5649 31.677L84.6657 31.919C84.3632 32.1408 83.9398 32.3222 83.5164 32.4432C82.73 32.4432 82.0243 31.8786 82.0243 30.8503C82.0243 29.8825 82.609 29.3784 83.4962 29.1768C84.3632 29.1768 84.6455 29.7212 84.6455 30.4067V30.689H82.6695ZM83.9801 30.3664C83.9801 29.8623 83.8793 29.5195 83.3752 29.5195C82.972 29.5195 82.73 29.8825 82.6695 30.4269L83.9801 30.3664Z" fill="white"></path>
    <path d="M86.1376 32.1199L86.0973 32.3417L85.5932 32.3215L84.9278 32.3417L84.8875 32.1199L85.3513 32.0594L86.3191 30.8698L85.3714 29.5793L84.9682 29.5188L85.0085 29.2769L85.7545 29.297L86.3796 29.2769L86.4199 29.5188L86.1578 29.5793L86.6417 30.3052L86.7022 30.4665L87.3273 29.5793L87.0047 29.5188L87.045 29.2769L87.5491 29.297L88.2145 29.2769L88.2548 29.5188L87.791 29.5793L86.924 30.6278L87.9523 32.0594L88.3556 32.1199L88.3153 32.3417L87.5692 32.3215L86.9442 32.3417L86.9038 32.1199L87.166 32.0594L86.5812 31.2125L86.5207 31.0714L85.8352 32.0594L86.1376 32.1199Z" fill="white"></path>
    <path d="M89.8477 29.1768C90.6744 29.1768 90.876 29.3784 90.876 30.2051V31.4754C90.876 31.7577 90.9163 31.8585 90.997 31.9593H91.3196L91.3398 32.1811L90.4929 32.3424L90.2913 31.8383L89.5049 32.4029C88.9403 32.4029 88.5371 32.0803 88.5371 31.5762C88.5371 31.3342 88.6177 31.1729 88.7589 30.9713L90.2308 30.4874V30.1648C90.2308 29.7817 90.1905 29.5397 89.8477 29.5397C89.6662 29.5397 89.4646 29.6002 89.3234 29.6607L89.2025 30.1849H88.6379V29.6808L89.8477 29.1768ZM90.251 30.7898L89.3033 31.1729C89.2025 31.2737 89.1823 31.3947 89.1823 31.5359C89.1823 31.8585 89.3638 31.9795 89.5654 31.9795C89.7469 31.9795 89.9082 31.8786 89.9888 31.8182L90.2711 31.6367L90.251 30.7898Z" fill="white"></path>
    <path d="M93.3561 29.6405C93.2956 29.6002 93.094 29.4994 92.852 29.4994C92.5899 29.4994 92.3479 29.6405 92.3479 29.8825C92.3479 30.0841 92.5092 30.2253 92.8117 30.3664L93.3158 30.6285C93.7594 30.8503 93.9207 31.0923 93.9207 31.4754C93.9207 32.0601 93.4368 32.2819 92.6907 32.4432C92.2874 32.4432 91.864 32.2416 91.7027 32.1408L91.5817 31.3947H92.0052L92.2269 31.9391C92.3681 32.0399 92.5496 32.1004 92.7714 32.1004C93.1141 32.1004 93.2956 31.8786 93.2956 31.5964C93.2956 31.3342 93.1545 31.2334 92.8117 31.0519L92.2874 30.7898C92.0052 30.6487 91.743 30.4067 91.743 30.0438C91.743 29.58 92.1665 29.3381 92.9125 29.1768C93.2553 29.1768 93.6384 29.3381 93.84 29.4792V30.1244H93.4972L93.3561 29.6405Z" fill="white"></path>
    <path d="M97.2073 29.1768C98.034 29.1768 98.2356 29.3784 98.2356 30.2051V31.4754C98.2356 31.7577 98.2759 31.8585 98.3566 31.9593H98.6792L98.6994 32.1811L97.8525 32.3424L97.6509 31.8383L96.8847 32.4029C96.3201 32.4029 95.9168 32.0803 95.9168 31.5762C95.9168 31.3342 95.9975 31.1729 96.1386 30.9713L97.6106 30.4874V30.1648C97.6106 29.7817 97.5702 29.5397 97.2275 29.5397C97.046 29.5397 96.8443 29.6002 96.683 29.6607L96.5822 30.1849H96.0177V29.6808L97.2073 29.1768ZM97.6307 30.7898L96.683 31.1729C96.5822 31.2737 96.5621 31.3947 96.5621 31.5359C96.5621 31.8585 96.7435 31.9795 96.9452 31.9795C97.1266 31.9795 97.2879 31.8786 97.3686 31.8182L97.6509 31.6367L97.6307 30.7898Z" fill="white"></path>
    <path d="M98.6792 29.6607V29.5599L98.901 29.3381H99.3245V28.9146L99.7479 28.4912H99.9092V29.3784H100.897V29.6808H99.9294V31.5964C99.9294 31.7778 100.01 31.9795 100.272 31.9795C100.454 31.9795 100.595 31.919 100.796 31.8182L100.897 32.04L100.131 32.4634C99.4051 32.4634 99.3043 32.2013 99.3043 31.6165V29.6808L98.6792 29.6607Z" fill="white"></path>
    <path d="M103.66 30.8298L103.236 32.0396L103.801 32.1202L103.76 32.342L102.974 32.3218L102.268 32.342L102.228 32.1202L102.732 32.0396L104.345 27.8254L104.728 27.7246L106.422 32.0597L106.926 32.1404L106.886 32.3622L105.978 32.342L105.111 32.3622L105.071 32.1404L105.615 32.0597L105.172 30.8499L103.66 30.8298ZM104.527 28.7933L104.486 28.4505L103.76 30.5273H105.152L104.527 28.7933Z" fill="white"></path>
    <path d="M109.749 31.4948C109.749 31.7771 109.789 31.8779 109.83 31.9787H110.152L110.172 32.2005L109.325 32.3618L109.144 31.8376L108.196 32.4223C107.329 32.4223 107.188 32.1199 107.188 31.3537V29.6801L106.724 29.7204L106.684 29.4583L107.47 29.297L107.793 29.2769V31.4545C107.793 31.7973 107.934 31.9384 108.257 31.9384C108.458 31.9384 108.721 31.7771 108.963 31.6158L109.083 31.5351V29.6801L108.7 29.7204L108.66 29.4583L109.386 29.297L109.709 29.2769L109.749 31.4948Z" fill="white"></path>
    <path d="M112.229 29.6405C112.168 29.6002 111.967 29.4994 111.725 29.4994C111.463 29.4994 111.221 29.6405 111.221 29.8825C111.221 30.0841 111.382 30.2253 111.685 30.3664L112.189 30.6285C112.632 30.8503 112.794 31.0923 112.794 31.4754C112.794 32.0601 112.31 32.2819 111.564 32.4432C111.16 32.4432 110.737 32.2416 110.576 32.1408L110.455 31.3947H110.878L111.1 31.9391C111.241 32.0399 111.422 32.1004 111.624 32.1004C111.967 32.1004 112.148 31.8786 112.148 31.5964C112.148 31.3342 112.007 31.2334 111.664 31.0519L111.14 30.7898C110.858 30.6487 110.596 30.4067 110.596 30.0438C110.596 29.58 111.019 29.3381 111.785 29.1768C112.128 29.1768 112.511 29.3381 112.713 29.4792V30.1244H112.37L112.229 29.6405Z" fill="white"></path>
    <path d="M113.035 29.6607V29.5599L113.257 29.3381H113.681V28.9146L114.104 28.4912H114.265V29.3784H115.253V29.6808H114.286V31.5964C114.286 31.7778 114.366 31.9795 114.628 31.9795C114.81 31.9795 114.951 31.919 115.132 31.8182L115.233 32.04L114.467 32.4634C113.741 32.4634 113.64 32.2013 113.64 31.6165V29.6808L113.035 29.6607Z" fill="white"></path>
    <path d="M116.403 32.3419L115.657 32.3621L115.616 32.1403L116.08 32.0798V29.6804L115.616 29.7207L115.576 29.4989L116.362 29.2973L116.685 29.2771V32.0798L117.169 32.1403L117.129 32.3621L116.403 32.3419ZM116.08 27.8455L116.544 27.8052L116.725 27.8455L116.766 28.2084L116.685 28.5311L116.221 28.5714L116.04 28.5311L116 28.1681L116.08 27.8455Z" fill="white"></path>
    <path d="M118.278 32.3418L117.532 32.3619L117.492 32.1401L117.955 32.0796V29.6802L117.492 29.7205L117.451 29.4987L118.238 29.2971L118.52 29.2769L118.56 29.8213L119.528 29.1963C120.355 29.1963 120.496 29.4786 120.496 30.2649V32.0796L121 32.1401L120.96 32.3619L120.214 32.3418L119.589 32.3619L119.548 32.1401L119.871 32.0796V30.2246C119.871 29.8818 119.73 29.7407 119.447 29.7407C119.226 29.7407 118.984 29.8818 118.762 30.0431L118.56 30.1641V32.0998L118.923 32.1603L118.883 32.3821L118.278 32.3418Z" fill="white"></path>
  </g>
  <defs>
    <clipPath id="clip0_505_3866">
      <rect width="121" height="33.8744" fill="white"></rect>
    </clipPath>
  </defs>
</svg>
