<?xml version="1.0" encoding="UTF-8"?>
<svg xmlns="http://www.w3.org/2000/svg" width="109" height="43" viewBox="0 0 109 43" fill="none">
  <path fill-rule="evenodd" clip-rule="evenodd" d="M14.0269 40.4338L7.62359 38.1359V28.7506L14.0269 30.9323V40.4338ZM15.2015 40.4338L21.6047 38.1363V28.7506L15.2015 30.9323V40.4338ZM8.2816 28.0486L14.7622 26.2241L20.7715 28.1618L14.7622 30.2021L8.2816 28.0486ZM6.40327 27.3218L0 25.0247V15.6386L6.40327 17.8203V27.3218ZM7.57787 27.3218L13.9816 25.0247V15.6386L7.57787 17.8203V27.3218ZM0.658016 14.9361L7.13905 13.112L13.1484 15.0498L7.13905 17.09L0.658016 14.9365V14.9361ZM21.3449 27.3218L14.9412 25.0247V15.6386L21.3449 17.8203V27.3218ZM22.5195 27.3218L28.9232 25.0247V15.6386L22.5195 17.8203V27.3218ZM15.6001 14.9361L22.0807 13.112L28.0896 15.0498L22.0807 17.09L15.6001 14.9365V14.9361ZM28.9685 14.2089L22.5648 11.9127V2.52653L28.9685 4.70781V14.2089ZM30.1431 14.2089L36.5464 11.9127V2.52653L30.1427 4.70781V14.2089H30.1431ZM23.2233 1.8245L29.7043 0L35.7132 1.9373L29.7043 3.97801L23.2233 1.8245ZM43.9106 14.2089L37.5069 11.9127V2.52653L43.9106 4.70781V14.2089ZM45.0848 14.2089L51.4885 11.9127V2.52653L45.0848 4.70781V14.2089ZM38.1649 1.8245L44.646 0L50.6548 1.9373L44.646 3.97758L38.1649 1.82407" fill="white"></path>
  <path fill-rule="evenodd" clip-rule="evenodd" d="M40.653 34.3193L38.502 41.7921H37.5676L35.8926 36.2417L34.3574 41.7921H33.4046L31.1677 34.3193H32.3235L33.9519 39.8881L35.5021 34.3193H36.3549L38.0401 39.9061L39.7138 34.3193H40.6526H40.653Z" fill="white"></path>
  <path fill-rule="evenodd" clip-rule="evenodd" d="M40.653 34.3193L38.502 41.7921H37.5676L35.8926 36.2417L34.3574 41.7921H33.4046L31.1677 34.3193H32.3235L33.9519 39.8881L35.5021 34.3193H36.3549L38.0401 39.9061L39.7138 34.3193H40.6526H40.653Z" fill="white" stroke="white" stroke-width="0.427283"></path>
  <path fill-rule="evenodd" clip-rule="evenodd" d="M46.6035 39.5632L47.6862 39.7853C47.4893 40.4241 47.1051 40.9535 46.5347 41.3718C45.963 41.7906 45.2913 42 44.5179 42C43.4989 42 42.6742 41.641 42.044 40.9223C41.4133 40.2045 41.0984 39.2619 41.0984 38.0967C41.0984 36.9067 41.4261 35.9453 42.0807 35.2121C42.7353 34.4789 43.5578 34.1123 44.5478 34.1123C45.5233 34.1123 46.307 34.4499 46.9005 35.125C47.4935 35.8001 47.7978 36.8102 47.8127 38.1553H42.3892C42.3892 39.2854 42.6251 40.0473 43.0976 40.4425C43.5698 40.8369 44.0693 41.0343 44.5957 41.0343C45.5456 41.0343 46.2151 40.5438 46.6035 39.5632ZM46.5403 37.2892C46.5304 36.8704 46.4616 36.4978 46.3335 36.1722C46.2053 35.8471 45.9891 35.5698 45.684 35.3403C45.3789 35.1113 45.0119 34.9968 44.5837 34.9968C44.0082 34.9968 43.5198 35.2036 43.1186 35.618C42.7174 36.0325 42.4926 36.5888 42.4435 37.2887H46.5403V37.2892Z" fill="white"></path>
  <path fill-rule="evenodd" clip-rule="evenodd" d="M46.6035 39.5632L47.6862 39.7853C47.4893 40.4241 47.1051 40.9535 46.5347 41.3718C45.963 41.7906 45.2913 42 44.5179 42C43.4989 42 42.6742 41.641 42.044 40.9223C41.4133 40.2045 41.0984 39.2619 41.0984 38.0967C41.0984 36.9067 41.4261 35.9453 42.0807 35.2121C42.7353 34.4789 43.5578 34.1123 44.5478 34.1123C45.5233 34.1123 46.307 34.4499 46.9005 35.125C47.4935 35.8001 47.7978 36.8102 47.8127 38.1553H42.3892C42.3892 39.2854 42.6251 40.0473 43.0976 40.4425C43.5698 40.8369 44.0693 41.0343 44.5957 41.0343C45.5456 41.0343 46.2151 40.5438 46.6035 39.5632ZM46.5403 37.2892C46.5304 36.8704 46.4616 36.4978 46.3335 36.1722C46.2053 35.8471 45.9891 35.5698 45.684 35.3403C45.3789 35.1113 45.0119 34.9968 44.5837 34.9968C44.0082 34.9968 43.5198 35.2036 43.1186 35.618C42.7174 36.0325 42.4926 36.5888 42.4435 37.2887H46.5403V37.2892Z" fill="white" stroke="white" stroke-width="0.427283"></path>
  <path fill-rule="evenodd" clip-rule="evenodd" d="M49.9015 41.7921H49.3418V31.7026H50.5061V35.5653C51.0377 34.5962 51.7705 34.1121 52.7049 34.1121C53.5604 34.1121 54.2773 34.4501 54.8555 35.1269C55.4336 35.8033 55.7228 36.7856 55.7228 38.0743C55.7228 39.1852 55.4383 40.1167 54.87 40.87C54.3008 41.6233 53.5612 41.9997 52.6503 41.9997C51.6359 41.9997 50.8582 41.5182 50.3169 40.5555L49.9015 41.7921ZM50.5061 38.8622C50.5604 39.6296 50.7958 40.1859 51.212 40.5329C51.6282 40.879 52.0683 41.0524 52.531 41.0524C53.1224 41.0524 53.5992 40.7956 53.9612 40.2821C54.3235 39.7689 54.5038 39.0656 54.5038 38.1721C54.5038 37.2103 54.3295 36.4536 53.9795 35.9033C53.6296 35.3529 53.1442 35.0773 52.5238 35.0773C52.0362 35.0773 51.5966 35.2739 51.2048 35.6648C50.8129 36.0571 50.5801 36.5634 50.5061 37.1842V38.8622Z" fill="white"></path>
  <path fill-rule="evenodd" clip-rule="evenodd" d="M49.9015 41.7921H49.3418V31.7026H50.5061V35.5653C51.0377 34.5962 51.7705 34.1121 52.7049 34.1121C53.5604 34.1121 54.2773 34.4501 54.8555 35.1269C55.4336 35.8033 55.7228 36.7856 55.7228 38.0743C55.7228 39.1852 55.4383 40.1167 54.87 40.87C54.3008 41.6233 53.5612 41.9997 52.6503 41.9997C51.6359 41.9997 50.8582 41.5182 50.3169 40.5555L49.9015 41.7921ZM50.5061 38.8622C50.5604 39.6296 50.7958 40.1859 51.212 40.5329C51.6282 40.879 52.0683 41.0524 52.531 41.0524C53.1224 41.0524 53.5992 40.7956 53.9612 40.2821C54.3235 39.7689 54.5038 39.0656 54.5038 38.1721C54.5038 37.2103 54.3295 36.4536 53.9795 35.9033C53.6296 35.3529 53.1442 35.0773 52.5238 35.0773C52.0362 35.0773 51.5966 35.2739 51.2048 35.6648C50.8129 36.0571 50.5801 36.5634 50.5061 37.1842V38.8622Z" fill="white" stroke="white" stroke-width="0.427283"></path>
  <path fill-rule="evenodd" clip-rule="evenodd" d="M58.6895 39.8558L59.7991 39.6264C60.0461 40.5651 60.8259 41.0343 62.1381 41.0343C62.6209 41.0343 63.0311 40.9262 63.3661 40.7096C63.7019 40.4933 63.8694 40.1883 63.8694 39.7947C63.8694 39.2094 63.4426 38.8381 62.5884 38.6808L61.0147 38.3813C60.3982 38.2629 59.9081 38.0309 59.5432 37.6857C59.1787 37.3404 58.9962 36.8841 58.9962 36.3167C58.9962 35.6907 59.2449 35.1664 59.7427 34.7447C60.2401 34.323 60.9105 34.1123 61.7531 34.1123C63.3742 34.1123 64.3749 34.746 64.7539 36.0129L63.6891 36.2419C63.3836 35.4659 62.7559 35.0775 61.8056 35.0775C61.3326 35.0775 60.9447 35.175 60.6417 35.3685C60.3392 35.5625 60.1875 35.8334 60.1875 36.1821C60.1875 36.7311 60.5746 37.0768 61.3484 37.2195L62.8033 37.4874C64.3266 37.7634 65.0876 38.5026 65.0876 39.7029C65.0876 40.3891 64.8043 40.9441 64.2373 41.3659C63.6703 41.7889 62.9157 42 61.9736 42C60.2033 42 59.1082 41.2851 58.6895 39.8558Z" fill="white"></path>
  <path fill-rule="evenodd" clip-rule="evenodd" d="M58.6895 39.8558L59.7991 39.6264C60.0461 40.5651 60.8259 41.0343 62.1381 41.0343C62.6209 41.0343 63.0311 40.9262 63.3661 40.7096C63.7019 40.4933 63.8694 40.1883 63.8694 39.7947C63.8694 39.2094 63.4426 38.8381 62.5884 38.6808L61.0147 38.3813C60.3982 38.2629 59.9081 38.0309 59.5432 37.6857C59.1787 37.3404 58.9962 36.8841 58.9962 36.3167C58.9962 35.6907 59.2449 35.1664 59.7427 34.7447C60.2401 34.323 60.9105 34.1123 61.7531 34.1123C63.3742 34.1123 64.3749 34.746 64.7539 36.0129L63.6891 36.2419C63.3836 35.4659 62.7559 35.0775 61.8056 35.0775C61.3326 35.0775 60.9447 35.175 60.6417 35.3685C60.3392 35.5625 60.1875 35.8334 60.1875 36.1821C60.1875 36.7311 60.5746 37.0768 61.3484 37.2195L62.8033 37.4874C64.3266 37.7634 65.0876 38.5026 65.0876 39.7029C65.0876 40.3891 64.8043 40.9441 64.2373 41.3659C63.6703 41.7889 62.9157 42 61.9736 42C60.2033 42 59.1082 41.2851 58.6895 39.8558Z" fill="white" stroke="white" stroke-width="0.427283"></path>
  <path fill-rule="evenodd" clip-rule="evenodd" d="M71.279 39.5632L72.3617 39.7853C72.1652 40.4241 71.781 40.9535 71.2098 41.3718C70.6389 41.7906 69.9664 42 69.1938 42C68.1743 42 67.3493 41.641 66.7194 40.9223C66.0888 40.2045 65.7743 39.2619 65.7743 38.0967C65.7743 36.9067 66.1012 35.9453 66.757 35.2121C67.4116 34.4789 68.2337 34.1123 69.2237 34.1123C70.1984 34.1123 70.9829 34.4499 71.5764 35.125C72.1699 35.8001 72.4737 36.8102 72.4882 38.1553H67.0647C67.0647 39.2854 67.301 40.0473 67.7731 40.4425C68.2457 40.8369 68.7452 41.0343 69.2716 41.0343C70.221 41.0343 70.8906 40.5438 71.279 39.5632ZM71.2157 37.2892C71.2063 36.8704 71.1371 36.4978 71.0094 36.1722C70.8812 35.8471 70.665 35.5698 70.3599 35.3403C70.0548 35.1113 69.6874 34.9968 69.2596 34.9968C68.6841 34.9968 68.1957 35.2036 67.7941 35.618C67.3933 36.0325 67.1677 36.5888 67.1189 37.2887H71.2157V37.2892Z" fill="white"></path>
  <path fill-rule="evenodd" clip-rule="evenodd" d="M71.279 39.5632L72.3617 39.7853C72.1652 40.4241 71.781 40.9535 71.2098 41.3718C70.6389 41.7906 69.9664 42 69.1938 42C68.1743 42 67.3493 41.641 66.7194 40.9223C66.0888 40.2045 65.7743 39.2619 65.7743 38.0967C65.7743 36.9067 66.1012 35.9453 66.757 35.2121C67.4116 34.4789 68.2337 34.1123 69.2237 34.1123C70.1984 34.1123 70.9829 34.4499 71.5764 35.125C72.1699 35.8001 72.4737 36.8102 72.4882 38.1553H67.0647C67.0647 39.2854 67.301 40.0473 67.7731 40.4425C68.2457 40.8369 68.7452 41.0343 69.2716 41.0343C70.221 41.0343 70.8906 40.5438 71.279 39.5632ZM71.2157 37.2892C71.2063 36.8704 71.1371 36.4978 71.0094 36.1722C70.8812 35.8471 70.665 35.5698 70.3599 35.3403C70.0548 35.1113 69.6874 34.9968 69.2596 34.9968C68.6841 34.9968 68.1957 35.2036 67.7941 35.618C67.3933 36.0325 67.1677 36.5888 67.1189 37.2887H71.2157V37.2892Z" fill="white" stroke="white" stroke-width="0.427283"></path>
  <path fill-rule="evenodd" clip-rule="evenodd" d="M74.9045 41.7923H73.7401V34.3195H74.7605V36.0616C75.1198 35.2455 75.4809 34.7169 75.8428 34.4755C76.2047 34.2332 76.5756 34.1123 76.9554 34.1123C77.0734 34.1123 77.2263 34.1213 77.4135 34.1392V35.2493H77.1776C76.5375 35.2493 76.0064 35.4873 75.5838 35.9624C75.1604 36.4376 74.9344 37.0618 74.9045 37.8361V41.7923Z" fill="white"></path>
  <path fill-rule="evenodd" clip-rule="evenodd" d="M74.9045 41.7923H73.7401V34.3195H74.7605V36.0616C75.1198 35.2455 75.4809 34.7169 75.8428 34.4755C76.2047 34.2332 76.5756 34.1123 76.9554 34.1123C77.0734 34.1123 77.2263 34.1213 77.4135 34.1392V35.2493H77.1776C76.5375 35.2493 76.0064 35.4873 75.5838 35.9624C75.1604 36.4376 74.9344 37.0618 74.9045 37.8361V41.7923Z" fill="white" stroke="white" stroke-width="0.427283"></path>
  <path fill-rule="evenodd" clip-rule="evenodd" d="M84.6439 34.3193L82.064 41.7921H80.8578L78.1915 34.3193H79.4794L81.5534 40.3932L83.6116 34.3193H84.6439Z" fill="white"></path>
  <path fill-rule="evenodd" clip-rule="evenodd" d="M84.6439 34.3193L82.064 41.7921H80.8578L78.1915 34.3193H79.4794L81.5534 40.3932L83.6116 34.3193H84.6439Z" fill="white" stroke="white" stroke-width="0.427283"></path>
  <path fill-rule="evenodd" clip-rule="evenodd" d="M85.5746 31.7026H86.8201V32.993H85.5746V31.7026ZM85.6288 34.3193H86.7928V41.7921H85.6288V34.3193Z" fill="white"></path>
  <path fill-rule="evenodd" clip-rule="evenodd" d="M85.5746 31.7026H86.8201V32.993H85.5746V31.7026ZM85.6288 34.3193H86.7928V41.7921H85.6288V34.3193Z" fill="white" stroke="white" stroke-width="0.427283"></path>
  <path fill-rule="evenodd" clip-rule="evenodd" d="M92.8751 39.1752L93.9215 39.3598C93.7737 40.1857 93.446 40.8322 92.9384 41.2992C92.4308 41.7662 91.7975 42 91.0387 42C90.0089 42 89.2236 41.6197 88.6843 40.8591C88.1451 40.099 87.8746 39.1709 87.8746 38.0745C87.8746 36.9388 88.1596 35.9949 88.7288 35.2416C89.2975 34.4887 90.0726 34.1123 91.0532 34.1123C91.8667 34.1123 92.5183 34.3554 93.0084 34.8425C93.4994 35.3288 93.8032 35.9577 93.9215 36.7281L92.8747 36.9277C92.6777 35.695 92.0821 35.0775 91.0874 35.0775C90.4473 35.0775 89.9551 35.3497 89.6107 35.8941C89.2659 36.4389 89.0937 37.1447 89.0937 38.0117C89.0937 38.9679 89.2646 39.7101 89.6064 40.24C89.9491 40.7694 90.4302 41.0343 91.0506 41.0343C92.0103 41.0343 92.6188 40.4147 92.8751 39.1756V39.1752Z" fill="white"></path>
  <path fill-rule="evenodd" clip-rule="evenodd" d="M92.8751 39.1752L93.9215 39.3598C93.7737 40.1857 93.446 40.8322 92.9384 41.2992C92.4308 41.7662 91.7975 42 91.0387 42C90.0089 42 89.2236 41.6197 88.6843 40.8591C88.1451 40.099 87.8746 39.1709 87.8746 38.0745C87.8746 36.9388 88.1596 35.9949 88.7288 35.2416C89.2975 34.4887 90.0726 34.1123 91.0532 34.1123C91.8667 34.1123 92.5183 34.3554 93.0084 34.8425C93.4994 35.3288 93.8032 35.9577 93.9215 36.7281L92.8747 36.9277C92.6777 35.695 92.0821 35.0775 91.0874 35.0775C90.4473 35.0775 89.9551 35.3497 89.6107 35.8941C89.2659 36.4389 89.0937 37.1447 89.0937 38.0117C89.0937 38.9679 89.2646 39.7101 89.6064 40.24C89.9491 40.7694 90.4302 41.0343 91.0506 41.0343C92.0103 41.0343 92.6188 40.4147 92.8751 39.1756V39.1752Z" fill="white" stroke="white" stroke-width="0.427283"></path>
  <path fill-rule="evenodd" clip-rule="evenodd" d="M100.487 39.5632L101.57 39.7853C101.373 40.4241 100.988 40.9535 100.418 41.3718C99.8467 41.7906 99.1742 42 98.4012 42C97.3817 42 96.5571 41.641 95.9268 40.9223C95.2966 40.2045 94.9817 39.2619 94.9817 38.0967C94.9817 36.9067 95.309 35.9453 95.9644 35.2121C96.619 34.4789 97.4416 34.1123 98.4316 34.1123C99.4058 34.1123 100.191 34.4499 100.784 35.125C101.378 35.8001 101.681 36.8102 101.696 38.1553H96.2721C96.2721 39.2854 96.5084 40.0473 96.9805 40.4425C97.4535 40.8369 97.9522 41.0343 98.4794 41.0343C99.4284 41.0343 100.098 40.5438 100.487 39.5632ZM100.424 37.2892C100.414 36.8704 100.345 36.4978 100.217 36.1722C100.089 35.8471 99.8724 35.5698 99.5673 35.3403C99.2622 35.1113 98.8952 34.9968 98.467 34.9968C97.8911 34.9968 97.4027 35.2036 97.0015 35.618C96.6007 36.0325 96.3751 36.5888 96.3264 37.2887H100.424V37.2892Z" fill="white"></path>
  <path fill-rule="evenodd" clip-rule="evenodd" d="M100.487 39.5632L101.57 39.7853C101.373 40.4241 100.988 40.9535 100.418 41.3718C99.8467 41.7906 99.1742 42 98.4012 42C97.3817 42 96.5571 41.641 95.9268 40.9223C95.2966 40.2045 94.9817 39.2619 94.9817 38.0967C94.9817 36.9067 95.309 35.9453 95.9644 35.2121C96.619 34.4789 97.4416 34.1123 98.4316 34.1123C99.4058 34.1123 100.191 34.4499 100.784 35.125C101.378 35.8001 101.681 36.8102 101.696 38.1553H96.2721C96.2721 39.2854 96.5084 40.0473 96.9805 40.4425C97.4535 40.8369 97.9522 41.0343 98.4794 41.0343C99.4284 41.0343 100.098 40.5438 100.487 39.5632ZM100.424 37.2892C100.414 36.8704 100.345 36.4978 100.217 36.1722C100.089 35.8471 99.8724 35.5698 99.5673 35.3403C99.2622 35.1113 98.8952 34.9968 98.467 34.9968C97.8911 34.9968 97.4027 35.2036 97.0015 35.618C96.6007 36.0325 96.3751 36.5888 96.3264 37.2887H100.424V37.2892Z" fill="white" stroke="white" stroke-width="0.427283"></path>
  <path fill-rule="evenodd" clip-rule="evenodd" d="M102.353 39.8558L103.464 39.6264C103.71 40.5651 104.49 41.0343 105.802 41.0343C106.285 41.0343 106.695 40.9262 107.03 40.7096C107.366 40.4933 107.534 40.1883 107.534 39.7947C107.534 39.2094 107.107 38.8381 106.253 38.6808L104.679 38.3813C104.062 38.2629 103.572 38.0309 103.207 37.6857C102.843 37.3404 102.66 36.8841 102.66 36.3167C102.66 35.6907 102.909 35.1664 103.407 34.7447C103.904 34.323 104.574 34.1123 105.417 34.1123C107.038 34.1123 108.039 34.746 108.418 36.0129L107.353 36.2419C107.048 35.4659 106.42 35.0775 105.47 35.0775C104.997 35.0775 104.609 35.175 104.306 35.3685C104.003 35.5625 103.852 35.8334 103.852 36.1821C103.852 36.7311 104.239 37.0768 105.013 37.2195L106.467 37.4874C107.99 37.7634 108.752 38.5026 108.752 39.7029C108.752 40.3891 108.469 40.9441 107.901 41.3659C107.334 41.7889 106.579 42 105.638 42C103.867 42 102.772 41.2851 102.353 39.8558Z" fill="white"></path>
  <path fill-rule="evenodd" clip-rule="evenodd" d="M102.353 39.8558L103.464 39.6264C103.71 40.5651 104.49 41.0343 105.802 41.0343C106.285 41.0343 106.695 40.9262 107.03 40.7096C107.366 40.4933 107.534 40.1883 107.534 39.7947C107.534 39.2094 107.107 38.8381 106.253 38.6808L104.679 38.3813C104.062 38.2629 103.572 38.0309 103.207 37.6857C102.843 37.3404 102.66 36.8841 102.66 36.3167C102.66 35.6907 102.909 35.1664 103.407 34.7447C103.904 34.323 104.574 34.1123 105.417 34.1123C107.038 34.1123 108.039 34.746 108.418 36.0129L107.353 36.2419C107.048 35.4659 106.42 35.0775 105.47 35.0775C104.997 35.0775 104.609 35.175 104.306 35.3685C104.003 35.5625 103.852 35.8334 103.852 36.1821C103.852 36.7311 104.239 37.0768 105.013 37.2195L106.467 37.4874C107.99 37.7634 108.752 38.5026 108.752 39.7029C108.752 40.3891 108.469 40.9441 107.901 41.3659C107.334 41.7889 106.579 42 105.638 42C103.867 42 102.772 41.2851 102.353 39.8558Z" fill="white" stroke="white" stroke-width="0.427283"></path>
  <path fill-rule="evenodd" clip-rule="evenodd" d="M76.1129 18.3486V16.554C76.1113 16.4938 76.122 16.4339 76.1443 16.378C76.1666 16.3221 76.2 16.2713 76.2426 16.2287C76.2852 16.1861 76.336 16.1527 76.3919 16.1304C76.4478 16.1081 76.5077 16.0974 76.5679 16.099L84.6128 16.0981C84.8705 16.0981 85.0768 16.2853 85.0773 16.551L85.0768 18.091C85.0747 18.349 84.8572 18.6862 84.471 19.2207L80.3041 25.1706C81.8508 25.1343 83.4873 25.3659 84.8927 26.1559C85.2097 26.3337 85.2943 26.5977 85.3191 26.8567V28.7718C85.3191 29.0358 85.0307 29.3409 84.7269 29.182C82.2508 27.8851 78.9646 27.7429 76.227 29.1978C75.9471 29.3473 75.6544 29.0461 75.6544 28.782V26.9614C75.6544 26.67 75.6595 26.1717 75.9535 25.7274L80.7818 18.8011L76.5778 18.8007C76.321 18.8007 76.115 18.6169 76.1133 18.3486H76.1129ZM47.3225 29.5592H44.8746C44.6418 29.5443 44.4559 29.3691 44.4371 29.1461L44.4388 16.5839C44.4388 16.3331 44.6503 16.1319 44.9109 16.1319L47.1901 16.1314C47.4289 16.1434 47.6203 16.3237 47.6353 16.5532V18.1935H47.6814C48.2754 16.6074 49.3948 15.867 50.9023 15.867C52.4333 15.867 53.3925 16.6074 54.0783 18.1935C54.6722 16.6074 56.0199 15.867 57.4594 15.867C58.4874 15.867 59.6069 16.29 60.2923 17.2415C61.0691 18.2986 60.9093 19.8321 60.9093 21.1802L60.9076 29.1072C60.9076 29.3584 60.6961 29.5597 60.4354 29.5597H57.9909C57.7452 29.5439 57.5513 29.349 57.5513 29.1085V22.4488C57.5513 21.9203 57.5965 20.5987 57.482 20.0966C57.2992 19.2506 56.7514 19.0126 56.0429 19.0126C55.449 19.0126 54.832 19.4091 54.5808 20.0436C54.3291 20.6782 54.3522 21.7353 54.3522 22.4493V29.1072C54.3522 29.3584 54.1407 29.5597 53.8805 29.5597H51.4356C51.1899 29.5439 50.9963 29.349 50.9963 29.1085L50.9937 22.4488C50.9937 21.0482 51.2223 18.9861 49.4863 18.9861C47.7267 18.9861 47.7955 20.9952 47.7955 22.4488L47.7942 29.1072C47.7942 29.3584 47.5832 29.5597 47.3225 29.5597V29.5592ZM90.987 15.867C94.5907 15.867 96.54 18.9861 96.54 22.9513C96.54 26.784 94.3869 29.8242 90.987 29.8242C87.4512 29.8242 85.5246 26.705 85.5246 22.8193C85.5246 18.9066 87.4743 15.8674 90.987 15.8674V15.867ZM91.0097 18.7545C89.2189 18.7545 89.1057 21.2127 89.1057 22.7458C89.1057 24.2789 89.083 27.2335 90.987 27.2335C92.8683 27.2335 92.9589 24.9134 92.9589 23.3013C92.9589 22.2437 92.9141 20.9747 92.5966 19.9706C92.324 19.0981 91.7805 18.7545 91.0097 18.7545ZM101.755 29.5592H99.3173C99.0721 29.5439 98.8781 29.349 98.8781 29.1085L98.8738 16.5421C98.8948 16.3122 99.0977 16.1319 99.3443 16.1319L101.614 16.1314C101.828 16.1421 102.005 16.2883 102.049 16.4831V18.4046H102.096C102.781 16.6865 103.74 15.867 105.431 15.867C106.527 15.867 107.601 16.2635 108.287 17.3475C108.927 18.3516 108.927 20.0436 108.927 21.2597V29.1636C108.899 29.3866 108.7 29.5597 108.458 29.5597H106.004C105.777 29.5447 105.595 29.3785 105.568 29.1636V22.3433C105.568 20.9687 105.728 18.9596 104.038 18.9596C103.443 18.9596 102.895 19.3561 102.621 19.9642C102.278 20.7307 102.232 21.4973 102.232 22.3433V29.1072C102.228 29.3584 102.016 29.5597 101.755 29.5597V29.5592ZM69.9771 23.5606C69.9771 24.5147 70.0002 25.3091 69.5199 26.1568C69.1302 26.846 68.5119 27.2694 67.8249 27.2694C66.8865 27.2694 66.3371 26.5542 66.3371 25.4945C66.3371 23.4102 68.2068 23.0308 69.9775 23.0308V23.5606H69.9771ZM72.4451 29.528C72.2827 29.6733 72.0494 29.6832 71.8665 29.5853C71.0538 28.9093 70.9081 28.597 70.4638 27.9539C69.1199 29.323 68.1688 29.7331 66.4285 29.7331C64.3681 29.7331 62.7654 28.4616 62.7654 25.9184C62.7654 23.9315 63.8413 22.5804 65.3752 21.9181C66.7032 21.3353 68.5581 21.2294 69.9771 21.0704V20.7525C69.9771 20.1697 70.0232 19.4809 69.6797 18.9776C69.3823 18.5272 68.8097 18.3418 68.306 18.3418C67.3724 18.3418 66.5426 18.8203 66.3388 19.8116C66.2965 20.0321 66.1354 20.25 65.9136 20.2611L63.5413 20.0048C63.3409 19.9595 63.1183 19.7988 63.176 19.4933C63.7212 16.6151 66.3204 15.7456 68.6495 15.7456C69.8399 15.7456 71.3969 16.0635 72.3357 16.9642C73.5261 18.0769 73.4116 19.5604 73.4116 21.1764V24.9894C73.4116 26.1363 73.8884 26.6396 74.3358 27.2579C74.4918 27.4801 74.5272 27.745 74.3273 27.9078C73.8273 28.3265 72.9394 29.0986 72.4506 29.5336L72.4451 29.528ZM38.1701 23.5606C38.1701 24.5147 38.1932 25.3091 37.7125 26.1568C37.3232 26.846 36.705 27.2694 36.0179 27.2694C35.0792 27.2694 34.5301 26.5542 34.5301 25.4945C34.5301 23.4102 36.3999 23.0308 38.1701 23.0308V23.5606ZM40.6381 29.528C40.4757 29.6733 40.242 29.6832 40.0596 29.5853C39.2464 28.9093 39.1007 28.597 38.6564 27.9539C37.313 29.323 36.3614 29.7331 34.6215 29.7331C32.5607 29.7331 30.958 28.4616 30.958 25.9184C30.958 23.9315 32.0339 22.5804 33.5683 21.9181C34.8963 21.3353 36.7511 21.2294 38.1701 21.0704V20.7525C38.1701 20.1697 38.2158 19.4809 37.8727 18.9776C37.5749 18.5272 37.0024 18.3418 36.499 18.3418C35.5654 18.3418 34.7352 18.8203 34.5314 19.8116C34.4891 20.0321 34.3284 20.25 34.1062 20.2611L31.7344 20.0048C31.534 19.9595 31.3114 19.7988 31.3691 19.4933C31.9143 16.6151 34.513 15.7456 36.8426 15.7456C38.033 15.7456 39.59 16.0635 40.5287 16.9642C41.7191 18.0769 41.6046 19.5604 41.6046 21.1764V24.9894C41.6046 26.1363 42.081 26.6396 42.5284 27.2579C42.6848 27.4801 42.7198 27.745 42.5207 27.9078C42.0208 28.3265 41.1321 29.0986 40.6437 29.5336L40.6381 29.528Z" fill="white"></path>
</svg>
