<?xml version="1.0" encoding="UTF-8"?>
<svg xmlns="http://www.w3.org/2000/svg" width="93" height="45" viewBox="0 0 93 45" fill="none">
  <path d="M40.7515 8.66215C41.4865 9.44962 42.5102 9.9746 43.6389 9.9746C45.9094 9.9746 47.7337 8.13717 47.7337 5.77477C47.7337 3.54361 45.9094 1.70618 43.6389 1.70618C43.6389 1.70618 40.489 1.44369 39.0716 5.51228V2.49365C40.1215 1.04996 41.7621 0 43.6389 0C46.8412 0 49.4136 2.62489 49.4136 5.77477C49.4136 9.05589 46.8412 11.5495 43.6389 11.5495C42.0508 11.5495 40.6071 10.8933 39.5572 9.9746L37.5622 7.74344C37.0241 7.08721 36.276 6.82473 35.4492 6.82473C33.7955 6.82473 32.4568 8.13717 32.4568 9.84335C32.4568 11.4183 33.7955 12.7307 35.4492 12.7307C35.4492 12.7307 37.6672 13.1245 39.0716 10.3683V12.7307C38.2053 13.7807 36.906 14.4369 35.4492 14.4369C32.8768 14.4369 30.7769 12.337 30.7769 9.84335C30.7769 7.21846 32.8768 5.11854 35.4492 5.11854C36.7485 5.11854 37.9035 5.64352 38.7566 6.43099L40.7515 8.66215ZM47.9962 15.8806L46.8675 19.6867C47.7731 17.9805 49.2036 17.9805 49.2036 17.9805H52.8129V34.6486C52.8129 35.5673 52.1042 36.6173 51.1854 36.6173H57.9839C57.0652 36.6173 56.3565 35.5673 56.3565 34.6486V17.9805H59.362C60.2938 17.9805 61.0419 18.768 61.0419 19.6867L62.1575 15.8806H47.9962ZM73.2477 19.293C72.1321 17.4555 69.5203 17.5868 69.5203 17.5868C65.373 17.5868 65.5567 20.8679 65.5567 20.8679C65.5567 20.8679 65.2811 22.5741 67.3548 23.6241L71.5284 25.8552C75.5445 28.0864 75.072 31.2362 75.072 31.2362C75.072 31.2362 75.2557 37.1423 66.8561 37.1423C66.8561 37.1423 64.4149 37.2735 63.0368 36.7485L61.8163 32.8112C63.0631 34.7799 66.8954 35.0423 66.8954 35.0423C71.594 34.9111 71.6334 31.4987 71.6334 31.4987C71.6334 31.4987 71.8565 30.1863 70.0059 29.1363L65.8586 26.7739C61.5275 24.4115 62.0263 21.2616 62.0263 21.2616C62.0263 21.2616 61.9213 15.4869 69.3628 15.4869C69.3628 15.4869 72.7096 15.6181 73.2477 16.1431V19.293ZM80.0199 31.105C80.0199 33.2049 81.7786 35.0423 83.931 35.0423C86.0834 35.0423 87.829 33.2049 87.829 30.9738V17.8493C87.829 16.9306 87.1202 15.8806 86.2015 15.8806H93C92.0813 15.8806 91.3726 16.9306 91.3726 17.8493V30.7113C91.3726 34.7799 88.0521 37.1423 83.9572 37.1423C79.8362 37.1423 76.4763 34.7799 76.4763 30.7113L76.4894 17.8493C76.4894 16.9306 75.7807 15.8806 74.8489 15.8806H81.6736C80.7418 15.8806 80.0199 16.9306 80.0199 17.8493V31.105ZM37.6279 17.8493C37.6279 16.9306 38.3366 15.8806 39.2815 15.8806H32.4568C33.3887 15.8806 34.0974 16.9306 34.0974 17.8493V38.8484C34.0974 38.8484 34.0318 42.6545 31.0919 44.7544C31.0919 44.7544 37.6541 43.8357 37.6541 37.6672L37.6279 17.8493ZM18.7942 31.105C18.7942 33.2049 20.5398 35.0423 22.6791 35.0423C24.8315 35.0423 26.5902 33.2049 26.5902 30.9738V17.8493C26.5902 16.9306 25.8815 15.8806 24.9496 15.8806H31.7612C30.8294 15.8806 30.1207 16.9306 30.1207 17.8493V30.7113C30.1207 34.7799 26.8133 37.1423 22.7053 37.1423C18.5843 37.1423 15.2375 34.7799 15.2375 30.7113V17.8493C15.2375 16.9306 14.5288 15.8806 13.6101 15.8806H20.4086C19.4767 15.8806 18.7942 16.9306 18.7942 17.8493V31.105ZM5.17104 26.5114H9.90898C10.8277 26.5114 11.6939 27.1677 11.6939 28.0864L11.6808 24.4115H5.17104V17.9805H11.4839C12.4158 17.9805 13.2688 18.768 13.2688 19.6867V15.8806H0C0.931837 15.8806 1.62743 16.9306 1.62743 17.8493V34.6486C1.62743 35.5673 0.931837 36.6173 0 36.6173H6.8116C5.87976 36.6173 5.17104 35.5673 5.17104 34.6486V26.5114ZM41.6177 17.8493C41.6177 16.9306 40.909 15.8806 39.9903 15.8806H46.7887C45.87 15.8806 45.1613 16.9306 45.1613 17.8493V34.6486C45.1613 35.5673 45.87 36.6173 46.7887 36.6173H39.9903C40.909 36.6173 41.6177 35.5673 41.6177 34.6486V17.8493Z" fill="white"></path>
</svg>
