<?xml version="1.0" encoding="UTF-8"?>
<svg xmlns="http://www.w3.org/2000/svg" width="55" height="82" viewBox="0 0 55 82" fill="none">
  <path fill-rule="evenodd" clip-rule="evenodd" d="M47.8587 70.7834L47.2132 74.4353H48.5325L47.8587 70.7834ZM49.0928 77.3701L48.7522 75.5979H47.0083L46.6924 77.3701H45.4582L47.0219 69.2246H48.7497L50.3973 77.3701H49.0928ZM43.3354 71.8324C43.3354 71.6448 43.3354 71.4622 43.3206 71.2659C43.3111 71.0765 43.261 70.8913 43.1737 70.7229C43.0952 70.5803 42.9751 70.4649 42.8294 70.3921C42.6865 70.3192 42.5282 70.2816 42.3678 70.2823C42.174 70.2697 41.9811 70.318 41.8162 70.4205C41.6874 70.5138 41.5883 70.6424 41.5311 70.7908C41.4672 70.9507 41.4297 71.1199 41.42 71.2919C41.4076 71.4745 41.4027 71.6547 41.4027 71.8336V74.7574C41.4027 74.9376 41.4027 75.119 41.42 75.3004C41.4301 75.4727 41.4676 75.6423 41.5311 75.8027C41.5886 75.9509 41.6876 76.0794 41.8162 76.173C41.9854 76.2637 42.1745 76.3112 42.3666 76.3112C42.5587 76.3112 42.7478 76.2637 42.917 76.173C43.0466 76.0799 43.1465 75.9513 43.2046 75.8027C43.2653 75.6415 43.3023 75.4723 43.3144 75.3004C43.3293 75.119 43.3354 74.9376 43.3354 74.7574V71.8324ZM44.5881 74.7796C44.5892 75.1174 44.5653 75.4549 44.5165 75.7892C44.464 76.1222 44.3309 76.4374 44.129 76.7074C43.9359 76.9833 43.664 77.1944 43.349 77.3134C43.0334 77.4319 42.6988 77.4917 42.3617 77.4899C42.0278 77.4912 41.6965 77.4314 41.3842 77.3134C41.0699 77.192 40.7979 76.9814 40.6017 76.7074C40.3946 76.44 40.2598 76.1238 40.2105 75.7892C40.1624 75.4548 40.1381 75.1174 40.1377 74.7796V71.8102C40.137 71.4737 40.1634 71.1378 40.2167 70.8056C40.2738 70.4762 40.4055 70.1642 40.6017 69.8935C40.7927 69.616 41.0634 69.403 41.378 69.2826C41.6926 69.1597 42.0276 69.0973 42.3654 69.0987C42.7033 69.0954 43.0386 69.1578 43.3527 69.2826C43.6654 69.4082 43.9359 69.6201 44.1327 69.8935C44.3391 70.1586 44.4727 70.473 44.5202 70.8056C44.5681 71.1383 44.592 71.474 44.5918 71.8102L44.5881 74.7796ZM37.7261 77.3714V73.7775H35.9415V77.3701H34.6839V69.2246H35.9415V72.6198H37.7261V69.2197H38.9973V77.3652L37.7261 77.3714ZM32.5586 77.3714L31.1924 73.5343L30.5186 74.6685V77.3714H29.2597V69.2259H30.5186V72.6087L32.3377 69.2259H33.6953L31.9786 72.1965L33.9422 77.38L32.5586 77.3714ZM23.7035 77.3714V73.7775H21.9201V77.3701H20.6612V69.2246H21.9201V72.6198H23.7035V69.2197H24.9747V77.3652L23.7035 77.3714ZM19.5974 74.7796C19.6 75.1386 19.5648 75.4968 19.4925 75.8484C19.4288 76.1585 19.3029 76.4524 19.1222 76.7123C18.9439 76.9596 18.7057 77.1575 18.4299 77.2874C18.0959 77.4331 17.7339 77.5031 17.3697 77.4923C17.0116 77.4977 16.6563 77.4279 16.3268 77.2874C16.0049 77.1357 15.7343 76.8934 15.5481 76.5901C15.4399 76.4372 15.3566 76.2681 15.3012 76.0891C15.2473 75.9079 15.2085 75.7225 15.1852 75.5349C15.1627 75.3457 15.1512 75.1553 15.1507 74.9647V72.1138C15.1507 71.9102 15.1507 71.7115 15.1507 71.5165C15.1538 71.3227 15.1695 71.1294 15.1976 70.9376C15.2259 70.7476 15.2727 70.5608 15.337 70.3798C15.4069 70.1919 15.5024 70.0145 15.6209 69.8528C15.8171 69.5909 16.0844 69.3909 16.391 69.2764C16.6958 69.159 17.0196 69.0987 17.3463 69.0987C17.6857 69.0919 18.0226 69.1588 18.3336 69.295C18.6016 69.4149 18.8375 69.5963 19.0223 69.8244C19.2069 70.0616 19.3416 70.3336 19.4184 70.6242C19.505 70.9506 19.5466 71.2874 19.5419 71.6251V71.8719H18.3052C18.3052 71.7004 18.2966 71.5226 18.2805 71.34C18.2652 71.1637 18.2236 70.9906 18.1571 70.8266C18.096 70.6739 17.997 70.5393 17.8696 70.4353C17.7206 70.3271 17.5387 70.2739 17.3549 70.2848C17.1647 70.2718 16.9759 70.325 16.8205 70.4353C16.695 70.5372 16.5981 70.6699 16.5391 70.8204C16.4767 70.9828 16.4396 71.1539 16.4293 71.3276C16.4169 71.5115 16.412 71.688 16.412 71.8596V74.5747C16.412 74.7463 16.412 74.9339 16.4243 75.1351C16.4295 75.3269 16.4645 75.5167 16.528 75.6978C16.5866 75.8642 16.6849 76.0137 16.8143 76.1335C16.9762 76.2505 17.171 76.313 17.3707 76.3119C17.5704 76.3108 17.7646 76.2462 17.9251 76.1273C18.0595 76.0029 18.1605 75.8468 18.2188 75.6732C18.2801 75.4836 18.317 75.287 18.3287 75.0882C18.3435 74.8771 18.3496 74.6871 18.3496 74.5167H19.5974V74.7796ZM11.8419 70.7834L11.1964 74.4353H12.517L11.8419 70.7834ZM13.076 77.3701L12.7354 75.5979H10.9891L10.6731 77.3701H9.43893L11.0039 69.2246H12.7317L14.3793 77.3701H13.076ZM12.1381 68.5693H11.2741L11.8246 67.4844H13.0119L12.1381 68.5693ZM7.31369 75.0598C7.31369 74.6266 7.1767 74.2921 6.90395 74.0589C6.61646 73.8185 6.25036 73.6928 5.87589 73.7059H5.42171V76.2063H6.05361C6.3814 76.2224 6.7045 76.1233 6.96689 75.9262C7.19768 75.7386 7.31369 75.451 7.31369 75.0622V75.0598ZM7.14461 71.3968C7.14461 71.0117 7.02119 70.7464 6.78177 70.6007C6.51216 70.4476 6.2055 70.372 5.89563 70.3823H5.41924V72.5433H5.87342C6.19921 72.5537 6.51839 72.4498 6.7756 72.2496C6.90012 72.1466 6.99856 72.0157 7.06291 71.8675C7.12725 71.7193 7.15566 71.558 7.14584 71.3968H7.14461ZM38.616 16.3984C38.616 16.0323 38.7245 15.6744 38.9279 15.3699C39.1314 15.0655 39.4205 14.8282 39.7588 14.6881C40.097 14.548 40.4693 14.5113 40.8284 14.5827C41.1875 14.6542 41.5173 14.8305 41.7762 15.0894C42.0351 15.3483 42.2115 15.6781 42.2829 16.0373C42.3543 16.3964 42.3177 16.7686 42.1775 17.1069C42.0374 17.4451 41.8002 17.7343 41.4957 17.9377C41.1913 18.1411 40.8334 18.2497 40.4672 18.2497C39.9762 18.2497 39.5054 18.0546 39.1582 17.7075C38.811 17.3603 38.616 16.8894 38.616 16.3984ZM42.0198 17.8782C42.0075 17.8905 41.9963 17.9029 41.984 17.914L42.0198 17.8782ZM41.4373 18.3114L21.2845 49.6235L36.1883 20.6724L7.21743 35.5441L38.5431 15.4395L38.5518 15.4222C38.3463 15.8259 38.2738 16.2843 38.3447 16.7317C38.4156 17.1792 38.6262 17.5927 38.9465 17.9131C39.2668 18.2335 39.6802 18.4444 40.1276 18.5155C40.575 18.5866 41.0335 18.5143 41.4373 18.3089V18.3114ZM48.983 9.45991C48.985 9.70373 48.9606 9.94705 48.9102 10.1856C48.8684 10.3949 48.7844 10.5936 48.6633 10.7694C48.5423 10.9369 48.3804 11.0707 48.1931 11.1581C47.967 11.2575 47.7216 11.3051 47.4748 11.2976C47.2319 11.3013 46.9909 11.2538 46.7676 11.1581C46.5493 11.0559 46.3657 10.892 46.2394 10.6867C46.1674 10.5828 46.112 10.4683 46.0753 10.3473C46.0395 10.224 46.0131 10.0981 45.9963 9.97086C45.9811 9.84265 45.9733 9.71367 45.9728 9.58457V7.65556C45.9728 7.51733 45.9728 7.38281 45.9728 7.25075C45.975 7.11942 45.9853 6.98834 46.0037 6.85828C46.0233 6.72953 46.0555 6.60303 46.1 6.48063C46.1465 6.35289 46.2109 6.23239 46.2913 6.12272C46.4242 5.94501 46.6054 5.80921 46.8133 5.73149C47.0199 5.65088 47.2395 5.60905 47.4613 5.60807C47.6928 5.60294 47.9227 5.64799 48.1351 5.74013C48.3166 5.8216 48.4764 5.94463 48.6016 6.09927C48.7265 6.26061 48.818 6.44521 48.8707 6.6423C48.9305 6.86313 48.96 7.09108 48.9583 7.31986V7.48524H48.1043C48.1043 7.368 48.1043 7.24828 48.0882 7.12487C48.0779 7.00541 48.0501 6.88813 48.0055 6.77683C47.9643 6.67317 47.8971 6.58182 47.8105 6.51148C47.7096 6.43761 47.5861 6.40137 47.4613 6.40905C47.3325 6.40002 47.2046 6.43625 47.0996 6.51148C47.0139 6.57975 46.9478 6.66964 46.9083 6.77189C46.8664 6.88228 46.8415 6.99837 46.8343 7.11622C46.8257 7.23964 46.822 7.36306 46.822 7.4766V9.31675C46.822 9.43276 46.822 9.56359 46.8306 9.69688C46.834 9.82689 46.8577 9.95556 46.9009 10.0782C46.9402 10.191 47.0068 10.2924 47.0947 10.3732C47.2038 10.4523 47.3351 10.4949 47.4699 10.4949C47.6047 10.4949 47.736 10.4523 47.8451 10.3732C47.9361 10.2887 48.0045 10.1825 48.0438 10.0647C48.0852 9.93628 48.1101 9.80315 48.1178 9.66849C48.1277 9.52533 48.1326 9.39697 48.1326 9.28096H48.983V9.45991ZM43.3762 11.7024H44.0957V12.4429H43.3762V11.7024ZM44.3919 7.46179C44.3919 7.33838 44.3919 7.20879 44.382 7.07797C44.3753 6.94886 44.3412 6.82267 44.282 6.70771C44.2288 6.61096 44.1475 6.53263 44.0488 6.4831C43.9517 6.43371 43.8442 6.40832 43.7353 6.40905C43.6052 6.40169 43.476 6.43443 43.365 6.50284C43.2788 6.56557 43.2117 6.65103 43.1713 6.74968C43.1289 6.85822 43.104 6.97276 43.0972 7.08907C43.0886 7.21249 43.0849 7.33591 43.0849 7.45932V9.44757C43.0849 9.57099 43.0849 9.69441 43.0972 9.81782C43.1044 9.93448 43.1294 10.0494 43.1713 10.1585C43.2114 10.2573 43.2785 10.3429 43.365 10.4053C43.4798 10.4669 43.6081 10.4991 43.7384 10.4991C43.8687 10.4991 43.9969 10.4669 44.1117 10.4053C44.1996 10.344 44.2674 10.2581 44.3067 10.1585C44.3485 10.0492 44.3738 9.93446 44.382 9.81782C44.3906 9.69441 44.3956 9.57099 44.3956 9.44757L44.3919 7.46179ZM45.2397 9.45991C45.241 9.68912 45.2249 9.91809 45.1916 10.1449C45.1557 10.3708 45.0655 10.5847 44.9287 10.7681C44.7974 10.9548 44.6129 11.0975 44.3993 11.1779C43.971 11.3376 43.4996 11.3376 43.0713 11.1779C42.8586 11.0958 42.6746 10.9534 42.5419 10.7681C42.4011 10.5868 42.3097 10.372 42.2765 10.1449C42.2431 9.91808 42.2262 9.68916 42.2259 9.45991V7.44945C42.2257 7.22169 42.2439 6.99428 42.2802 6.76942C42.3191 6.54644 42.4086 6.33534 42.5419 6.15234C42.6714 5.9647 42.8547 5.82059 43.0676 5.73889C43.2801 5.65639 43.5061 5.61453 43.7341 5.61548C43.9617 5.61327 44.1876 5.65518 44.3993 5.73889C44.6112 5.82407 44.7947 5.96739 44.9287 6.15234C45.0684 6.33178 45.1589 6.54442 45.1916 6.76942C45.2243 6.99462 45.2403 7.2219 45.2397 7.44945V9.45991ZM40.5906 11.2186V8.78359H39.3799V11.2186H38.5271V5.69323H39.3799V7.99496H40.5906V5.69323H41.4546V11.2186H40.5906ZM34.7604 5.69323H35.6132V11.2186H34.7604V5.69323ZM32.4587 6.75338L32.0205 9.22913H32.9153L32.4587 6.75338ZM33.2954 11.2186L33.0622 10.0178H31.8774L31.6639 11.2186H30.8259L31.886 5.69323H33.0548L34.1729 11.2186H33.2954ZM32.1427 11.7049H32.8635V12.4454H32.1427V11.7049ZM29.3881 7.65556C29.3882 7.50711 29.3799 7.35878 29.3634 7.21126C29.3509 7.08003 29.3149 6.95212 29.2572 6.8336C29.202 6.72563 29.1161 6.63634 29.0104 6.57689C28.8717 6.50721 28.7174 6.47448 28.5624 6.48186H28.149V7.93818H28.7883V8.72682H28.149V10.4312H28.5624C28.7176 10.4389 28.8721 10.4057 29.0104 10.3349C29.1166 10.2761 29.2026 10.1866 29.2572 10.0782C29.3142 9.96204 29.3501 9.83669 29.3634 9.70798C29.3801 9.55924 29.3884 9.40966 29.3881 9.25998V7.65556ZM30.2409 9.4957C30.2409 10.0486 30.1175 10.474 29.8706 10.7718C29.6238 11.0697 29.2145 11.2186 28.6426 11.2186H27.29V8.72682H27.0999V7.93818H27.29V5.69323H28.6414C29.2173 5.69323 29.6267 5.8438 29.8694 6.14493C30.1121 6.44607 30.2355 6.87268 30.2396 7.42477L30.2409 9.4957ZM13.4389 13.5327L10.8669 11.6567L8.29116 13.5327L9.27849 10.5077L6.69908 8.64166L9.882 8.64783L10.8607 5.61794L11.8382 8.64783L15.0211 8.64166L12.4515 10.5016L13.4389 13.5327ZM21.6362 40.1142C21.8929 40.0904 22.1513 40.0789 22.4113 40.0797C23.4905 40.0791 24.5604 40.2783 25.5671 40.6671L21.6313 48.3116L21.6362 40.1142ZM15.5036 43.444L15.537 43.3996L15.5036 43.4428V43.444ZM26.9567 41.357C28.182 42.1022 29.2065 43.1355 29.941 44.3672L30.0644 44.5856C30.7912 45.8913 31.1726 47.3609 31.1726 48.8552C31.1726 50.3496 30.7912 51.8192 30.0644 53.1249L29.941 53.3433C29.1641 54.6473 28.0618 55.7271 26.742 56.477C25.4223 57.2269 23.9304 57.621 22.4125 57.6209H22.4064C22.1472 57.6209 21.888 57.6098 21.6325 57.5864V49.6248L26.9567 41.357ZM26.4273 38.9973C25.9398 38.7983 25.4381 38.6358 24.9265 38.5111V36.4636H21.6325V28.4748L7.10265 35.9329L35.5095 21.3511L26.4273 38.9973ZM27.812 40.0278C28.639 40.5352 29.391 41.1558 30.0459 41.8717L31.7589 40.8844L32.8697 42.8121L33.9804 44.7411L32.2698 45.7285C32.9116 47.7636 32.9116 49.9469 32.2698 51.982L33.9804 52.9693L32.8697 54.8984L31.7589 56.8261L30.0459 55.8388C28.6062 57.4082 26.717 58.4948 24.6365 58.9501V60.9248H20.1836V58.9501C18.0998 58.4911 16.209 57.3987 14.7705 55.8228L13.0575 56.8101L11.9468 54.8823L10.836 52.9533L12.5466 51.966C11.9048 49.9313 11.9048 47.7484 12.5466 45.7137L10.836 44.7263L11.9468 42.7973L13.0575 40.8695L14.7705 41.8569C16.209 40.2809 18.0998 39.1885 20.1836 38.7295V36.7548H24.6365V38.7295C25.2033 38.8541 25.7586 39.0262 26.2965 39.2441L25.7041 40.3944C24.6548 39.9858 23.5385 39.7765 22.4125 39.7773C20.843 39.7773 19.3003 40.185 17.9357 40.9607C16.5712 41.7363 15.4316 42.8532 14.6286 44.2018L14.5681 44.3079L14.5015 44.424C13.7492 45.7737 13.3543 47.2933 13.3543 48.8386C13.3543 50.3838 13.7492 51.9035 14.5015 53.2532L14.5694 53.3692L14.6299 53.4754C15.4325 54.824 16.5719 55.9409 17.9363 56.7165C19.3006 57.4922 20.8431 57.8999 22.4125 57.8999H22.4187C23.9883 57.9002 25.5311 57.4925 26.8957 56.7168C28.2603 55.9412 29.3998 54.8242 30.2026 53.4754L30.2643 53.3692L30.331 53.2532C31.0828 51.9033 31.4775 50.3838 31.4775 48.8386C31.4775 47.2934 31.0828 45.7739 30.331 44.424L30.2643 44.3079L30.2026 44.2018C29.4443 42.932 28.3883 41.8659 27.1258 41.0954L27.812 40.0278ZM54.3578 0H0V81.7675H54.3578V0ZM53.9875 65.1901V81.3948H0.373953V65.1901H18.7211C19.4926 65.1924 20.2318 65.4999 20.7773 66.0454C21.3228 66.5909 21.6303 67.3301 21.6325 68.1015C21.6351 67.3297 21.9431 66.5903 22.489 66.0448C23.035 65.4993 23.7746 65.1921 24.5464 65.1901H53.9875ZM21.6325 0.372718H53.9838V64.8174H24.5464C23.946 64.8187 23.3574 64.9842 22.8442 65.2959C22.3311 65.6076 21.9129 66.0537 21.635 66.586V61.2185H24.9327V59.1834C26.9056 58.7011 28.699 57.6633 30.1002 56.193L31.8663 57.2124L34.3865 52.8472L32.6241 51.8302C33.1918 49.8779 33.1918 47.8042 32.6241 45.8519L34.3865 44.8349L31.8663 40.4697L30.1002 41.4891C29.4674 40.8266 28.7518 40.2483 27.9712 39.7687L42.2592 17.5684L42.242 17.5931C42.5261 17.1694 42.65 16.6583 42.5913 16.1515C42.5326 15.6447 42.2951 15.1754 41.9216 14.8279C41.5481 14.4803 41.0629 14.2773 40.5532 14.2553C40.0435 14.2333 39.5426 14.3936 39.1405 14.7076L39.1528 14.6977L6.81756 35.4466L21.6276 25.9435L21.6325 0.372718ZM8.62562 75.0598C8.62562 75.8077 8.4047 76.3795 7.96287 76.7753C7.52103 77.171 6.9348 77.3693 6.20417 77.3701H4.16409V69.2246H6.04373C6.3634 69.2216 6.68208 69.2606 6.99158 69.3406C7.26615 69.4087 7.52289 69.535 7.74442 69.7109C7.95776 69.8862 8.129 70.1072 8.24549 70.3576C8.37503 70.6542 8.43781 70.9757 8.42938 71.2992C8.42938 71.7793 8.31954 72.1632 8.09863 72.4581C7.83732 72.7775 7.48043 73.0046 7.08043 73.1061C7.27173 73.1665 7.45069 73.2295 7.59755 73.2789C7.7663 73.3448 7.91965 73.4448 8.04803 73.5726C8.25664 73.7501 8.41247 73.9815 8.4985 74.2415C8.58269 74.5069 8.62435 74.7839 8.62191 75.0622" fill="white"></path>
</svg>
