<?xml version="1.0" encoding="UTF-8"?>
<svg xmlns="http://www.w3.org/2000/svg" width="167" height="36" viewBox="0 0 167 36" fill="none">
  <path d="M55.3232 9.29474C55.3232 8.04245 55.2953 5.70485 54.9336 5.09263C54.7944 4.84217 54.4326 4.70303 53.9317 4.6752L53.4308 4.64737C53.3195 4.50823 53.3473 4.22994 53.4586 4.17428C54.2378 4.20211 54.9892 4.22994 55.7684 4.22994C56.6311 4.22994 57.1598 4.20211 57.8834 4.17428C58.0504 4.2856 58.0225 4.53605 57.9112 4.64737L57.4381 4.6752C56.9372 4.70303 56.5476 4.89783 56.4363 5.14828C56.158 5.81617 56.158 8.15377 56.158 9.26691V11.5489C56.158 13.302 55.8797 15.1666 54.7388 16.391C53.8761 17.3372 52.3733 17.8659 50.8706 17.8659C49.4792 17.8659 48.0877 17.6155 47.0859 16.7528C46.0006 15.8623 45.4997 14.3874 45.4997 11.9663V7.17977C45.4997 5.0648 45.4718 4.73086 44.2752 4.61954L43.7743 4.59171C43.663 4.50823 43.6908 4.17428 43.8021 4.11863C44.804 4.14646 45.4997 4.17428 46.3067 4.17428C47.1416 4.17428 47.8094 4.14646 48.7834 4.11863C48.8948 4.17428 48.9504 4.53605 48.8113 4.59171L48.3382 4.61954C47.1694 4.73086 47.1137 5.0648 47.1137 7.17977V11.5489C47.1137 14.8048 48.1156 16.9476 51.2324 16.9476C54.1544 16.9476 55.2953 14.6378 55.2953 11.5489L55.3232 9.29474ZM66.2876 12.1611C66.7607 13.1072 67.206 14.0534 67.679 14.9439H67.7069C68.2634 13.9978 68.7644 12.9403 69.2653 11.9106L71.1576 8.04245C72.076 6.20577 72.6604 5.09262 72.6882 4.14645C73.3839 4.20211 73.8013 4.20211 74.2188 4.20211C74.7197 4.20211 75.3876 4.17428 76.0276 4.14645C76.1389 4.22994 76.1389 4.56388 76.0554 4.64737L75.638 4.6752C74.3579 4.78651 74.1909 5.17611 74.2188 6.59537C74.2466 8.73817 74.2744 12.495 74.4414 15.3892C74.497 16.391 74.4692 16.9476 75.4432 17.0311L76.0833 17.0867C76.1946 17.198 76.1946 17.5042 76.0554 17.5877C75.2206 17.5598 74.3857 17.532 73.6622 17.532C72.9665 17.532 72.0481 17.5598 71.2133 17.5877C71.0741 17.4763 71.0463 17.198 71.1854 17.0867L71.7698 17.0311C72.7717 16.9198 72.7717 16.6136 72.7717 15.3057L72.716 6.87365H72.6604C72.5212 7.09628 71.742 8.71034 71.3524 9.51737L69.5436 13.0516C68.6252 14.8326 67.7347 16.725 67.3451 17.6711C67.3173 17.7268 67.2338 17.7546 67.1503 17.7546C67.1225 17.7546 67.0112 17.7268 66.9555 17.6711C66.6216 16.5858 65.6476 14.61 65.1745 13.6082L63.3656 9.71216C62.9482 8.79382 62.5029 7.73634 62.0577 6.79017H62.0298C61.9464 8.04245 61.8907 9.21125 61.835 10.4079C61.7794 11.6323 61.6959 13.4412 61.6959 15.1666C61.6959 16.6693 61.8072 16.9754 62.6142 17.0589L63.3934 17.1146C63.5326 17.2259 63.5048 17.5598 63.3656 17.6155C62.6699 17.5876 61.8907 17.5598 61.1115 17.5598C60.4714 17.5598 59.7479 17.5876 59.0522 17.6155C58.9409 17.5042 58.8852 17.198 59.0244 17.1146L59.4696 17.0589C60.3323 16.9476 60.6106 16.8084 60.7219 15.3892C60.8332 14.0534 60.9445 12.9403 61.0558 10.9366C61.1672 9.26691 61.2506 7.54154 61.2785 6.4284C61.3063 5.14828 61.1672 4.84217 59.9149 4.6752L59.5809 4.64737C59.4696 4.53605 59.4974 4.22994 59.6644 4.14645C60.2766 4.17428 60.7497 4.20211 61.2506 4.20211C61.7237 4.20211 62.2525 4.20211 62.9204 4.14645C62.8369 4.92565 63.3378 6.17794 63.9778 7.48588L66.2876 12.1611ZM79.701 7.23542C79.701 5.12045 79.6731 4.81434 78.4765 4.6752L78.1426 4.64737C78.0313 4.56388 78.0591 4.20211 78.1704 4.14645C79.0331 4.17428 79.7288 4.20211 80.5637 4.20211H84.3762C85.6841 4.20211 86.8529 4.20211 87.1034 4.14645C87.2147 4.4804 87.3538 5.95531 87.4373 6.84583C87.3538 6.95714 87.0199 7.0128 86.9364 6.87365C86.6303 5.92748 86.4633 5.20394 85.4058 4.95348C84.9884 4.84217 84.3205 4.84217 83.43 4.84217H81.9829C81.3707 4.84217 81.3707 4.87 81.3707 5.6492V9.71216C81.3707 10.2687 81.4263 10.2687 82.0386 10.2687H83.2074C84.0701 10.2687 84.6823 10.2409 84.9327 10.1574C85.1832 10.0739 85.3223 9.96262 85.4058 9.46171L85.5728 8.62685C85.6841 8.51554 86.0181 8.51554 86.1015 8.65468C86.1015 9.12777 86.0181 9.93479 86.0181 10.6862C86.0181 11.4097 86.1015 12.1889 86.1015 12.6342C86.0181 12.7733 85.6841 12.7733 85.5728 12.662L85.378 11.8828C85.2945 11.521 85.1554 11.2149 84.7379 11.1036C84.4597 11.0201 83.9587 10.9923 83.1795 10.9923H82.0107C81.3985 10.9923 81.3429 11.0201 81.3429 11.5489V14.4152C81.3429 15.5005 81.3985 16.1684 81.7325 16.5302C81.9829 16.7806 82.4003 17.0033 84.1814 17.0033C85.7398 17.0033 86.3242 16.9198 86.7694 16.6971C87.1312 16.5023 87.6878 15.7788 88.2165 14.7213C88.3557 14.61 88.6339 14.6935 88.7174 14.8604C88.5783 15.5562 88.0774 17.1146 87.7991 17.6711C85.9902 17.6433 84.1814 17.6155 82.3725 17.6155H80.5637C79.701 17.6155 79.0053 17.6433 77.8086 17.6711C77.6973 17.6155 77.6417 17.2815 77.7808 17.1702L78.4487 17.1146C79.5897 17.0032 79.701 16.6971 79.701 14.5822V7.23542ZM96.0363 2.7272C96.5651 2.7272 96.9547 2.28194 96.9547 1.64188C96.9547 1.02965 96.5651 0.584401 96.0363 0.584401C95.5354 0.584401 95.118 1.02965 95.118 1.64188C95.118 2.28194 95.5354 2.7272 96.0363 2.7272ZM97.7617 1.64188C97.7617 2.50457 97.066 3.28377 96.0363 3.28377C95.0345 3.28377 94.311 2.50457 94.311 1.64188C94.311 0.779198 95.0067 0 96.0363 0C97.0382 0 97.7617 0.779198 97.7617 1.64188ZM93.8657 11.0758C93.6987 11.5489 93.7266 11.5489 94.2831 11.5489H96.7599C97.3443 11.5489 97.3999 11.4654 97.2051 10.9088L96.1198 7.5972C95.9529 7.12411 95.7859 6.56754 95.6467 6.31708H95.6189C95.5633 6.4284 95.3685 6.90148 95.1458 7.51371L93.8657 11.0758ZM97.873 12.8846C97.7339 12.4394 97.6504 12.3837 97.0382 12.3837H93.977C93.4761 12.3837 93.337 12.4394 93.1978 12.8568L92.5021 14.9718C92.196 15.8901 92.0569 16.4188 92.0569 16.6415C92.0569 16.8919 92.1682 17.0032 92.6413 17.0589L93.3091 17.1146C93.4483 17.2259 93.4483 17.532 93.2813 17.6155C92.7526 17.5876 92.1403 17.5876 91.1663 17.5598C90.4985 17.5598 89.7749 17.5876 89.2183 17.6155C89.107 17.532 89.0514 17.198 89.1905 17.1146L89.8584 17.0589C90.3315 17.0311 90.7767 16.8085 91.0829 16.0571C91.4446 15.1387 92.0012 13.803 92.8639 11.5489L94.9232 6.09445C95.2015 5.37091 95.3406 4.98131 95.2571 4.64737C95.7302 4.50823 96.092 4.14645 96.3146 3.86817C96.4259 3.86817 96.5651 3.896 96.6207 4.06297C96.8712 4.95348 97.2051 5.87183 97.5113 6.76234L100.294 14.8883C100.879 16.6415 101.157 16.9198 102.019 17.0311L102.576 17.0867C102.715 17.198 102.687 17.5042 102.576 17.5877C101.741 17.5598 101.045 17.532 100.127 17.532C99.1531 17.532 98.3739 17.5598 97.7895 17.5877C97.6226 17.5042 97.5947 17.1702 97.7617 17.0867L98.3461 17.0311C98.7635 17.0033 99.0418 16.8641 99.0418 16.6693C99.0418 16.4467 98.9305 16.0849 98.7914 15.584L97.873 12.8846ZM55.3232 27.1607C55.3232 25.9084 55.2953 23.5708 54.9336 22.9586C54.7944 22.7081 54.4326 22.569 53.9317 22.5411L53.4308 22.5133C53.3195 22.3742 53.3473 22.0959 53.4586 22.0402C54.2378 22.068 54.9892 22.0959 55.7684 22.0959C56.6311 22.0959 57.1598 22.068 57.8834 22.0402C58.0504 22.1515 58.0225 22.402 57.9112 22.5133L57.4381 22.5411C56.9372 22.569 56.5476 22.7638 56.4363 23.0142C56.158 23.6821 56.158 26.0197 56.158 27.1328V29.4148C56.158 31.168 55.8797 33.0325 54.7388 34.257C53.8761 35.2031 52.3733 35.7319 50.8706 35.7319C49.4792 35.7319 48.0877 35.4814 47.0859 34.6187C46.0006 33.7282 45.4997 32.2533 45.4997 29.8322V25.0457C45.4997 22.9307 45.4718 22.5968 44.2752 22.4855L43.7743 22.4576C43.663 22.3742 43.6908 22.0402 43.8021 21.9846C44.804 22.0124 45.4997 22.0402 46.3067 22.0402C47.1416 22.0402 47.8094 22.0124 48.7834 21.9846C48.8948 22.0402 48.9504 22.402 48.8113 22.4576L48.3382 22.4855C47.1694 22.5968 47.1137 22.9307 47.1137 25.0457V29.4148C47.1137 32.6707 48.1156 34.8135 51.2324 34.8135C54.1544 34.8135 55.2953 32.5038 55.2953 29.4148L55.3232 27.1607ZM72.4377 32.0028C72.4377 32.6151 72.4377 35.0083 72.4934 35.5371C72.4655 35.6484 72.3264 35.7597 72.1038 35.7597C71.8533 35.4258 71.2689 34.7022 69.5157 32.6986L64.8127 27.3555C64.2561 26.7154 62.8925 25.0735 62.4751 24.6283H62.4473C62.3638 24.8787 62.336 25.324 62.336 25.9362V30.361C62.336 31.3071 62.3638 33.9508 62.6977 34.5631C62.809 34.7857 63.2265 34.897 63.7274 34.9527L64.3674 35.0083C64.4788 35.1753 64.4788 35.4258 64.3396 35.5092C63.4213 35.4814 62.7256 35.4536 61.9742 35.4536C61.1115 35.4536 60.5828 35.4814 59.8592 35.5092C59.7201 35.3979 59.6922 35.1196 59.8314 35.0083L60.388 34.9527C60.861 34.897 61.1672 34.7579 61.2785 34.5352C61.5568 33.8117 61.5289 31.335 61.5289 30.361V24.517C61.5289 23.9604 61.5011 23.5151 61.0837 23.0699C60.8054 22.7916 60.3045 22.6524 59.8314 22.5968L59.4974 22.569C59.3861 22.4576 59.3861 22.1515 59.5253 22.068C60.388 22.1237 61.4454 22.1237 61.8072 22.1237C62.1412 22.1237 62.4751 22.0959 62.7256 22.068C63.143 23.0977 65.5084 25.7692 66.1763 26.5206L68.1521 28.7191C69.5436 30.2775 70.5454 31.4184 71.4916 32.3924H71.5194C71.6029 32.2811 71.6029 31.975 71.6029 31.5298V27.1885C71.6029 26.2423 71.575 23.5986 71.1854 22.9864C71.0741 22.7916 70.7402 22.6803 69.9332 22.569L69.5992 22.5411C69.4601 22.4298 69.4879 22.0959 69.627 22.0402C70.5454 22.068 71.2411 22.0959 72.0203 22.0959C72.883 22.0959 73.4117 22.068 74.1074 22.0402C74.2744 22.1515 74.2744 22.4298 74.1353 22.5411L73.857 22.569C73.2169 22.6803 72.7995 22.8194 72.716 22.9864C72.3821 23.7099 72.4099 26.2145 72.4099 27.1607V32.0028H72.4377ZM77.8086 25.157C77.8086 23.0142 77.7808 22.6803 76.5842 22.569L76.0833 22.5411C75.972 22.4576 75.9998 22.0959 76.1111 22.0402C77.1129 22.068 77.8086 22.0959 78.6713 22.0959C79.4783 22.0959 80.1741 22.068 81.1759 22.0402C81.2872 22.0959 81.3429 22.4576 81.2037 22.5411L80.7028 22.569C79.5062 22.6803 79.4783 23.0142 79.4783 25.157V32.3646C79.4783 34.5074 79.5062 34.7857 80.7028 34.9248L81.2037 34.9805C81.315 35.064 81.2872 35.4258 81.1759 35.4814C80.1741 35.4536 79.4783 35.4257 78.6713 35.4257C77.8086 35.4257 77.1407 35.4536 76.1111 35.4814C75.9998 35.4258 75.9441 35.0918 76.0833 34.9805L76.5842 34.9248C77.7808 34.7857 77.8086 34.5074 77.8086 32.3646V25.157ZM84.7936 24.2387C84.3205 23.0977 84.0144 22.6803 83.1517 22.569L82.7899 22.5411C82.6508 22.4298 82.6786 22.1237 82.8178 22.0402C83.4022 22.068 84.0422 22.0959 84.9327 22.0959C85.8233 22.0959 86.519 22.068 87.3817 22.0402C87.5208 22.1237 87.5765 22.4298 87.4095 22.5411L87.1034 22.569C86.3242 22.6803 86.185 22.7916 86.1572 22.9586C86.185 23.1534 86.5468 24.2665 87.159 25.7971C88.0774 28.1347 89.0235 30.4723 90.0254 32.782C90.6654 31.4463 91.5003 29.3591 91.9734 28.2738C92.5578 26.9102 93.5039 24.6004 93.8657 23.7378C94.0327 23.3203 94.0605 23.0977 94.0605 22.9586C94.0605 22.8194 93.8657 22.6524 93.1422 22.569L92.7804 22.5411C92.6413 22.4298 92.6691 22.1237 92.8082 22.0402C93.3648 22.068 94.144 22.0959 94.9232 22.0959C95.5911 22.0959 96.2311 22.068 96.899 22.0402C97.0382 22.1237 97.0382 22.4576 96.9268 22.5411L96.3146 22.569C95.8415 22.5968 95.5354 22.8472 95.2571 23.2647C94.7006 24.2108 93.8935 25.8527 93.003 27.912L91.9177 30.3888C91.1107 32.2533 90.1645 34.5909 89.8027 35.6762C89.7471 35.704 89.6636 35.7319 89.5801 35.7319C89.4688 35.7319 89.3853 35.704 89.274 35.6762C89.0514 34.8135 88.6896 33.8395 88.3557 32.9768L84.7936 24.2387ZM99.9323 25.1292C99.9323 23.0142 99.9045 22.7081 98.7079 22.569L98.3739 22.5411C98.2626 22.4576 98.2905 22.0959 98.4018 22.0402C99.2645 22.068 99.9602 22.0959 100.795 22.0959H104.608C105.915 22.0959 107.084 22.0959 107.335 22.0402C107.446 22.3742 107.585 23.8491 107.669 24.7396C107.585 24.8509 107.251 24.9066 107.168 24.7674C106.862 23.8212 106.695 23.0977 105.637 22.8472C105.22 22.7359 104.552 22.7359 103.661 22.7359H102.214C101.602 22.7359 101.602 22.7638 101.602 23.543V27.6059C101.602 28.1625 101.658 28.1625 102.27 28.1625H103.439C104.301 28.1625 104.914 28.1347 105.164 28.0512C105.415 27.9677 105.554 27.8564 105.637 27.3555L105.804 26.5206C105.915 26.4093 106.249 26.4093 106.333 26.5484C106.333 27.0215 106.249 27.8286 106.249 28.5799C106.249 29.3035 106.333 30.0827 106.333 30.5279C106.249 30.6671 105.915 30.6671 105.804 30.5558L105.609 29.7766C105.526 29.4148 105.387 29.1087 104.969 28.9974C104.691 28.9139 104.19 28.886 103.411 28.886H102.242C101.63 28.886 101.574 28.9139 101.574 29.4426V32.309C101.574 33.3943 101.63 34.0622 101.964 34.4239C102.214 34.6744 102.632 34.897 104.413 34.897C105.971 34.897 106.556 34.8135 107.001 34.5909C107.363 34.3961 107.919 33.6726 108.448 32.6151C108.587 32.5038 108.865 32.5872 108.949 32.7542C108.81 33.4499 108.309 35.0083 108.03 35.5649C106.222 35.5371 104.413 35.5092 102.604 35.5092H100.795C99.9323 35.5092 99.2366 35.5371 98.04 35.5649C97.9287 35.5092 97.873 35.1753 98.0122 35.064L98.68 35.0083C99.821 34.897 99.9323 34.5909 99.9323 32.4759V25.1292ZM113.652 28.0512C113.652 28.413 113.652 28.6356 113.707 28.7191C113.763 28.7747 114.069 28.8304 115.099 28.8304C115.822 28.8304 116.602 28.7469 117.186 28.3016C117.743 27.8842 118.188 27.1607 118.188 25.7971C118.188 24.2108 117.186 22.6803 114.96 22.6803C113.707 22.6803 113.652 22.7638 113.652 23.3203V28.0512ZM111.982 25.157C111.982 23.2368 111.926 22.9029 111.092 22.7916L110.452 22.7081C110.312 22.5968 110.312 22.2907 110.479 22.2072C111.62 22.0959 113.012 22.0402 114.988 22.0402C116.24 22.0402 117.436 22.1515 118.383 22.6524C119.357 23.1534 120.052 24.0717 120.052 25.491C120.052 27.4111 118.522 28.4686 117.52 28.886C117.409 28.9974 117.52 29.22 117.631 29.3591C119.245 31.975 120.331 33.5891 121.694 34.7579C122.028 35.064 122.557 35.2866 123.086 35.3144C123.197 35.3423 123.197 35.5092 123.114 35.5927C122.919 35.6484 122.613 35.704 122.223 35.704C120.498 35.704 119.468 35.2031 118.021 33.1438C117.492 32.3924 116.657 31.001 116.045 30.0827C115.739 29.6374 115.405 29.4426 114.598 29.4426C113.68 29.4426 113.652 29.4704 113.652 29.8879V32.4481C113.652 34.5631 113.68 34.8135 114.876 34.9805L115.294 35.0362C115.405 35.1475 115.377 35.4814 115.266 35.5371C114.348 35.5092 113.68 35.4814 112.845 35.4814C111.982 35.4814 111.259 35.5092 110.312 35.5371C110.201 35.4814 110.145 35.1753 110.285 35.0362L110.785 34.9805C111.954 34.8414 112.01 34.5631 112.01 32.4481L111.982 25.157ZM127.733 35.7875C126.036 35.7875 124.95 35.2588 124.588 35.0362C124.338 34.5909 124.088 33.1438 124.032 32.1976C124.143 32.0585 124.449 32.0028 124.505 32.142C124.811 33.1716 125.646 35.1475 127.984 35.1475C129.681 35.1475 130.516 34.0343 130.516 32.8099C130.516 31.9194 130.321 30.9175 128.846 29.9714L126.926 28.7191C125.924 28.0512 124.728 26.9102 124.728 25.2405C124.728 23.3203 126.23 21.7619 128.846 21.7619C129.486 21.7619 130.21 21.8732 130.739 22.0124C130.989 22.0959 131.295 22.1237 131.434 22.1237C131.629 22.5968 131.796 23.7378 131.796 24.6004C131.713 24.7118 131.379 24.7952 131.295 24.6561C131.045 23.6821 130.488 22.3742 128.54 22.3742C126.564 22.3742 126.119 23.6821 126.119 24.6283C126.119 25.7971 127.093 26.6598 127.844 27.105L129.458 28.1068C130.739 28.886 131.991 30.0827 131.991 32.0028C132.046 34.257 130.349 35.7875 127.733 35.7875ZM135.609 25.157C135.609 23.0142 135.581 22.6803 134.384 22.569L133.883 22.5411C133.772 22.4576 133.8 22.0959 133.911 22.0402C134.913 22.068 135.609 22.0959 136.471 22.0959C137.278 22.0959 137.974 22.068 138.976 22.0402C139.087 22.0959 139.143 22.4576 139.004 22.5411L138.503 22.569C137.306 22.6803 137.278 23.0142 137.278 25.157V32.3646C137.278 34.5074 137.306 34.7857 138.503 34.9248L139.004 34.9805C139.115 35.064 139.087 35.4258 138.976 35.4814C137.974 35.4536 137.278 35.4257 136.471 35.4257C135.609 35.4257 134.941 35.4536 133.911 35.4814C133.8 35.4258 133.744 35.0918 133.883 34.9805L134.384 34.9248C135.581 34.7857 135.609 34.5074 135.609 32.3646V25.157ZM147.658 32.4203C147.658 34.5352 147.686 34.8414 148.883 34.9527L149.523 35.0083C149.634 35.0918 149.606 35.4536 149.495 35.5092C148.354 35.4814 147.658 35.4536 146.851 35.4536C146.044 35.4536 145.321 35.4814 144.041 35.5092C143.929 35.4536 143.874 35.0918 144.041 35.0083L144.764 34.9527C145.905 34.8414 146.016 34.5352 146.016 32.4203V23.376C146.016 22.7359 146.016 22.7359 145.404 22.7359H144.291C143.428 22.7359 142.315 22.7638 141.786 23.2368C141.313 23.6821 141.091 24.1274 140.868 24.6283C140.701 24.7396 140.423 24.6561 140.339 24.4891C140.673 23.5708 140.979 22.2907 141.119 21.4836C141.174 21.4558 141.453 21.428 141.508 21.4836C141.62 22.1237 142.287 22.1237 143.234 22.1237H151.415C152.5 22.1237 152.695 22.0959 153.001 21.5671C153.113 21.5393 153.335 21.5393 153.363 21.6228C153.141 22.4576 153.001 24.0995 153.057 24.7118C152.974 24.8787 152.64 24.8787 152.528 24.7396C152.473 24.2387 152.334 23.4873 152.027 23.2647C151.554 22.9307 150.803 22.7638 149.69 22.7638H148.243C147.63 22.7638 147.658 22.7916 147.658 23.4595V32.4203ZM161.378 32.3646C161.378 34.5352 161.489 34.8414 162.602 34.9248L163.381 34.9805C163.493 35.0918 163.465 35.4258 163.354 35.4814C162.101 35.4536 161.406 35.4257 160.599 35.4257C159.736 35.4257 159.012 35.4536 157.955 35.4814C157.844 35.4258 157.788 35.0918 157.927 34.9805L158.567 34.9248C159.736 34.8135 159.792 34.5074 159.792 32.3646V31.335C159.792 30.2218 159.736 29.9714 159.151 28.8304L156.758 24.183C156.063 22.8472 155.756 22.7359 155.172 22.6524L154.615 22.5411C154.504 22.402 154.504 22.1237 154.643 22.0402C155.283 22.068 156.007 22.0959 156.981 22.0959C157.899 22.0959 158.651 22.068 159.151 22.0402C159.346 22.0959 159.346 22.4298 159.207 22.5411L158.957 22.569C158.261 22.6803 158.094 22.7638 158.094 22.9307C158.094 23.1255 158.623 24.2943 158.734 24.4891C159.485 25.9919 160.237 27.5781 161.016 28.9974C161.656 27.912 162.324 26.7432 162.908 25.5744C163.465 24.517 164.216 23.1534 164.216 22.9029C164.216 22.7916 163.855 22.6524 163.354 22.569L162.992 22.5411C162.853 22.402 162.881 22.1237 163.02 22.0402C163.743 22.068 164.328 22.0959 164.968 22.0959C165.608 22.0959 166.164 22.068 166.86 22.0402C167.027 22.1515 167.055 22.4298 166.888 22.5411L166.331 22.6524C165.274 22.8472 164.662 24.0995 163.66 25.8527L162.38 28.0512C161.489 29.5818 161.433 29.7766 161.433 31.335V32.3646" fill="white"></path>
  <path d="M16.2241 21.0386C16.1127 21.0664 16.0293 21.0107 16.0014 20.9273C15.9736 20.8438 16.0571 20.7603 16.1406 20.7325C16.2519 20.7046 16.3354 20.7603 16.3632 20.8438C16.391 20.9551 16.3354 21.0386 16.2241 21.0386ZM14.6657 18.2557C14.9439 18.2835 14.9996 18.3392 15.0274 18.4227C15.0553 18.5062 15.0274 18.5618 14.8326 18.9236C14.8048 18.9514 14.8883 18.9793 14.9161 18.9793C15.8901 17.8383 17.4763 18.3392 17.7825 18.4783C18.1442 18.6175 18.0886 18.8123 18.0329 18.8679C17.8103 19.1184 16.9754 19.5915 16.8085 19.675C16.6415 19.7585 16.5858 19.7306 16.4745 19.6193C16.3632 19.508 16.2797 19.1741 16.2797 19.1462C16.2797 19.1184 16.2797 18.7845 16.2797 18.7566C16.2797 18.7288 16.1962 18.701 16.1962 18.7566C16.1962 18.7845 16.1127 19.0349 16.1127 19.0906C16.0849 19.1184 16.0571 19.1741 16.0014 19.1462C15.9736 19.1462 15.5562 19.0071 15.5562 19.0071C15.5283 19.0071 15.5005 19.0627 15.5283 19.0906C15.5562 19.1184 15.9458 19.3689 16.0293 19.4245C16.1127 19.4802 16.1684 19.6193 16.1962 19.7863C16.1962 19.8419 16.1962 19.9254 16.0849 19.9533C15.9736 19.9811 15.584 19.8419 15.4727 19.8141C15.3892 19.7863 15.3057 19.5637 15.2779 19.508C15.2779 19.4802 15.1666 19.4802 15.1666 19.5358C15.1666 19.5637 15.1666 19.7585 15.1387 19.8141C15.1109 19.8976 14.9439 19.9533 14.7213 19.9811C14.6935 19.9811 14.6935 20.0924 14.7213 20.0924C14.9161 20.0924 14.9996 20.1759 14.9996 20.2315C15.0274 20.2872 14.9996 20.315 14.8883 20.5655C14.8605 20.6211 14.9718 20.649 14.9718 20.6211C15.2779 20.2594 15.5283 20.1759 15.9458 20.2037C16.0293 20.2037 16.0849 20.2037 16.0293 20.2594C15.8901 20.4263 15.5562 20.8438 14.6935 21.6508C14.6378 21.7065 14.61 21.8178 14.6657 21.9013C14.6657 21.9291 14.9161 22.2352 14.9161 22.263C14.9439 22.2909 14.9718 22.2909 14.9996 22.2909C15.7231 21.9847 16.1962 21.8456 16.1962 21.8456C16.6137 22.5413 16.9476 22.9866 17.2259 22.9031C17.5042 22.8196 17.5877 22.43 17.5877 22.43C17.5877 22.43 17.7825 22.7361 18.0886 22.8196C18.1164 22.8196 18.1164 22.8196 18.1164 22.7918C18.1164 22.7639 18.1164 20.6768 18.1164 20.6768C18.1164 20.6768 17.3094 20.6768 17.2537 20.6768C17.2259 20.6768 17.1981 20.6768 17.1702 20.649C16.5302 20.2315 16.4467 20.1481 16.6137 20.0646C16.6693 20.0367 16.6971 20.0367 16.725 20.0089C17.7825 19.5358 18.3669 19.0627 18.3669 18.7566C18.3669 18.4227 18.0051 17.8105 17.6155 17.5043C17.5877 17.4765 17.532 17.56 17.5598 17.5878C17.5877 17.6157 17.8103 17.9496 17.7546 18.0609C17.699 18.1722 17.2537 18.0331 17.1146 17.9496C16.9476 17.8661 16.7806 17.5043 16.6971 17.3374C16.6137 17.1982 16.4189 17.0591 16.4189 17.0591C16.391 17.0591 16.3632 17.1147 16.3632 17.1426C16.4467 17.2261 16.6971 17.6157 16.5858 17.7826C16.5023 17.9496 16.1406 17.9774 15.9736 17.8383C15.8066 17.6991 15.6118 17.1704 15.6118 17.1426C15.584 17.1147 15.5283 17.1426 15.5283 17.1704C15.5283 17.2261 15.6118 17.56 15.4449 17.6435C15.3057 17.7548 14.9996 17.6157 14.8326 17.5322C14.8048 17.5043 14.7491 17.5878 14.777 17.5878C14.8048 17.6157 15.1387 17.9218 15.1387 17.9774C15.1387 18.0609 14.9439 18.0887 14.61 18.1722C14.61 18.1722 14.6378 18.2557 14.6657 18.2557Z" fill="white"></path>
  <path d="M11.9106 21.0386C11.7993 21.0664 11.7158 21.0107 11.688 20.9273C11.6602 20.8438 11.7437 20.7603 11.8272 20.7325C11.9385 20.7046 12.022 20.7603 12.0498 20.8438C12.0776 20.9551 11.9941 21.0386 11.9106 21.0386ZM10.3244 18.2557C10.6027 18.2835 10.6584 18.3392 10.6862 18.4227C10.714 18.5062 10.6862 18.5618 10.4914 18.9236C10.4636 18.9514 10.547 18.9793 10.5749 18.9793C11.5489 17.8383 13.1351 18.3392 13.4412 18.4783C13.803 18.6175 13.7473 18.8123 13.6917 18.8679C13.469 19.1184 12.6342 19.5915 12.4672 19.675C12.3002 19.7585 12.2446 19.7306 12.1333 19.6193C12.022 19.508 11.9385 19.1741 11.9385 19.1462C11.9385 19.1184 11.9385 18.7845 11.9385 18.7566C11.9385 18.7288 11.855 18.701 11.855 18.7566C11.855 18.7845 11.7715 19.0349 11.7715 19.0906C11.7437 19.1184 11.7158 19.1741 11.6602 19.1462C11.6045 19.1462 11.2149 19.0071 11.2149 19.0071C11.1871 19.0071 11.1593 19.0627 11.1871 19.0906C11.2149 19.1184 11.6045 19.3689 11.688 19.4245C11.7715 19.4802 11.8272 19.6193 11.855 19.7863C11.855 19.8419 11.855 19.9254 11.7437 19.9533C11.6324 19.9811 11.2428 19.8419 11.1314 19.8141C11.048 19.7863 10.9645 19.5637 10.9366 19.508C10.9366 19.4802 10.8253 19.4802 10.8253 19.5358C10.8253 19.5637 10.8253 19.7585 10.7975 19.8141C10.7697 19.8976 10.6027 19.9533 10.3801 19.9811C10.3522 19.9811 10.3522 20.0924 10.3801 20.0924C10.5749 20.0924 10.6584 20.1759 10.6584 20.2315C10.6862 20.2872 10.6584 20.315 10.547 20.5655C10.5192 20.6211 10.6305 20.649 10.6305 20.6211C10.9366 20.2594 11.1871 20.1759 11.6045 20.2037C11.688 20.2037 11.7437 20.2037 11.688 20.2594C11.5489 20.4263 11.2149 20.8438 10.3522 21.6508C10.2966 21.7065 10.2688 21.8178 10.3244 21.9013C10.3244 21.9291 10.5749 22.2352 10.5749 22.263C10.6027 22.2909 10.6305 22.2909 10.6584 22.2909C11.3819 21.9847 11.855 21.8456 11.855 21.8456C12.2724 22.5413 12.6063 22.9866 12.8846 22.9031C13.1629 22.8196 13.2464 22.43 13.2464 22.43C13.2464 22.43 13.4412 22.7361 13.7473 22.8196C13.7752 22.8196 13.7752 22.8196 13.7752 22.7918C13.7752 22.7639 13.7752 20.6768 13.7752 20.6768C13.7752 20.6768 12.9681 20.6768 12.9125 20.6768C12.8846 20.6768 12.8568 20.6768 12.829 20.649C12.1889 20.2315 12.1054 20.1481 12.2724 20.0646C12.3002 20.0367 12.3559 20.0367 12.3837 20.0089C13.4412 19.5358 14.0256 19.0627 14.0256 18.7566C14.0256 18.4227 13.6638 17.8105 13.2742 17.5043C13.2464 17.4765 13.1908 17.56 13.2186 17.5878C13.2464 17.6157 13.469 17.9496 13.4134 18.0609C13.3577 18.1722 12.9125 18.0331 12.7733 17.9496C12.6064 17.8661 12.4394 17.5043 12.3559 17.3374C12.2724 17.1982 12.0776 17.0591 12.0776 17.0591C12.0498 17.0591 12.022 17.1147 12.022 17.1426C12.1054 17.2261 12.3559 17.6157 12.2446 17.7826C12.1611 17.9496 11.7993 17.9774 11.6324 17.8383C11.4654 17.6991 11.2706 17.1704 11.2706 17.1426C11.2428 17.1147 11.1871 17.1426 11.1871 17.1704C11.1871 17.2261 11.2706 17.56 11.1036 17.6435C10.9645 17.7548 10.6584 17.6157 10.4914 17.5322C10.4636 17.5043 10.4079 17.5878 10.4357 17.5878C10.4636 17.6157 10.7975 17.9218 10.7975 17.9774C10.7975 18.0609 10.6027 18.0887 10.2688 18.1722C10.2966 18.1722 10.2966 18.2557 10.3244 18.2557Z" fill="white"></path>
  <path d="M20.5375 21.0386C20.4262 21.0664 20.3427 21.0107 20.3148 20.9273C20.287 20.8438 20.3705 20.7603 20.454 20.7325C20.5653 20.7046 20.6488 20.7603 20.6766 20.8438C20.7044 20.9551 20.6488 21.0386 20.5375 21.0386ZM18.9791 18.2557C19.2574 18.2835 19.313 18.3392 19.3408 18.4227C19.3687 18.5062 19.3408 18.5618 19.146 18.9236C19.1182 18.9514 19.2017 18.9793 19.2295 18.9793C20.2035 17.8383 21.7898 18.3392 22.0959 18.4783C22.4576 18.6175 22.402 18.8123 22.3463 18.8679C22.1237 19.1184 21.2888 19.5915 21.1219 19.675C20.9549 19.7585 20.8992 19.7306 20.7879 19.6193C20.6766 19.508 20.5931 19.1741 20.5931 19.1462C20.5931 19.1184 20.5931 18.7845 20.5931 18.7566C20.5931 18.7288 20.5096 18.701 20.5096 18.7566C20.5096 18.7845 20.4262 19.0349 20.4262 19.0906C20.3983 19.1184 20.3705 19.1741 20.3148 19.1462C20.2592 19.1462 19.8974 19.0071 19.8696 19.0071C19.8418 19.0071 19.8139 19.0627 19.8418 19.0906C19.8696 19.1184 20.2592 19.3689 20.3427 19.4245C20.4262 19.4802 20.4818 19.6193 20.5096 19.7863C20.5096 19.8419 20.5096 19.9254 20.3983 19.9533C20.287 19.9811 19.8974 19.8419 19.7861 19.8141C19.7026 19.7863 19.6191 19.5637 19.5913 19.508C19.5913 19.4802 19.48 19.4802 19.48 19.5358C19.48 19.5637 19.48 19.7585 19.4522 19.8141C19.4243 19.8976 19.2574 19.9533 19.0347 19.9811C19.0069 19.9811 19.0069 20.0924 19.0347 20.0924C19.2295 20.0924 19.313 20.1759 19.313 20.2315C19.3408 20.2872 19.313 20.315 19.2017 20.5655C19.1739 20.6211 19.2852 20.649 19.2852 20.6211C19.5913 20.2594 19.8418 20.1759 20.2592 20.2037C20.3427 20.2037 20.3983 20.2037 20.3427 20.2594C20.2035 20.4263 19.8696 20.8438 19.0069 21.6508C18.9512 21.7065 18.9234 21.8178 18.9791 21.9013C18.9791 21.9291 19.2295 22.2352 19.2295 22.263C19.2574 22.2909 19.2852 22.2909 19.313 22.2909C20.0366 21.9847 20.5096 21.8456 20.5096 21.8456C20.9271 22.5413 21.261 22.9866 21.5393 22.9031C21.8176 22.8196 21.9011 22.43 21.9011 22.43C21.9011 22.43 22.0959 22.7361 22.402 22.8196C22.4298 22.8196 22.4298 22.8196 22.4298 22.7918C22.4298 22.7639 22.4298 20.6768 22.4298 20.6768C22.4298 20.6768 21.6228 20.6768 21.5671 20.6768C21.5393 20.6768 21.5115 20.6768 21.4836 20.649C20.8436 20.2315 20.7601 20.1481 20.9271 20.0646C20.9549 20.0367 21.0106 20.0367 21.0384 20.0089C22.0959 19.5358 22.6803 19.0627 22.6803 18.7566C22.6803 18.4227 22.3185 17.8105 21.9289 17.5043C21.9011 17.4765 21.8454 17.56 21.8732 17.5878C21.9011 17.6157 22.1237 17.9496 22.068 18.0609C22.0124 18.1722 21.5671 18.0331 21.428 17.9496C21.261 17.8661 21.094 17.5043 21.0106 17.3374C20.9271 17.1982 20.7323 17.0591 20.7323 17.0591C20.7044 17.0591 20.6766 17.1147 20.6766 17.1426C20.7601 17.2261 21.0106 17.6157 20.8992 17.7826C20.8158 17.9496 20.454 17.9774 20.287 17.8383C20.12 17.6991 19.9252 17.1704 19.9252 17.1426C19.8974 17.1147 19.8418 17.1426 19.8418 17.1704C19.8418 17.2261 19.9252 17.56 19.7583 17.6435C19.6191 17.7548 19.313 17.6157 19.146 17.5322C19.1182 17.5043 19.0626 17.5878 19.0904 17.5878C19.1182 17.6157 19.4522 17.9218 19.4522 17.9774C19.4522 18.0609 19.2574 18.0887 18.9234 18.1722C18.9234 18.1722 18.9512 18.2557 18.9791 18.2557Z" fill="white"></path>
  <path d="M10.3244 18.1719C10.6862 18.0884 10.8531 18.0328 10.8531 17.9771C10.8531 17.8936 10.5192 17.5875 10.4914 17.5875C10.4635 17.5597 10.5192 17.504 10.547 17.5319C10.714 17.6153 11.0201 17.7545 11.1593 17.6432C11.2984 17.5319 11.2427 17.2258 11.2427 17.1701C11.2427 17.1423 11.3262 17.1144 11.3262 17.1423C11.3541 17.1701 11.521 17.6988 11.688 17.838C11.855 17.9771 12.2167 17.9493 12.3002 17.7823C12.3837 17.6153 12.1611 17.2257 12.0776 17.1423C12.0498 17.1144 12.1054 17.0588 12.1333 17.0588C12.1611 17.0588 12.3281 17.1979 12.4115 17.3371C12.495 17.4762 12.6898 17.838 12.829 17.9493C12.9959 18.0328 13.4134 18.1719 13.469 18.0606C13.5247 17.9493 13.3021 17.6154 13.2742 17.5875C13.2464 17.5597 13.3299 17.504 13.3299 17.504C13.7195 17.7823 14.0813 18.3945 14.0813 18.7563C14.0813 19.0903 13.4969 19.5355 12.4394 20.0086C12.4115 20.0364 12.3559 20.0364 12.3281 20.0643C12.1611 20.1477 12.2446 20.2312 12.8846 20.6487C12.9125 20.6765 12.9403 20.6765 12.9681 20.6765C12.9959 20.6765 13.8308 20.6765 13.8308 20.6765C13.8308 20.6765 13.8308 22.7636 13.8308 22.7915C13.8308 22.8193 13.8308 22.8471 13.803 22.8193C13.4969 22.708 13.3021 22.4297 13.3021 22.4297C13.3021 22.4297 13.2186 22.8193 12.9403 22.9028C12.662 22.9863 12.3281 22.541 11.9106 21.8453C11.9106 21.8453 11.4375 21.9844 10.714 22.2905C10.6862 22.3184 10.6583 22.2905 10.6305 22.2627C10.6027 22.2349 10.3801 21.9288 10.3801 21.9009C10.3244 21.8175 10.3522 21.734 10.4079 21.6505C11.2706 20.8435 11.6045 20.426 11.7437 20.2591C11.7715 20.2034 11.7437 20.2034 11.6602 20.2034C11.2427 20.1756 10.9923 20.2591 10.6862 20.6208C10.6583 20.6487 10.5749 20.6208 10.6027 20.5652C10.714 20.2869 10.7418 20.2869 10.714 20.2312C10.6862 20.1756 10.6305 20.0921 10.4357 20.0921C10.3801 20.0921 10.3801 19.9808 10.4357 19.9808C10.6862 19.9529 10.8253 19.8973 10.8531 19.8138C10.881 19.7581 10.881 19.5633 10.881 19.5355C10.881 19.4799 10.9645 19.4799 10.9923 19.5077C10.9923 19.5355 11.1036 19.7581 11.1871 19.8138C11.2706 19.8416 11.688 19.9808 11.7993 19.9529C11.9106 19.9251 11.9106 19.8416 11.9106 19.786C11.8828 19.619 11.8271 19.4799 11.7437 19.4242C11.6602 19.3685 11.2706 19.1181 11.2427 19.0903C11.2149 19.0624 11.2427 19.0068 11.2706 19.0068C11.2984 19.0068 11.688 19.1459 11.7158 19.1459C11.7715 19.1459 11.7993 19.1181 11.8271 19.0903C11.855 19.0624 11.9106 18.812 11.9106 18.7563C11.9106 18.7285 11.9941 18.7285 11.9941 18.7563C11.9941 18.7841 11.9941 19.1181 11.9941 19.1459C11.9941 19.1737 12.0776 19.5077 12.1889 19.619C12.3002 19.7303 12.3559 19.7303 12.5229 19.6747C12.6898 19.5912 13.5247 19.1181 13.7473 18.8676C13.803 18.812 13.8586 18.6172 13.4969 18.478C13.1629 18.3667 11.6045 17.8658 10.6305 18.9789C10.6027 19.0068 10.547 18.9511 10.547 18.9233C10.7418 18.5615 10.7697 18.5059 10.7418 18.4224C10.714 18.3389 10.6583 18.2832 10.3801 18.2554C10.2966 18.2554 10.2966 18.1719 10.3244 18.1719ZM14.6378 18.1719C14.9996 18.0884 15.1666 18.0328 15.1666 17.9771C15.1666 17.8936 14.8326 17.5875 14.8048 17.5875C14.777 17.5597 14.8326 17.504 14.8605 17.5319C15.0274 17.6153 15.3335 17.7545 15.4727 17.6432C15.6118 17.5319 15.5562 17.2258 15.5562 17.1701C15.5562 17.1423 15.6397 17.1144 15.6397 17.1423C15.6675 17.1701 15.8345 17.6988 16.0014 17.838C16.1684 17.9771 16.5302 17.9493 16.6137 17.7823C16.6971 17.6153 16.4745 17.2257 16.391 17.1423C16.3632 17.1144 16.4189 17.0588 16.4467 17.0588C16.4745 17.0588 16.6415 17.1979 16.725 17.3371C16.8085 17.4762 17.0033 17.838 17.1424 17.9493C17.3094 18.0328 17.7268 18.1719 17.7825 18.0606C17.8381 17.9493 17.6155 17.6154 17.5877 17.5875C17.5598 17.5597 17.6433 17.504 17.6433 17.504C18.0329 17.7823 18.3947 18.3945 18.3947 18.7563C18.3947 19.0903 17.7825 19.5355 16.7528 20.0086C16.725 20.0364 16.6693 20.0364 16.6415 20.0643C16.4745 20.1477 16.558 20.2312 17.1981 20.6487C17.2259 20.6765 17.2537 20.6765 17.2815 20.6765C17.3094 20.6765 18.1442 20.6765 18.1442 20.6765C18.1442 20.6765 18.1442 22.7636 18.1442 22.7915C18.1442 22.8193 18.1442 22.8471 18.1164 22.8193C17.8103 22.708 17.6155 22.4297 17.6155 22.4297C17.6155 22.4297 17.532 22.8193 17.2537 22.9028C16.9754 22.9863 16.6415 22.541 16.2241 21.8453C16.2241 21.8453 15.751 21.9844 15.0274 22.2905C14.9996 22.3184 14.9718 22.2905 14.9439 22.2627C14.9161 22.2349 14.6935 21.9288 14.6935 21.9009C14.6378 21.8175 14.6657 21.734 14.7213 21.6505C15.584 20.8435 15.9179 20.426 16.0571 20.2591C16.0849 20.2034 16.0571 20.2034 15.9736 20.2034C15.5562 20.1756 15.3057 20.2591 14.9996 20.6208C14.9718 20.6487 14.8883 20.6208 14.9161 20.5652C15.0274 20.2869 15.0553 20.2869 15.0274 20.2312C14.9996 20.1756 14.9439 20.0921 14.7491 20.0921C14.6935 20.0921 14.6935 19.9808 14.7491 19.9808C14.9996 19.9529 15.1387 19.8973 15.1666 19.8138C15.1944 19.7581 15.1944 19.5633 15.1944 19.5355C15.1944 19.4799 15.2779 19.4799 15.3057 19.5077C15.3057 19.5355 15.417 19.7581 15.5005 19.8138C15.584 19.8416 16.0014 19.9808 16.1127 19.9529C16.2241 19.9251 16.2241 19.8416 16.2241 19.786C16.1962 19.619 16.1406 19.4799 16.0571 19.4242C15.9736 19.3685 15.584 19.1181 15.5562 19.0903C15.5283 19.0624 15.5562 19.0068 15.584 19.0068C15.6118 19.0068 16.0014 19.1459 16.0293 19.1459C16.0849 19.1459 16.1127 19.1181 16.1406 19.0903C16.1684 19.0624 16.2241 18.812 16.2241 18.7563C16.2241 18.7285 16.3075 18.7285 16.3075 18.7563C16.3075 18.7841 16.3075 19.1181 16.3075 19.1459C16.3075 19.1737 16.391 19.5077 16.5023 19.619C16.6137 19.7303 16.6693 19.7303 16.8363 19.6747C17.0033 19.5912 17.8381 19.1181 18.0607 18.8676C18.1164 18.812 18.1721 18.6172 17.8103 18.478C17.4763 18.3667 15.9179 17.8658 14.9439 18.9789C14.9161 19.0068 14.8605 18.9511 14.8605 18.9233C15.0553 18.5615 15.0831 18.5059 15.0553 18.4224C15.0274 18.3389 14.9718 18.2832 14.6935 18.2554C14.6378 18.2554 14.61 18.1719 14.6378 18.1719ZM18.9791 18.1719C19.3408 18.0884 19.5078 18.0328 19.5078 17.9771C19.5078 17.8936 19.1739 17.5875 19.1461 17.5875C19.1182 17.5597 19.1739 17.504 19.2017 17.5319C19.3687 17.6153 19.6748 17.7545 19.8139 17.6432C19.9531 17.5319 19.8974 17.2258 19.8974 17.1701C19.8974 17.1423 19.9809 17.1144 19.9809 17.1423C19.9809 17.1701 20.1757 17.6988 20.3427 17.838C20.5096 17.9771 20.8714 17.9493 20.9549 17.7823C21.0384 17.6153 20.8158 17.2257 20.7323 17.1423C20.7044 17.1144 20.7601 17.0588 20.7879 17.0588C20.8158 17.0588 20.9827 17.1979 21.0662 17.3371C21.1497 17.4762 21.3445 17.838 21.4836 17.9493C21.6506 18.0328 22.068 18.1719 22.1237 18.0606C22.1794 17.9493 21.9567 17.6154 21.9289 17.5875C21.9011 17.5597 21.9846 17.504 21.9846 17.504C22.3742 17.7823 22.7359 18.3945 22.7359 18.7563C22.7359 19.0903 22.1515 19.5355 21.094 20.0086C21.0662 20.0364 21.0106 20.0364 20.9827 20.0643C20.8158 20.1477 20.8992 20.2312 21.5393 20.6487C21.5671 20.6765 21.595 20.6765 21.6228 20.6765C21.6506 20.6765 22.4855 20.6765 22.4855 20.6765C22.4855 20.6765 22.4855 22.7636 22.4855 22.7915C22.4855 22.8193 22.4855 22.8471 22.4576 22.8193C22.1515 22.708 21.9567 22.4297 21.9567 22.4297C21.9567 22.4297 21.8732 22.8193 21.595 22.9028C21.3167 22.9863 20.9827 22.541 20.5653 21.8453C20.5653 21.8453 20.0922 21.9844 19.3687 22.2905C19.3408 22.3184 19.313 22.2905 19.2852 22.2627C19.2574 22.2349 19.0347 21.9288 19.0347 21.9009C18.9791 21.8175 19.0069 21.734 19.0626 21.6505C19.9253 20.8435 20.2592 20.426 20.3983 20.2591C20.4262 20.2034 20.3983 20.2034 20.3148 20.2034C19.8974 20.1756 19.647 20.2591 19.3409 20.6208C19.313 20.6487 19.2295 20.6208 19.2574 20.5652C19.3687 20.2869 19.3965 20.2869 19.3687 20.2312C19.3408 20.1756 19.2852 20.0921 19.0904 20.0921C19.0347 20.0921 19.0347 19.9808 19.0904 19.9808C19.3408 19.9529 19.48 19.8973 19.5078 19.8138C19.5357 19.7581 19.5357 19.5633 19.5357 19.5355C19.5357 19.4799 19.6191 19.4799 19.647 19.5077C19.647 19.5355 19.7583 19.7581 19.8418 19.8138C19.9253 19.8416 20.3427 19.9808 20.454 19.9529C20.5653 19.9251 20.5653 19.8416 20.5653 19.786C20.5375 19.619 20.4818 19.4799 20.3983 19.4242C20.3148 19.3685 19.9253 19.1181 19.8974 19.0903C19.8696 19.0624 19.8974 19.0068 19.9253 19.0068C19.9531 19.0068 20.3427 19.1459 20.3705 19.1459C20.4262 19.1459 20.454 19.1181 20.4818 19.0903C20.5096 19.0624 20.5653 18.812 20.5653 18.7563C20.5653 18.7285 20.6488 18.7285 20.6488 18.7563C20.6488 18.7841 20.6488 19.1181 20.6488 19.1459C20.6488 19.1737 20.7323 19.5077 20.8436 19.619C20.9549 19.7303 21.0106 19.7303 21.1775 19.6747C21.3445 19.5912 22.1794 19.1181 22.402 18.8676C22.4576 18.812 22.5133 18.6172 22.1515 18.478C21.8176 18.3667 20.2592 17.8658 19.2852 18.9789C19.2574 19.0068 19.2017 18.9511 19.2017 18.9233C19.3965 18.5615 19.4243 18.5059 19.3965 18.4224C19.3687 18.3389 19.313 18.2832 19.0347 18.2554C18.9513 18.2554 18.9234 18.1719 18.9791 18.1719ZM9.07211 25.9361H23.8769V14.6099H9.07211V25.9361Z" fill="white"></path>
  <path d="M11.8549 20.7602C11.7436 20.788 11.688 20.8715 11.7158 20.955C11.7436 21.0384 11.8271 21.0941 11.9384 21.0663C12.0497 21.0385 12.1054 20.955 12.0776 20.8715C12.0219 20.788 11.9384 20.7323 11.8549 20.7602Z" fill="white"></path>
  <path d="M16.1684 20.7602C16.0571 20.788 16.0014 20.8715 16.0292 20.955C16.0571 21.0384 16.1405 21.0941 16.2519 21.0663C16.3632 21.0385 16.4188 20.955 16.391 20.8715C16.3632 20.788 16.2519 20.7323 16.1684 20.7602Z" fill="white"></path>
  <path d="M20.4818 20.7602C20.3705 20.788 20.3148 20.8715 20.3427 20.955C20.3705 21.0384 20.454 21.0941 20.5653 21.0663C20.6766 21.0385 20.7323 20.955 20.7044 20.8715C20.6766 20.788 20.5931 20.7323 20.4818 20.7602Z" fill="white"></path>
  <path d="M23.8769 13.3853L16.5023 10.1572L9.09993 13.3853V13.9419H23.9047V13.3853" fill="white"></path>
  <path d="M28.8304 11.7996C29.22 11.7996 29.5539 11.4657 29.5539 11.0761C29.5539 10.6865 29.22 10.3525 28.8304 10.3525C28.4408 10.3525 28.1068 10.6865 28.1068 11.0761C28.1068 11.4657 28.413 11.7996 28.8304 11.7996Z" fill="white"></path>
  <path d="M4.2021 11.7996C4.5917 11.7996 4.92565 11.4657 4.92565 11.0761C4.92565 10.6865 4.5917 10.3525 4.2021 10.3525C3.8125 10.3525 3.47856 10.6865 3.47856 11.0761C3.47856 11.4657 3.8125 11.7996 4.2021 11.7996Z" fill="white"></path>
  <path d="M1.781 18.2552L2.50454 18.3666C2.81066 18.4222 3.45072 18.5335 3.58986 18.6448C3.61769 18.6727 3.64551 18.7283 3.64551 18.8675C3.64551 18.8675 3.64551 18.8675 3.64551 19.0344V19.0623V19.0901C3.64551 19.1179 3.67334 19.1458 3.81249 19.2014H3.84031L3.97946 19.1458V19.1179C3.97946 19.1179 3.97946 19.0901 4.03511 18.4779L4.1186 17.81C4.1186 17.7822 4.09077 17.7543 4.00729 17.6987L3.97946 17.6708L3.81249 17.6987L3.78466 17.7265C3.78466 17.7265 3.75683 17.7543 3.729 17.9213C3.70117 18.0604 3.67334 18.1161 3.64551 18.1161C3.58986 18.1439 3.36723 18.1718 2.47672 18.0048L1.80883 17.8935C0.834831 17.7265 0.417403 17.2812 0.528717 16.5855C0.584374 16.2516 0.723515 16.029 0.918315 15.8898C1.1966 15.695 1.61403 15.6672 2.1706 15.7507L3.42289 15.9733C4.00729 16.0846 4.00729 16.0846 3.97946 16.3351L3.95163 16.502V16.5299C3.95163 16.5577 4.00729 16.6412 4.09077 16.6412C4.14643 16.6412 4.22992 16.6412 4.28557 16.5855V16.5577C4.28557 16.5577 4.28557 16.5299 4.45254 15.8063L4.64734 15.055V15.0271C4.64734 14.9715 4.59169 14.9158 4.5082 14.888C4.42471 14.8602 4.36906 14.888 4.34123 14.9158V14.9437C4.34123 14.9437 4.34123 14.9715 4.28557 15.1106C4.20209 15.3611 4.20209 15.3611 3.56203 15.2776L2.1706 15.0271C1.44706 14.888 0.973972 14.9715 0.64003 15.2776C0.361744 15.5002 0.166944 15.8898 0.0834586 16.3907C-2.70866e-05 16.8638 0.11129 17.3647 0.333918 17.6708C0.640032 17.8935 1.11312 18.1161 1.781 18.2552Z" fill="white"></path>
  <path d="M4.53606 24.2109C4.56388 24.2109 4.61954 24.2944 4.70303 24.4335L4.75868 24.517H4.78651C4.84217 24.5449 4.92566 24.5727 4.98131 24.5449C5.03697 24.517 5.0648 24.4892 5.09263 24.4335C5.09263 24.4335 5.09263 24.4057 4.87 23.8213L4.64737 23.1534V23.1256C4.61954 23.07 4.53606 23.0421 4.4804 23.0421C4.39691 23.0421 4.34126 23.0978 4.31343 23.1534V23.1813C4.31343 23.1813 4.31343 23.2091 4.34126 23.3204C4.39691 23.543 4.36908 23.5987 4.36908 23.6265C4.34126 23.6543 4.20211 23.7657 3.28377 24.0161L2.05932 24.3501H2.03149C2.1428 24.1831 2.3376 23.877 2.69937 23.2926C2.7272 23.2648 3.17246 22.569 3.17246 22.569L3.25594 22.4577C3.45074 22.1794 3.95166 21.4281 4.17429 21.2611L4.20211 21.2333V21.2054C4.20211 21.2054 4.20211 21.1498 4.14646 20.8993L4.03514 20.2593V20.2314C4.00731 20.1758 3.95166 20.1479 3.86817 20.1479C3.78469 20.1479 3.72903 20.2036 3.7012 20.2314V20.2593C3.7012 20.2593 3.7012 20.2871 3.7012 20.3984C3.7012 20.5375 3.7012 20.6489 3.64554 20.7324C3.56206 20.8437 3.47857 20.8715 3.3116 20.9272L1.64189 21.3724L1.5584 21.4002C1.28012 21.4837 0.695715 21.6229 0.500915 21.6229C0.500915 21.6229 0.445257 21.595 0.417428 21.4837L0.361772 21.3446L0.333946 21.3168C0.306118 21.2889 0.278287 21.2889 0.166973 21.2611H0.139143L0 21.3724V21.4002C0 21.4281 0 21.4281 0.139143 22.0125L0.25046 22.6803V22.7082C0.25046 22.736 0.278288 22.7638 0.389602 22.7917H0.417428L0.556571 22.736L0.584401 22.7082V22.6803C0.584401 22.6525 0.5844 22.5412 0.556571 22.4577C0.556571 22.4021 0.556571 22.3464 0.556571 22.3186C0.556571 22.2629 0.584401 22.2351 0.584401 22.2351C0.695716 22.1238 1.30794 21.929 1.69754 21.8455L2.94983 21.5115C3.00549 21.4837 3.06114 21.4837 3.08897 21.4837C2.922 21.7342 2.61589 22.1794 2.61589 22.1794C2.61589 22.2073 1.44709 23.9048 1.44709 23.9048C0.974001 24.6283 0.834858 24.7953 0.7792 24.851L0.751374 24.8788V24.9066C0.779203 25.0179 0.834859 25.1014 0.946173 25.1014H0.974002H1.00183C1.05749 25.0736 1.28012 25.018 1.97583 24.8232L3.45074 24.4335C3.7012 24.3501 4.34126 24.1831 4.53606 24.2109Z" fill="white"></path>
  <path d="M6.42839 27.1047C6.48405 27.1325 6.56753 27.1325 6.62319 27.0768C6.65102 27.049 6.70668 26.9934 6.70668 26.9099V26.882C6.70668 26.882 6.70668 26.8542 6.26142 26.2698L5.84399 25.6298L5.81616 25.6019C5.76051 25.5741 5.67702 25.5741 5.62136 25.6019C5.5657 25.6298 5.51005 25.6854 5.53788 25.7411V25.7689C5.53788 25.7689 5.53788 25.7967 5.62136 25.9359C5.73268 26.1585 5.7605 26.1585 5.23176 26.5203L3.47856 27.7169C2.97765 28.0787 2.94982 28.0508 2.78285 27.856L2.67154 27.7169H2.64371C2.56022 27.6891 2.50456 27.7169 2.44891 27.7726C2.39325 27.8282 2.39325 27.8839 2.39325 27.9117V27.9395C2.39325 27.9395 2.39325 27.9674 2.83851 28.5796L3.22811 29.1918L3.25593 29.2196C3.28376 29.2475 3.31159 29.2475 3.33942 29.2475C3.36725 29.2475 3.42291 29.2475 3.45074 29.2196C3.50639 29.1918 3.56205 29.1362 3.53422 29.0805V29.0527C3.53422 29.0527 3.53422 29.0248 3.45074 28.8857C3.33942 28.6631 3.31159 28.6352 3.84033 28.3013L5.59353 27.1047C6.12228 26.7429 6.12228 26.7707 6.28925 26.9655L6.37273 27.0768L6.42839 27.1047Z" fill="white"></path>
  <path d="M10.6305 30.556C10.714 30.556 10.7696 30.5003 10.7975 30.4447C10.8253 30.389 10.8253 30.3333 10.7975 30.2777V30.2499C10.7975 30.2499 10.7696 30.222 10.2965 29.9159L9.79563 29.5541H9.7678C9.71215 29.5541 9.62866 29.582 9.573 29.6376C9.54518 29.6655 9.51735 29.7211 9.51735 29.7489C9.51735 29.7768 9.51735 29.7768 9.51735 29.8046V29.8324C9.51735 29.8324 9.54518 29.8603 9.62866 29.9437C9.68432 29.9994 9.73998 30.0272 9.73998 30.0551L9.60083 30.1664L7.29106 31.4743C7.4302 30.9456 7.79198 29.5541 7.79198 29.5541C7.90329 29.1645 7.98678 28.8863 8.04243 28.7749C8.07026 28.7749 8.12592 28.8028 8.18158 28.8584L8.26506 28.9141H8.29289C8.34855 28.9141 8.43203 28.8863 8.45986 28.8306C8.48769 28.7749 8.51552 28.7193 8.48769 28.6636V28.6358C8.48769 28.6358 8.48769 28.608 7.90329 28.1627L7.4302 27.7453H7.40238C7.34672 27.7175 7.26323 27.7453 7.20758 27.8009C7.15192 27.8566 7.15192 27.9123 7.15192 27.9679V27.9957C7.15192 27.9957 7.15192 28.0236 7.23541 28.1071C7.37455 28.2462 7.37455 28.3575 7.29106 28.7193L6.56752 31.4465C6.51186 31.6969 6.40055 32.0031 6.31706 32.2257V32.2535V32.2813C6.31706 32.3092 6.31706 32.337 6.40055 32.4205L6.42838 32.4483L6.53969 32.4761L6.56752 32.4483C6.87363 32.2535 7.54152 31.8639 8.0146 31.5856L8.71032 31.196C9.32255 30.8621 9.82346 30.6116 10.1017 30.4725C10.2409 30.4168 10.3244 30.4168 10.38 30.4725L10.6305 30.556Z" fill="white"></path>
  <path d="M14.3873 31.4184C14.3317 31.4184 13.9699 31.307 13.6638 31.2236H13.636L12.5785 30.8896L11.9106 30.667H11.8828C11.8271 30.667 11.7715 30.7226 11.7436 30.8061C11.7436 30.834 11.7158 30.9174 11.7715 30.9731L11.7993 31.0009C11.7993 31.0009 11.8271 31.0009 11.9106 31.0566C12.1611 31.1679 12.1611 31.1679 11.9663 31.7523L11.3262 33.7838C11.1314 34.3682 11.1314 34.3682 10.881 34.3125L10.6583 34.2569H10.6305C10.5748 34.2847 10.5192 34.3404 10.5192 34.4238C10.5192 34.4795 10.5192 34.5352 10.5748 34.5908H10.6027C10.6027 34.5908 10.6305 34.5908 11.4097 34.8134L13.469 35.4813L13.4968 35.4535C13.6638 35.3144 13.9421 34.8969 14.0256 34.7021V34.6743V34.6465C14.0256 34.563 13.9978 34.5073 13.9421 34.4795C13.8864 34.4517 13.8308 34.4238 13.7751 34.4517H13.7473L13.7195 34.4795C13.469 34.73 13.2742 34.8691 13.1907 34.8691C13.0516 34.8969 12.8846 34.8691 12.495 34.73C11.9941 34.563 11.9384 34.4795 11.9106 34.4517C11.855 34.3682 11.9106 34.1734 11.9941 33.8951L12.2446 33.0881C12.2446 33.0602 12.2446 33.0602 12.2724 33.0324C12.3002 33.0324 12.328 33.0602 12.3559 33.0602L12.6898 33.1716C12.8846 33.2272 13.0238 33.2829 13.1072 33.3107C13.1629 33.3385 13.1629 33.3942 13.1629 33.4777L13.1351 33.7281V33.756C13.1629 33.8116 13.2185 33.8673 13.302 33.8951C13.3577 33.8951 13.4134 33.8951 13.469 33.8673V33.8394C13.469 33.8394 13.469 33.8116 13.5525 33.589L13.636 33.255L13.8308 32.6706V32.6428C13.8308 32.5872 13.7751 32.5315 13.7195 32.5037C13.6638 32.4758 13.5803 32.4758 13.5247 32.5037H13.4968C13.4968 32.5037 13.469 32.5315 13.3577 32.7541C13.302 32.8654 13.2742 32.8654 13.2464 32.8654C13.1907 32.8654 13.0516 32.8376 12.7733 32.7541L12.4394 32.6428C12.4115 32.6428 12.3837 32.615 12.3559 32.615C12.3559 32.5872 12.3559 32.5872 12.3837 32.5593L12.7455 31.4184C12.7733 31.3627 12.7733 31.307 12.7733 31.307C12.8011 31.307 12.829 31.3349 12.829 31.3349L13.2464 31.474C13.4968 31.5575 13.6638 31.6132 13.7751 31.6688C13.9978 31.808 13.9977 31.9471 13.9977 32.2254V32.2532V32.281C14.0256 32.3089 14.0534 32.3645 14.1369 32.3924C14.1647 32.3924 14.2482 32.4202 14.3039 32.3645L14.3317 32.3367C14.3317 32.3367 14.3595 32.3089 14.3595 32.2254C14.443 31.8914 14.4987 31.5853 14.4987 31.5018V31.4184H14.3873Z" fill="white"></path>
  <path d="M18.3112 33.255C18.1721 33.3941 17.9494 33.422 17.7825 33.4498C17.5877 33.4776 17.5042 33.4776 17.4485 33.4776C17.4485 33.4498 17.4485 33.3941 17.4485 33.3663L17.3094 31.9749C17.3094 31.947 17.3094 31.9192 17.3094 31.9192C17.3372 31.8914 17.5042 31.8914 17.5877 31.8914C18.2277 31.8636 18.4782 32.2253 18.506 32.5871C18.506 32.8932 18.4503 33.1158 18.3112 33.255ZM20.3705 35.036C20.2035 35.036 20.0644 35.0082 19.9531 34.9247C19.5078 34.6464 19.1182 34.2012 18.5895 33.5333C18.7565 33.422 19.2852 33.0602 19.2295 32.3923C19.1739 31.8636 18.8678 31.6409 18.5895 31.5296C18.3112 31.4183 18.0051 31.4183 17.6433 31.4461H17.532C17.0033 31.474 16.5858 31.5018 16.2241 31.5574H16.1962C16.1406 31.5853 16.1127 31.6409 16.1127 31.7244C16.1127 31.7801 16.1406 31.8636 16.1962 31.8914H16.2241C16.2241 31.8914 16.2519 31.8914 16.4467 31.9192C16.5858 31.9192 16.6137 31.9192 16.6693 32.5036L16.8641 34.6464C16.9198 35.2308 16.9198 35.2308 16.6693 35.2865L16.5023 35.3143L16.4745 35.3421C16.4189 35.3978 16.4189 35.4534 16.4189 35.5369C16.4467 35.5926 16.4745 35.6482 16.5023 35.6482H16.5302C16.558 35.6482 16.6693 35.6482 17.2815 35.5926L17.9773 35.5647H18.0051C18.0329 35.5369 18.0886 35.5091 18.0886 35.4256C18.0886 35.3421 18.0607 35.2865 18.0051 35.2586H17.9773C17.9773 35.2586 17.9494 35.2586 17.8103 35.2308C17.532 35.203 17.532 35.203 17.4763 34.5907L17.3929 33.8394V33.8116C17.4207 33.8116 17.5042 33.8116 17.5598 33.7837C17.7546 33.7559 17.8381 33.8115 17.9216 33.895L18.6173 34.7021C19.1182 35.2586 19.4522 35.3978 20.0087 35.3143L20.287 35.2308L20.3149 35.203C20.3705 35.1473 20.3705 35.0917 20.3705 35.036C20.3983 35.0638 20.454 35.0917 20.3705 35.036Z" fill="white"></path>
  <path d="M22.9029 31.7805L22.3463 31.7527C21.9845 31.7249 21.7341 31.6136 21.6228 31.4188C21.5949 31.3631 21.5393 31.2518 21.5393 31.1126C21.5393 30.9178 21.6506 30.7509 21.8732 30.6117C22.2907 30.3613 22.5689 30.5561 22.7916 30.7787L22.8194 30.8065C22.8472 30.8344 22.9307 30.8344 22.9864 30.7787C23.042 30.7509 23.0977 30.6952 23.0977 30.6117V30.5839V30.5561C22.9585 30.3056 22.7359 30.0552 22.6246 29.9438L22.5968 29.916H22.5689C22.5411 29.916 22.5133 29.916 22.3185 29.9995C22.1515 30.0273 21.9567 30.1108 21.7619 30.2221C21.428 30.4169 21.2053 30.6674 21.094 30.9735C20.9827 31.2796 21.0105 31.5857 21.1775 31.864C21.4558 32.3371 21.9567 32.4484 22.3185 32.4762L22.9864 32.5041C23.4595 32.5319 23.6264 32.7267 23.7377 32.9215C23.8212 33.0606 23.8491 33.1998 23.7934 33.3389C23.7656 33.5059 23.6264 33.6172 23.4595 33.7285C23.0699 33.9512 22.6524 33.8677 22.2628 33.4781H22.235C22.1793 33.4502 22.1237 33.4502 22.068 33.4781C22.0124 33.5059 21.9567 33.5616 21.9567 33.645V33.6729L21.9845 33.7007C22.1237 33.9512 22.4298 34.2851 22.5689 34.3964H22.5968H22.6246C22.6246 34.3964 22.6246 34.3964 22.6524 34.3964C22.8472 34.3964 23.1812 34.3686 23.5986 34.1181C23.9882 33.8955 24.2108 33.6172 24.3221 33.2554C24.35 33.1441 24.35 33.0606 24.35 32.9493C24.35 32.7545 24.2943 32.5597 24.183 32.3928C23.9604 32.0032 23.5429 31.7805 22.9029 31.7805Z" fill="white"></path>
  <path d="M27.9955 30.7231C27.9677 30.7231 27.9677 30.7231 27.8285 30.8344C27.6059 31.0013 27.6059 31.0013 27.1885 30.5283L25.7692 28.9699C25.3518 28.4968 25.3518 28.4968 25.5188 28.302L25.6301 28.1907V28.1628C25.6301 28.135 25.6579 28.0515 25.5744 27.968C25.5466 27.9402 25.4631 27.8845 25.4075 27.9124H25.3796C25.3796 27.9124 25.3518 27.9124 24.8231 28.4411L24.2665 28.9142L24.2387 28.942C24.2108 28.9977 24.2108 29.0812 24.2665 29.1368C24.3221 29.2203 24.3778 29.2203 24.4335 29.2203H24.4613C24.4613 29.2203 24.4891 29.2203 24.6004 29.109C24.7952 28.9699 24.8231 28.942 25.2405 29.4151L26.6597 30.9735C27.0772 31.4466 27.0772 31.4466 26.8824 31.6414L26.7711 31.7805V31.8084C26.7711 31.8919 26.7989 31.9475 26.8545 32.0032C26.8824 32.031 26.938 32.0588 26.9659 32.0588H26.9937H27.0215C27.0215 32.0588 27.0493 32.0588 27.5781 31.5301C27.6337 31.4744 27.7729 31.3631 28.1347 31.057L28.1625 31.0292C28.1903 30.9735 28.1903 30.89 28.1347 30.8344C28.1068 30.7509 28.0512 30.7231 27.9955 30.7231Z" fill="white"></path>
  <path d="M31.2236 26.5763C31.1958 26.5484 31.1123 26.5206 31.0567 26.5484L31.0288 26.5763C31.0288 26.5763 31.0288 26.5763 30.8897 26.7432C30.7505 26.938 30.7227 26.9659 30.194 26.6597L27.912 25.3518C27.8842 25.324 27.8564 25.324 27.8285 25.2961C27.8285 25.2683 27.8564 25.2405 27.8564 25.2405L28.079 24.8787C28.2181 24.6283 28.3573 24.4613 28.4964 24.4056C28.5243 24.4056 28.6356 24.4056 28.8582 24.4891H28.886H28.9139C28.9973 24.4891 29.053 24.4335 29.0808 24.35C29.1087 24.2943 29.1087 24.2108 29.0808 24.183V24.1552H29.053C28.886 24.0717 28.4964 23.8212 28.3295 23.6543L28.3016 23.6264H28.2738C28.1625 23.5986 28.079 23.7099 28.079 23.7934V23.8212V23.8491C28.1347 23.9604 28.1625 23.9882 27.9955 24.2387L26.7989 26.3258C26.6319 26.6041 26.6041 26.6597 26.5206 26.6319H26.4928H26.4649C26.3536 26.6597 26.298 26.7711 26.3258 26.8267V26.8545L26.3536 26.8824C26.4649 26.9659 26.7989 27.272 26.9937 27.5224L27.0215 27.5503H27.0493C27.1328 27.5781 27.1885 27.5503 27.2441 27.4946C27.2998 27.4389 27.2998 27.3833 27.2998 27.3276V27.2998V27.272C27.2163 27.1607 27.1328 27.0493 27.105 26.8824C27.0772 26.7154 27.2441 26.3815 27.3276 26.2423L27.4946 25.964C27.4946 25.9362 27.5224 25.9084 27.5224 25.9084C27.5503 25.9084 27.5781 25.9362 27.6059 25.9362L29.9157 27.2441C30.4444 27.5503 30.4444 27.5781 30.3331 27.8007L30.2496 27.9955V28.0233C30.2496 28.1068 30.2775 28.1625 30.3609 28.1903C30.3888 28.2181 30.4166 28.2181 30.4723 28.2181C30.5001 28.2181 30.5279 28.2181 30.5557 28.1903H30.5836C30.5836 28.1903 30.6114 28.1625 31.001 27.4389C31.0567 27.3833 31.168 27.1885 31.4184 26.7711V26.7432C31.3349 26.6876 31.2793 26.6041 31.2236 26.5763Z" fill="white"></path>
  <path d="M33.1995 20.5097C33.0325 20.3705 32.5872 20.1201 32.3924 20.0644H32.3646H32.3368C32.2533 20.0644 32.2255 20.1201 32.1698 20.1757C32.142 20.2314 32.142 20.2871 32.1698 20.3427V20.3705H32.1976C32.4759 20.5932 32.6151 20.7601 32.6429 20.8436C32.6707 20.9549 32.6707 21.1497 32.5872 21.5672C32.4759 22.0959 32.3924 22.1516 32.3646 22.1794C32.2811 22.2351 32.0863 22.2072 31.808 22.1516L31.001 21.9846L30.9453 21.9568C30.9453 21.9289 30.9453 21.9011 30.9453 21.8733L31.001 21.5393C31.0288 21.3724 31.0567 21.2054 31.1123 21.1219C31.1401 21.0663 31.168 21.0384 31.2793 21.0384H31.5297H31.5576C31.6132 21.0106 31.6689 20.9549 31.6689 20.8715C31.6689 20.8158 31.6689 20.7601 31.6132 20.7045H31.5854C31.5854 20.7045 31.5576 20.7045 31.3349 20.6488L31.001 20.5932L30.3888 20.454H30.3609C30.3053 20.454 30.2496 20.5097 30.2218 20.5932C30.194 20.6488 30.194 20.7323 30.2496 20.788H30.2775C30.2775 20.788 30.3053 20.788 30.5279 20.8993C30.6392 20.9549 30.6392 20.9549 30.6392 20.9828C30.6392 21.0384 30.6392 21.1776 30.5836 21.4559L30.5279 21.7898C30.5279 21.8176 30.5279 21.8455 30.5001 21.8733C30.4723 21.8733 30.4723 21.8733 30.4444 21.8733L29.2756 21.6507C29.22 21.6507 29.1643 21.6228 29.1365 21.6228C29.1365 21.595 29.1365 21.5672 29.1365 21.5393L29.22 21.1219C29.2756 20.8715 29.3035 20.7045 29.3591 20.5932C29.4704 20.3705 29.6096 20.3427 29.8879 20.3149H29.9157H29.9435C29.9713 20.2871 30.027 20.2592 30.0548 20.1757C30.0548 20.1479 30.0548 20.0644 29.9992 20.0088L29.9713 19.9809C29.9713 19.9809 29.9435 19.981 29.86 19.9531C29.5261 19.9253 29.22 19.8975 29.1087 19.8975L29.0252 19.9253V20.0088C29.0252 20.0644 28.9695 20.454 28.886 20.7601L28.6634 21.8733L28.4964 22.569V22.5968C28.5243 22.6525 28.5521 22.7081 28.6356 22.736C28.7191 22.7638 28.7747 22.736 28.8025 22.7081C28.8025 22.7081 28.8025 22.6803 28.8582 22.5968C28.9417 22.3464 28.9417 22.3464 29.5539 22.4577L31.6411 22.8473C32.2533 22.9586 32.2533 22.9864 32.2255 23.2369L32.1976 23.4595V23.4873C32.2255 23.543 32.3089 23.5987 32.3646 23.5987C32.4203 23.5987 32.4759 23.5708 32.5037 23.543V23.5152C32.5037 23.5152 32.5037 23.4873 32.6429 22.6803L33.0603 20.5375L33.1995 20.5097Z" fill="white"></path>
  <path d="M29.1087 16.1126C29.1087 16.0848 29.1087 16.0569 29.0808 16.0569C29.0808 16.0291 29.053 15.9456 28.9974 15.6395C28.9417 15.3334 28.9417 15.1386 28.9974 14.9994C28.9974 14.9716 29.0808 14.916 29.3313 14.8325H29.3591L29.387 14.8046C29.4426 14.749 29.4426 14.6933 29.4148 14.6098C29.387 14.5542 29.3591 14.4985 29.3035 14.4707H29.2756H29.2478C29.0808 14.5264 28.6078 14.5542 28.3573 14.5542H28.3295L28.3016 14.582C28.2738 14.6098 28.246 14.6377 28.246 14.6933C28.246 14.749 28.246 14.8046 28.2738 14.8603L28.3016 14.8881H28.3295C28.4686 14.9438 28.4686 14.9438 28.5243 15.2499L29.0252 17.6153C29.0808 17.9214 29.0808 18.0049 29.0252 18.0328H28.9974V18.0606C28.9417 18.1441 28.9695 18.2832 29.0252 18.311L29.053 18.3389H29.0808C29.3591 18.3389 29.7209 18.3667 29.9992 18.3945H30.027H30.0548C30.1105 18.3667 30.1662 18.2832 30.1662 18.2276C30.1662 18.1719 30.1383 18.1162 30.1105 18.0606H30.0827H30.0548C29.9157 18.0328 29.7766 18.0049 29.6374 17.8936C29.4983 17.8101 29.4426 17.504 29.387 17.2814L29.3313 16.9474C29.3313 16.9196 29.3313 16.8918 29.3313 16.8918C29.3591 16.8918 29.387 16.8918 29.4148 16.864L32.0028 16.363C32.6151 16.2517 32.6151 16.2796 32.6707 16.5022L32.7264 16.697L32.7542 16.7248C32.8099 16.7805 32.8655 16.8083 32.949 16.7805C33.0325 16.7526 33.0603 16.7248 33.0882 16.6692V16.6413C33.0882 16.6413 33.0882 16.6135 32.9212 15.8065L32.782 15.0273V14.9994C32.7542 14.9438 32.6707 14.916 32.5872 14.916C32.5038 14.916 32.4481 14.9716 32.4481 14.9994V15.0273C32.4481 15.0273 32.4481 15.0551 32.4759 15.2499C32.5038 15.5004 32.5038 15.5004 31.8915 15.6395L29.2756 16.1404C29.1922 16.1126 29.1365 16.1126 29.1087 16.1126Z" fill="white"></path>
  <path d="M5.62135 7.152C5.64918 7.152 5.67701 7.152 5.78832 7.04068C6.01095 6.90154 6.01095 6.90154 6.34489 7.37463C6.34489 7.40245 7.17975 8.5156 7.17975 8.5156C7.62501 9.1 8.01461 9.37828 8.45986 9.40611C8.48769 9.40611 8.51552 9.40611 8.54335 9.40611C8.87729 9.40611 9.21124 9.26697 9.60083 8.98868C10.0183 8.7104 10.2409 8.34863 10.2965 7.95903C10.3522 7.51377 10.2131 7.04068 9.82346 6.48411L9.46169 5.92754C9.21124 5.53794 8.93295 5.09268 8.90512 4.92571C8.90512 4.89788 8.93295 4.84223 9.04426 4.75874L9.15558 4.67526L9.18341 4.64743C9.21124 4.6196 9.21124 4.59177 9.15558 4.45263V4.4248L9.01644 4.36914H8.98861C8.98861 4.36914 8.96078 4.36914 8.43203 4.70308C8.37638 4.73091 8.23724 4.8144 7.84764 5.03703L7.81981 5.06485C7.79198 5.09268 7.79198 5.12051 7.79198 5.23183V5.25965L7.93112 5.37097H7.95895C7.98678 5.37097 7.98678 5.37097 8.12592 5.28748C8.26506 5.204 8.34855 5.23183 8.34855 5.23183C8.48769 5.31531 8.82163 5.7884 8.98861 6.06668L9.43386 6.73457C9.68432 7.09634 9.82346 7.43028 9.82346 7.70857C9.85129 8.04251 9.68432 8.3208 9.37821 8.54342C8.73815 8.98868 8.20941 8.82171 7.62501 7.98685L6.87364 6.9572L6.84581 6.92937C6.51187 6.45628 6.51187 6.45628 6.67884 6.28931L6.79015 6.178L6.81798 6.15017C6.84581 6.12234 6.84581 6.03885 6.76232 5.95537C6.70666 5.89971 6.65101 5.87188 6.59535 5.89971H6.56752C6.56752 5.89971 6.53969 5.89971 5.98312 6.3728L5.39872 6.81805L5.37089 6.84588C5.34307 6.90154 5.34307 6.98503 5.39872 7.04068C5.51004 7.12417 5.56569 7.152 5.62135 7.152Z" fill="white"></path>
  <path d="M16.8363 6.59568C16.8919 6.56785 16.9476 6.51219 16.9476 6.42871C16.9476 6.37305 16.9198 6.28956 16.8641 6.26174H16.8363C16.8363 6.26174 16.8085 6.26174 16.6137 6.26174C16.4467 6.26174 16.4188 6.20608 16.3632 5.92779L15.8345 3.33974C15.7788 2.95014 15.7788 2.92231 16.0571 2.86665L16.1962 2.83882L16.2241 2.811C16.2797 2.78317 16.2797 2.69968 16.2797 2.64402C16.2797 2.6162 16.2519 2.53271 16.1962 2.47705H16.1684C16.1406 2.47705 16.1406 2.47705 15.6118 2.53271L15.0553 2.56054V2.67185C15.0553 2.69968 15.0553 2.72751 15.0553 2.75534C15.0553 3.00579 14.9439 3.36757 14.8048 3.84065C14.8048 3.86848 14.4152 5.14859 14.4152 5.14859C14.4152 5.14859 14.2761 5.59385 14.1926 5.81648C14.1369 5.73299 14.0256 5.56602 13.8586 5.34339L12.8846 3.95196C12.7733 3.78499 12.4672 3.36757 12.4394 3.11711V3.0058L11.855 3.17276C11.8271 3.17276 11.3819 3.25625 11.3819 3.25625H11.3541C11.2984 3.28408 11.2706 3.33974 11.2706 3.42322C11.2706 3.47888 11.2984 3.56236 11.3262 3.59019L11.3541 3.61802C11.3819 3.61802 11.4097 3.61802 11.4932 3.61802C11.7993 3.59019 11.8271 3.5902 11.855 3.92414C11.855 3.92414 11.855 3.92414 12.0219 5.23208L12.1333 6.42871L12.1611 6.62351C12.1889 6.98528 12.1333 7.01311 11.9385 7.09659C11.9106 7.09659 11.8828 7.12442 11.7993 7.15225L11.7715 7.18008C11.7158 7.23574 11.7158 7.29139 11.7158 7.34705C11.7437 7.4027 11.7715 7.45836 11.8271 7.48619H11.855C11.8828 7.48619 11.9385 7.48619 12.495 7.31922L13.1351 7.18008H13.1629C13.2186 7.15225 13.2464 7.06876 13.2464 7.01311C13.2464 6.95745 13.2186 6.87397 13.1351 6.84614H13.1073C13.1073 6.84614 13.0794 6.84613 12.829 6.87396C12.7733 6.87396 12.7177 6.87396 12.7177 6.87396C12.662 6.84613 12.6342 6.59568 12.6063 6.48436L12.4394 5.17642L12.3559 4.39722L12.662 4.84248C12.7177 4.92596 12.8568 5.12076 13.3855 5.89996L13.4969 6.03911C13.6638 6.28956 13.9699 6.70699 14.1091 6.95745V6.98528C14.1647 7.04094 14.2204 7.04094 14.2761 7.04094C14.3317 7.04094 14.3874 6.98528 14.4152 6.95745V6.92962C14.4709 6.65133 14.6378 6.09476 14.8326 5.48254L15.3057 3.92414L15.6953 5.98345C15.7231 6.09476 15.7231 6.17825 15.7231 6.26174C15.7231 6.34522 15.7231 6.37305 15.5562 6.40088L15.3892 6.42871H15.3614C15.3335 6.45654 15.3057 6.45653 15.3057 6.59568V6.62351L15.3892 6.76265H15.417C15.4449 6.76265 15.4449 6.76265 16.1684 6.70699L16.8363 6.59568Z" fill="white"></path>
  <path d="M21.5671 6.62305V6.56739C21.5671 6.48391 21.5393 6.42825 21.4558 6.40042C21.4002 6.37259 21.3445 6.37259 21.2888 6.37259H21.261V6.40042C21.0384 6.6787 20.8436 6.81785 20.7601 6.81785C20.621 6.84568 20.454 6.81785 20.0366 6.70653C19.5078 6.56739 19.4522 6.4839 19.4522 6.45608C19.3965 6.37259 19.4243 6.17779 19.5078 5.8995L19.7026 5.09248L19.7304 5.03682C19.7583 5.03682 19.7861 5.03682 19.8139 5.06465L20.1479 5.14813C20.3427 5.20379 20.4818 5.23162 20.5653 5.28728C20.621 5.31511 20.6488 5.37076 20.621 5.45425C20.621 5.48208 20.621 5.53773 20.621 5.70471V5.73254V5.76036C20.6488 5.81602 20.7044 5.87168 20.7879 5.87168C20.8436 5.87168 20.8992 5.87167 20.9549 5.81602L20.9827 5.78819C20.9827 5.78819 20.9827 5.76036 21.0384 5.53773L21.1219 5.20379L21.2888 4.61939V4.59156C21.2888 4.53591 21.2332 4.48025 21.1775 4.45242C21.1219 4.42459 21.0384 4.42459 20.9827 4.48025L20.9549 4.50808C20.9549 4.50808 20.9549 4.53591 20.8436 4.75854C20.7879 4.86985 20.7879 4.86985 20.7323 4.86985C20.7044 4.86985 20.621 4.86985 20.2592 4.78636L19.9252 4.70288C19.8974 4.70288 19.8696 4.67505 19.8418 4.67505C19.8418 4.64722 19.8418 4.64722 19.8696 4.61939L20.1757 3.45059C20.1757 3.39493 20.2035 3.36711 20.2035 3.33928C20.2314 3.33928 20.2592 3.33928 20.2592 3.36711L20.6766 3.47842C20.9271 3.53408 21.094 3.58974 21.2054 3.64539C21.428 3.75671 21.428 3.92368 21.4558 4.17413V4.20196V4.22979C21.4836 4.28545 21.5393 4.31328 21.595 4.34111C21.6228 4.34111 21.7063 4.36893 21.7619 4.31328L21.7898 4.28545C21.7898 4.28545 21.8176 4.25762 21.8176 4.17413C21.8732 3.84019 21.9289 3.53408 21.9011 3.45059V3.36711H21.8176C21.7619 3.36711 21.3723 3.28362 21.0662 3.20014L19.9809 2.92185L19.2852 2.72705H19.2574C19.2017 2.72705 19.146 2.78271 19.1182 2.86619C19.0904 2.92185 19.0904 3.00533 19.146 3.03316L19.1739 3.06099C19.1739 3.06099 19.2017 3.06099 19.2852 3.11665C19.5356 3.20013 19.5356 3.22796 19.3965 3.81236L18.8678 5.87168C18.7286 6.45608 18.7008 6.45608 18.4503 6.42825L18.2277 6.40042H18.1999C18.1442 6.42825 18.0886 6.48391 18.0886 6.56739C18.0886 6.62305 18.1164 6.67871 18.1442 6.70653H18.172C18.172 6.70653 18.1999 6.70653 18.9791 6.90133L19.5078 7.04048C19.5356 7.04048 21.0384 7.4579 21.0384 7.4579H21.094L21.1219 7.43007C21.2054 7.23527 21.4558 6.81785 21.5671 6.62305Z" fill="white"></path>
  <path d="M24.2387 7.12438C24.2387 7.09655 24.2387 7.09655 24.2387 7.12438C24.2387 7.12438 24.2387 7.12437 25.2683 6.40083L25.3796 6.34518L24.99 7.59746C24.99 7.62529 24.99 7.62529 24.9622 7.65312L24.9344 7.62529C24.8787 7.5418 24.7118 7.43049 24.2387 7.12438C24.2665 7.12438 24.2665 7.12438 24.2387 7.12438ZM25.9919 5.23203C26.0475 5.14855 26.131 5.09289 26.2145 5.09289C26.2702 5.09289 26.298 5.09289 26.3258 5.12072C26.4371 5.2042 26.4371 5.34335 26.3536 5.48249C26.298 5.56597 26.2423 5.5938 26.1588 5.62163C26.1032 5.62163 26.0475 5.62163 25.9919 5.59381C25.9362 5.56598 25.9084 5.51032 25.9084 5.45466C25.9362 5.37118 25.9362 5.28769 25.9919 5.23203ZM21.9846 7.82009C21.9846 7.82009 22.0124 7.84792 22.1237 7.90357L22.4855 8.1262L22.9864 8.46014H23.0142C23.0977 8.48797 23.1534 8.46015 23.209 8.37666C23.2647 8.321 23.2647 8.23751 23.2368 8.18186V8.15403C23.2368 8.15403 23.209 8.1262 23.0699 8.01489C23.042 7.98706 23.0142 7.98706 23.0142 7.95923C23.042 7.9314 23.0977 7.84792 23.376 7.65312L23.7934 7.37483C23.8491 7.31917 23.8491 7.31918 23.9326 7.40266L24.7396 7.95923C24.7952 7.98706 24.8231 8.01489 24.8231 8.04272V8.09838C24.8231 8.09838 24.8231 8.09837 24.6283 8.76626C24.6004 8.82192 24.5726 8.96106 24.5448 9.01671C24.517 9.01671 24.4891 8.98889 24.4613 8.96106L24.2943 8.84975H24.2665C24.183 8.84975 24.1274 8.87758 24.0995 8.93323C24.0717 8.98889 24.0439 9.07237 24.0717 9.12803V9.15586C24.0717 9.15586 24.0717 9.18369 24.183 9.26717L24.6283 9.60112L25.1848 10.0742H25.2127C25.2127 10.0742 25.2127 10.0742 25.2405 10.0742C25.2962 10.0742 25.3518 10.0464 25.4075 9.99071C25.4353 9.93506 25.4631 9.8794 25.4353 9.82375V9.79592C25.4353 9.79592 25.4353 9.76809 25.2962 9.65677C25.157 9.51763 25.1292 9.43415 25.2962 8.93323C25.2962 8.93323 25.2962 8.93323 26.0197 6.48432L26.1867 5.92775C26.4093 5.95558 26.6319 5.84426 26.7711 5.67729C26.9659 5.37117 26.9102 4.98158 26.6041 4.75895C26.298 4.53632 25.8806 4.59198 25.6858 4.89809C25.5466 5.09289 25.5466 5.37118 25.6579 5.56598L25.3796 5.76077C25.3518 5.7886 23.9604 6.70695 23.9604 6.70695L23.7656 6.84609C23.5708 6.98523 23.2647 7.18003 23.1534 7.23569L22.7638 7.48614C22.6246 7.56963 22.5133 7.59746 22.402 7.5418L22.2072 7.45832H22.1794C22.1237 7.45832 22.0681 7.48614 22.0124 7.56963C21.9846 7.65312 21.9567 7.7366 21.9846 7.82009Z" fill="white"></path>
</svg>
