<?xml version="1.0" encoding="UTF-8"?>
<svg xmlns="http://www.w3.org/2000/svg" id="Layer_1" viewBox="0 0 1034.97 263.55">
  <defs>
    <style>.cls-1{fill:#fff;}</style>
  </defs>
  <path class="cls-1" d="M297.93,94.36c2.5,0,4.79,2.08,4.79,4.79v90.67c0,2.5-2.29,4.59-4.79,4.59h-12.3c-2.29,0-4.59-1.88-4.59-4.38v-8.34c-6.25,9.17-16.88,15.43-32.52,15.43-26.06,0-42.11-17.3-42.11-42.94v-55.24c0-2.5,2.29-4.59,4.79-4.59h12.3c2.5,0,4.59,2.08,4.59,4.59v51.69c0,16.68,8.75,27.72,26.06,27.72s26.89-11.46,26.89-27.51v-51.9c0-2.5,2.29-4.59,4.59-4.59h12.3M116.59,44.13c-42.11,0-76.08,32.73-76.08,76.5s33.98,76.5,76.08,76.5c7.2,0,14.16-.98,20.75-2.79l8.22,21.34c.83,2.29,2.5,3.75,5.63,3.75h13.13c3.13,0,5.42-2.09,3.96-6.05l-10.71-27.92c21.12-13.27,35.1-36.77,35.1-64.84,0-43.77-33.98-76.5-76.08-76.5m33.12,120.82l-9.56-24.94c-.83-2.08-2.5-3.96-6.25-3.96h-12.51c-3.13,0-5.63,2.08-4.17,6.05l12.64,32.8c-4.19,1.04-8.62,1.59-13.26,1.59-30.85,0-52.74-24.18-52.74-55.86s21.89-55.86,52.74-55.86,52.74,24.18,52.74,55.86c0,18.4-7.39,34.25-19.62,44.32m844.4,24.46c1.04,2.5-.21,5-3.34,5h-13.76c-2.5,0-4.59-1.25-5.42-3.75l-25.43-68.37-25.85,68.37c-1.04,2.71-2.92,3.75-5.42,3.75h-12.3c-2.5,0-4.38-1.04-5.42-3.75l-26.06-68.79-25.64,68.79c-1.04,2.5-2.92,3.75-5.42,3.75h-12.92c-2.5,0-4.38-1.25-5.42-3.75l-25.43-68.79-26.26,68.79c-1.04,2.71-2.92,3.75-5.42,3.75h-12.3c-2.5,0-4.38-1.04-5.42-3.75l-25.64-68.79-25.64,68.79c-.83,2.5-2.92,3.75-5.42,3.75h-13.34c-3.13,0-4.38-2.5-3.33-5l34.81-91.09c1.04-2.71,2.92-3.96,5.42-3.96h15.01c2.5,0,4.38,1.25,5.42,3.96l24.6,66.49,24.8-66.49c1.04-2.71,2.92-3.96,5.42-3.96h14.8c2.5,0,4.38,1.25,5.42,3.96l24.6,66.49,24.6-66.49c1.04-2.71,2.92-3.96,5.42-3.96h14.8c2.5,0,4.38,1.25,5.42,3.96l25.01,66.49,24.39-66.49c1.04-2.71,2.92-3.96,5.42-3.96h15.01c2.5,0,4.38,1.25,5.42,3.96l34.81,91.09M417.16,94.36h-12.3c-2.5,0-4.79,2.08-4.79,4.79v8.34c-6.25-9.38-18.34-16.05-32.73-16.05-27.1,0-50.44,21.47-50.44,52.74s23.35,52.95,50.23,52.95c14.59,0,26.47-6.67,32.93-16.05v8.75c0,2.5,2.29,4.58,4.79,4.58h12.3c2.5,0,4.59-2.08,4.59-4.58V99.16c0-2.71-2.09-4.79-4.59-4.79m-47.52,82.75c-17.93,0-30.64-14.59-30.64-32.73s12.72-32.52,30.64-32.52,30.64,14.17,30.64,32.52-12.92,32.73-30.64,32.73m194.27,3.13c2.71,3.34,.42,5.84-1.04,6.88-8.54,6.46-19.8,10.01-32.1,10.01-31.06,0-51.69-22.72-51.69-52.74s20.64-52.95,51.69-52.95c12.3,0,23.55,3.54,32.1,10.01,1.46,1.04,3.54,3.34,1.04,6.88l-5.84,8.13c-2.29,3.13-5,2.29-7.3,.83-5.42-3.34-11.88-6.05-19.39-6.05-18.13,0-30.22,14.59-30.22,33.14s12.09,32.93,30.22,32.93c7.5,0,13.55-2.92,18.97-6.04,2.29-1.25,4.79-2.29,7.3,1.04l6.25,7.92Zm57.95-88.59c-29.18,0-52.53,22.93-52.53,52.74s23.35,52.74,52.53,52.74,52.53-22.72,52.53-52.74-23.35-52.74-52.53-52.74m0,85.25c-17.93,0-30.64-14.38-30.64-32.52s12.71-32.52,30.64-32.52,30.64,14.17,30.64,32.52-12.71,32.52-30.64,32.52M460.31,46.84c2.71,0,4.59,2.29,4.59,4.79V189.62c0,2.5-1.88,4.79-4.59,4.79h-12.3c-2.5,0-4.79-2.29-4.79-4.79V51.63c0-2.5,2.29-4.79,4.79-4.79h12.3"></path>
</svg>
