<?xml version="1.0" encoding="UTF-8"?>
<svg xmlns="http://www.w3.org/2000/svg" width="20" height="21" viewBox="0 0 20 21" fill="none">
  <g clip-path="url(#clip0_692_2980)">
    <path d="M6.25078 18.6858C13.7984 18.6858 17.9258 12.4329 17.9258 7.01081C17.9258 6.8332 17.9221 6.65635 17.9142 6.48042C18.7152 5.90119 19.4117 5.17838 19.961 4.35563C19.2258 4.68247 18.4345 4.90235 17.6046 5.00168C18.4517 4.49356 19.1022 3.69004 19.4089 2.73209C18.6161 3.20206 17.7381 3.54355 16.8033 3.72803C16.0546 2.93045 14.9884 2.43164 13.808 2.43164C11.5421 2.43164 9.70446 4.26926 9.70446 6.53443C9.70446 6.85655 9.74047 7.16966 9.81081 7.4701C6.40046 7.29844 3.37632 5.66575 1.35269 3.18283C1.00037 3.78922 0.797121 4.49372 0.797121 5.24537C0.797121 6.66886 1.52161 7.92573 2.62314 8.6609C1.94992 8.64015 1.3176 8.45536 0.764772 8.14775C0.764162 8.16499 0.764162 8.18177 0.764162 8.20008C0.764162 10.1874 2.1785 11.8466 4.05625 12.2226C3.7114 12.3165 3.34855 12.367 2.97425 12.367C2.71027 12.367 2.45301 12.341 2.20292 12.293C2.72538 13.9234 4.24027 15.1097 6.03624 15.143C4.63181 16.2438 2.86255 16.8994 0.939791 16.8994C0.60898 16.8994 0.282136 16.8805 -0.0390625 16.8427C1.77689 18.0066 3.93342 18.6859 6.25093 18.6859" fill="white"></path>
  </g>
  <defs>
    <clipPath id="clip0_692_2980">
      <rect width="20" height="20" fill="white" transform="translate(0 0.556641)"></rect>
    </clipPath>
  </defs>
</svg>
