<?xml version="1.0" encoding="UTF-8"?>
<svg xmlns="http://www.w3.org/2000/svg" width="20" height="21" viewBox="0 0 20 21" fill="none">
  <g clip-path="url(#clip0_692_2984)">
    <path d="M19.5879 5.75561C19.3574 4.89883 18.6819 4.22348 17.8252 3.99277C16.2602 3.56445 9.99981 3.56445 9.99981 3.56445C9.99981 3.56445 3.73961 3.56445 2.17452 3.97644C1.33438 4.207 0.642392 4.89898 0.411833 5.75561C0 7.32054 0 10.5661 0 10.5661C0 10.5661 0 13.8279 0.411833 15.3765C0.642545 16.2332 1.3179 16.9087 2.17467 17.1394C3.75609 17.5677 9.99996 17.5677 9.99996 17.5677C9.99996 17.5677 16.2602 17.5677 17.8252 17.1557C18.682 16.9251 19.3574 16.2496 19.5881 15.393C19.9999 13.8279 19.9999 10.5826 19.9999 10.5826C19.9999 10.5826 20.0164 7.32054 19.5879 5.75561Z" fill="white"></path>
    <path d="M8.00586 13.565L13.2117 10.5667L8.00586 7.56836V13.565Z" fill="#303030"></path>
  </g>
  <defs>
    <clipPath id="clip0_692_2984">
      <rect width="20" height="20" fill="white" transform="translate(0 0.556641)"></rect>
    </clipPath>
  </defs>
</svg>
